<?xml version="1.0" encoding="UTF-8" standalone="no"?>
<svg
   xmlns:dc="http://purl.org/dc/elements/1.1/"
   xmlns:cc="http://creativecommons.org/ns#"
   xmlns:rdf="http://www.w3.org/1999/02/22-rdf-syntax-ns#"
   xmlns:svg="http://www.w3.org/2000/svg"
   xmlns="http://www.w3.org/2000/svg"
   xmlns:sodipodi="http://sodipodi.sourceforge.net/DTD/sodipodi-0.dtd"
   xmlns:inkscape="http://www.inkscape.org/namespaces/inkscape"
   version="1.0"
   width="827.000000pt"
   height="1000.000000pt"
   viewBox="0 0 827.000000 1000.000000"
   preserveAspectRatio="xMidYMid meet"
   id="svg2"
   sodipodi:docname="galileo-jovian-moons-sketch.svg">
  <defs
     id="defs348" />
  <sodipodi:namedview
     pagecolor="#ffffff"
     bordercolor="#666666"
     borderopacity="1"
     objecttolerance="10"
     gridtolerance="10"
     guidetolerance="10"
     inkscape:pageopacity="0"
     inkscape:pageshadow="2"
     inkscape:window-width="1280"
     inkscape:window-height="998"
     id="namedview346"
     showgrid="false"
     inkscape:zoom="0.37553066"
     inkscape:cx="77.421951"
     inkscape:cy="502.03175"
     inkscape:window-x="0"
     inkscape:window-y="0"
     inkscape:window-maximized="1"
     inkscape:current-layer="svg2" />
  <metadata
     id="metadata4">
Created by potrace 1.11, written by Peter Selinger 2001-2013
<rdf:RDF>
  <cc:Work
     rdf:about="">
    <dc:format>image/svg+xml</dc:format>
    <dc:type
       rdf:resource="http://purl.org/dc/dcmitype/StillImage" />
    <dc:title />
  </cc:Work>
</rdf:RDF>
</metadata>
  <g
     transform="matrix(0.03570411,0,0,-0.03570411,-363.76572,367.5299)"
     id="g6"
     style="fill:#000000;stroke:none">
    <path
       d="m 2525,9850 c -9,-10 -15,-26 -12,-34 7,-18 -11,-25 -88,-37 -33,-6 -73,-12 -90,-15 -26,-4 -33,0 -52,30 -29,45 -58,49 -103,15 -19,-14 -46,-30 -59,-34 -29,-9 -121,-93 -121,-110 0,-7 -7,-18 -15,-25 -21,-18 -33,-70 -23,-101 19,-56 121,-77 144,-30 13,26 166,202 171,197 2,-1 -10,-27 -27,-57 -32,-58 -37,-88 -19,-122 15,-28 28,-37 57,-37 25,0 63,52 61,85 -3,51 1,65 21,65 11,0 38,7 61,16 39,16 41,16 62,-4 l 21,-22 -20,-22 c -28,-31 -84,-117 -84,-128 0,-22 22,-18 61,10 51,37 72,38 111,5 33,-28 46,-30 83,-13 23,10 28,10 36,-5 15,-26 43,-20 68,14 20,26 28,30 63,27 31,-2 42,-8 44,-21 6,-46 50,-61 92,-32 15,11 33,14 56,10 19,-4 43,-2 56,5 18,9 25,8 41,-6 17,-16 20,-16 44,0 21,14 29,15 40,6 9,-8 30,-10 57,-6 24,4 60,8 80,10 24,1 52,14 77,34 22,18 42,32 45,32 3,0 6,-13 6,-30 0,-42 29,-55 77,-35 29,12 43,13 63,5 28,-12 55,-4 99,27 24,18 24,18 17,-10 -11,-44 18,-46 60,-3 30,31 38,35 56,25 11,-6 48,-11 82,-11 33,-1 74,-7 90,-15 27,-14 54,-14 104,2 20,7 22,4 22,-24 0,-18 -5,-41 -10,-52 -11,-20 -40,-27 -40,-9 0,6 -7,10 -15,10 -20,0 -20,-44 0,-60 44,-36 105,35 105,122 0,37 5,60 15,68 17,14 20,46 5,55 -6,4 -31,-12 -56,-35 -51,-47 -77,-49 -81,-6 -4,49 -19,54 -57,17 -30,-29 -38,-32 -87,-29 -51,3 -54,5 -57,31 -2,15 -8,27 -15,27 -6,0 -22,-12 -35,-27 -13,-16 -25,-23 -28,-17 -3,6 -11,20 -20,30 -14,19 -15,19 -27,0 -21,-35 -59,-66 -80,-66 -14,0 -17,4 -12,18 14,32 17,62 8,62 -5,0 -28,-20 -50,-45 -50,-56 -79,-60 -89,-10 -8,42 -25,45 -75,10 -43,-28 -51,-24 -37,17 10,27 13,29 45,23 21,-4 40,-2 49,6 22,18 17,32 -11,25 -30,-8 -33,6 -6,25 28,20 32,55 6,51 -47,-9 -121,-7 -133,2 -17,12 -40,-11 -44,-44 -4,-33 30,-40 52,-10 15,20 19,21 41,9 l 24,-14 -25,-3 c -30,-5 -52,-21 -44,-33 3,-5 -1,-25 -8,-45 -15,-41 -62,-74 -107,-74 -26,0 -31,4 -31,23 0,25 -17,47 -37,47 -7,0 -30,-16 -52,-35 -50,-45 -98,-49 -103,-8 -5,39 -23,39 -47,-2 -23,-39 -46,-42 -46,-7 -1,33 -19,46 -44,32 -12,-6 -36,-8 -57,-4 -28,5 -34,11 -32,27 5,32 -16,30 -51,-4 -39,-37 -95,-62 -122,-54 -24,8 -24,17 1,40 23,21 25,38 6,54 -20,17 -64,-3 -76,-34 -5,-14 -16,-25 -25,-25 -21,0 -19,13 5,35 28,25 25,46 -10,80 l -30,29 -78,-18 c -42,-10 -83,-20 -89,-22 -8,-2 -13,-21 -13,-48 0,-53 -8,-76 -25,-76 -21,0 -25,27 -10,69 37,106 60,123 193,147 75,13 106,31 118,66 6,21 -11,48 -31,48 -6,0 -20,-9 -30,-20 z m -300,-117 c -10,-16 -28,-42 -41,-60 -13,-17 -24,-35 -24,-39 0,-19 -96,-104 -116,-104 -54,0 -20,105 59,188 37,38 46,42 90,42 l 49,0 -17,-27 z"
       id="path8"
       inkscape:connector-curvature="0" />
    <path
       d="m 4660,9745 c -7,-8 -30,-25 -52,-37 -62,-35 -139,-188 -95,-188 7,0 24,23 37,52 22,49 84,128 100,128 11,0 -3,-58 -23,-97 -11,-20 -22,-30 -31,-27 -8,3 -17,0 -22,-7 -4,-7 -2,-15 4,-17 7,-2 12,-10 12,-18 0,-22 -69,-92 -93,-96 -14,-2 -22,-10 -22,-23 0,-31 38,-30 83,2 76,53 171,297 129,331 -11,10 -17,9 -27,-3 z"
       id="path10"
       inkscape:connector-curvature="0" />
    <path
       d="m 3567,9714 c -4,-4 -7,-16 -7,-26 0,-15 6,-19 28,-16 19,2 27,9 27,23 0,20 -33,33 -48,19 z"
       id="path12"
       inkscape:connector-curvature="0" />
    <path
       d="m 5200,9605 c -14,-16 -5,-35 16,-35 15,0 20,35 5,44 -5,3 -14,-1 -21,-9 z"
       id="path14"
       inkscape:connector-curvature="0" />
    <path
       d="m 4730,9571 c -30,-57 5,-96 80,-89 27,3 50,2 50,-2 0,-4 -10,-19 -21,-34 -15,-19 -18,-31 -11,-38 15,-15 46,-5 50,17 2,11 10,27 18,36 8,9 12,23 9,31 -4,9 6,29 21,47 20,25 24,35 15,44 -9,9 -17,5 -34,-15 -29,-34 -58,-48 -99,-48 l -33,1 24,19 c 32,27 21,50 -23,50 -25,0 -38,-6 -46,-19 z"
       id="path16"
       inkscape:connector-curvature="0" />
    <path
       d="m 5242,9563 c -6,-10 -13,-32 -16,-50 -8,-35 -19,-47 -55,-58 -22,-7 -23,-6 -16,34 5,33 4,41 -8,41 -8,0 -17,-7 -21,-15 -8,-21 -26,-19 -26,3 0,34 -13,32 -57,-9 -46,-42 -63,-43 -63,-3 0,28 -11,31 -33,7 -13,-16 -14,-22 -2,-51 19,-43 38,-49 75,-22 38,27 75,21 84,-15 7,-28 22,-31 60,-14 19,9 29,9 39,1 8,-7 52,-11 109,-11 76,0 100,4 124,20 35,23 44,24 44,4 0,-21 27,-30 45,-15 10,9 15,9 15,1 0,-6 14,-11 30,-11 37,0 38,-12 5,-65 -28,-46 -31,-68 -10,-85 12,-10 18,-10 30,0 9,7 14,19 11,27 -3,8 -2,21 3,31 5,9 12,25 15,35 4,11 16,17 38,17 54,0 78,11 84,36 13,51 -41,71 -89,34 -31,-25 -55,-25 -85,-2 l -23,18 21,26 c 11,15 30,28 42,30 28,4 47,33 31,49 -18,18 -47,2 -74,-41 -27,-45 -44,-52 -37,-16 9,48 -10,54 -45,15 -40,-45 -95,-75 -110,-60 -7,7 -6,15 3,25 17,22 5,46 -23,46 -14,0 -39,3 -56,6 -26,6 -30,10 -25,30 7,29 -20,34 -34,7 z m 43,-87 c -34,-27 -40,-27 -30,3 4,14 15,21 33,21 l 27,0 -30,-24 z"
       id="path18"
       inkscape:connector-curvature="0" />
    <path
       d="m 3746,9400 c -52,-16 -95,-54 -112,-96 -22,-58 -8,-84 47,-84 33,0 41,4 51,26 10,20 9,30 -5,54 -17,28 -17,29 5,44 12,9 48,21 80,27 35,7 57,16 55,23 -4,14 -82,18 -121,6 z"
       id="path20"
       inkscape:connector-curvature="0" />
    <path
       d="m 3595,9361 c -7,-12 12,-24 25,-16 11,7 4,25 -10,25 -5,0 -11,-4 -15,-9 z"
       id="path22"
       inkscape:connector-curvature="0" />
    <path
       d="m 1962,9338 c 2,-12 10,-23 18,-23 22,0 19,39 -3,43 -15,3 -18,-1 -15,-20 z"
       id="path24"
       inkscape:connector-curvature="0" />
    <path
       d="m 3960,9344 c 0,-8 5,-12 10,-9 6,3 10,10 10,16 0,5 -4,9 -10,9 -5,0 -10,-7 -10,-16 z"
       id="path26"
       inkscape:connector-curvature="0" />
    <path
       d="m 962,9317 c -12,-13 -22,-29 -22,-35 0,-7 -7,-24 -16,-37 -8,-13 -18,-52 -20,-87 -4,-48 -10,-67 -26,-81 -16,-13 -24,-15 -35,-6 -11,10 -11,15 2,35 13,21 14,24 1,24 -17,0 -56,-38 -56,-55 0,-19 45,-55 68,-55 12,0 33,12 47,27 23,25 31,65 27,128 -1,6 9,30 21,55 15,30 29,46 45,48 31,5 30,-33 -4,-104 -15,-33 -23,-62 -19,-74 10,-30 19,-24 44,28 12,26 28,58 36,72 46,79 -34,180 -93,117 z"
       id="path28"
       inkscape:connector-curvature="0" />
    <path
       d="m 3491,9296 c -16,-64 -14,-89 9,-114 24,-26 33,-27 49,-8 10,12 9,20 -4,40 -12,18 -15,36 -11,60 14,72 -25,92 -43,22 z"
       id="path30"
       inkscape:connector-curvature="0" />
    <path
       d="m 1238,9306 c -51,-27 -82,-68 -74,-101 4,-16 14,-25 26,-25 16,0 19,5 14,29 -5,24 -1,31 32,51 34,22 41,23 92,12 66,-14 70,-17 50,-39 -33,-38 -78,-152 -78,-199 0,-28 43,-67 67,-60 19,6 43,49 43,77 0,17 27,45 35,37 3,-3 -2,-21 -10,-41 -21,-51 -2,-57 43,-14 31,29 42,34 69,30 19,-3 35,-12 38,-23 6,-20 32,-33 46,-24 12,7 11,38 -2,51 -8,8 -8,17 1,32 9,17 8,22 -6,28 -9,3 -25,1 -35,-5 -23,-15 -104,-5 -120,14 -15,18 -34,18 -49,-1 -7,-8 -23,-15 -36,-15 -25,0 -32,-18 -13,-37 16,-16 7,-57 -15,-61 -17,-4 -18,1 -13,47 8,67 46,130 97,159 83,47 39,78 -133,95 -16,2 -46,-6 -69,-17 z"
       id="path32"
       inkscape:connector-curvature="0" />
    <path
       d="m 3844,9308 c 4,-12 7,-35 7,-49 -2,-38 22,-54 62,-42 27,7 38,5 66,-14 22,-15 42,-21 55,-17 32,10 66,45 66,69 0,29 -28,65 -50,65 -27,0 -35,-18 -16,-38 9,-11 12,-23 7,-31 -12,-18 -47,-9 -43,11 4,26 -16,31 -54,13 -20,-9 -37,-15 -38,-13 -1,1 -6,17 -12,33 -6,20 -17,31 -33,33 -21,3 -23,1 -17,-20 z"
       id="path34"
       inkscape:connector-curvature="0" />
    <path
       d="m 1684,9246 c -8,-22 3,-49 19,-43 6,2 12,14 12,27 0,27 -22,39 -31,16 z"
       id="path36"
       inkscape:connector-curvature="0" />
    <path
       d="m 540,9185 c -19,-14 -40,-25 -47,-25 -17,0 -17,-39 0,-46 7,-2 33,4 58,15 79,36 90,24 34,-38 -38,-42 -43,-62 -20,-81 17,-14 37,-15 117,-7 34,4 60,2 63,-3 4,-6 10,-8 14,-6 12,8 1,64 -13,69 -12,5 -68,-4 -114,-19 l -23,-7 26,38 c 35,53 40,80 21,110 -22,33 -69,33 -116,0 z"
       id="path38"
       inkscape:connector-curvature="0" />
    <path
       d="m 1723,9115 c -42,-41 -45,-48 -39,-81 6,-27 2,-44 -14,-71 -24,-41 -20,-63 10,-63 34,0 60,56 57,122 -2,67 7,79 59,81 20,1 39,7 41,12 3,10 -46,45 -62,45 -4,0 -28,-20 -52,-45 z"
       id="path40"
       inkscape:connector-curvature="0" />
    <path
       d="m 1210,9102 c -49,-33 -53,-61 -13,-98 l 26,-24 -22,-45 c -24,-49 -32,-92 -16,-97 5,-2 15,8 21,22 84,173 96,216 69,243 -20,21 -33,21 -65,-1 z m 38,-39 c -2,-10 -10,-18 -18,-18 -8,0 -16,8 -18,18 -2,12 3,17 18,17 15,0 20,-5 18,-17 z"
       id="path42"
       inkscape:connector-curvature="0" />
    <path
       d="m 1045,9080 c -8,-12 20,-24 35,-15 5,3 10,10 10,16 0,12 -37,12 -45,-1 z"
       id="path44"
       inkscape:connector-curvature="0" />
    <path
       d="m 1797,9023 c -12,-11 -8,-23 8,-23 8,0 15,7 15,15 0,16 -12,20 -23,8 z"
       id="path46"
       inkscape:connector-curvature="0" />
    <path
       d="m 1417,8870 c -8,-20 -18,-30 -33,-30 -30,0 -68,-33 -88,-75 -9,-19 -23,-35 -31,-35 -22,0 -67,22 -92,43 -19,17 -25,18 -39,6 -14,-11 -17,-11 -25,4 -14,24 -30,21 -67,-13 -38,-35 -62,-38 -69,-11 -8,29 -78,39 -105,14 -20,-18 -21,-17 -53,20 -28,32 -34,35 -45,22 -19,-23 -30,-18 -30,13 0,35 -9,45 -27,30 -10,-8 -17,-7 -27,7 -8,11 -20,16 -30,12 -22,-9 -32,-37 -16,-47 10,-6 6,-15 -14,-35 -15,-15 -25,-33 -22,-41 9,-22 42,-16 60,11 24,37 40,32 32,-10 -6,-28 -3,-37 10,-42 12,-4 22,0 28,11 29,48 29,48 61,32 17,-9 36,-16 43,-16 6,0 12,-7 12,-15 0,-20 46,-30 65,-15 12,10 21,10 44,0 25,-10 35,-8 70,9 39,20 41,20 41,3 0,-10 -5,-23 -11,-29 -13,-13 -4,-33 15,-33 7,0 26,18 41,40 31,45 32,45 59,25 11,-8 36,-15 56,-15 29,0 43,-7 69,-35 17,-19 38,-35 46,-35 27,0 27,23 0,45 l -29,22 51,33 c 77,50 127,139 87,154 -24,9 -25,8 -37,-24 z m 3,-47 c 0,-10 -42,-53 -52,-53 -14,0 -9,28 8,44 16,16 44,22 44,9 z"
       id="path48"
       inkscape:connector-curvature="0" />
    <path
       d="m 1552,8858 c -22,-28 -61,-116 -73,-165 -14,-58 -4,-83 33,-83 18,0 20,4 13,46 -7,47 4,74 31,74 10,0 14,-13 14,-39 0,-47 27,-86 50,-71 12,8 13,13 3,30 -19,29 -17,40 22,116 33,67 34,93 1,81 -8,-3 -22,-22 -31,-41 -10,-21 -25,-36 -34,-36 -28,0 -31,10 -16,41 24,46 15,80 -13,47 z"
       id="path50"
       inkscape:connector-curvature="0" />
    <path
       d="m 2914,8840 c -30,-12 -91,-86 -97,-118 -7,-31 27,-154 46,-170 6,-6 24,-13 40,-17 29,-8 34,2 17,35 -5,11 -14,29 -20,40 -12,23 -13,120 -2,136 12,18 44,32 94,39 42,6 50,4 72,-18 35,-35 49,-91 31,-133 -15,-35 -33,-48 -83,-57 -33,-7 -69,-33 -59,-43 13,-13 138,9 163,28 70,55 58,201 -21,252 -13,8 -52,20 -87,26 -72,11 -67,11 -94,0 z"
       id="path52"
       inkscape:connector-curvature="0" />
    <path
       d="m 1816,8785 c -19,-49 3,-139 32,-133 14,3 16,12 14,46 -7,82 -30,127 -46,87 z"
       id="path54"
       inkscape:connector-curvature="0" />
    <path
       d="m 1927,8772 c -20,-22 -22,-43 -5,-60 18,-18 28,-15 38,11 l 9,22 0,-23 c 1,-13 -4,-32 -9,-42 -8,-15 -5,-22 12,-34 27,-19 72,-21 87,-3 12,15 -3,37 -27,37 -9,0 -13,10 -12,28 3,45 1,49 -34,66 -42,20 -39,20 -59,-2 z"
       id="path56"
       inkscape:connector-curvature="0" />
    <path
       d="m 3386,8755 c -9,-13 -16,-31 -16,-38 0,-8 -9,-17 -20,-20 -24,-6 -27,-37 -4,-37 11,0 14,-6 9,-20 -8,-25 11,-27 37,-3 18,16 19,16 25,-5 6,-24 33,-31 33,-8 0,7 10,20 21,28 20,13 21,17 10,51 -7,20 -19,37 -26,37 -8,0 -19,9 -25,20 -14,26 -24,25 -44,-5 z"
       id="path58"
       inkscape:connector-curvature="0" />
    <path
       d="m 3667,8743 c -4,-3 -7,-19 -7,-35 0,-18 -5,-28 -15,-28 -8,0 -15,-7 -15,-15 0,-8 7,-15 15,-15 13,0 13,-3 3,-20 -16,-25 -3,-38 22,-22 26,16 30,15 30,-4 0,-10 7,-14 23,-12 18,2 22,8 19,36 -2,26 2,32 17,32 11,0 23,5 26,10 3,6 1,10 -6,10 -7,0 -9,8 -6,21 11,42 -22,66 -51,37 -9,-9 -15,-9 -24,0 -14,14 -22,15 -31,5 z"
       id="path60"
       inkscape:connector-curvature="0" />
    <path
       d="m 1670,8711 c 0,-21 29,-36 42,-23 6,6 3,16 -7,26 -22,21 -35,20 -35,-3 z"
       id="path62"
       inkscape:connector-curvature="0" />
    <path
       d="m 493,8437 c -3,-5 -1,-13 5,-19 9,-9 212,-35 347,-43 39,-3 111,-9 160,-14 131,-13 296,-11 405,4 90,12 150,12 355,-1 50,-3 140,-7 200,-9 61,-2 214,-9 340,-15 127,-6 320,-13 430,-15 110,-2 252,-9 315,-14 63,-6 191,-13 285,-17 93,-3 172,-7 175,-9 7,-4 325,-25 445,-29 55,-2 111,-8 126,-14 34,-14 368,-17 719,-8 258,7 441,7 495,1 114,-14 322,-16 1210,-16 622,0 984,-4 1008,-10 32,-9 42,-7 58,7 14,13 16,21 8,36 -8,15 -17,18 -41,13 -17,-4 -153,-7 -302,-6 -149,1 -278,2 -286,2 -8,0 -76,1 -150,1 -74,1 -162,0 -195,-2 -79,-5 -170,-5 -280,-2 -49,2 -198,0 -330,-4 -132,-3 -251,-7 -265,-7 -14,0 -86,3 -160,7 -278,14 -319,16 -469,21 -97,3 -159,1 -167,-6 -8,-6 -32,-6 -70,0 -33,5 -66,6 -74,2 -8,-4 -118,-3 -245,1 -219,7 -377,9 -420,7 -26,-2 -353,20 -385,25 -32,5 -195,16 -335,21 -231,9 -333,15 -420,26 -49,6 -157,9 -240,6 -99,-3 -179,0 -235,9 -47,7 -158,13 -246,13 -89,0 -179,4 -202,10 -22,6 -98,11 -169,10 -70,-1 -219,-1 -330,0 -111,1 -212,-3 -225,-7 -13,-5 -39,-7 -58,-5 -19,2 -61,0 -93,-5 -36,-6 -91,-6 -140,0 -89,10 -242,24 -352,33 -38,3 -86,11 -105,17 -42,14 -90,16 -97,5 z"
       id="path64"
       inkscape:connector-curvature="0" />
    <path
       d="m 1700,8269 c 0,-6 -30,-39 -66,-73 l -67,-63 -61,13 c -67,14 -82,10 -51,-12 33,-25 113,-44 139,-34 54,20 148,143 131,170 -8,13 -25,13 -25,-1 z"
       id="path66"
       inkscape:connector-curvature="0" />
    <path
       d="m 705,8182 c -46,-28 -58,-47 -46,-70 6,-11 17,-22 26,-26 8,-3 15,-14 15,-24 0,-10 11,-29 25,-42 14,-13 25,-27 25,-32 0,-5 -25,-20 -56,-34 -54,-24 -63,-38 -33,-57 20,-12 110,43 129,79 14,24 13,28 -13,50 -33,28 -33,36 -4,67 12,13 30,34 41,47 18,23 18,23 -5,41 -31,24 -66,24 -104,1 z m 33,-37 c -10,-23 -28,-34 -28,-18 0,7 31,43 36,43 2,0 -2,-11 -8,-25 z"
       id="path68"
       inkscape:connector-curvature="0" />
    <path
       d="m 2082,8145 c 3,-14 5,-25 4,-25 -1,0 -26,-9 -55,-20 -64,-23 -101,-55 -101,-87 0,-15 -6,-23 -17,-23 -27,0 -39,12 -47,43 -6,27 -29,36 -41,17 -10,-17 -25,-11 -25,10 0,28 -34,26 -74,-5 -37,-28 -56,-32 -56,-11 0,41 -102,46 -115,5 -9,-28 -25,-23 -38,11 -13,35 -27,38 -52,10 -22,-24 -38,-25 -56,-4 -8,10 -21,13 -37,9 -18,-4 -28,0 -43,20 -16,20 -26,24 -47,19 -32,-8 -59,-30 -48,-41 4,-4 16,-2 26,5 43,27 45,21 24,-79 -9,-42 14,-45 52,-8 37,36 50,35 35,-4 -11,-29 -6,-37 25,-37 15,0 29,12 43,35 11,19 24,35 30,35 18,0 59,-26 82,-54 20,-22 29,-26 52,-21 16,4 27,14 27,24 0,12 15,20 53,29 77,18 78,18 75,-30 -3,-37 0,-43 17,-43 13,0 22,10 29,33 10,36 18,39 36,17 7,-8 27,-15 44,-15 21,0 36,-7 44,-21 9,-14 21,-19 39,-17 33,4 42,27 14,35 -26,7 -26,13 0,57 13,23 31,38 48,42 14,3 37,8 51,10 69,15 84,104 17,104 -15,0 -18,-5 -15,-25 z"
       id="path70"
       inkscape:connector-curvature="0" />
    <path
       d="m 944,8119 c -4,-8 1,-18 14,-27 12,-8 22,-20 22,-28 0,-19 -40,-44 -72,-44 -23,0 -28,4 -28,24 0,14 4,36 10,50 12,32 0,33 -28,3 -41,-44 -19,-117 36,-117 40,0 99,30 111,57 10,21 8,31 -7,57 -20,33 -45,45 -58,25 z"
       id="path72"
       inkscape:connector-curvature="0" />
    <path
       d="m 3576,8092 c -60,-22 -122,-86 -131,-136 -9,-47 13,-114 46,-138 73,-55 196,-20 254,72 34,53 39,98 18,139 -36,70 -104,92 -187,63 z m 113,-27 c 35,-18 55,-64 47,-107 -9,-46 -87,-125 -131,-134 -70,-13 -107,17 -118,94 -4,36 -1,47 21,74 32,38 109,88 134,88 11,0 32,-7 47,-15 z"
       id="path74"
       inkscape:connector-curvature="0" />
    <path
       d="m 2880,8015 c -6,-16 -14,-23 -25,-19 -9,4 -15,0 -15,-9 0,-9 9,-19 20,-22 11,-3 20,-10 20,-15 0,-5 -9,-14 -20,-20 -11,-6 -20,-17 -20,-25 0,-18 12,-19 27,-4 8,8 17,8 31,0 30,-16 42,-14 42,9 0,15 7,20 24,20 34,0 39,13 19,49 -11,19 -26,31 -39,31 -12,0 -24,7 -28,15 -8,23 -25,18 -36,-10 z"
       id="path76"
       inkscape:connector-curvature="0" />
    <path
       d="m 3177,8033 c -4,-3 -7,-17 -7,-30 0,-15 -8,-27 -23,-32 -13,-5 -29,-16 -36,-25 -20,-24 10,-32 49,-13 35,18 37,14 10,-20 -11,-14 -17,-29 -15,-33 8,-13 83,23 89,43 2,9 13,17 24,17 29,0 39,20 13,27 -16,4 -19,11 -14,34 4,24 2,29 -14,29 -10,0 -24,-5 -31,-12 -9,-9 -13,-7 -18,5 -6,18 -16,21 -27,10 z"
       id="path78"
       inkscape:connector-curvature="0" />
    <path
       d="m 1061,8006 c -14,-17 22,-66 49,-66 30,0 33,17 9,50 -25,33 -40,37 -58,16 z"
       id="path80"
       inkscape:connector-curvature="0" />
    <path
       d="m 4606,7965 c -6,-17 -51,-20 -61,-5 -9,15 -45,12 -45,-4 0,-8 5,-18 10,-21 23,-14 7,-25 -35,-25 -33,0 -45,-4 -45,-15 0,-9 9,-15 25,-15 30,0 31,-5 5,-32 -29,-31 -13,-42 27,-17 25,16 37,19 46,10 6,-6 19,-11 29,-11 13,0 18,8 18,29 0,27 3,30 38,33 35,3 53,22 22,24 -31,2 -33,4 -16,23 10,11 15,25 11,30 -9,15 -22,14 -29,-4 z"
       id="path82"
       inkscape:connector-curvature="0" />
    <path
       d="m 2028,7785 c -2,-1 -68,-5 -148,-9 -80,-3 -208,-9 -285,-14 -77,-4 -225,-6 -330,-4 -104,3 -217,5 -250,5 -84,2 -424,-13 -457,-19 -16,-3 -28,-9 -28,-14 0,-14 115,-16 300,-7 96,6 189,9 205,9 117,-4 665,-2 685,3 48,11 425,14 515,5 50,-5 178,-16 285,-25 107,-8 201,-17 208,-20 7,-2 97,-7 200,-11 103,-3 246,-9 317,-13 152,-9 911,-5 1100,5 72,4 162,8 200,9 39,1 156,6 260,10 105,4 262,8 350,8 360,0 402,0 460,-2 33,-1 263,-4 510,-6 248,-3 482,-9 520,-15 39,-5 106,-9 150,-8 44,1 121,1 170,0 50,0 131,-1 180,0 50,0 157,-3 239,-7 368,-18 499,-15 494,14 -3,14 -27,16 -183,18 -829,11 -996,15 -1035,23 -25,5 -213,10 -420,9 -206,0 -505,3 -665,6 -411,9 -401,9 -610,1 -104,-4 -197,-8 -205,-7 -8,0 -107,-5 -220,-11 -232,-12 -1586,-18 -1640,-7 -19,4 -71,10 -115,13 -44,3 -105,10 -135,15 -30,5 -100,12 -155,15 -55,3 -145,10 -200,15 -118,12 -262,20 -267,16 z"
       id="path84"
       inkscape:connector-curvature="0" />
    <path
       d="m 430,7730 c 0,-5 15,-10 34,-10 19,0 38,5 41,10 4,6 -10,10 -34,10 -23,0 -41,-4 -41,-10 z"
       id="path86"
       inkscape:connector-curvature="0" />
    <path
       d="m 1450,7698 c -25,-4 -74,-12 -110,-17 -150,-23 -325,-76 -351,-107 -18,-22 5,-43 29,-26 15,11 63,34 127,62 28,12 166,41 174,36 3,-2 42,4 86,13 53,11 102,15 144,12 l 65,-6 -71,-51 c -51,-38 -76,-64 -92,-98 -30,-62 -37,-115 -17,-141 14,-19 17,-19 43,-5 50,28 56,99 10,108 -14,3 -16,-2 -11,-26 6,-29 -9,-52 -21,-32 -16,25 18,95 71,147 30,29 60,53 65,53 6,0 22,9 36,20 14,11 36,20 49,20 28,0 38,14 21,28 -15,13 -188,20 -247,10 z"
       id="path88"
       inkscape:connector-curvature="0" />
    <path
       d="m 745,7572 c -24,-3 -56,-20 -94,-49 -2,-1 2,-10 9,-18 10,-12 24,-15 54,-10 41,6 41,6 19,-12 -12,-10 -34,-26 -48,-36 -31,-22 -32,-33 -2,-48 29,-16 189,-13 199,4 14,23 -21,42 -77,41 -51,0 -53,1 -27,12 37,15 60,67 42,90 -19,22 -41,30 -75,26 z"
       id="path90"
       inkscape:connector-curvature="0" />
    <path
       d="m 1335,7506 -69,-45 -40,30 c -22,16 -46,29 -53,29 -18,0 -81,-42 -88,-58 -9,-23 25,-25 49,-3 29,27 42,27 62,-4 15,-23 14,-26 -10,-57 -14,-18 -37,-44 -51,-57 -30,-28 -32,-47 -6,-61 30,-15 50,-2 61,41 16,59 44,80 94,72 93,-16 125,1 64,33 -30,16 -31,18 -14,28 11,6 36,25 55,43 26,22 33,35 25,43 -7,7 -30,-2 -79,-34 z"
       id="path92"
       inkscape:connector-curvature="0" />
    <path
       d="m 1562,7500 c -26,-11 -21,-30 9,-30 16,0 19,-5 15,-32 -3,-18 -8,-43 -11,-55 -6,-20 -4,-23 18,-23 16,0 38,15 66,45 l 42,46 18,-22 c 25,-31 54,-19 45,18 -18,75 -40,80 -94,22 l -37,-41 1,38 c 1,35 -2,39 -24,41 -14,1 -35,-2 -48,-7 z"
       id="path94"
       inkscape:connector-curvature="0" />
    <path
       d="m 3094,7486 c -17,-9 -46,-39 -68,-73 -35,-54 -37,-62 -31,-109 5,-39 14,-59 38,-84 54,-55 72,-63 124,-55 38,5 54,15 85,48 34,37 38,39 38,19 0,-40 25,-23 48,33 12,31 22,62 22,70 0,28 -43,100 -75,128 -40,33 -132,45 -181,23 z m 134,-42 c 23,-9 38,-26 52,-56 11,-24 20,-49 20,-56 0,-19 -117,-135 -129,-127 -7,4 -6,14 1,30 14,31 4,43 -22,27 -41,-25 -84,-13 -106,31 -30,57 14,146 82,167 31,9 49,6 102,-16 z"
       id="path96"
       inkscape:connector-curvature="0" />
    <path
       d="m 1835,7480 c -8,-13 3,-30 20,-30 14,0 27,24 18,34 -10,9 -31,7 -38,-4 z"
       id="path98"
       inkscape:connector-curvature="0" />
    <path
       d="m 900,7456 c 0,-8 6,-16 13,-18 20,-8 36,2 30,18 -7,18 -43,18 -43,0 z"
       id="path100"
       inkscape:connector-curvature="0" />
    <path
       d="m 1780,7395 c -9,-11 -10,-19 -3,-26 17,-17 48,-6 48,16 0,25 -28,31 -45,10 z"
       id="path102"
       inkscape:connector-curvature="0" />
    <path
       d="m 3525,7399 c -4,-5 1,-19 10,-29 17,-18 16,-20 -6,-29 -13,-5 -32,-12 -41,-15 -24,-7 -23,-26 2,-26 13,0 20,-7 20,-20 0,-23 12,-25 41,-7 18,10 23,9 40,-12 24,-30 48,-16 30,17 -15,28 -14,32 8,32 10,0 24,7 31,16 11,13 10,16 -8,21 -26,6 -26,7 -10,33 15,24 3,38 -20,22 -32,-23 -43,-24 -61,-8 -21,19 -27,20 -36,5 z"
       id="path104"
       inkscape:connector-curvature="0" />
    <path
       d="m 3824,7385 c -4,-8 -1,-22 6,-31 10,-11 10,-18 2,-26 -8,-8 -7,-15 6,-24 14,-10 15,-15 5,-25 -18,-18 -16,-32 2,-25 8,3 31,-3 51,-14 19,-11 39,-18 45,-15 14,9 11,41 -6,55 -24,20 -18,30 14,24 38,-8 47,10 16,30 -14,9 -23,21 -20,26 14,22 -7,31 -32,14 -21,-13 -27,-14 -34,-3 -5,8 -9,17 -9,22 0,14 -41,7 -46,-8 z"
       id="path106"
       inkscape:connector-curvature="0" />
    <path
       d="m 4797,7353 c -4,-3 -7,-22 -7,-40 0,-31 -2,-34 -27,-31 -35,4 -39,-25 -5,-30 27,-4 28,-12 1,-46 -19,-24 -19,-27 -3,-33 12,-4 25,4 44,27 18,22 29,29 34,22 4,-7 16,-12 27,-12 14,0 19,7 19,25 0,18 7,26 25,31 35,9 21,25 -15,17 -34,-6 -36,-2 -14,33 13,20 14,28 5,37 -10,9 -15,8 -25,-5 -16,-22 -26,-23 -26,-3 0,15 -21,21 -33,8 z"
       id="path108"
       inkscape:connector-curvature="0" />
    <path
       d="m 393,7013 c -3,-8 -3,-16 0,-19 7,-7 373,-8 452,-2 33,3 103,-1 155,-8 52,-8 156,-14 230,-14 74,0 185,-5 245,-12 164,-17 516,-9 920,21 61,4 144,5 185,1 101,-9 1384,-5 1399,4 21,13 2,24 -46,25 -50,2 -86,2 -668,-1 -331,-1 -498,3 -710,18 -44,3 -132,0 -195,-7 -63,-6 -131,-13 -150,-15 -127,-12 -636,-15 -730,-4 -120,14 -138,14 -275,8 -55,-3 -125,-1 -155,5 -30,5 -189,10 -354,11 -242,2 -299,0 -303,-11 z"
       id="path110"
       inkscape:connector-curvature="0" />
    <path
       d="m 4105,7020 c -11,-5 -39,-9 -62,-9 -32,-1 -43,-5 -43,-17 0,-14 17,-15 158,-8 86,4 162,6 167,6 11,-2 726,-13 920,-14 66,-1 255,0 420,2 165,2 332,0 370,-4 218,-21 384,-33 490,-35 66,-1 145,-4 175,-6 53,-4 708,-15 1033,-17 105,0 162,3 170,11 24,24 -8,30 -106,20 -54,-5 -102,-7 -107,-4 -26,16 -224,21 -630,16 -129,-2 -262,0 -295,3 -33,4 -163,11 -290,17 -126,5 -248,11 -270,13 -325,28 -279,27 -950,23 -159,-1 -479,1 -710,5 -235,4 -429,3 -440,-2 z"
       id="path112"
       inkscape:connector-curvature="0" />
    <path
       d="m 735,6778 c -56,-10 -74,-23 -59,-38 7,-7 28,-7 64,0 29,6 56,8 58,5 3,-3 -7,-18 -22,-34 -35,-36 -31,-64 9,-71 62,-11 37,-63 -55,-113 -23,-13 -30,-21 -23,-28 17,-17 68,-1 117,37 40,31 46,40 46,73 0,28 -7,43 -25,59 -24,21 -25,24 -10,44 19,28 19,43 -1,62 -17,18 -26,18 -99,4 z"
       id="path114"
       inkscape:connector-curvature="0" />
    <path
       d="m 3095,6756 c -30,-13 -49,-31 -70,-66 -39,-66 -47,-87 -48,-129 -2,-37 4,-53 28,-84 44,-57 83,-70 181,-62 101,8 132,26 174,100 38,66 37,113 -1,169 -27,40 -59,55 -142,66 -35,5 -70,12 -78,14 -8,3 -28,-1 -44,-8 z m 120,-37 c 68,-12 112,-39 127,-78 15,-37 12,-59 -14,-109 -33,-65 -55,-76 -141,-69 -94,7 -122,21 -147,72 -25,52 -25,65 1,120 36,76 61,85 174,64 z"
       id="path116"
       inkscape:connector-curvature="0" />
    <path
       d="m 1937,6754 c -4,-4 -7,-17 -7,-29 0,-23 -30,-35 -84,-35 -12,0 -33,-14 -47,-32 l -27,-32 -51,28 c -42,22 -55,25 -66,16 -12,-10 -16,-9 -21,4 -8,21 -20,20 -45,-5 -15,-15 -27,-19 -42,-14 -43,15 -80,8 -101,-16 -26,-31 -52,-26 -72,13 -14,28 -19,30 -52,23 -41,-8 -45,-8 -116,1 -56,7 -66,-1 -66,-58 0,-46 17,-50 31,-8 7,20 18,30 31,30 17,0 19,-6 16,-37 -3,-33 0,-38 20,-41 29,-4 52,14 52,42 0,25 17,46 37,46 7,0 13,-11 13,-25 0,-28 32,-49 62,-42 11,3 27,-2 39,-14 27,-27 42,-24 94,21 25,22 51,40 57,40 6,0 7,-18 3,-50 -6,-42 -4,-50 10,-50 9,0 24,17 35,42 12,27 26,43 40,45 25,4 100,-51 100,-72 0,-8 5,-17 11,-21 18,-11 34,15 31,51 -5,53 12,75 58,75 51,0 102,41 98,79 -3,25 -26,39 -41,25 z"
       id="path118"
       inkscape:connector-curvature="0" />
    <path
       d="m 964,6655 c -11,-28 59,-82 85,-66 9,6 6,15 -13,36 -14,15 -26,32 -26,36 0,15 -40,10 -46,-6 z"
       id="path120"
       inkscape:connector-curvature="0" />
    <path
       d="m 3857,6633 c -4,-3 -7,-17 -7,-29 0,-17 -7,-23 -27,-26 -41,-5 -39,-25 4,-33 38,-7 38,-7 16,-22 -13,-9 -23,-22 -23,-29 0,-16 16,-19 25,-4 9,14 45,12 46,-2 1,-7 2,-22 3,-32 1,-28 23,-31 36,-5 9,16 9,27 0,45 -19,34 -6,54 35,54 38,0 48,18 15,27 -21,6 -27,28 -10,38 16,10 12,25 -7,25 -10,0 -26,-14 -35,-31 -20,-34 -38,-31 -38,7 0,23 -18,32 -33,17 z"
       id="path122"
       inkscape:connector-curvature="0" />
    <path
       d="m 4336,6604 c -3,-8 -3,-27 1,-41 5,-22 3,-25 -10,-20 -9,3 -19,2 -23,-4 -3,-6 3,-13 15,-16 26,-7 26,-11 0,-39 -24,-25 -18,-50 8,-35 12,6 21,3 34,-13 23,-28 43,-9 44,42 0,38 -1,37 58,41 24,1 22,32 -3,38 -14,4 -19,11 -15,23 3,9 -1,23 -9,29 -12,10 -17,9 -28,-8 -16,-26 -25,-26 -33,-1 -8,24 -30,26 -39,4 z"
       id="path124"
       inkscape:connector-curvature="0" />
    <path
       d="m 415,6289 c -4,-6 -5,-12 -2,-15 2,-3 53,-7 113,-10 59,-3 126,-9 149,-14 22,-4 83,-9 135,-10 52,-1 124,-5 160,-8 36,-4 88,-6 115,-5 181,6 1314,8 1465,1 102,-4 365,-7 585,-6 220,1 418,1 440,1 22,0 126,0 230,0 105,0 208,-1 230,-1 401,-9 876,-14 970,-11 66,2 183,3 260,2 653,-7 1364,-12 1970,-14 644,-2 720,0 723,14 2,8 -2,18 -8,22 -13,8 -429,8 -835,0 -257,-5 -504,-5 -620,0 -77,4 -225,5 -550,5 -143,0 -332,3 -420,7 -88,4 -236,6 -330,4 -93,-2 -206,-4 -250,-4 -44,-1 -258,2 -475,6 -217,5 -442,7 -500,6 -58,-1 -114,-2 -125,-2 -16,0 -622,0 -965,0 -41,0 -185,3 -320,7 -266,8 -1063,10 -1200,3 -144,-8 -483,-10 -520,-4 -19,4 -73,9 -120,11 -47,3 -123,10 -170,16 -108,13 -127,12 -135,-1 z"
       id="path126"
       inkscape:connector-curvature="0" />
    <path
       d="m 670,6074 c 0,-16 35,-27 83,-26 45,2 47,-9 7,-38 -36,-26 -38,-38 -6,-49 13,-5 26,-17 30,-26 13,-36 5,-56 -36,-86 -45,-32 -54,-52 -27,-57 22,-4 98,54 110,85 8,21 6,38 -6,70 -15,39 -15,45 -1,65 21,30 20,55 -3,67 -28,15 -151,11 -151,-5 z"
       id="path128"
       inkscape:connector-curvature="0" />
    <path
       d="m 1084,6033 c -29,-68 -48,-164 -37,-182 14,-23 27,-17 34,17 9,43 17,52 50,52 29,0 30,-1 23,-36 -5,-25 -3,-39 7,-44 19,-13 29,-3 29,30 0,39 16,46 23,10 9,-41 41,-56 73,-35 29,19 54,69 47,96 -8,29 -31,45 -45,31 -7,-7 -27,-12 -46,-12 -34,0 -34,1 -27,33 11,53 11,62 -5,62 -9,0 -21,-19 -30,-47 -10,-31 -22,-49 -35,-52 -30,-8 -35,5 -19,49 19,54 18,65 -7,65 -14,0 -25,-11 -35,-37 z m 206,-117 c 0,-16 -28,-42 -36,-33 -8,7 14,47 26,47 6,0 10,-6 10,-14 z"
       id="path130"
       inkscape:connector-curvature="0" />
    <path
       d="m 3155,6015 c -71,-25 -115,-99 -115,-192 0,-51 24,-80 72,-87 107,-16 128,-16 162,5 39,23 86,86 86,115 0,44 -23,97 -59,134 -43,45 -75,50 -146,25 z m 104,-35 c 10,-5 26,-29 36,-52 23,-59 13,-119 -26,-152 -27,-23 -31,-24 -57,-10 -15,7 -39,14 -54,14 -38,0 -76,20 -84,42 -16,53 19,122 81,156 25,14 80,15 104,2 z"
       id="path132"
       inkscape:connector-curvature="0" />
    <path
       d="m 1625,5980 c -24,-16 -30,-27 -30,-57 0,-34 -4,-40 -37,-55 -21,-10 -38,-22 -38,-27 0,-42 106,15 119,64 7,28 10,30 57,30 38,0 49,4 52,17 2,11 -5,21 -20,27 -55,20 -74,20 -103,1 z"
       id="path134"
       inkscape:connector-curvature="0" />
    <path
       d="m 2753,5975 c -3,-9 2,-24 12,-35 19,-21 14,-26 -35,-32 -14,-2 -24,-7 -22,-13 2,-5 16,-9 32,-7 33,4 36,-4 15,-32 -16,-21 -11,-36 11,-36 8,0 14,8 14,19 0,10 7,25 16,32 15,12 18,11 28,-4 31,-52 33,-53 52,-35 14,14 15,21 7,29 -9,9 -6,16 10,30 20,18 21,20 5,32 -10,8 -15,21 -12,34 8,29 -13,39 -37,17 -18,-16 -20,-16 -37,-1 -23,21 -51,22 -59,2 z"
       id="path136"
       inkscape:connector-curvature="0" />
    <path
       d="m 897,5966 c -8,-20 20,-43 35,-28 8,8 8,15 -2,27 -16,19 -26,19 -33,1 z"
       id="path138"
       inkscape:connector-curvature="0" />
    <path
       d="m 1363,5884 c -4,-11 1,-22 12,-31 16,-11 21,-11 34,1 12,12 12,18 1,30 -16,21 -39,20 -47,0 z"
       id="path140"
       inkscape:connector-curvature="0" />
    <path
       d="m 4207,5883 c -4,-3 -7,-15 -7,-25 0,-11 -7,-18 -20,-18 -12,0 -20,-7 -20,-16 0,-13 7,-15 30,-11 37,8 45,-5 24,-38 -19,-29 -12,-44 11,-25 12,10 18,10 30,0 15,-12 55,-5 55,10 0,5 -4,20 -10,34 -5,14 -6,26 -2,26 23,1 32,18 22,44 -9,23 -12,25 -31,15 -15,-8 -24,-8 -32,0 -12,12 -40,15 -50,4 z"
       id="path142"
       inkscape:connector-curvature="0" />
    <path
       d="m 1694,5845 c -6,-14 11,-45 25,-45 19,1 32,20 26,39 -7,24 -43,29 -51,6 z"
       id="path144"
       inkscape:connector-curvature="0" />
    <path
       d="m 7696,5612 c -15,-14 -358,-17 -851,-8 -227,4 -403,3 -500,-4 -82,-7 -199,-14 -260,-16 -60,-3 -166,-7 -235,-10 -147,-6 -1246,-5 -1340,1 -36,2 -227,7 -425,10 -198,4 -425,8 -504,9 -80,2 -162,-1 -182,-5 -49,-11 -409,-17 -416,-6 -6,9 58,9 -921,3 -56,-1 -102,-3 -102,-6 0,-3 -150,-5 -332,-5 -183,0 -490,-4 -683,-8 -192,-4 -359,-8 -370,-7 -114,5 -185,-6 -156,-24 6,-4 169,-6 363,-6 194,1 371,0 393,-1 22,-1 47,-1 55,0 34,3 388,9 570,9 241,0 252,0 590,11 151,5 345,5 430,0 85,-4 263,-5 395,-2 291,7 815,5 1100,-3 447,-14 1918,-5 1944,11 10,6 265,16 406,15 66,0 378,-1 694,-2 442,-2 578,0 590,9 29,23 -8,33 -109,30 -52,-2 -105,0 -116,4 -12,4 -25,5 -28,1 z"
       id="path146"
       inkscape:connector-curvature="0" />
    <path
       d="m 1947,5394 c -4,-4 -7,-22 -7,-40 0,-23 -8,-38 -26,-53 -27,-21 -50,-28 -40,-12 3,4 -1,16 -8,26 -12,17 -14,16 -34,-6 -12,-12 -22,-27 -22,-33 0,-5 -12,-23 -27,-38 -27,-28 -53,-37 -53,-18 0,6 -9,19 -21,31 -20,20 -21,20 -42,2 -11,-10 -17,-12 -13,-5 10,16 -1,49 -19,56 -8,3 -32,-12 -57,-35 l -43,-39 -16,21 -16,22 -37,-22 c -25,-16 -36,-30 -36,-47 0,-32 19,-39 56,-19 16,8 34,15 40,15 6,0 28,11 49,25 20,15 40,23 43,20 3,-3 0,-22 -7,-41 -10,-27 -10,-39 -2,-47 9,-9 18,-3 38,21 24,31 26,32 44,16 11,-10 28,-15 44,-12 18,4 29,0 36,-14 6,-12 19,-18 32,-16 18,2 21,9 19,35 -2,17 2,34 7,38 7,3 11,-3 11,-14 0,-28 18,-27 25,2 4,13 29,36 62,56 59,37 74,61 63,101 -6,25 -29,37 -43,24 z"
       id="path148"
       inkscape:connector-curvature="0" />
    <path
       d="m 768,5328 c -67,-25 -145,-88 -134,-107 6,-9 27,-12 65,-9 l 56,3 -3,-65 c -2,-52 1,-72 18,-99 12,-18 24,-31 27,-27 3,3 7,41 8,83 2,43 8,90 15,106 11,23 19,27 55,27 69,0 106,11 103,29 -4,16 -20,18 -87,10 -34,-4 -35,-3 -35,31 -1,43 -13,46 -88,18 z m 46,-30 c -19,-35 -40,-48 -71,-48 -41,0 -40,16 3,41 35,21 79,25 68,7 z"
       id="path150"
       inkscape:connector-curvature="0" />
    <path
       d="m 3217,5316 c -83,-30 -144,-108 -133,-170 9,-45 41,-93 73,-109 15,-8 50,-17 77,-20 39,-4 52,-1 67,14 10,10 24,19 30,19 17,0 98,59 113,83 30,46 -2,121 -72,168 -48,32 -93,37 -155,15 z m 134,-52 c 28,-25 51,-82 43,-107 -15,-50 -44,-75 -109,-96 -60,-20 -68,-20 -94,-6 -40,20 -71,66 -71,104 0,45 59,107 113,120 51,12 95,6 118,-15 z"
       id="path152"
       inkscape:connector-curvature="0" />
    <path
       d="m 1200,5275 c -10,-12 -10,-15 4,-15 22,0 20,-17 -3,-25 -10,-3 -27,-15 -37,-26 -16,-17 -16,-21 -3,-35 14,-13 19,-12 53,11 45,30 46,30 46,5 0,-28 24,-25 44,5 20,30 37,32 54,5 13,-22 47,-27 58,-8 4,6 0,16 -9,23 -10,7 -17,22 -17,34 0,26 -26,38 -51,23 -19,-12 -75,-6 -85,9 -8,14 -40,10 -54,-6 z"
       id="path154"
       inkscape:connector-curvature="0" />
    <path
       d="m 2862,5248 c -8,-8 -6,-19 9,-40 l 21,-28 -33,2 c -18,2 -34,-2 -36,-9 -3,-7 3,-13 11,-13 12,0 15,-6 10,-24 -8,-32 9,-40 31,-16 17,19 18,19 35,-2 11,-13 23,-19 33,-15 19,7 23,42 7,52 -15,9 -2,25 21,25 10,0 19,7 19,15 0,8 -7,15 -15,15 -10,0 -15,7 -13,18 2,13 -4,17 -32,17 -19,1 -40,4 -46,7 -6,4 -16,2 -22,-4 z"
       id="path156"
       inkscape:connector-curvature="0" />
    <path
       d="m 4366,5194 c -5,-13 -9,-15 -18,-6 -20,20 -38,13 -38,-13 0,-25 -23,-35 -35,-15 -8,13 -25,3 -25,-15 0,-7 14,-18 30,-24 32,-11 37,-20 19,-38 -8,-8 -7,-13 2,-18 7,-5 17,-1 25,10 15,20 16,20 33,-12 17,-34 45,-30 36,4 -3,15 -7,32 -8,38 -3,15 62,18 79,4 12,-10 17,-10 27,0 15,15 -13,39 -55,48 -18,3 -28,13 -30,27 -4,26 -33,33 -42,10 z"
       id="path158"
       inkscape:connector-curvature="0" />
    <path
       d="m 4662,5198 c -7,-7 -12,-18 -12,-25 0,-18 -17,-16 -28,3 -16,28 -36,10 -38,-34 -2,-30 2,-42 12,-42 16,0 19,-16 4,-25 -5,-3 -10,-10 -10,-16 0,-14 26,-11 40,6 12,14 15,13 35,-5 25,-23 37,-17 29,15 -3,13 1,27 10,34 20,17 20,40 0,48 -8,3 -13,11 -10,19 7,19 -18,36 -32,22 z"
       id="path160"
       inkscape:connector-curvature="0" />
    <path
       d="m 884,5166 c -9,-24 12,-44 28,-28 9,10 8,16 -5,29 -15,15 -17,15 -23,-1 z"
       id="path162"
       inkscape:connector-curvature="0" />
    <path
       d="m 1916,5167 c -26,-19 -17,-52 14,-52 18,0 26,6 28,21 4,30 -20,47 -42,31 z"
       id="path164"
       inkscape:connector-curvature="0" />
    <path
       d="m 440,4991 c 0,-38 18,-42 310,-63 153,-10 209,-11 485,-8 160,2 306,-7 505,-31 46,-6 260,-12 475,-15 214,-2 570,-7 790,-11 522,-8 633,-9 735,-5 47,2 234,1 415,-2 182,-2 395,-4 475,-4 80,0 168,0 195,-1 272,-7 460,-7 510,0 61,9 510,13 578,5 24,-2 37,0 37,7 0,9 3,9 8,0 6,-9 58,-12 192,-11 102,1 291,0 420,-1 129,-1 278,3 330,9 52,5 158,13 235,15 77,3 160,10 185,15 25,5 131,9 235,7 l 190,-2 3,23 4,23 -224,-6 c -123,-3 -245,-10 -273,-15 -27,-4 -99,-9 -159,-9 -60,-1 -114,-5 -119,-8 -28,-17 -1060,-21 -1123,-4 -21,6 -70,8 -109,6 -432,-27 -644,-33 -835,-20 -63,4 -473,8 -910,10 -437,1 -937,6 -1110,10 -274,6 -402,7 -575,2 -47,-1 -278,14 -285,18 -3,2 -64,7 -135,10 -72,4 -133,9 -136,11 -4,2 -182,6 -396,9 -399,6 -548,10 -561,19 -4,2 -59,7 -122,10 -63,3 -131,10 -150,16 -56,16 -90,13 -90,-9 z"
       id="path166"
       inkscape:connector-curvature="0" />
    <path
       d="m 814,4805 c -61,-30 -171,-134 -180,-172 -17,-67 57,-107 98,-52 23,31 18,62 -14,76 -21,9 -20,10 10,44 46,53 133,93 206,95 34,2 63,3 66,4 3,0 -4,7 -14,15 -31,23 -113,18 -172,-10 z M 693,4615 c 4,-8 2,-17 -3,-20 -6,-4 -10,3 -10,14 0,25 6,27 13,6 z"
       id="path168"
       inkscape:connector-curvature="0" />
    <path
       d="m 3319,4746 c -69,-24 -103,-51 -128,-100 -29,-56 -33,-131 -10,-167 8,-13 26,-41 39,-63 l 23,-39 -399,7 c -219,4 -430,9 -469,11 -38,2 -137,6 -220,10 -82,3 -190,10 -240,15 -124,13 -240,19 -525,26 -135,4 -270,8 -300,10 -90,6 -662,11 -708,6 -26,-2 -41,-9 -39,-16 2,-7 52,-11 158,-12 85,-1 240,-4 344,-8 105,-3 325,-8 490,-11 165,-3 309,-7 320,-9 11,-2 74,-7 140,-11 66,-4 131,-9 145,-10 122,-15 864,-36 1242,-35 141,0 285,-4 320,-9 35,-6 119,-13 188,-16 145,-7 162,-9 255,-23 104,-16 477,-35 660,-33 88,1 266,3 397,5 130,1 276,-1 325,-5 48,-4 270,-10 493,-13 223,-3 437,-9 475,-13 162,-16 970,-5 1361,18 99,5 185,9 190,8 34,-6 47,18 20,40 -11,9 -20,9 -34,2 -68,-36 -1294,-56 -1637,-26 -22,2 -202,6 -400,9 -198,4 -400,9 -450,12 -49,3 -243,5 -430,3 -456,-4 -570,-3 -700,5 -60,4 -117,7 -125,7 -8,0 -71,7 -140,14 -69,8 -172,17 -230,20 -155,9 -190,12 -194,16 -3,2 11,27 30,54 29,42 34,59 34,108 0,104 -50,171 -154,207 -68,23 -69,23 -117,6 z m 156,-73 c 72,-45 85,-117 35,-196 -44,-70 -81,-90 -154,-83 -67,7 -74,11 -116,74 -46,70 -36,144 28,205 47,45 136,45 207,0 z"
       id="path170"
       inkscape:connector-curvature="0" />
    <path
       d="m 1940,4735 c 0,-19 -35,-50 -59,-51 -45,-3 -70,-16 -82,-42 -10,-22 -18,-28 -36,-24 -15,3 -23,11 -23,26 0,36 -14,50 -38,37 -14,-7 -23,-8 -27,-1 -11,17 -31,11 -66,-20 -41,-36 -47,-37 -59,-5 -11,28 -26,31 -65,13 -48,-22 -40,-98 9,-83 12,4 34,6 49,6 15,-1 38,5 50,14 28,20 36,19 31,-2 -2,-10 0,-25 6,-33 9,-13 14,-11 36,14 l 25,28 24,-22 c 22,-21 24,-21 48,-5 24,16 26,15 37,-4 13,-25 52,-28 74,-5 18,18 11,38 -10,30 -16,-6 -29,17 -20,33 4,6 15,7 29,2 45,-17 124,39 109,78 -11,30 -42,42 -42,16 z m -430,-89 c 0,-3 -4,-8 -10,-11 -5,-3 -10,-1 -10,4 0,6 5,11 10,11 6,0 10,-2 10,-4 z"
       id="path172"
       inkscape:connector-curvature="0" />
    <path
       d="m 1188,4712 c -34,-31 -35,-68 -1,-55 16,6 16,5 5,-10 -14,-17 -9,-37 10,-37 5,0 23,11 40,25 36,30 53,33 38,5 -6,-11 -8,-25 -5,-30 11,-18 32,-11 43,15 13,29 27,31 48,10 16,-15 54,-21 54,-7 0,4 -9,22 -21,41 -14,24 -25,32 -39,28 -11,-3 -21,1 -24,10 -6,15 -20,14 -57,-1 -11,-5 -18,-1 -22,13 -7,29 -31,26 -69,-7 z"
       id="path174"
       inkscape:connector-curvature="0" />
    <path
       d="m 877,4656 c -7,-18 1,-26 25,-26 13,0 18,6 16,17 -4,22 -34,29 -41,9 z"
       id="path176"
       inkscape:connector-curvature="0" />
    <path
       d="m 2941,4651 c -13,-9 -12,-24 4,-63 6,-15 2,-18 -19,-18 -28,0 -35,-17 -11,-26 10,-4 13,-13 10,-25 -7,-20 18,-28 30,-9 9,15 25,2 25,-21 0,-12 5,-19 13,-16 6,2 12,18 12,35 0,27 4,32 22,32 26,0 32,27 8,36 -13,5 -13,9 -1,26 8,11 12,27 9,34 -7,19 -32,18 -40,-2 -5,-13 -8,-12 -27,5 -14,13 -26,17 -35,12 z"
       id="path178"
       inkscape:connector-curvature="0" />
    <path
       d="m 2619,4627 c -2,-17 -1,-20 7,-42 7,-18 6,-18 -9,-6 -9,7 -24,10 -34,6 -16,-6 -16,-8 6,-26 19,-16 21,-22 11,-34 -22,-27 18,-31 45,-5 l 25,23 21,-27 c 23,-29 43,-25 35,8 -4,18 -1,21 24,21 16,0 30,5 30,10 0,6 -15,10 -33,10 -25,0 -31,4 -29,18 1,9 3,25 5,35 2,14 -7,17 -50,19 -35,1 -53,-3 -54,-10 z"
       id="path180"
       inkscape:connector-curvature="0" />
    <path
       d="m 4251,4586 c -9,-11 -10,-20 -2,-35 10,-18 8,-21 -24,-27 -40,-7 -47,-24 -10,-24 27,0 32,-9 14,-27 -20,-20 9,-25 41,-7 28,17 30,17 49,0 20,-18 35,-9 25,17 -4,12 3,16 33,19 27,2 39,8 41,21 3,17 0,18 -30,12 -33,-7 -33,-7 -15,13 35,39 0,56 -43,22 -30,-23 -40,-25 -40,-6 0,24 -26,38 -39,22 z"
       id="path182"
       inkscape:connector-curvature="0" />
    <path
       d="m 689,4241 c -37,-36 -39,-42 -39,-98 0,-53 -3,-62 -30,-88 -47,-45 -35,-85 25,-85 33,0 75,34 75,61 0,9 25,41 55,72 30,31 60,69 66,84 19,50 -22,93 -88,93 -16,0 -39,-14 -64,-39 z m 99,-37 c 2,-16 -2,-32 -11,-39 -8,-6 -26,-27 -40,-47 -18,-28 -27,-34 -35,-25 -30,38 -20,114 20,141 29,21 62,6 66,-30 z M 676,4035 c -4,-14 -13,-25 -21,-25 -19,0 -19,5 1,36 20,29 29,25 20,-11 z"
       id="path184"
       inkscape:connector-curvature="0" />
    <path
       d="m 1818,4158 c -3,-28 -8,-33 -55,-48 -51,-16 -88,-49 -105,-92 -11,-26 26,-60 60,-56 35,4 42,35 10,40 -35,5 -34,34 1,52 16,9 40,16 53,16 31,0 84,34 90,57 8,29 -9,63 -31,63 -15,0 -21,-8 -23,-32 z"
       id="path186"
       inkscape:connector-curvature="0" />
    <path
       d="m 2010,4165 c 0,-23 -55,-151 -81,-186 -23,-33 -31,-90 -12,-96 13,-5 83,54 83,69 0,6 -9,8 -20,5 -24,-6 -24,-4 -5,34 14,27 19,29 50,23 39,-7 46,6 15,27 -18,12 -20,18 -10,46 14,38 10,85 -7,91 -7,2 -13,-4 -13,-13 z"
       id="path188"
       inkscape:connector-curvature="0" />
    <path
       d="m 2124,4153 c -3,-10 -24,-62 -46,-116 -42,-100 -42,-123 -2,-115 11,2 20,13 22,28 2,14 17,53 33,86 36,73 43,126 16,132 -10,2 -19,-4 -23,-15 z"
       id="path190"
       inkscape:connector-curvature="0" />
    <path
       d="m 1040,4140 c -20,-20 -26,-40 -12,-40 4,0 13,5 20,12 6,6 15,9 18,5 4,-4 -12,-27 -35,-52 -44,-48 -51,-69 -24,-79 11,-4 27,4 47,23 31,30 32,30 44,11 14,-22 30,-18 68,19 l 22,20 6,-30 c 4,-21 11,-29 26,-29 23,0 24,5 9,49 -9,25 -16,31 -31,28 -13,-4 -22,2 -30,19 -7,14 -20,24 -32,24 -12,0 -27,9 -34,20 -7,11 -19,20 -27,20 -8,0 -24,-9 -35,-20 z"
       id="path192"
       inkscape:connector-curvature="0" />
    <path
       d="m 1475,4100 c -4,-6 -1,-18 6,-26 10,-13 9,-22 -6,-50 -15,-27 -16,-37 -6,-47 14,-13 21,-6 54,53 19,35 40,36 45,1 5,-32 48,-50 69,-28 15,15 15,17 -10,26 -18,7 -27,19 -29,38 -3,25 -7,28 -43,29 -22,1 -47,4 -56,8 -10,4 -20,2 -24,-4 z"
       id="path194"
       inkscape:connector-curvature="0" />
    <path
       d="m 4705,4088 c -46,-30 -67,-48 -104,-96 -34,-42 -41,-59 -42,-99 -3,-65 5,-83 48,-115 73,-56 126,-21 57,37 -37,31 -38,35 -39,94 0,58 2,63 40,101 34,33 50,41 91,46 47,6 52,4 82,-26 24,-24 32,-40 32,-67 0,-47 -20,-114 -37,-120 -7,-3 -13,-14 -13,-24 0,-27 44,-25 62,4 8,12 23,46 32,74 21,64 13,98 -37,157 -31,37 -38,40 -93,43 -35,2 -67,-2 -79,-9 z"
       id="path196"
       inkscape:connector-curvature="0" />
    <path
       d="m 1279,4041 c -16,-16 -29,-36 -29,-44 0,-18 52,-29 83,-18 12,5 30,5 41,2 26,-10 78,-1 73,13 -2,6 -13,12 -25,14 -12,2 -31,17 -42,33 -28,38 -63,38 -101,0 z"
       id="path198"
       inkscape:connector-curvature="0" />
    <path
       d="m 2409,4042 c -39,-35 -32,-64 8,-32 14,11 34,20 44,20 29,0 34,-21 9,-40 -23,-17 -23,-20 -10,-60 13,-40 13,-43 -11,-61 -22,-17 -23,-19 -7,-35 20,-20 41,-14 63,20 13,20 14,32 6,62 -9,33 -8,40 14,66 20,23 23,33 15,48 -25,47 -86,52 -131,12 z"
       id="path200"
       inkscape:connector-curvature="0" />
    <path
       d="m 824,4035 c -9,-21 3,-45 21,-45 21,0 30,27 15,45 -16,19 -29,19 -36,0 z"
       id="path202"
       inkscape:connector-curvature="0" />
    <path
       d="m 2285,4040 c -10,-16 5,-144 18,-152 25,-15 36,13 30,75 -6,74 -28,109 -48,77 z"
       id="path204"
       inkscape:connector-curvature="0" />
    <path
       d="m 3240,3995 c -7,-8 -21,-15 -31,-15 -12,0 -23,-10 -29,-25 -8,-20 -16,-25 -43,-25 -31,0 -57,-14 -57,-32 0,-4 21,-8 46,-8 l 45,0 -18,-30 c -14,-24 -15,-32 -4,-42 10,-11 18,-6 42,22 l 30,35 16,-22 c 19,-28 43,-30 43,-4 0,10 7,22 16,25 9,3 14,12 11,20 -3,7 0,19 6,25 9,9 6,13 -10,17 -16,4 -20,13 -19,37 1,36 -23,48 -44,22 z"
       id="path206"
       inkscape:connector-curvature="0" />
    <path
       d="m 2162,3988 c -15,-15 -3,-38 19,-38 12,0 19,7 19,19 0,22 -23,34 -38,19 z"
       id="path208"
       inkscape:connector-curvature="0" />
    <path
       d="m 3647,3983 c -4,-3 -7,-19 -7,-35 0,-27 -4,-30 -44,-32 -34,-2 -28,-23 9,-30 39,-8 46,-21 15,-31 -22,-7 -27,-25 -7,-25 7,0 22,7 34,15 20,14 23,14 31,-1 12,-22 32,-9 32,22 0,17 5,24 20,24 11,0 20,7 20,15 0,8 -7,15 -16,15 -14,0 -14,3 -4,15 18,22 -2,44 -23,26 -12,-9 -16,-7 -20,9 -5,19 -27,27 -40,13 z"
       id="path210"
       inkscape:connector-curvature="0" />
    <path
       d="m 4104,3966 c -3,-8 -4,-22 -2,-32 2,-14 -4,-20 -24,-22 -35,-4 -37,-22 -3,-22 22,0 24,-2 13,-20 -17,-27 -2,-37 23,-14 21,19 22,19 36,-3 20,-30 33,-29 33,1 0,16 7,27 20,31 24,8 27,35 4,35 -11,0 -14,5 -10,16 9,23 -3,37 -20,23 -11,-9 -18,-8 -32,5 -23,20 -31,20 -38,2 z"
       id="path212"
       inkscape:connector-curvature="0" />
    <path
       d="m 2615,3940 c -8,-27 1,-40 30,-40 27,0 36,17 23,43 -12,23 -45,22 -53,-3 z"
       id="path214"
       inkscape:connector-curvature="0" />
    <path
       d="m 345,3741 c -42,-4 -61,-11 -63,-21 -2,-13 26,-15 200,-17 407,-3 507,-5 723,-15 121,-5 396,-13 610,-18 252,-6 427,-15 495,-25 58,-8 161,-17 230,-20 532,-21 590,-22 1315,-32 803,-11 3259,-3 3283,10 4,3 176,8 382,11 381,7 410,11 376,44 -10,10 -19,11 -32,4 -11,-5 -213,-13 -464,-17 -245,-4 -485,-8 -535,-10 -241,-10 -2990,-19 -3005,-10 -4,2 -198,7 -431,10 -632,7 -853,17 -1224,54 -55,5 -221,13 -370,16 -329,7 -477,11 -705,19 -96,4 -236,8 -310,10 -74,2 -198,6 -275,9 -77,2 -167,2 -200,-2 z"
       id="path216"
       inkscape:connector-curvature="0" />
    <path
       d="m 515,3443 c -35,-77 -35,-77 -16,-97 20,-20 20,-20 72,4 l 52,25 15,-23 c 18,-27 62,-29 85,-4 26,29 49,93 42,119 -5,22 -10,24 -51,20 -44,-5 -66,-21 -79,-58 -6,-18 -92,-62 -106,-54 -5,4 4,31 21,62 29,53 33,83 11,83 -6,0 -26,-35 -46,-77 z m 192,2 c 13,-13 13,-21 3,-45 -21,-51 -45,-33 -34,25 7,40 9,41 31,20 z"
       id="path218"
       inkscape:connector-curvature="0" />
    <path
       d="m 1092,3468 c -7,-7 -12,-17 -12,-24 0,-6 -7,-17 -15,-24 -13,-10 -19,-10 -35,5 -18,17 -20,17 -26,1 -4,-10 -2,-22 3,-27 7,-7 7,-20 0,-40 -8,-21 -8,-32 0,-40 15,-15 43,5 43,31 0,20 44,60 66,60 19,0 18,-25 -2,-55 -9,-13 -13,-29 -9,-35 12,-19 35,-10 51,23 19,36 31,47 57,47 13,0 17,-8 17,-34 0,-20 6,-36 14,-39 21,-8 26,2 26,48 0,54 -18,71 -59,57 -22,-8 -34,-7 -48,3 -10,8 -28,15 -40,15 -16,0 -20,5 -16,20 6,23 2,25 -15,8 z"
       id="path220"
       inkscape:connector-curvature="0" />
    <path
       d="m 1863,3430 c -8,-23 -18,-30 -37,-30 -37,0 -33,-26 6,-34 40,-8 80,25 76,64 -4,36 -31,37 -45,0 z"
       id="path222"
       inkscape:connector-curvature="0" />
    <path
       d="m 3230,3431 c 0,-11 5,-23 10,-26 15,-9 12,-25 -5,-25 -24,0 -17,-20 10,-30 15,-6 23,-15 19,-24 -7,-19 14,-30 31,-16 9,7 15,8 20,0 12,-19 37,-12 30,9 -5,17 0,20 37,23 31,2 44,8 46,21 3,14 -4,17 -35,17 -34,1 -36,2 -20,14 9,7 17,21 17,30 0,29 -30,30 -59,2 l -28,-27 -17,26 c -20,30 -56,34 -56,6 z"
       id="path224"
       inkscape:connector-curvature="0" />
    <path
       d="m 1501,3376 c -61,-51 -76,-53 -111,-16 -35,37 -64,37 -93,-2 -14,-19 -18,-34 -13,-53 6,-24 10,-26 34,-20 15,4 48,8 74,11 53,4 106,27 115,50 3,7 9,14 14,14 4,0 -3,-22 -16,-49 -14,-27 -25,-56 -25,-65 0,-29 35,-17 54,19 10,19 27,42 37,51 17,16 19,16 25,-2 10,-27 35,-54 51,-54 18,0 17,25 -2,40 -8,7 -15,20 -15,30 0,28 -28,46 -50,32 -17,-10 -18,-8 -17,15 3,38 -15,38 -62,-1 z"
       id="path226"
       inkscape:connector-curvature="0" />
    <path
       d="m 2493,3384 c -3,-8 0,-33 7,-55 7,-21 10,-42 7,-46 -4,-3 -27,-5 -51,-5 -46,2 -69,-13 -45,-29 8,-5 27,-9 43,-9 l 29,0 -28,-26 c -20,-19 -25,-28 -16,-37 8,-8 19,-3 44,21 42,40 54,40 65,0 5,-20 16,-34 26,-36 17,-4 18,1 12,42 l -7,46 36,0 c 29,0 36,3 33,18 -3,12 -12,16 -31,15 -29,-2 -34,6 -16,24 17,17 0,35 -27,29 -19,-5 -24,-2 -24,13 0,33 -11,51 -31,51 -11,0 -22,-7 -26,-16 z"
       id="path228"
       inkscape:connector-curvature="0" />
    <path
       d="m 804,3375 c -10,-24 5,-36 27,-24 16,8 18,13 8,25 -15,18 -28,18 -35,-1 z"
       id="path230"
       inkscape:connector-curvature="0" />
    <path
       d="m 1733,3368 c -5,-7 -15,-27 -22,-45 -22,-54 21,-103 74,-83 30,12 25,30 -10,30 -30,0 -36,17 -17,51 23,39 0,80 -25,47 z"
       id="path232"
       inkscape:connector-curvature="0" />
    <path
       d="m 4580,3338 c -59,-30 -72,-57 -67,-138 5,-78 31,-135 66,-149 51,-19 105,-23 126,-7 30,22 8,40 -32,25 -25,-8 -38,-7 -60,5 -45,23 -54,40 -58,110 -3,53 0,70 16,90 18,23 28,26 82,26 74,0 104,-14 130,-58 27,-45 17,-114 -18,-130 -27,-12 -34,-42 -11,-42 25,0 64,40 81,84 21,54 9,104 -38,158 -30,35 -37,38 -102,44 -61,5 -76,2 -115,-18 z"
       id="path234"
       inkscape:connector-curvature="0" />
    <path
       d="m 4147,3273 c -4,-4 -4,-22 -1,-41 7,-34 6,-35 -20,-28 -19,5 -26,3 -26,-9 0,-8 5,-15 10,-15 6,0 10,-9 10,-19 0,-30 17,-34 40,-11 20,20 23,20 39,6 22,-20 31,-20 31,-2 0,8 12,17 26,20 37,10 29,42 -9,38 -26,-3 -28,-2 -18,17 16,30 14,34 -18,28 -20,-4 -31,-2 -35,8 -6,16 -18,19 -29,8 z"
       id="path236"
       inkscape:connector-curvature="0" />
    <path
       d="m 5413,3263 c -17,-6 -16,-23 2,-44 15,-15 13,-17 -20,-23 -37,-7 -50,-36 -15,-36 21,0 27,-15 10,-25 -16,-10 -12,-25 7,-25 9,0 28,10 41,23 l 24,22 15,-22 c 20,-30 41,-29 49,3 4,14 17,30 31,35 29,11 26,33 -5,37 -18,3 -21,8 -16,28 7,27 -2,30 -41,12 -23,-10 -28,-10 -36,5 -10,17 -23,20 -46,10 z"
       id="path238"
       inkscape:connector-curvature="0" />
    <path
       d="m 1877,3244 c -11,-11 5,-34 24,-34 23,0 25,25 3,34 -19,7 -19,7 -27,0 z"
       id="path240"
       inkscape:connector-curvature="0" />
    <path
       d="m 307,3044 c -9,-10 -9,-44 1,-44 11,-1 139,-18 222,-30 74,-10 573,-16 588,-6 8,5 933,19 1322,20 263,1 562,-15 815,-44 50,-6 196,-12 325,-14 129,-2 361,-7 515,-10 154,-4 300,-7 325,-7 567,2 714,2 751,-3 57,-9 115,-14 219,-21 631,-41 720,-43 1275,-31 198,4 475,9 615,11 422,6 593,15 610,31 25,24 -1,37 -56,26 -27,-4 -148,-10 -269,-11 -121,-1 -222,-4 -225,-6 -8,-5 -125,-6 -475,-6 -154,1 -343,-3 -420,-7 -270,-14 -814,1 -1050,28 -44,5 -120,12 -170,15 -49,3 -129,9 -176,13 -47,4 -189,4 -315,1 -243,-7 -670,-4 -919,6 -82,4 -235,8 -340,10 -104,2 -226,9 -270,16 -44,6 -122,13 -173,15 -84,3 -309,19 -402,29 -48,5 -368,5 -405,0 -32,-4 -313,-12 -641,-19 -111,-2 -232,-1 -268,3 -36,4 -96,4 -133,-1 -175,-20 -627,-2 -701,28 -33,13 -47,15 -65,6 -44,-21 -79,-24 -91,-7 -6,9 -15,13 -19,9 z"
       id="path242"
       inkscape:connector-curvature="0" />
    <path
       d="m 507,2684 c -4,-4 -7,-40 -7,-79 0,-58 4,-75 19,-89 10,-10 21,-14 23,-9 2,4 4,46 4,93 -1,68 -4,85 -16,88 -9,1 -19,0 -23,-4 z"
       id="path244"
       inkscape:connector-curvature="0" />
    <path
       d="m 672,2677 c -25,-29 -19,-188 7,-187 22,1 29,24 31,95 2,44 2,86 1,93 -1,16 -26,16 -39,-1 z"
       id="path246"
       inkscape:connector-curvature="0" />
    <path
       d="m 4355,2646 c -16,-8 -42,-27 -57,-43 -33,-35 -81,-148 -73,-172 12,-39 119,-91 187,-91 32,0 118,58 142,95 9,14 19,44 22,67 5,39 2,47 -32,87 -58,67 -123,86 -189,57 z m 113,-51 c 44,-37 58,-77 43,-126 -20,-66 -93,-93 -161,-59 -55,28 -63,43 -55,97 14,97 106,144 173,88 z"
       id="path248"
       inkscape:connector-curvature="0" />
    <path
       d="m 2693,2642 c -5,-4 -13,-17 -17,-29 -4,-13 -14,-23 -22,-23 -18,0 -18,-29 0,-36 8,-3 12,-13 9,-24 -6,-22 15,-36 30,-21 17,17 35,13 42,-9 4,-11 15,-20 26,-20 17,0 20,4 14,29 -5,24 -2,30 14,36 25,8 27,31 5,73 -13,26 -18,30 -38,23 -12,-5 -29,-5 -37,-1 -8,5 -20,6 -26,2 z"
       id="path250"
       inkscape:connector-curvature="0" />
    <path
       d="m 3752,2598 c -7,-9 -9,-29 -5,-52 l 6,-38 -34,4 c -25,2 -34,-1 -34,-12 0,-8 10,-16 21,-18 16,-2 20,-8 17,-21 -7,-26 15,-36 36,-17 17,15 20,14 49,-15 17,-17 35,-28 41,-24 14,8 14,42 1,50 -15,10 -12,35 5,35 20,0 19,19 0,26 -11,5 -14,15 -9,39 7,39 -10,55 -28,26 -12,-20 -13,-20 -33,5 -18,22 -23,24 -33,12 z"
       id="path252"
       inkscape:connector-curvature="0" />
    <path
       d="m 854,2546 c -9,-24 12,-44 28,-28 9,10 8,16 -5,29 -15,15 -17,15 -23,-1 z"
       id="path254"
       inkscape:connector-curvature="0" />
    <path
       d="m 5242,2543 c -5,-10 -7,-23 -5,-29 2,-6 -10,-17 -27,-24 -38,-16 -30,-25 18,-21 l 37,3 -19,-21 c -15,-16 -17,-24 -8,-33 9,-9 16,-7 30,5 24,22 32,21 32,-2 0,-11 4,-22 9,-25 11,-7 33,18 30,36 -3,28 2,38 21,38 27,0 25,16 -2,24 -22,5 -22,6 -4,19 13,9 17,20 12,32 -6,16 -8,17 -24,1 -23,-20 -36,-20 -52,-1 -17,20 -37,19 -48,-2 z"
       id="path256"
       inkscape:connector-curvature="0" />
    <path
       d="m 990,2249 c -80,-3 -181,-11 -225,-16 -95,-12 -458,-11 -497,1 -22,6 -28,5 -28,-7 0,-18 58,-40 97,-36 15,2 80,0 143,-5 72,-5 143,-4 190,2 102,14 216,22 400,27 85,2 176,7 201,10 25,4 90,2 145,-4 191,-20 281,-23 519,-20 309,3 259,3 645,-5 184,-4 686,-9 1115,-11 429,-3 827,-9 885,-14 58,-5 427,-9 820,-8 393,1 769,-2 835,-6 66,-4 179,-10 250,-13 72,-4 133,-8 137,-11 9,-5 772,-3 957,3 122,3 268,-6 349,-22 25,-5 32,-3 32,9 0,43 -31,47 -355,45 -442,-3 -976,0 -1030,5 -144,14 -414,20 -1050,23 -374,1 -711,5 -750,8 -68,5 -407,11 -1295,21 -239,3 -597,8 -795,11 -198,3 -403,6 -455,7 -52,1 -176,-1 -275,-3 -99,-2 -225,-1 -280,3 -138,11 -511,14 -685,6 z"
       id="path258"
       inkscape:connector-curvature="0" />
    <path
       d="m 1257,2102 c -9,-9 -18,-34 -22,-55 -6,-28 -13,-39 -32,-43 -36,-9 -48,8 -34,47 16,46 14,59 -9,59 -20,0 -27,-16 -57,-150 -8,-36 -17,-75 -20,-87 -4,-18 -1,-23 15,-23 24,0 37,19 46,72 5,25 13,39 27,43 33,11 41,-7 24,-50 -15,-34 -15,-40 -2,-53 24,-23 45,-8 44,32 -1,22 6,43 18,56 12,14 18,33 17,51 -2,16 4,39 12,51 9,12 16,30 16,39 0,24 -26,31 -43,11 z"
       id="path260"
       inkscape:connector-curvature="0" />
    <path
       d="m 460,2015 c -9,-11 -11,-35 -7,-81 8,-78 11,-84 43,-84 25,0 26,0 19,68 -6,65 -21,112 -35,112 -4,0 -13,-7 -20,-15 z"
       id="path262"
       inkscape:connector-curvature="0" />
    <path
       d="m 2355,2010 c -12,-38 -85,-119 -130,-146 -33,-19 -43,-30 -36,-37 8,-8 22,-5 48,8 21,11 42,21 46,23 5,3 4,-5 -3,-17 -6,-12 -17,-20 -23,-19 -7,2 -26,-11 -42,-29 -17,-17 -62,-48 -101,-67 -83,-42 -108,-66 -99,-95 6,-19 2,-21 -37,-22 -24,0 -50,-2 -58,-3 -8,-2 -100,-6 -205,-10 -104,-4 -192,-9 -195,-11 -22,-14 -854,-22 -1071,-11 -89,5 -139,4 -143,-3 -10,-16 4,-19 109,-26 55,-3 120,-10 145,-15 25,-6 133,-7 245,-4 430,12 494,14 605,18 63,2 122,6 130,9 13,5 331,20 450,21 108,1 482,-15 550,-23 77,-10 260,-17 665,-26 127,-3 307,-9 400,-14 216,-12 1445,-5 1585,9 58,5 160,13 228,17 82,4 121,10 119,17 -5,13 -341,11 -427,-3 -30,-5 -251,-8 -490,-7 -239,1 -496,-2 -570,-7 -88,-6 -222,-5 -385,3 -137,6 -315,13 -395,16 -386,10 -625,22 -865,41 -49,4 -141,7 -204,6 -63,-1 -110,2 -105,6 20,17 93,40 99,31 11,-18 35,-10 35,11 0,12 17,41 38,64 20,23 42,50 49,61 11,18 13,17 40,-15 18,-21 34,-31 41,-27 17,10 15,31 -4,47 -12,10 -14,23 -9,60 5,36 3,55 -10,77 -16,27 -16,31 -1,61 16,30 14,51 -4,51 -5,0 -11,-9 -15,-20 z m -99,-266 c -3,-8 -12,-14 -20,-14 -16,0 -12,23 8,49 9,12 12,11 14,-3 2,-9 1,-24 -2,-32 z m -76,-39 c 0,-25 -30,-45 -108,-70 -45,-14 -20,27 38,61 67,40 70,41 70,9 z"
       id="path264"
       inkscape:connector-curvature="0" />
    <path
       d="m 1520,1973 c -55,-45 -79,-77 -67,-90 4,-3 24,-9 44,-12 l 38,-7 -3,-57 c -3,-36 1,-63 8,-72 24,-28 35,-16 36,39 3,99 6,105 71,108 48,2 58,6 61,22 4,17 -1,18 -50,13 -30,-4 -58,-4 -61,-1 -3,4 0,22 8,42 11,26 12,38 4,48 -17,21 -29,17 -89,-33 z m 40,-27 c 0,-18 -27,-46 -44,-46 -26,0 -26,15 1,37 33,26 43,28 43,9 z"
       id="path266"
       inkscape:connector-curvature="0" />
    <path
       d="m 4478,1993 c -112,-120 -77,-286 62,-287 61,-1 60,22 -2,41 -80,23 -109,91 -72,170 24,50 55,67 111,60 37,-4 54,-12 75,-36 25,-28 27,-37 22,-74 -4,-23 -17,-64 -30,-91 -21,-46 -23,-66 -6,-66 4,0 25,22 45,50 29,39 39,62 43,107 5,50 3,62 -16,86 -33,42 -91,67 -153,67 -45,0 -57,-4 -79,-27 z"
       id="path268"
       inkscape:connector-curvature="0" />
    <path
       d="m 2527,1994 c -10,-10 -9,-42 2,-48 18,-11 42,6 39,28 -3,21 -28,33 -41,20 z"
       id="path270"
       inkscape:connector-curvature="0" />
    <path
       d="m 670,1979 c -8,-5 -27,-13 -42,-19 -36,-12 -39,-50 -5,-50 12,0 31,7 41,15 29,22 38,18 31,-14 -10,-46 17,-65 83,-58 30,3 59,10 65,16 17,17 -4,31 -49,31 -42,0 -44,1 -44,29 0,49 -41,75 -80,50 z"
       id="path272"
       inkscape:connector-curvature="0" />
    <path
       d="m 1795,1970 c -3,-6 1,-17 10,-26 10,-10 13,-23 9,-33 -10,-25 -7,-53 10,-69 13,-13 18,-13 41,2 19,12 37,16 60,12 21,-4 36,-2 44,7 13,16 5,27 -20,27 -9,0 -19,7 -23,15 -3,8 -12,15 -19,15 -8,0 -20,-7 -27,-15 -19,-23 -31,-18 -24,9 9,36 -43,84 -61,56 z"
       id="path274"
       inkscape:connector-curvature="0" />
    <path
       d="m 2024,1972 c -16,-10 -34,-48 -34,-71 0,-46 73,-69 116,-36 10,8 22,15 25,15 9,0 -2,-53 -13,-67 -12,-16 -1,-53 16,-53 8,0 18,6 23,13 11,14 36,187 29,194 -3,3 -26,-13 -52,-36 -50,-44 -84,-56 -63,-23 26,41 -10,89 -47,64 z"
       id="path276"
       inkscape:connector-curvature="0" />
    <path
       d="m 3227,1920 c -9,-25 -17,-30 -37,-28 -19,2 -25,-2 -25,-17 0,-16 7,-20 30,-20 26,0 30,-4 30,-27 0,-33 11,-44 29,-29 11,9 18,6 33,-15 26,-35 45,-25 30,16 -13,34 -10,39 29,46 16,3 33,9 38,14 12,12 -4,32 -21,26 -9,-4 -17,1 -20,12 -4,18 -65,52 -92,52 -7,0 -18,-14 -24,-30 z"
       id="path278"
       inkscape:connector-curvature="0" />
    <path
       d="m 872,1923 c 2,-10 15,-24 30,-33 22,-12 30,-12 40,-2 11,11 8,17 -12,32 -32,25 -63,26 -58,3 z"
       id="path280"
       inkscape:connector-curvature="0" />
    <path
       d="m 1312,1908 c -16,-16 -15,-33 3,-48 12,-10 18,-10 30,0 20,17 19,37 -3,49 -13,7 -23,6 -30,-1 z"
       id="path282"
       inkscape:connector-curvature="0" />
    <path
       d="m 5215,1901 c -3,-10 -3,-26 1,-35 4,-12 0,-16 -15,-16 -27,0 -27,-18 0,-28 l 20,-8 -21,-26 c -26,-34 -7,-48 25,-18 15,14 25,18 30,11 3,-6 15,-11 26,-11 16,0 20,6 17,28 -2,22 1,28 22,30 32,5 51,22 24,22 -28,0 -35,9 -24,30 14,25 -12,47 -30,25 -16,-19 -30,-19 -30,0 0,22 -38,19 -45,-4 z"
       id="path284"
       inkscape:connector-curvature="0" />
    <path
       d="m 2482,1763 c 5,-26 38,-29 38,-4 0,15 -6,21 -21,21 -14,0 -19,-5 -17,-17 z"
       id="path286"
       inkscape:connector-curvature="0" />
    <path
       d="m 5857,1594 c -1,-2 -59,-6 -127,-9 -120,-7 -155,-15 -134,-33 5,-4 72,-5 149,-1 186,10 635,10 710,1 78,-10 576,-8 820,3 105,5 280,9 390,9 180,1 200,3 203,18 3,16 -19,17 -320,13 -178,-3 -348,-6 -378,-8 -108,-6 -558,-7 -742,-2 -216,7 -567,12 -571,9 z"
       id="path288"
       inkscape:connector-curvature="0" />
    <path
       d="m 1669,1323 c -19,-23 -43,-93 -35,-101 4,-3 19,1 34,10 27,16 57,81 46,99 -9,14 -30,11 -45,-8 z"
       id="path290"
       inkscape:connector-curvature="0" />
    <path
       d="m 620,1273 c -47,-42 -41,-69 8,-33 41,30 86,25 90,-12 3,-21 -3,-29 -25,-40 -22,-10 -29,-21 -31,-48 -2,-23 -12,-42 -30,-57 -20,-17 -24,-25 -15,-34 28,-28 103,32 103,82 0,12 14,37 30,56 35,40 36,48 10,91 -17,27 -25,32 -60,32 -32,0 -48,-7 -80,-37 z"
       id="path292"
       inkscape:connector-curvature="0" />
    <path
       d="m 455,1290 c -4,-6 -1,-17 5,-25 8,-9 10,-35 5,-77 -6,-68 2,-92 30,-86 15,2 18,16 22,86 4,88 -4,112 -38,112 -10,0 -21,-5 -24,-10 z"
       id="path294"
       inkscape:connector-curvature="0" />
    <path
       d="m 922,1272 c -33,-10 -31,-26 4,-32 24,-5 28,-10 26,-30 -1,-13 -9,-31 -17,-40 -17,-19 -20,-50 -5,-50 6,0 13,-1 18,-1 4,-1 16,16 27,37 25,48 59,60 49,17 -11,-45 -10,-48 11,-48 13,0 26,12 36,32 18,35 29,34 29,-4 0,-16 6,-23 19,-23 28,0 32,11 20,53 -6,22 -16,37 -25,37 -9,0 -24,10 -33,21 -15,19 -20,20 -40,9 -20,-10 -26,-9 -45,9 -23,22 -35,24 -74,13 z"
       id="path296"
       inkscape:connector-curvature="0" />
    <path
       d="m 4372,1270 c -73,-30 -122,-101 -122,-176 0,-48 53,-103 102,-106 43,-2 78,0 106,7 43,10 21,20 -45,20 -115,0 -155,48 -112,131 42,81 104,108 192,83 46,-13 69,-44 63,-90 -3,-19 -5,-37 -5,-41 -1,-4 -15,-23 -32,-43 -36,-40 -31,-57 9,-35 30,17 82,110 82,148 0,33 -57,87 -105,101 -48,13 -101,13 -133,1 z"
       id="path298"
       inkscape:connector-curvature="0" />
    <path
       d="m 1444,1226 c -18,-29 -34,-34 -34,-11 0,30 -29,28 -59,-4 -34,-36 -44,-38 -68,-12 -37,40 -113,3 -113,-54 0,-32 27,-39 58,-15 18,15 34,19 54,15 20,-5 37,0 58,15 41,29 50,17 22,-30 -27,-48 -27,-50 -1,-50 15,0 25,11 36,38 8,21 23,44 34,50 16,11 19,9 19,-9 0,-37 19,-59 50,-59 17,0 30,-4 30,-9 0,-14 32,-23 43,-12 5,5 6,17 1,28 -4,10 -8,38 -8,62 -1,54 -19,63 -41,22 -21,-42 -33,-39 -37,11 -4,50 -20,59 -44,24 z"
       id="path300"
       inkscape:connector-curvature="0" />
    <path
       d="m 2867,1214 c -3,-3 -3,-21 0,-40 l 6,-34 -43,0 c -44,0 -54,-22 -12,-28 14,-2 22,-11 22,-22 0,-29 19,-34 44,-11 28,27 32,26 40,-4 9,-36 36,-32 36,4 0,23 5,30 22,33 32,5 35,28 4,28 -29,0 -33,11 -11,30 20,16 19,50 -1,50 -8,0 -25,-5 -36,-11 -14,-8 -23,-8 -31,0 -12,12 -30,14 -40,5 z"
       id="path302"
       inkscape:connector-curvature="0" />
    <path
       d="m 3886,1181 c -4,-7 -5,-23 -2,-37 6,-22 3,-24 -25,-24 -38,0 -35,-24 4,-28 15,-2 27,-10 27,-18 0,-17 12,-18 27,-3 7,7 19,9 27,6 24,-10 31,-7 28,9 -2,8 4,17 13,20 19,8 19,24 -1,52 -15,22 -17,22 -35,6 -18,-16 -20,-16 -37,6 -14,17 -21,20 -26,11 z"
       id="path304"
       inkscape:connector-curvature="0" />
    <path
       d="m 5155,1170 c -3,-6 -17,-7 -29,-4 -26,6 -40,-14 -29,-43 4,-10 2,-14 -5,-9 -6,3 -13,2 -17,-3 -3,-5 0,-13 7,-18 7,-4 13,-15 13,-23 0,-8 9,-16 20,-17 11,-1 30,-5 43,-9 18,-5 22,-3 22,17 0,19 6,24 26,25 14,1 28,4 31,7 10,11 -9,27 -33,27 -20,0 -23,3 -16,18 5,9 7,23 5,30 -6,14 -29,16 -38,2 z"
       id="path306"
       inkscape:connector-curvature="0" />
    <path
       d="m 782,1148 c 2,-12 11,-24 21,-26 14,-3 18,1 15,20 -2,12 -11,24 -21,26 -14,3 -18,-1 -15,-20 z"
       id="path308"
       inkscape:connector-curvature="0" />
    <path
       d="m 4110,1114 c 0,-7 -5,-14 -11,-16 -9,-3 -9,-10 0,-26 9,-16 21,-22 46,-22 21,0 36,5 36,13 7,66 7,66 -33,64 -22,-1 -38,-6 -38,-13 z"
       id="path310"
       inkscape:connector-curvature="0" />
    <path
       d="m 1877,904 c -4,-3 -349,-16 -507,-19 -91,-2 -187,-6 -215,-9 -27,-4 -81,-10 -119,-14 -38,-5 -79,-7 -90,-6 -12,1 -161,5 -332,9 -306,6 -355,3 -306,-24 22,-12 761,-19 780,-7 22,14 558,31 932,30 879,-3 1083,-5 1090,-9 4,-3 112,-5 241,-6 209,-1 419,-6 904,-24 83,-4 305,-5 495,-3 602,4 1202,2 1290,-6 81,-7 296,-16 390,-16 255,-1 1289,10 1309,15 14,3 40,1 56,-3 43,-12 95,3 95,28 0,20 -5,20 -262,13 -365,-10 -1454,-10 -1678,0 -102,5 -351,8 -555,6 -1132,-6 -1541,0 -1557,25 -6,8 -11,7 -17,-3 -7,-11 -35,-12 -147,-6 -77,5 -258,9 -404,11 -146,1 -458,5 -695,9 -565,9 -696,10 -698,9 z"
       id="path312"
       inkscape:connector-curvature="0" />
    <path
       d="m 1450,795 c 0,-8 12,-29 28,-46 23,-25 32,-29 55,-24 32,8 34,38 2,44 -11,2 -26,12 -33,22 -16,23 -52,25 -52,4 z"
       id="path314"
       inkscape:connector-curvature="0" />
    <path
       d="M 970,758 C 936,734 842,623 841,605 c -1,-18 -32,-56 -41,-50 -5,3 -5,16 2,30 15,34 4,59 -20,46 -30,-16 -47,-67 -33,-98 10,-21 16,-24 42,-19 23,4 31,2 36,-12 10,-27 35,-52 53,-52 16,0 60,39 60,54 0,5 -11,5 -25,2 -27,-7 -45,15 -45,56 0,33 49,108 96,146 30,25 45,31 66,27 29,-7 41,5 32,29 -9,23 -55,20 -94,-6 z"
       id="path316"
       inkscape:connector-curvature="0" />
    <path
       d="m 497,602 c -37,-37 -67,-73 -67,-80 0,-8 15,-11 47,-9 l 48,2 5,-40 c 7,-50 17,-67 38,-63 13,2 17,14 17,43 0,36 3,40 30,45 39,7 42,36 3,32 -36,-4 -42,11 -28,64 10,35 10,47 0,59 -7,8 -15,15 -19,15 -4,0 -37,-30 -74,-68 z m 25,-44 c -7,-7 -12,-8 -12,-2 0,6 3,14 7,17 3,4 9,5 12,2 2,-3 -1,-11 -7,-17 z"
       id="path318"
       inkscape:connector-curvature="0" />
    <path
       d="m 354,647 c -2,-7 -3,-55 -2,-107 3,-81 6,-95 21,-98 15,-3 17,7 17,101 0,85 -3,106 -15,111 -9,3 -18,0 -21,-7 z"
       id="path320"
       inkscape:connector-curvature="0" />
    <path
       d="m 2590,616 c -7,-18 -14,-23 -29,-19 -29,7 -27,-21 2,-35 20,-9 17,-11 -20,-11 -52,-1 -61,-28 -13,-37 l 30,-6 -20,-28 c -25,-34 -25,-40 -2,-40 10,0 26,14 35,30 19,32 37,39 37,15 0,-18 37,-38 56,-31 11,4 12,10 4,25 -15,29 -13,33 17,29 37,-4 40,18 3,30 -27,10 -42,32 -21,32 14,0 22,31 11,45 -6,7 -21,10 -35,7 -15,-2 -25,0 -25,7 0,20 -20,11 -30,-13 z"
       id="path322"
       inkscape:connector-curvature="0" />
    <path
       d="m 1179,595 c -25,-36 -60,-56 -67,-36 -8,24 -39,54 -50,47 -7,-4 -12,-20 -12,-36 0,-19 -7,-33 -20,-40 -19,-10 -20,-9 -14,14 8,34 -9,33 -35,-1 -20,-24 -20,-27 -5,-45 21,-23 42,-23 73,1 20,15 29,16 52,7 26,-9 32,-7 65,24 l 37,35 -7,-30 c -12,-53 -11,-59 4,-62 14,-3 39,34 54,80 7,23 -20,77 -38,77 -7,0 -24,-16 -37,-35 z"
       id="path324"
       inkscape:connector-curvature="0" />
    <path
       d="m 1430,588 c -28,-46 -26,-82 7,-107 35,-28 66,-35 92,-21 31,16 27,41 -6,38 -16,-1 -38,4 -50,10 l -22,12 25,25 c 31,31 29,69 -3,73 -16,2 -28,-6 -43,-30 z"
       id="path326"
       inkscape:connector-curvature="0" />
    <path
       d="m 3979,597 c -14,-12 -34,-27 -44,-32 -17,-10 -22,-27 -32,-121 -5,-49 -4,-52 28,-75 27,-19 49,-25 104,-27 66,-3 108,8 92,24 -4,4 -28,9 -52,10 -25,1 -66,12 -90,24 -45,22 -45,22 -45,74 0,30 6,61 15,73 17,24 78,48 101,39 21,-8 34,1 27,19 -8,23 -73,18 -104,-8 z"
       id="path328"
       inkscape:connector-curvature="0" />
    <path
       d="m 1295,600 c -9,-14 46,-84 70,-88 39,-8 37,16 -5,55 -50,45 -56,48 -65,33 z"
       id="path330"
       inkscape:connector-curvature="0" />
    <path
       d="m 4104,599 c -7,-13 3,-22 55,-51 27,-15 31,-23 31,-58 0,-29 -8,-51 -25,-74 -29,-38 -31,-46 -9,-46 22,0 84,64 84,86 0,9 -7,41 -16,69 -14,45 -22,54 -53,65 -20,7 -41,15 -47,17 -7,2 -15,-1 -20,-8 z"
       id="path332"
       inkscape:connector-curvature="0" />
    <path
       d="m 3542,568 c -7,-7 -8,-17 -1,-30 13,-23 25,-23 32,2 6,24 -15,44 -31,28 z"
       id="path334"
       inkscape:connector-curvature="0" />
    <path
       d="m 3169,558 c -1,-7 -2,-22 -3,-33 -1,-14 -9,-21 -28,-23 -26,-3 -41,-22 -17,-22 6,0 9,-7 5,-15 -6,-17 16,-20 44,-5 15,8 20,6 25,-10 8,-26 22,-25 31,2 4,13 13,28 21,33 12,9 12,15 -1,40 -20,39 -74,61 -77,33 z"
       id="path336"
       inkscape:connector-curvature="0" />
    <path
       d="m 3588,535 c -6,-14 -19,-27 -30,-30 -19,-7 -25,-25 -8,-25 5,0 9,-10 7,-22 -1,-17 3,-23 17,-21 11,1 27,-8 36,-19 20,-25 44,-16 35,13 -4,11 -1,27 6,35 9,11 8,18 -5,32 -9,10 -16,26 -16,34 0,28 -30,30 -42,3 z"
       id="path338"
       inkscape:connector-curvature="0" />
    <path
       d="m 4627,530 c -12,-17 -15,-18 -20,-5 -9,23 -47,19 -47,-4 0,-11 5,-23 11,-27 7,-4 9,-22 6,-46 -4,-32 -2,-38 9,-34 8,3 24,0 35,-7 16,-10 21,-9 28,2 5,8 7,20 4,27 -2,7 5,15 16,19 29,9 26,25 -4,25 -23,0 -24,2 -13,25 16,35 -4,55 -25,25 z"
       id="path340"
       inkscape:connector-curvature="0" />
    <path
       d="m 1606,501 c -7,-11 18,-33 27,-24 4,3 7,12 7,20 0,15 -26,18 -34,4 z"
       id="path342"
       inkscape:connector-curvature="0" />
    <path
       d="m 500,264 c -14,-2 -69,-6 -122,-9 -75,-5 -98,-10 -98,-21 0,-12 45,-13 288,-10 158,2 339,0 402,-5 123,-9 586,-11 735,-4 50,3 313,0 585,-6 272,-5 635,-12 805,-15 171,-2 419,-8 553,-13 148,-6 255,-6 275,0 63,18 655,8 667,-11 6,-9 9,-9 15,0 5,9 59,10 211,6 111,-3 220,-8 241,-11 21,-2 117,-7 213,-10 96,-3 204,-7 240,-10 213,-15 522,-26 700,-25 624,5 757,7 767,13 13,8 222,22 296,20 26,-1 47,2 47,6 0,4 51,9 113,10 61,1 126,4 142,7 46,6 132,6 164,-1 17,-4 44,0 66,9 21,9 55,16 76,16 21,0 41,5 45,11 13,22 -12,29 -71,19 -64,-10 -156,-16 -355,-25 -69,-3 -159,-7 -200,-10 -41,-3 -129,-7 -195,-10 -66,-3 -156,-10 -200,-14 -80,-9 -1149,-6 -1280,3 -38,3 -104,7 -145,10 -41,4 -154,8 -250,11 -96,2 -290,9 -430,14 -228,9 -425,11 -805,8 -304,-3 -469,-1 -858,5 -230,4 -423,10 -427,13 -5,3 -116,5 -247,5 -131,-1 -242,-1 -248,-1 -5,1 -307,4 -670,6 -746,6 -959,10 -995,17 -14,3 -36,4 -50,2 z"
       id="path344"
       inkscape:connector-curvature="0" />
  </g>
</svg>
