<?xml version="1.0" encoding="UTF-8" standalone="no"?>
<!-- Created with Inkscape (http://www.inkscape.org/) -->

<svg
   xmlns:dc="http://purl.org/dc/elements/1.1/"
   xmlns:cc="http://creativecommons.org/ns#"
   xmlns:rdf="http://www.w3.org/1999/02/22-rdf-syntax-ns#"
   xmlns:svg="http://www.w3.org/2000/svg"
   xmlns="http://www.w3.org/2000/svg"
   xmlns:sodipodi="http://sodipodi.sourceforge.net/DTD/sodipodi-0.dtd"
   xmlns:inkscape="http://www.inkscape.org/namespaces/inkscape"
   width="744.09448819"
   height="1052.3622047"
   id="svg2"
   version="1.1"
   inkscape:version="0.48.4 r9939"
   sodipodi:docname="galilean-transformation.svg">
  <defs
     id="defs4">
    <filter
       inkscape:collect="always"
       id="filter4541">
      <feGaussianBlur
         inkscape:collect="always"
         stdDeviation="1.5274123"
         id="feGaussianBlur4543" />
    </filter>
    <filter
       inkscape:collect="always"
       id="filter4545">
      <feGaussianBlur
         inkscape:collect="always"
         stdDeviation="1.5274123"
         id="feGaussianBlur4547" />
    </filter>
    <filter
       inkscape:collect="always"
       id="filter4549">
      <feGaussianBlur
         inkscape:collect="always"
         stdDeviation="1.5274123"
         id="feGaussianBlur4551" />
    </filter>
    <filter
       inkscape:collect="always"
       id="filter4553">
      <feGaussianBlur
         inkscape:collect="always"
         stdDeviation="1.5274123"
         id="feGaussianBlur4555" />
    </filter>
    <filter
       inkscape:collect="always"
       id="filter4557">
      <feGaussianBlur
         inkscape:collect="always"
         stdDeviation="1.5274123"
         id="feGaussianBlur4559" />
    </filter>
    <filter
       inkscape:collect="always"
       id="filter4561">
      <feGaussianBlur
         inkscape:collect="always"
         stdDeviation="1.5274123"
         id="feGaussianBlur4563" />
    </filter>
    <filter
       inkscape:collect="always"
       id="filter4565">
      <feGaussianBlur
         inkscape:collect="always"
         stdDeviation="1.5274123"
         id="feGaussianBlur4567" />
    </filter>
    <filter
       inkscape:collect="always"
       id="filter4569">
      <feGaussianBlur
         inkscape:collect="always"
         stdDeviation="1.5274123"
         id="feGaussianBlur4571" />
    </filter>
  </defs>
  <sodipodi:namedview
     id="base"
     pagecolor="#ffffff"
     bordercolor="#666666"
     borderopacity="1.0"
     inkscape:pageopacity="0.0"
     inkscape:pageshadow="2"
     inkscape:zoom="1.7063747"
     inkscape:cx="-189.08202"
     inkscape:cy="500.01029"
     inkscape:document-units="px"
     inkscape:current-layer="layer1"
     showgrid="false"
     inkscape:window-width="1280"
     inkscape:window-height="998"
     inkscape:window-x="0"
     inkscape:window-y="0"
     inkscape:window-maximized="1" />
  <metadata
     id="metadata7">
    <rdf:RDF>
      <cc:Work
         rdf:about="">
        <dc:format>image/svg+xml</dc:format>
        <dc:type
           rdf:resource="http://purl.org/dc/dcmitype/StillImage" />
        <dc:title />
      </cc:Work>
    </rdf:RDF>
  </metadata>
  <g
     inkscape:label="Layer 1"
     inkscape:groupmode="layer"
     id="layer1">
    <rect
       style="fill:#dedede;fill-opacity:1;stroke:none"
       id="rect4583"
       width="382.5"
       height="224.75407"
       x="-409.68893"
       y="444.96115" />
    <g
       id="g3168"
       transform="matrix(0.9338979,0,0,0.9338979,-48.225889,34.037858)">
      <path
         inkscape:connector-curvature="0"
         id="path3050-2-2-7"
         d="m -140.05389,626.52353 c -0.44015,0.019 -0.84246,0.15508 -1.19997,0.39343 -0.71504,0.47668 -1.25899,1.71145 -1.25899,1.71145 l -0.11803,0.0787 -0.31475,0.059 -0.2754,0.25573 0.88522,0.9049 -0.17704,0.27541 -1.18031,-1.1213 0.17704,-0.1377 c -0.62279,-0.48365 -0.93637,-0.53257 -1.37702,-0.45244 -0.52945,0.0963 -0.97486,0.31607 -1.16063,0.4131 l 0.33442,1.12129 2.45896,1.06227 -0.23604,0.27541 -2.45899,-1.02293 -0.59014,-1.3967 -0.17706,0.0787 -0.17704,0 -0.0197,0.0196 c -2.14683,0.0293 -3.5871,0.53502 -4.52451,0.59016 -0.22666,0.0133 -0.25679,0.0207 -0.25573,0.0197 0.043,-0.0196 -0.15691,-0.0787 -3.28518,-0.0787 -5.00525,0 -7.62123,0.17648 -8.81296,0.23607 -1.19174,0.0596 -2.06554,-0.3541 -2.06554,-0.3541 0,0 -0.0684,-0.003 -1.14097,0.29509 -1.07256,0.29793 -2.1408,0.0601 -2.49832,-0.059 -0.13649,-0.0455 -0.98797,0.17103 -1.98684,0.51147 l 0.0787,-0.21639 c -3.99228,-0.29793 -4.83527,0.36578 -5.25237,1.19998 -0.56529,1.13056 -0.055,3.5149 -0.47212,8.28183 -0.41711,4.76688 -1.259,8.82692 -1.259,9.42277 0,0.59587 -0.88636,1.07111 -0.7672,2.20324 0.075,0.71275 0.22085,1.12565 0.31475,1.35735 l 0.0984,-0.0394 1.16064,-0.88522 0.39343,-2.36062 0.39344,-2.59667 0.1377,-1.94751 0.0787,-3.50157 0.23606,-3.61961 0.31475,0.0589 -0.19672,3.4229 0.0197,3.67862 -0.31475,1.96718 -0.66884,5.11467 -1.59341,1.04259 0.0983,1.37704 1.67209,-0.31475 c 0.0389,-0.25216 1.22646,-2.27593 2.20325,-3.93436 l -0.39344,-1.33768 -0.19671,-0.84589 0.78686,-0.6295 0.78687,-2.9901 -1.39669,-5.2327 0.45244,-0.19671 1.49506,5.23268 c 0,0 -0.66573,3.23967 -0.7672,3.44257 -0.10141,0.2029 -0.80345,0.45505 -0.90489,0.53115 -0.10141,0.0761 0.66884,1.19996 0.66884,1.19996 l -0.0197,0.0394 1.61309,5.39007 1.23932,-0.059 0.0394,-0.11803 c 8.3e-4,0.0725 -8.4e-4,0.14148 0,0.2164 l 0.0984,-0.25575 -0.15739,0.0394 0.17706,-3.99337 0.47211,-2.97043 0.64918,-1.29835 1.59341,0.45246 0.15737,0.62949 0.92459,-2.34094 c 0.18643,-0.0247 0.42866,-7e-5 0.72785,0.0787 1.13214,0.29793 3.91952,1.47254 5.46875,1.77046 1.54925,0.29794 2.14506,0.41823 4.1114,-0.11803 1.96635,-0.53628 3.34961,-1.00441 4.83926,-0.88523 0.69417,0.0555 1.67957,0.17807 2.57701,0.31476 l 0.0394,0.2754 c 0.0596,2.91972 0.29507,3.80719 0.29507,4.76057 0,0.95338 -0.11803,2.45897 -0.11803,2.45897 0,0 0.0493,0.004 0.0983,0 l 0,0.0589 1.51474,0.11803 c 0,0 0.13427,-1.90245 0.49179,-2.49831 0.35752,-0.59586 0.17134,-1.37501 0.7672,-3.63928 l 0,-0.15737 c 0.28437,0.31512 0.54387,0.62863 0.64916,0.86556 0.23835,0.53626 0.58959,1.25615 0.64917,1.55407 0.0596,0.29793 0.84304,0.53996 1.14097,1.67209 0.29792,1.13215 0.29507,2.38029 0.29507,2.38029 l 2.3016,0.21639 c 0.0498,0.0208 0.19672,0.0787 0.19672,0.0787 -0.48563,-0.76012 -0.81949,-1.22052 -1.06228,-1.57373 l -0.37376,-0.72786 -0.0983,-0.55081 c 0.007,-0.1207 0.0367,-0.25671 0.059,-0.41311 0.17876,-1.25132 0.099,-1.66639 0.0394,-2.26226 -0.0596,-0.59586 -0.0983,-1.02293 -0.0983,-1.02293 0,0 0.94366,-1.43147 1.00326,-1.90815 0.0596,-0.4767 0.78687,-1.31802 0.78687,-1.31802 0,0 0.82621,0.01 0.82621,-0.94425 0,-0.95337 0.11746,-2.6916 0.17705,-3.04913 0.0596,-0.35752 0.42422,-0.71244 1.318,-2.32127 0.37355,-0.67239 0.64405,-1.32663 0.86557,-1.9475 l -0.17705,0.0787 -0.74753,0.96392 -0.55081,0.31475 -1.75079,-0.31475 -0.51146,-0.70818 -1.14097,-3.93436 0.35409,-0.19672 0.45245,1.63276 0.66885,2.32127 0.47212,0.66883 1.73112,0.059 0.64917,-0.78687 0.39343,-0.59015 0.31475,0.0787 c 0.22647,-0.70483 0.36488,-1.34346 0.45245,-1.86884 0.17875,-1.07255 -8.3e-4,-2.43586 0.11803,-2.79338 0.0596,-0.17876 0.13866,-0.21639 0.29508,-0.21639 0.15641,0 0.39956,0.0394 0.78687,0.0394 0.77463,0 1.13867,-0.30904 1.37702,-0.90491 0.23834,-0.59586 1.06571,-1.23647 0.70819,-1.53439 -0.35751,-0.29794 -0.23036,-0.19387 -0.82622,-0.4918 -0.59586,-0.29793 -1.07738,-0.77291 -1.55406,-0.17705 -0.23835,0.29792 -0.36996,0.53268 -0.51147,0.62951 l 0,0.11803 -0.37378,-0.0787 0.11804,0 c -0.0863,-0.0346 -0.1856,-0.1266 -0.31474,-0.25573 -0.53628,-0.53628 -0.65343,-1.16536 -1.12129,-1.35737 -0.44187,-0.18132 -0.91721,-0.27476 -1.35736,-0.25573 z m 3.04915,1.82948 -0.23608,0.0394 c 0.0884,0.0325 0.16531,0.009 0.23608,-0.0394 z m -41.80255,24.51103 0.0589,1.25898 -0.0589,-1.25898 z"
         style="color:#000000;fill:#747474;fill-opacity:1;stroke:none;stroke-width:1;marker:none;visibility:visible;display:inline;overflow:visible;enable-background:accumulate" />
      <path
         inkscape:connector-curvature="0"
         id="path3050-2-2-7-5"
         d="m -140.05389,572.3358 c -0.44015,0.019 -0.84246,0.15509 -1.19997,0.39344 -0.71504,0.47668 -1.25899,1.71144 -1.25899,1.71144 l -0.11803,0.0787 -0.31475,0.059 -0.2754,0.25573 0.88522,0.9049 -0.17704,0.27541 -1.18031,-1.1213 0.17704,-0.13771 c -0.62279,-0.48365 -0.93637,-0.53256 -1.37702,-0.45244 -0.52945,0.0963 -0.97486,0.31608 -1.16063,0.41311 l 0.33442,1.12129 2.45896,1.06227 -0.23604,0.27541 -2.45899,-1.02293 -0.59014,-1.39671 -0.17706,0.0787 -0.17704,0 -0.0197,0.0196 c -2.14683,0.0293 -3.5871,0.53502 -4.52451,0.59016 -0.22666,0.0133 -0.25679,0.0207 -0.25573,0.0197 0.043,-0.0196 -0.15691,-0.0787 -3.28518,-0.0787 -5.00525,0 -7.62123,0.17647 -8.81296,0.23606 -1.19174,0.0596 -2.06554,-0.3541 -2.06554,-0.3541 0,0 -0.0684,-0.003 -1.14097,0.29509 -1.07256,0.29793 -2.1408,0.0601 -2.49832,-0.059 -0.13649,-0.0455 -0.98797,0.17104 -1.98684,0.51148 l 0.0787,-0.21639 c -3.99228,-0.29793 -4.83527,0.36578 -5.25237,1.19997 -0.56529,1.13057 -0.055,3.51491 -0.47212,8.28183 -0.41711,4.76689 -1.259,8.82692 -1.259,9.42278 0,0.59587 -0.88636,1.07111 -0.7672,2.20324 0.075,0.71275 0.22085,1.12565 0.31475,1.35735 l 0.0984,-0.0394 1.16064,-0.88523 0.39343,-2.36061 0.39344,-2.59667 0.1377,-1.94751 0.0787,-3.50158 0.23606,-3.6196 0.31475,0.0589 -0.19672,3.4229 0.0197,3.67862 -0.31475,1.96718 -0.66884,5.11467 -1.59341,1.04259 0.0983,1.37704 1.67209,-0.31475 c 0.0389,-0.25216 1.22646,-2.27593 2.20325,-3.93436 l -0.39344,-1.33768 -0.19671,-0.84589 0.78686,-0.6295 0.78687,-2.9901 -1.39669,-5.2327 0.45244,-0.19672 1.49506,5.23269 c 0,0 -0.66573,3.23967 -0.7672,3.44257 -0.10141,0.2029 -0.80345,0.45505 -0.90489,0.53114 -0.10141,0.0761 0.66884,1.19997 0.66884,1.19997 l -0.0197,0.0394 1.61309,5.39007 1.23932,-0.059 0.0394,-0.11803 c 8.3e-4,0.0725 -8.4e-4,0.14148 0,0.21639 l 0.0984,-0.25574 -0.15739,0.0394 0.17706,-3.99336 0.47211,-2.97044 0.64918,-1.29834 1.59341,0.45246 0.15737,0.62949 0.92459,-2.34094 c 0.18643,-0.0247 0.42866,-8e-5 0.72785,0.0787 1.13214,0.29793 3.91952,1.47254 5.46875,1.77046 1.54925,0.29793 2.14506,0.41823 4.1114,-0.11803 1.96635,-0.53628 3.34961,-1.00441 4.83926,-0.88523 0.69417,0.0555 1.67957,0.17807 2.57701,0.31475 l 0.0394,0.27541 c 0.0596,2.91972 0.29507,3.80719 0.29507,4.76057 0,0.95338 -0.11803,2.45896 -0.11803,2.45896 0,0 0.0493,0.004 0.0983,0 l 0,0.059 1.51474,0.11803 c 0,0 0.13427,-1.90245 0.49179,-2.49831 0.35752,-0.59587 0.17134,-1.37501 0.7672,-3.63928 l 0,-0.15737 c 0.28437,0.31512 0.54387,0.62863 0.64916,0.86555 0.23835,0.53627 0.58959,1.25616 0.64917,1.55408 0.0596,0.29793 0.84304,0.53996 1.14097,1.67209 0.29792,1.13215 0.29507,2.38028 0.29507,2.38028 l 2.3016,0.2164 c 0.0498,0.0208 0.19672,0.0787 0.19672,0.0787 -0.48563,-0.76012 -0.81949,-1.22052 -1.06228,-1.57373 l -0.37376,-0.72786 -0.0983,-0.55082 c 0.007,-0.12069 0.0367,-0.2567 0.059,-0.41311 0.17876,-1.25131 0.099,-1.66638 0.0394,-2.26225 -0.0596,-0.59586 -0.0983,-1.02293 -0.0983,-1.02293 0,0 0.94366,-1.43147 1.00326,-1.90815 0.0596,-0.4767 0.78687,-1.31802 0.78687,-1.31802 0,0 0.82621,0.01 0.82621,-0.94425 0,-0.95337 0.11746,-2.6916 0.17705,-3.04913 0.0596,-0.35752 0.42422,-0.71244 1.318,-2.32127 0.37355,-0.67239 0.64405,-1.32663 0.86557,-1.9475 l -0.17705,0.0787 -0.74753,0.96392 -0.55081,0.31475 -1.75079,-0.31475 -0.51146,-0.70818 -1.14097,-3.93436 0.35409,-0.19672 0.45245,1.63276 0.66885,2.32127 0.47212,0.66883 1.73112,0.059 0.64917,-0.78687 0.39343,-0.59016 0.31475,0.0787 c 0.22647,-0.70483 0.36488,-1.34346 0.45245,-1.86884 0.17875,-1.07255 -8.3e-4,-2.43586 0.11803,-2.79339 0.0596,-0.17875 0.13866,-0.21638 0.29508,-0.21638 0.15641,0 0.39956,0.0394 0.78687,0.0394 0.77463,0 1.13867,-0.30904 1.37702,-0.90491 0.23834,-0.59586 1.06571,-1.23647 0.70819,-1.53439 -0.35751,-0.29794 -0.23036,-0.19387 -0.82622,-0.4918 -0.59586,-0.29794 -1.07738,-0.77291 -1.55406,-0.17705 -0.23835,0.29792 -0.36996,0.53268 -0.51147,0.6295 l 0,0.11805 -0.37378,-0.0787 0.11804,0 c -0.0863,-0.0346 -0.1856,-0.1266 -0.31474,-0.25573 -0.53628,-0.53628 -0.65343,-1.16536 -1.12129,-1.35737 -0.44187,-0.18132 -0.91721,-0.27476 -1.35736,-0.25573 z m 3.04915,1.82948 -0.23608,0.0394 c 0.0884,0.0325 0.16531,0.009 0.23608,-0.0394 z m -41.80255,24.51104 0.0589,1.25898 -0.0589,-1.25898 z"
         style="color:#000000;fill:#747474;fill-opacity:1;stroke:none;stroke-width:1;marker:none;visibility:visible;display:inline;overflow:visible;enable-background:accumulate" />
      <path
         inkscape:connector-curvature="0"
         id="path3050-2-2-7-0"
         d="m -140.05389,518.14801 c -0.44015,0.019 -0.84246,0.15508 -1.19997,0.39343 -0.71504,0.4767 -1.25899,1.71145 -1.25899,1.71145 l -0.11803,0.0787 -0.31475,0.059 -0.2754,0.25574 0.88522,0.90489 -0.17704,0.27542 -1.18031,-1.12129 0.17704,-0.13772 c -0.62279,-0.48365 -0.93637,-0.53256 -1.37702,-0.45244 -0.52945,0.0963 -0.97486,0.31608 -1.16063,0.4131 l 0.33442,1.12131 2.45896,1.06227 -0.23604,0.2754 -2.45899,-1.02293 -0.59014,-1.39671 -0.17706,0.0787 -0.17704,0 -0.0197,0.0196 c -2.14683,0.0293 -3.5871,0.53502 -4.52451,0.59015 -0.22666,0.0133 -0.25679,0.0207 -0.25573,0.0197 0.043,-0.0196 -0.15691,-0.0787 -3.28518,-0.0787 -5.00525,0 -7.62123,0.17648 -8.81296,0.23608 -1.19174,0.0596 -2.06554,-0.35411 -2.06554,-0.35411 0,0 -0.0684,-0.003 -1.14097,0.29509 -1.07256,0.29793 -2.1408,0.0601 -2.49832,-0.059 -0.13649,-0.0455 -0.98797,0.17104 -1.98684,0.51147 l 0.0787,-0.21638 c -3.99228,-0.29793 -4.83527,0.36578 -5.25237,1.19997 -0.56529,1.13057 -0.055,3.51492 -0.47212,8.28182 -0.41711,4.7669 -1.259,8.82693 -1.259,9.42278 0,0.59588 -0.88636,1.07112 -0.7672,2.20325 0.075,0.71275 0.22085,1.12565 0.31475,1.35735 l 0.0984,-0.0394 1.16064,-0.88522 0.39343,-2.36062 0.39344,-2.59667 0.1377,-1.94751 0.0787,-3.50158 0.23606,-3.6196 0.31475,0.059 -0.19672,3.42289 0.0197,3.67863 -0.31475,1.96718 -0.66884,5.11466 -1.59341,1.04261 0.0983,1.37703 1.67209,-0.31476 c 0.0389,-0.25215 1.22646,-2.27592 2.20325,-3.93435 l -0.39344,-1.33769 -0.19671,-0.84588 0.78686,-0.6295 0.78687,-2.9901 -1.39669,-5.23271 0.45244,-0.1967 1.49506,5.23268 c 0,0 -0.66573,3.23967 -0.7672,3.44256 -0.10141,0.20291 -0.80345,0.45506 -0.90489,0.53115 -0.10141,0.0761 0.66884,1.19997 0.66884,1.19997 l -0.0197,0.0394 1.61309,5.39007 1.23932,-0.059 0.0394,-0.11803 c 8.3e-4,0.0725 -8.4e-4,0.14148 0,0.21639 l 0.0984,-0.25574 -0.15739,0.0394 0.17706,-3.99337 0.47211,-2.97044 0.64918,-1.29834 1.59341,0.45245 0.15737,0.6295 0.92459,-2.34094 c 0.18643,-0.0247 0.42866,-8e-5 0.72785,0.0787 1.13214,0.29793 3.91952,1.47253 5.46875,1.77045 1.54925,0.29794 2.14506,0.41824 4.1114,-0.11803 1.96635,-0.53627 3.34961,-1.0044 4.83926,-0.88522 0.69417,0.0555 1.67957,0.17806 2.57701,0.31475 l 0.0394,0.2754 c 0.0596,2.91973 0.29507,3.80719 0.29507,4.76058 0,0.95337 -0.11803,2.45896 -0.11803,2.45896 0,0 0.0493,0.004 0.0983,0 l 0,0.059 1.51474,0.11803 c 0,0 0.13427,-1.90244 0.49179,-2.49831 0.35752,-0.59586 0.17134,-1.37501 0.7672,-3.63929 l 0,-0.15737 c 0.28437,0.31513 0.54387,0.62864 0.64916,0.86556 0.23835,0.53627 0.58959,1.25616 0.64917,1.55408 0.0596,0.29793 0.84304,0.53995 1.14097,1.67209 0.29792,1.13214 0.29507,2.38029 0.29507,2.38029 l 2.3016,0.21639 c 0.0498,0.0208 0.19672,0.0787 0.19672,0.0787 -0.48563,-0.76012 -0.81949,-1.22053 -1.06228,-1.57373 l -0.37376,-0.72786 -0.0983,-0.55082 c 0.007,-0.12069 0.0367,-0.2567 0.059,-0.41311 0.17876,-1.25131 0.099,-1.66639 0.0394,-2.26226 -0.0596,-0.59586 -0.0983,-1.02292 -0.0983,-1.02292 0,0 0.94366,-1.43147 1.00326,-1.90816 0.0596,-0.4767 0.78687,-1.31801 0.78687,-1.31801 0,0 0.82621,0.01 0.82621,-0.94425 0,-0.95338 0.11746,-2.69161 0.17705,-3.04913 0.0596,-0.35752 0.42422,-0.71244 1.318,-2.32127 0.37355,-0.67238 0.64405,-1.32663 0.86557,-1.94749 l -0.17705,0.0787 -0.74753,0.9639 -0.55081,0.31476 -1.75079,-0.31476 -0.51146,-0.70817 -1.14097,-3.93436 0.35409,-0.19672 0.45245,1.63275 0.66885,2.32128 0.47212,0.66883 1.73112,0.059 0.64917,-0.78687 0.39343,-0.59015 0.31475,0.0787 c 0.22647,-0.70483 0.36488,-1.34344 0.45245,-1.86883 0.17875,-1.07255 -8.3e-4,-2.43587 0.11803,-2.79338 0.0596,-0.17876 0.13866,-0.2164 0.29508,-0.2164 0.15641,0 0.39956,0.0394 0.78687,0.0394 0.77463,0 1.13867,-0.30903 1.37702,-0.90489 0.23834,-0.59587 1.06571,-1.23648 0.70819,-1.5344 -0.35751,-0.29794 -0.23036,-0.19388 -0.82622,-0.49181 -0.59586,-0.29793 -1.07738,-0.7729 -1.55406,-0.17703 -0.23835,0.29792 -0.36996,0.53267 -0.51147,0.62949 l 0,0.11804 -0.37378,-0.0787 0.11804,0 c -0.0863,-0.0346 -0.1856,-0.12661 -0.31474,-0.25573 -0.53628,-0.53628 -0.65343,-1.16536 -1.12129,-1.35736 -0.44187,-0.18132 -0.91721,-0.27477 -1.35736,-0.25574 z m 3.04915,1.82947 -0.23608,0.0394 c 0.0884,0.0325 0.16531,0.009 0.23608,-0.0394 z m -41.80255,24.51104 0.0589,1.25899 -0.0589,-1.25899 z"
         style="color:#000000;fill:#747474;fill-opacity:1;stroke:none;stroke-width:1;marker:none;visibility:visible;display:inline;overflow:visible;enable-background:accumulate" />
      <path
         inkscape:connector-curvature="0"
         id="path3050-2-2-7-01"
         d="m -140.05389,463.9602 c -0.44015,0.019 -0.84246,0.15509 -1.19997,0.39343 -0.71504,0.47669 -1.25899,1.71145 -1.25899,1.71145 l -0.11803,0.0787 -0.31475,0.059 -0.2754,0.25574 0.88522,0.90489 -0.17704,0.27541 -1.18031,-1.12129 0.17704,-0.1377 c -0.62279,-0.48365 -0.93637,-0.53257 -1.37702,-0.45245 -0.52945,0.0963 -0.97486,0.31608 -1.16063,0.41311 l 0.33442,1.12129 2.45896,1.06226 -0.23604,0.27542 -2.45899,-1.02294 -0.59014,-1.39669 -0.17706,0.0787 -0.17704,0 -0.0197,0.0197 c -2.14683,0.0293 -3.5871,0.53502 -4.52451,0.59016 -0.22666,0.0133 -0.25679,0.0207 -0.25573,0.0197 0.043,-0.0196 -0.15691,-0.0787 -3.28518,-0.0787 -5.00525,0 -7.62123,0.17647 -8.81296,0.23606 -1.19174,0.0596 -2.06554,-0.35409 -2.06554,-0.35409 0,0 -0.0684,-0.003 -1.14097,0.29507 -1.07256,0.29794 -2.1408,0.0601 -2.49832,-0.0589 -0.13649,-0.0455 -0.98797,0.17102 -1.98684,0.51146 l 0.0787,-0.21638 c -3.99228,-0.29793 -4.83527,0.36577 -5.25237,1.19997 -0.56529,1.13057 -0.055,3.51491 -0.47212,8.28183 -0.41711,4.76689 -1.259,8.82692 -1.259,9.42277 0,0.59588 -0.88636,1.07111 -0.7672,2.20324 0.075,0.71276 0.22085,1.12567 0.31475,1.35736 l 0.0984,-0.0394 1.16064,-0.88522 0.39343,-2.36061 0.39344,-2.59668 0.1377,-1.9475 0.0787,-3.50157 0.23606,-3.61962 0.31475,0.059 -0.19672,3.42289 0.0197,3.67862 -0.31475,1.96718 -0.66884,5.11467 -1.59341,1.04261 0.0983,1.37703 1.67209,-0.31476 c 0.0389,-0.25214 1.22646,-2.27592 2.20325,-3.93436 l -0.39344,-1.33768 -0.19671,-0.84589 0.78686,-0.62949 0.78687,-2.99011 -1.39669,-5.2327 0.45244,-0.19671 1.49506,5.23269 c 0,0 -0.66573,3.23966 -0.7672,3.44256 -0.10141,0.2029 -0.80345,0.45506 -0.90489,0.53115 -0.10141,0.0761 0.66884,1.19997 0.66884,1.19997 l -0.0197,0.0394 1.61309,5.39007 1.23932,-0.059 0.0394,-0.11803 c 8.3e-4,0.0725 -8.4e-4,0.14148 0,0.2164 l 0.0984,-0.25574 -0.15739,0.0394 0.17706,-3.99337 0.47211,-2.97043 0.64918,-1.29835 1.59341,0.45246 0.15737,0.62949 0.92459,-2.34094 c 0.18643,-0.0247 0.42866,-7e-5 0.72785,0.0787 1.13214,0.29793 3.91952,1.47254 5.46875,1.77045 1.54925,0.29794 2.14506,0.41823 4.1114,-0.11802 1.96635,-0.53629 3.34961,-1.00442 4.83926,-0.88524 0.69417,0.0555 1.67957,0.17807 2.57701,0.31476 l 0.0394,0.2754 c 0.0596,2.91972 0.29507,3.80719 0.29507,4.76057 0,0.95338 -0.11803,2.45897 -0.11803,2.45897 0,0 0.0493,0.004 0.0983,0 l 0,0.0589 1.51474,0.11804 c 0,0 0.13427,-1.90245 0.49179,-2.49832 0.35752,-0.59586 0.17134,-1.37501 0.7672,-3.63928 l 0,-0.15737 c 0.28437,0.31512 0.54387,0.62863 0.64916,0.86556 0.23835,0.53626 0.58959,1.25615 0.64917,1.55407 0.0596,0.29793 0.84304,0.53996 1.14097,1.67209 0.29792,1.13215 0.29507,2.38029 0.29507,2.38029 l 2.3016,0.2164 c 0.0498,0.0208 0.19672,0.0787 0.19672,0.0787 -0.48563,-0.76013 -0.81949,-1.22053 -1.06228,-1.57374 l -0.37376,-0.72786 -0.0983,-0.55081 c 0.007,-0.12069 0.0367,-0.25671 0.059,-0.41311 0.17876,-1.25131 0.099,-1.66639 0.0394,-2.26226 -0.0596,-0.59586 -0.0983,-1.02293 -0.0983,-1.02293 0,0 0.94366,-1.43147 1.00326,-1.90815 0.0596,-0.4767 0.78687,-1.31801 0.78687,-1.31801 0,0 0.82621,0.01 0.82621,-0.94426 0,-0.95337 0.11746,-2.6916 0.17705,-3.04912 0.0596,-0.35753 0.42422,-0.71245 1.318,-2.32128 0.37355,-0.67238 0.64405,-1.32662 0.86557,-1.94749 l -0.17705,0.0787 -0.74753,0.96391 -0.55081,0.31475 -1.75079,-0.31475 -0.51146,-0.70817 -1.14097,-3.93436 0.35409,-0.19672 0.45245,1.63275 0.66885,2.32127 0.47212,0.66883 1.73112,0.059 0.64917,-0.78686 0.39343,-0.59016 0.31475,0.0787 c 0.22647,-0.70483 0.36488,-1.34345 0.45245,-1.86884 0.17875,-1.07255 -8.3e-4,-2.43585 0.11803,-2.79338 0.0596,-0.17875 0.13866,-0.21639 0.29508,-0.21639 0.15641,0 0.39956,0.0394 0.78687,0.0394 0.77463,0 1.13867,-0.30904 1.37702,-0.9049 0.23834,-0.59587 1.06571,-1.23648 0.70819,-1.5344 -0.35751,-0.29794 -0.23036,-0.19387 -0.82622,-0.4918 -0.59586,-0.29793 -1.07738,-0.77291 -1.55406,-0.17704 -0.23835,0.29792 -0.36996,0.53267 -0.51147,0.6295 l 0,0.11804 -0.37378,-0.0787 0.11804,0 c -0.0863,-0.0346 -0.1856,-0.1266 -0.31474,-0.25573 -0.53628,-0.53627 -0.65343,-1.16536 -1.12129,-1.35736 -0.44187,-0.18132 -0.91721,-0.27476 -1.35736,-0.25573 z m 3.04915,1.82948 -0.23608,0.0394 c 0.0884,0.0325 0.16531,0.009 0.23608,-0.0394 z m -41.80255,24.51104 0.0589,1.25898 -0.0589,-1.25898 z"
         style="color:#000000;fill:#747474;fill-opacity:1;stroke:none;stroke-width:1;marker:none;visibility:visible;display:inline;overflow:visible;enable-background:accumulate" />
    </g>
    <g
       id="g3035">
      <path
         inkscape:connector-curvature="0"
         id="path3825-6"
         d="m -357.17887,617.07098 c -5.20268,0.0501 -8.87339,0.62462 -8.87339,0.62462 -4.03589,1.17013 -6.25534,2.64336 -6.70557,2.9578 l -0.2021,-0.0184 c -4.22756,4.57821 -6.37948,5.85143 -6.65046,8.56109 -0.27211,2.72118 -0.27557,5.35069 -0.27557,5.71353 0,0.33304 0.50008,3.74968 0.58788,4.35401 l 1.34112,0.78998 c 0.90476,0.62988 2.22539,1.48633 3.65592,2.07597 l -0.73486,-0.45929 2.35155,0.77159 c -0.0257,-0.22377 -0.0551,-0.44914 -0.0551,-0.67972 0,-3.27417 2.6598,-5.91561 5.93397,-5.91561 3.27418,0 5.91561,2.64144 5.91561,5.91561 0,0.67463 -0.1056,1.3244 -0.31232,1.929 l 1.32274,0.11021 33.28905,0 c -0.23315,-0.63601 -0.36744,-1.32299 -0.36744,-2.03921 0,-3.27417 2.65981,-5.91561 5.93398,-5.91561 3.27417,0 5.91561,2.64144 5.91561,5.91561 0,0.40926 -0.05,0.80804 -0.12861,1.19413 l 0,0.0184 0.67974,0.99206 1.39624,-0.0918 0.67974,-1.69017 1.0288,-3.41708 0.0184,-1.48809 -1.13904,-1.94738 -2.40665,-3.14152 c 0,0 -1.05598,-1.10772 -10.41661,-3.94985 l 0.0735,0.0919 -1.92899,-1.13903 c -6.41255,-8.02884 -18.60241,-9.91664 -27.61228,-10.1043 -0.79938,-0.0168 -1.57156,-0.0256 -2.3148,-0.0184 z m -9.62662,19.06955 c -3.1093,0 -5.64004,2.51238 -5.64004,5.62166 0,3.10929 2.53074,5.64003 5.64004,5.64003 3.10928,0 5.62165,-2.53074 5.62165,-5.64003 0,-3.10928 -2.51237,-5.62166 -5.62165,-5.62166 z m 45.78161,0 c -3.10929,0 -5.64003,2.51238 -5.64003,5.62166 0,3.10929 2.53074,5.64003 5.64003,5.64003 3.10929,0 5.62166,-2.53074 5.62166,-5.64003 0,-3.10928 -2.51237,-5.62166 -5.62166,-5.62166 z"
         style="color:#000000;fill:#747474;fill-opacity:1;stroke:none;stroke-width:0.625;marker:none;visibility:visible;display:inline;overflow:visible;enable-background:accumulate" />
      <path
         inkscape:connector-curvature="0"
         id="path3825-6-7"
         d="m -308.1384,566.46515 c -5.20269,0.0501 -8.87341,0.62462 -8.87341,0.62462 -4.03589,1.17013 -6.25533,2.64335 -6.70556,2.95781 l -0.2021,-0.0184 c -4.22756,4.57821 -6.37949,5.85143 -6.65046,8.5611 -0.27211,2.72117 -0.27558,5.35068 -0.27558,5.71351 0,0.33306 0.50009,3.74969 0.58789,4.35403 l 1.34112,0.78997 c 0.90476,0.62988 2.22539,1.48634 3.65592,2.07597 l -0.73486,-0.45929 2.35154,0.7716 c -0.0257,-0.22377 -0.055,-0.44915 -0.055,-0.67973 0,-3.27417 2.6598,-5.91562 5.93396,-5.91562 3.27418,0 5.91561,2.64145 5.91561,5.91562 0,0.67463 -0.1056,1.32441 -0.31231,1.92899 l 1.32274,0.11022 33.28904,0 c -0.23314,-0.63601 -0.36742,-1.32299 -0.36742,-2.03921 0,-3.27417 2.6598,-5.91562 5.93398,-5.91562 3.27416,0 5.91559,2.64145 5.91559,5.91562 0,0.40926 -0.05,0.80805 -0.1286,1.19413 l 0,0.0184 0.67975,0.99206 1.39622,-0.0918 0.67975,-1.69018 1.0288,-3.41708 0.0184,-1.48809 -1.13903,-1.94737 -2.40667,-3.14152 c 0,0 -1.05597,-1.10774 -10.4166,-3.94986 l 0.0735,0.0919 -1.929,-1.13903 c -6.41254,-8.02884 -18.6024,-9.91664 -27.61227,-10.1043 -0.79939,-0.0168 -1.57156,-0.0256 -2.3148,-0.0184 z m -9.62663,19.06955 c -3.10929,0 -5.64005,2.51238 -5.64005,5.62167 0,3.10928 2.53076,5.64002 5.64005,5.64002 3.10928,0 5.62165,-2.53074 5.62165,-5.64002 0,-3.10929 -2.51237,-5.62167 -5.62165,-5.62167 z m 45.78161,0 c -3.10929,0 -5.64004,2.51238 -5.64004,5.62167 0,3.10928 2.53075,5.64002 5.64004,5.64002 3.10929,0 5.62166,-2.53074 5.62166,-5.64002 0,-3.10929 -2.51237,-5.62167 -5.62166,-5.62167 z"
         style="color:#000000;fill:#747474;fill-opacity:1;stroke:none;stroke-width:0.625;marker:none;visibility:visible;display:inline;overflow:visible;enable-background:accumulate" />
      <path
         inkscape:connector-curvature="0"
         id="path3825-6-1"
         d="m -259.09784,515.85932 c -5.2027,0.0501 -8.8734,0.62462 -8.8734,0.62462 -4.0359,1.17012 -6.25533,2.64334 -6.70558,2.9578 l -0.20208,-0.0183 c -4.22756,4.57821 -6.37949,5.85143 -6.65047,8.5611 -0.27211,2.72117 -0.27557,5.35069 -0.27557,5.71351 0,0.33305 0.50008,3.7497 0.58788,4.35403 l 1.34112,0.78997 c 0.90476,0.62989 2.22539,1.48635 3.65592,2.07597 l -0.73485,-0.45929 2.35153,0.7716 c -0.0257,-0.22377 -0.0551,-0.44916 -0.0551,-0.67974 0,-3.27416 2.65981,-5.91561 5.93398,-5.91561 3.27417,0 5.9156,2.64145 5.9156,5.91561 0,0.67464 -0.1056,1.32443 -0.31231,1.929 l 1.32274,0.11023 33.28904,0 c -0.23314,-0.63602 -0.36743,-1.323 -0.36743,-2.03923 0,-3.27416 2.65981,-5.91561 5.93398,-5.91561 3.27417,0 5.9156,2.64145 5.9156,5.91561 0,0.40927 -0.05,0.80806 -0.1286,1.19414 l 0,0.0184 0.67975,0.99206 1.39622,-0.0919 0.67975,-1.69018 1.0288,-3.41706 0.0184,-1.4881 -1.13903,-1.94737 -2.40667,-3.14152 c 0,0 -1.05597,-1.10773 -10.4166,-3.94986 l 0.0735,0.0918 -1.929,-1.13903 c -6.41254,-8.02884 -18.6024,-9.91664 -27.61227,-10.10429 -0.79938,-0.0168 -1.57156,-0.0256 -2.3148,-0.0184 z m -9.62663,19.06954 c -3.1093,0 -5.64004,2.51237 -5.64004,5.62167 0,3.10929 2.53074,5.64003 5.64004,5.64003 3.10928,0 5.62166,-2.53074 5.62166,-5.64003 0,-3.1093 -2.51238,-5.62167 -5.62166,-5.62167 z m 45.78162,0 c -3.1093,0 -5.64004,2.51237 -5.64004,5.62167 0,3.10929 2.53074,5.64003 5.64004,5.64003 3.10928,0 5.62165,-2.53074 5.62165,-5.64003 0,-3.1093 -2.51237,-5.62167 -5.62165,-5.62167 z"
         style="color:#000000;fill:#747474;fill-opacity:1;stroke:none;stroke-width:0.625;marker:none;visibility:visible;display:inline;overflow:visible;enable-background:accumulate" />
      <path
         inkscape:connector-curvature="0"
         id="path3825-6-11"
         d="m -210.05732,465.25343 c -5.20269,0.05 -8.8734,0.62463 -8.8734,0.62463 -4.0359,1.17012 -6.25534,2.64335 -6.70558,2.9578 l -0.20208,-0.0184 c -4.22757,4.57822 -6.3795,5.85143 -6.65048,8.5611 -0.2721,2.72118 -0.27557,5.35069 -0.27557,5.71352 0,0.33305 0.50009,3.74969 0.5879,4.35402 l 1.3411,0.78998 c 0.90477,0.62988 2.2254,1.48634 3.65592,2.07597 l -0.73484,-0.45928 2.35153,0.77158 c -0.0257,-0.22377 -0.0551,-0.44915 -0.0551,-0.67973 0,-3.27417 2.6598,-5.9156 5.93397,-5.9156 3.27417,0 5.91561,2.64143 5.91561,5.9156 0,0.67464 -0.10561,1.32442 -0.31232,1.92901 l 1.32274,0.11021 33.28904,0 c -0.23314,-0.63601 -0.36742,-1.32299 -0.36742,-2.03922 0,-3.27417 2.6598,-5.9156 5.93398,-5.9156 3.27416,0 5.9156,2.64143 5.9156,5.9156 0,0.40927 -0.05,0.80806 -0.12861,1.19414 l 0,0.0184 0.67975,0.99205 1.39623,-0.0918 0.67975,-1.69018 1.0288,-3.41708 0.0184,-1.48809 -1.13903,-1.94737 -2.40667,-3.14152 c 0,0 -1.05597,-1.10773 -10.4166,-3.94986 l 0.0735,0.0918 -1.929,-1.13903 c -6.41254,-8.02884 -18.6024,-9.91664 -27.61227,-10.10429 -0.79939,-0.0168 -1.57156,-0.0256 -2.31479,-0.0184 z m -9.62664,19.06956 c -3.10929,0 -5.64002,2.51237 -5.64002,5.62165 0,3.10929 2.53073,5.64004 5.64002,5.64004 3.10928,0 5.62167,-2.53075 5.62167,-5.64004 0,-3.10928 -2.51239,-5.62165 -5.62167,-5.62165 z m 45.78162,0 c -3.10929,0 -5.64003,2.51237 -5.64003,5.62165 0,3.10929 2.53074,5.64004 5.64003,5.64004 3.10928,0 5.62166,-2.53075 5.62166,-5.64004 0,-3.10928 -2.51238,-5.62165 -5.62166,-5.62165 z"
         style="color:#000000;fill:#747474;fill-opacity:1;stroke:none;stroke-width:0.625;marker:none;visibility:visible;display:inline;overflow:visible;enable-background:accumulate" />
    </g>
    <g
       id="g4629"
       transform="matrix(1.0194121,0,0,1.0194121,23.706938,-24.240954)">
      <path
         sodipodi:nodetypes="cc"
         inkscape:connector-curvature="0"
         id="path4370-5-3"
         d="m -214.50001,491.27405 -151.0852,0"
         style="color:#000000;fill:none;stroke:#ffffff;stroke-width:2.5;stroke-linecap:butt;stroke-linejoin:miter;stroke-miterlimit:4;stroke-opacity:1;stroke-dasharray:none;stroke-dashoffset:0;marker:none;visibility:visible;display:inline;overflow:visible;filter:url(#filter4553);enable-background:accumulate" />
      <path
         sodipodi:nodetypes="cc"
         inkscape:connector-curvature="0"
         id="path4370-5-5-2"
         d="m -214.48574,541.03179 -150.89554,0"
         style="color:#000000;fill:none;stroke:#ffffff;stroke-width:2.5;stroke-linecap:butt;stroke-linejoin:miter;stroke-miterlimit:4;stroke-opacity:1;stroke-dasharray:none;stroke-dashoffset:0;marker:none;visibility:visible;display:inline;overflow:visible;filter:url(#filter4549);enable-background:accumulate" />
      <path
         sodipodi:nodetypes="cc"
         inkscape:connector-curvature="0"
         id="path4370-5-4-9"
         d="m -214.32327,590.7895 -150.89554,0"
         style="color:#000000;fill:none;stroke:#ffffff;stroke-width:2.5;stroke-linecap:butt;stroke-linejoin:miter;stroke-miterlimit:4;stroke-opacity:1;stroke-dasharray:none;stroke-dashoffset:0;marker:none;visibility:visible;display:inline;overflow:visible;filter:url(#filter4545);enable-background:accumulate" />
      <path
         sodipodi:nodetypes="cc"
         inkscape:connector-curvature="0"
         id="path4370-5-6-8"
         d="m -214.1433,640.5472 -151.46451,0"
         style="color:#000000;fill:none;stroke:#ffffff;stroke-width:2.5;stroke-linecap:butt;stroke-linejoin:miter;stroke-miterlimit:4;stroke-opacity:1;stroke-dasharray:none;stroke-dashoffset:0;marker:none;visibility:visible;display:inline;overflow:visible;filter:url(#filter4541);enable-background:accumulate" />
      <path
         sodipodi:nodetypes="cc"
         inkscape:connector-curvature="0"
         id="path4370-5-3-2"
         d="m -364.49598,490.55122 0,150.74377"
         style="color:#000000;fill:none;stroke:#ffffff;stroke-width:2.5;stroke-linecap:butt;stroke-linejoin:miter;stroke-miterlimit:4;stroke-opacity:1;stroke-dasharray:none;stroke-dashoffset:0;marker:none;visibility:visible;display:inline;overflow:visible;filter:url(#filter4569);enable-background:accumulate" />
      <path
         sodipodi:nodetypes="cc"
         inkscape:connector-curvature="0"
         id="path4370-5-5-2-3"
         d="m -314.73824,490.53695 0,150.78177"
         style="color:#000000;fill:none;stroke:#ffffff;stroke-width:2.5;stroke-linecap:butt;stroke-linejoin:miter;stroke-miterlimit:4;stroke-opacity:1;stroke-dasharray:none;stroke-dashoffset:0;marker:none;visibility:visible;display:inline;overflow:visible;filter:url(#filter4565);enable-background:accumulate" />
      <path
         sodipodi:nodetypes="cc"
         inkscape:connector-curvature="0"
         id="path4370-5-4-9-6"
         d="m -264.98055,490.48827 0,150.78173"
         style="color:#000000;fill:none;stroke:#ffffff;stroke-width:2.5;stroke-linecap:butt;stroke-linejoin:miter;stroke-miterlimit:4;stroke-opacity:1;stroke-dasharray:none;stroke-dashoffset:0;marker:none;visibility:visible;display:inline;overflow:visible;filter:url(#filter4561);enable-background:accumulate" />
      <path
         inkscape:connector-curvature="0"
         id="path4370-5-6-8-4"
         d="m -215.22285,490.19451 0,151.72999"
         style="color:#000000;fill:none;stroke:#ffffff;stroke-width:2.5;stroke-linecap:butt;stroke-linejoin:miter;stroke-miterlimit:4;stroke-opacity:1;stroke-dasharray:none;stroke-dashoffset:0;marker:none;visibility:visible;display:inline;overflow:visible;filter:url(#filter4557);enable-background:accumulate" />
    </g>
    <g
       id="g4611"
       transform="matrix(-1.0194121,0,-1.019406,1.0194121,687.15399,-478.31704)">
      <path
         sodipodi:nodetypes="cc"
         inkscape:connector-curvature="0"
         id="path4370-5-3-0"
         d="m -70.00383,936.70286 -150.57311,0"
         style="color:#000000;fill:none;stroke:#000000;stroke-width:2.5;stroke-linecap:butt;stroke-linejoin:miter;stroke-miterlimit:4;stroke-opacity:1;stroke-dasharray:none;stroke-dashoffset:0;marker:none;visibility:visible;display:inline;overflow:visible;enable-background:accumulate" />
      <path
         sodipodi:nodetypes="cc"
         inkscape:connector-curvature="0"
         id="path4370-5-5-2-6"
         d="m -71.242889,986.4606 -148.259271,0"
         style="color:#000000;fill:none;stroke:#000000;stroke-width:2.5;stroke-linecap:butt;stroke-linejoin:miter;stroke-miterlimit:4;stroke-opacity:1;stroke-dasharray:none;stroke-dashoffset:0;marker:none;visibility:visible;display:inline;overflow:visible;enable-background:accumulate" />
      <path
         sodipodi:nodetypes="cc"
         inkscape:connector-curvature="0"
         id="path4370-5-4-9-0"
         d="m -70.535159,1036.2183 -149.030551,0"
         style="color:#000000;fill:none;stroke:#000000;stroke-width:2.5;stroke-linecap:butt;stroke-linejoin:miter;stroke-miterlimit:4;stroke-opacity:1;stroke-dasharray:none;stroke-dashoffset:0;marker:none;visibility:visible;display:inline;overflow:visible;enable-background:accumulate" />
      <path
         inkscape:connector-curvature="0"
         id="path4370-5-6-8-5"
         d="m -69.64712,1085.976 -151.73003,0"
         style="color:#000000;fill:none;stroke:#000000;stroke-width:2.5;stroke-linecap:butt;stroke-linejoin:miter;stroke-miterlimit:4;stroke-opacity:1;stroke-dasharray:none;stroke-dashoffset:0;marker:none;visibility:visible;display:inline;overflow:visible;enable-background:accumulate" />
      <path
         sodipodi:nodetypes="cc"
         inkscape:connector-curvature="0"
         id="path4370-5-3-2-8"
         d="m -219.9998,935.98003 0,150.09107"
         style="color:#000000;fill:none;stroke:#000000;stroke-width:2.5;stroke-linecap:butt;stroke-linejoin:miter;stroke-miterlimit:4;stroke-opacity:1;stroke-dasharray:none;stroke-dashoffset:0;marker:none;visibility:visible;display:inline;overflow:visible;enable-background:accumulate" />
      <path
         sodipodi:nodetypes="cc"
         inkscape:connector-curvature="0"
         id="path4370-5-5-2-3-8"
         d="m -170.24206,935.96576 0,150.09104"
         style="color:#000000;fill:none;stroke:#000000;stroke-width:2.5;stroke-linecap:butt;stroke-linejoin:miter;stroke-miterlimit:4;stroke-opacity:1;stroke-dasharray:none;stroke-dashoffset:0;marker:none;visibility:visible;display:inline;overflow:visible;enable-background:accumulate" />
      <path
         sodipodi:nodetypes="cc"
         inkscape:connector-curvature="0"
         id="path4370-5-4-9-6-2"
         d="m -120.48437,936.80059 0,149.31971"
         style="color:#000000;fill:none;stroke:#000000;stroke-width:2.5;stroke-linecap:butt;stroke-linejoin:miter;stroke-miterlimit:4;stroke-opacity:1;stroke-dasharray:none;stroke-dashoffset:0;marker:none;visibility:visible;display:inline;overflow:visible;enable-background:accumulate" />
      <path
         sodipodi:nodetypes="cc"
         inkscape:connector-curvature="0"
         id="path4370-5-6-8-4-5"
         d="m -70.72667,935.62332 0,151.15148"
         style="color:#000000;fill:none;stroke:#000000;stroke-width:2.5;stroke-linecap:butt;stroke-linejoin:miter;stroke-miterlimit:4;stroke-opacity:1;stroke-dasharray:none;stroke-dashoffset:0;marker:none;visibility:visible;display:inline;overflow:visible;enable-background:accumulate" />
    </g>
    <text
       xml:space="preserve"
       style="font-size:10px;font-style:normal;font-variant:normal;font-weight:normal;font-stretch:normal;text-indent:0;text-align:start;text-decoration:none;line-height:125%;letter-spacing:0px;word-spacing:0px;text-transform:none;direction:ltr;block-progression:tb;writing-mode:lr-tb;text-anchor:start;baseline-shift:baseline;color:#000000;fill:#000000;fill-opacity:1;fill-rule:nonzero;stroke:none;stroke-width:1.24999988px;marker:none;visibility:visible;display:inline;overflow:visible;enable-background:accumulate;font-family:Liberation Sans;-inkscape-font-specification:Liberation Sans"
       x="-291.8468"
       y="657.9588"
       id="text3180"
       sodipodi:linespacing="125%"><tspan
         sodipodi:role="line"
         id="tspan3182"
         x="-291.8468"
         y="657.9588">position (meters)</tspan></text>
    <text
       xml:space="preserve"
       style="font-size:10px;font-style:normal;font-variant:normal;font-weight:normal;font-stretch:normal;text-indent:0;text-align:start;text-decoration:none;line-height:125%;letter-spacing:0px;word-spacing:0px;text-transform:none;direction:ltr;block-progression:tb;writing-mode:lr-tb;text-anchor:start;baseline-shift:baseline;color:#000000;fill:#000000;fill-opacity:1;fill-rule:nonzero;stroke:none;stroke-width:1.24999988px;marker:none;visibility:visible;display:inline;overflow:visible;enable-background:accumulate;font-family:Liberation Sans;-inkscape-font-specification:Liberation Sans"
       x="-570.78796"
       y="-391.48764"
       id="text3184"
       sodipodi:linespacing="125%"
       transform="matrix(0,-1,1,0,0,0)"><tspan
         sodipodi:role="line"
         id="tspan3186"
         x="-570.78796"
         y="-391.48764">time (seconds)</tspan></text>
  </g>
</svg>
