<?xml version="1.0" encoding="UTF-8" standalone="no"?>
<!-- Created with Inkscape (http://www.inkscape.org/) -->

<svg
   xmlns:dc="http://purl.org/dc/elements/1.1/"
   xmlns:cc="http://creativecommons.org/ns#"
   xmlns:rdf="http://www.w3.org/1999/02/22-rdf-syntax-ns#"
   xmlns:svg="http://www.w3.org/2000/svg"
   xmlns="http://www.w3.org/2000/svg"
   xmlns:sodipodi="http://sodipodi.sourceforge.net/DTD/sodipodi-0.dtd"
   xmlns:inkscape="http://www.inkscape.org/namespaces/inkscape"
   width="744.09448819"
   height="1052.3622047"
   id="svg2"
   version="1.1"
   sodipodi:docname="runner.svg">
  <defs
     id="defs4" />
  <sodipodi:namedview
     id="base"
     pagecolor="#ffffff"
     bordercolor="#666666"
     borderopacity="1.0"
     inkscape:pageopacity="0.0"
     inkscape:pageshadow="2"
     inkscape:zoom="0.96855606"
     inkscape:cx="246.70746"
     inkscape:cy="988.22365"
     inkscape:document-units="px"
     inkscape:current-layer="layer1"
     showgrid="false"
     inkscape:window-width="1280"
     inkscape:window-height="998"
     inkscape:window-x="0"
     inkscape:window-y="0"
     inkscape:window-maximized="1"
     showguides="true"
     inkscape:guide-bbox="true" />
  <metadata
     id="metadata7">
    <rdf:RDF>
      <cc:Work
         rdf:about="">
        <dc:format>image/svg+xml</dc:format>
        <dc:type
           rdf:resource="http://purl.org/dc/dcmitype/StillImage" />
        <dc:title></dc:title>
      </cc:Work>
    </rdf:RDF>
  </metadata>
  <g
     inkscape:label="Layer 1"
     inkscape:groupmode="layer"
     id="layer1">
    <rect
       style="fill:#dedede;fill-opacity:1;stroke:none"
       id="rect3969-9"
       width="112.80296"
       height="99.240509"
       x="0"
       y="134.43906" />
    <rect
       style="fill:#dedede;fill-opacity:1;stroke:none"
       id="rect3969-9-7"
       width="112.80296"
       height="99.240509"
       x="267.79245"
       y="134.43906" />
    <rect
       style="fill:#dedede;fill-opacity:1;stroke:none"
       id="rect3969-9-8"
       width="112.80296"
       height="99.240509"
       x="133.89621"
       y="134.43906" />
    <g
       id="g3971"
       transform="matrix(1.3224416,0,0,1.3224416,-25.128407,87.035726)">
      <path
         sodipodi:nodetypes="ccscscccccsssc"
         inkscape:connector-curvature="0"
         id="path3050"
         d="m 60.817529,66.41029 c -3.700538,2.413394 -3.539645,6.113932 -3.539645,6.113932 0,0 -1.608929,0.321786 -2.896073,2.896073 -1.287143,2.574287 -5.470359,8.366432 -5.470359,8.366432 0,0 -1.287144,-1.608929 -3.539645,1.287144 -2.252501,2.896072 -5.148574,7.401075 -5.148574,7.401075 l -3.217858,1.287143 -1.287144,8.044651 1.287144,1.44804 2.896072,-5.309475 c 0,0 7.401075,-8.366432 10.618934,-10.297147 3.217859,-1.930716 4.826788,-0.965358 7.079289,-3.539645 2.252501,-2.574287 5.148574,-5.792145 7.722861,-9.010004 2.574287,-3.217859 6.435717,-10.297148 6.435717,-10.297148"
         style="color:#000000;fill:none;stroke:#000000;stroke-width:0.875;stroke-linecap:butt;stroke-linejoin:miter;stroke-miterlimit:4;stroke-opacity:1;stroke-dasharray:none;stroke-dashoffset:0;marker:none;visibility:visible;display:inline;overflow:visible;enable-background:accumulate" />
      <path
         sodipodi:nodetypes="ccscssssssc"
         inkscape:connector-curvature="0"
         id="path3052"
         d="m 65.000745,76.063866 c 4.505002,0.643572 9.010004,1.287144 9.010004,1.287144 0,0 -0.321786,6.113931 -1.287143,8.366432 -0.965358,2.252501 -2.896073,7.079289 -2.896073,7.079289 0,0 3.539644,1.930716 5.148574,2.574287 1.608929,0.643572 6.350778,3.277424 4.183216,0.965358 -2.413394,-2.574286 -5.47036,-2.896073 -4.505002,-5.148574 0.965357,-2.252501 1.930715,-4.826788 2.252501,-6.113931 0.321786,-1.287144 1.287143,-6.113932 3.378751,-8.20554 1.384054,-1.384053 1.126251,-2.896073 -0.160892,-3.700537 -2.951582,-1.84474 -9.010005,-3.539645 -9.010005,-3.539645"
         style="color:#000000;fill:none;stroke:#000000;stroke-width:0.875;stroke-linecap:butt;stroke-linejoin:miter;stroke-miterlimit:4;stroke-opacity:1;stroke-dasharray:none;stroke-dashoffset:0;marker:none;visibility:visible;display:inline;overflow:visible;enable-background:accumulate" />
      <path
         inkscape:connector-curvature="0"
         id="path3054"
         d="m 70.79289,57.400286 c 1.287144,3.861431 3.539645,8.366433 3.539645,8.366433 0,0 2.574287,-0.643572 5.47036,-1.60893 2.896072,-0.965357 6.113931,-1.287143 6.113931,-1.287143 0,0 2.574287,0.965358 2.252501,-0.321786 -0.321786,-1.287143 -1.930715,-3.539644 -1.930715,-3.539644 0,0 -0.965358,0.965357 -1.930715,1.287143 -0.965358,0.321786 -6.757503,0.643572 -6.757503,0.643572 l -1.930716,-4.826788 0,0"
         style="color:#000000;fill:none;stroke:#000000;stroke-width:0.875;stroke-linecap:butt;stroke-linejoin:miter;stroke-miterlimit:4;stroke-opacity:1;stroke-dasharray:none;stroke-dashoffset:0;marker:none;visibility:visible;display:inline;overflow:visible;enable-background:accumulate" />
      <path
         sodipodi:nodetypes="cccscscsscc"
         inkscape:connector-curvature="0"
         id="path3056"
         d="m 62.426458,65.444933 1.608929,-4.183216 0.965358,-5.148574 c -4.505002,0.965357 -5.47036,1.930715 -6.757503,2.574287 -1.287144,0.643571 -5.953039,2.73518 -5.953039,2.73518 0,0 -3.056966,5.309466 -3.700537,3.700537 -0.643572,-1.608929 1.287143,-4.183216 1.287143,-4.183216 0,0 5.792146,-4.183216 7.079289,-4.826788 1.287144,-0.643572 2.413394,-2.413395 4.665895,-3.056966 2.252501,-0.643572 5.953039,-0.965358 5.953039,-0.965358 l 4.183216,-0.804464"
         style="color:#000000;fill:none;stroke:#000000;stroke-width:0.875;stroke-linecap:butt;stroke-linejoin:miter;stroke-miterlimit:4;stroke-opacity:1;stroke-dasharray:none;stroke-dashoffset:0;marker:none;visibility:visible;display:inline;overflow:visible;enable-background:accumulate" />
      <path
         sodipodi:nodetypes="cssscccccc"
         inkscape:connector-curvature="0"
         id="path3058"
         d="m 72.080034,49.677425 c 0.321786,-2.574286 1.234924,-3.809211 2.252501,-4.826788 1.448036,-1.448036 4.183216,-1.930715 5.47036,-1.287143 1.287143,0.643572 1.287143,1.287143 1.608929,3.217859 0.321786,1.930715 -1.287143,3.539644 -1.287143,3.539644 l 0,1.60893 -0.965358,0 -0.643572,1.287143 -2.574287,0.321786 0,1.608929"
         style="color:#000000;fill:none;stroke:#000000;stroke-width:0.875;stroke-linecap:butt;stroke-linejoin:miter;stroke-miterlimit:4;stroke-opacity:1;stroke-dasharray:none;stroke-dashoffset:0;marker:none;visibility:visible;display:inline;overflow:visible;enable-background:accumulate" />
    </g>
    <g
       id="g3978"
       transform="matrix(1.3224416,0,0,1.3224416,-61.67766,88.708319)">
      <path
         sodipodi:nodetypes="cssscscsscscssscc"
         inkscape:connector-curvature="0"
         id="path3060"
         d="m 200.15081,65.766719 c -1.60893,6.757503 -5.14858,15.767507 -7.07929,18.020008 -1.93072,2.252501 -2.57429,6.113932 -5.14857,5.792146 -2.57429,-0.321786 -4.50501,-2.735181 -9.3318,-4.34411 -4.82678,-1.608929 -10.94071,-0.804464 -10.94071,-0.804464 0,0 -5.47036,2.252501 -4.50501,-0.643572 0.96536,-2.896073 7.40108,-4.826788 7.40108,-4.826788 0,0 2.89607,1.287143 4.18321,1.930715 1.28715,0.643572 4.50501,-0.482678 7.0793,-0.160892 2.57428,0.321786 5.47035,3.056965 5.47035,3.056965 0,0 -0.32178,-2.896073 0.96536,-4.826788 1.28715,-1.930715 2.2525,-3.86143 2.2525,-3.86143 0,0 -1.60893,1.930715 -1.28714,-1.930715 0.32178,-3.861431 1.28714,-5.47036 2.57429,-5.792146 1.28714,-0.321786 0.96535,-4.505002 2.2525,-6.757503 1.28714,-2.252501 3.53964,-7.722861 3.53964,-7.722861 l 3.53965,-1.287143"
         style="color:#000000;fill:none;stroke:#000000;stroke-width:0.875;stroke-linecap:butt;stroke-linejoin:miter;stroke-miterlimit:4;stroke-opacity:1;stroke-dasharray:none;stroke-dashoffset:0;marker:none;visibility:visible;display:inline;overflow:visible;enable-background:accumulate" />
      <path
         sodipodi:nodetypes="csscccc"
         inkscape:connector-curvature="0"
         id="path3062"
         d="m 195.64581,56.113143 c -3.21786,1.608929 -4.18322,1.608929 -5.47036,3.539644 -1.28715,1.930716 -2.89608,5.47036 -3.53965,7.079289 -0.64357,1.60893 -2.41339,3.056966 -2.41339,3.056966 l 0.48268,2.091608 4.505,-6.757503 3.86143,-4.505002"
         style="color:#000000;fill:none;stroke:#000000;stroke-width:0.875;stroke-linecap:butt;stroke-linejoin:miter;stroke-miterlimit:4;stroke-opacity:1;stroke-dasharray:none;stroke-dashoffset:0;marker:none;visibility:visible;display:inline;overflow:visible;enable-background:accumulate" />
      <path
         sodipodi:nodetypes="csccsscccsc"
         inkscape:connector-curvature="0"
         id="path3064"
         d="m 200.79438,57.722072 c 0,2.896073 -0.32179,7.079289 0.96536,8.044647 1.28714,0.965357 5.79214,6.113931 5.79214,6.113931 l 2.2525,2.252501 c 0,0 3.86143,0.965358 2.89608,-0.321786 -0.96536,-1.287143 -0.32179,-3.217858 -1.60893,-3.86143 -1.28715,-0.643572 -3.21786,-1.608929 -3.21786,-1.608929 l -3.21786,-4.826788 0,-3.378751 c 0,0 1.12625,-1.930716 1.28714,-3.378752 0.35712,-3.214129 -0.32178,-3.217859 -0.32178,-3.217859"
         style="color:#000000;fill:none;stroke:#000000;stroke-width:0.875;stroke-linecap:butt;stroke-linejoin:miter;stroke-miterlimit:4;stroke-opacity:1;stroke-dasharray:none;stroke-dashoffset:0;marker:none;visibility:visible;display:inline;overflow:visible;enable-background:accumulate" />
      <path
         sodipodi:nodetypes="ccscccccscscc"
         inkscape:connector-curvature="0"
         id="path3066"
         d="m 197.89831,78.638153 c 3.21786,1.287144 6.11393,5.148574 6.11393,5.148574 0,0 -0.64357,-1.930715 0.32178,2.896073 0.96536,4.826788 2.57429,9.331791 2.57429,9.331791 l 0.16089,5.631249 6.11393,0.48268 3.21787,-0.32179 -3.37876,-2.574281 c 0,0 -2.57428,0.643572 -3.21786,-3.217859 -0.64357,-3.86143 -1.12625,-9.492682 -1.12625,-9.492682 0,0 0.96536,-3.217859 0.80447,-4.34411 -0.37526,-2.626845 -3.21786,-4.826788 -3.21786,-4.826788 l -4.82679,-5.47036"
         style="color:#000000;fill:none;stroke:#000000;stroke-width:0.875;stroke-linecap:butt;stroke-linejoin:miter;stroke-miterlimit:4;stroke-opacity:1;stroke-dasharray:none;stroke-dashoffset:0;marker:none;visibility:visible;display:inline;overflow:visible;enable-background:accumulate" />
      <path
         sodipodi:nodetypes="cssscccccc"
         inkscape:connector-curvature="0"
         id="path3058-3"
         d="m 203.65009,49.010831 c 0.67092,-2.506065 1.74441,-3.604462 2.89163,-4.473268 1.63251,-1.236332 4.40801,-1.3403 5.59502,-0.526696 1.18699,0.813602 1.09895,1.451123 1.1536,3.407708 0.0546,1.956583 -1.75928,3.330285 -1.75928,3.330285 l -0.2201,1.593804 -0.95628,-0.132062 -0.8136,1.187002 -2.5941,-0.0334 -0.2201,1.593803"
         style="color:#000000;fill:none;stroke:#000000;stroke-width:0.875;stroke-linecap:butt;stroke-linejoin:miter;stroke-miterlimit:4;stroke-opacity:1;stroke-dasharray:none;stroke-dashoffset:0;marker:none;visibility:visible;display:inline;overflow:visible;enable-background:accumulate" />
    </g>
    <g
       id="g3985"
       transform="matrix(1.3224416,0,0,1.3224416,-94.923023,82.017947)">
      <path
         sodipodi:nodetypes="cscsssssc"
         inkscape:connector-curvature="0"
         id="path3068"
         d="m 315.67194,87.809051 c -1.93072,4.505002 -2.89608,5.953038 -3.21786,11.423398 -0.0845,1.436591 -1.60894,6.274821 -1.60894,6.274821 0,0 -0.64357,1.12625 1.93072,1.44804 2.57429,0.32179 4.18322,0.64357 5.79215,0.64357 1.60893,0 2.36937,-0.53031 0.64357,-1.60893 -2.57429,-1.60893 -3.05697,-0.64357 -3.05697,-2.89607 0,-2.2525 0.48268,-1.28714 0.80447,-3.539645 0.32178,-2.252501 2.73517,-9.010004 2.73517,-9.010004"
         style="color:#000000;fill:none;stroke:#000000;stroke-width:0.875;stroke-linecap:butt;stroke-linejoin:miter;stroke-miterlimit:4;stroke-opacity:1;stroke-dasharray:none;stroke-dashoffset:0;marker:none;visibility:visible;display:inline;overflow:visible;enable-background:accumulate" />
      <path
         sodipodi:nodetypes="cscssscc"
         inkscape:connector-curvature="0"
         id="path3070"
         d="m 324.36015,90.866016 c -5.14857,-1.608929 -5.63125,-2.413394 -7.88375,-4.022323 -2.2525,-1.60893 -5.47036,-4.826788 -5.47036,-4.826788 0,0 -2.57429,-2.413394 -3.86143,-2.413394 -1.28714,0 -8.20554,0.643572 -5.63125,-0.965358 2.57428,-1.608929 4.18321,-1.287143 6.43571,-1.608929 2.2525,-0.321786 3.53965,-0.321786 3.53965,-0.321786 l 7.40107,7.401075"
         style="color:#000000;fill:none;stroke:#000000;stroke-width:0.875;stroke-linecap:butt;stroke-linejoin:miter;stroke-miterlimit:4;stroke-opacity:1;stroke-dasharray:none;stroke-dashoffset:0;marker:none;visibility:visible;display:inline;overflow:visible;enable-background:accumulate" />
      <path
         sodipodi:nodetypes="cssccsc"
         inkscape:connector-curvature="0"
         id="path3072"
         d="m 325.16462,90.705123 c 0.96535,-2.574287 2.73518,-2.413394 0.48268,-5.309466 -2.25251,-2.896073 -2.25251,-3.217859 -3.86143,-6.757504 -1.60893,-3.539644 -1.60893,-6.757503 -1.60893,-6.757503 l 5.14857,-4.183216 c 0,0 2.37911,-2.263052 2.37911,-4.193767 0,-1.930715 0.51696,-7.390524 0.51696,-7.390524"
         style="color:#000000;fill:none;stroke:#000000;stroke-width:0.875;stroke-linecap:butt;stroke-linejoin:miter;stroke-miterlimit:4;stroke-opacity:1;stroke-dasharray:none;stroke-dashoffset:0;marker:none;visibility:visible;display:inline;overflow:visible;enable-background:accumulate" />
      <path
         sodipodi:nodetypes="csscsssccc"
         inkscape:connector-curvature="0"
         id="path3074"
         d="m 326.61265,57.400286 c -1.93071,2.252501 -4.505,3.217859 -5.47036,4.505002 -0.96535,1.287144 -6.11393,6.435718 -6.11393,7.722861 0,1.287144 -0.96536,5.47036 -0.96536,5.47036 0,0 -1.93071,1.608929 -2.2525,0 -0.32178,-1.608929 0.32179,-6.113932 1.28715,-7.722861 0.96535,-1.608929 2.2525,-5.148574 2.57428,-6.435717 0.32179,-1.287144 4.82679,-7.401075 4.82679,-7.401075 l 4.505,-0.321786 0.32179,0"
         style="color:#000000;fill:none;stroke:#000000;stroke-width:0.875;stroke-linecap:butt;stroke-linejoin:miter;stroke-miterlimit:4;stroke-opacity:1;stroke-dasharray:none;stroke-dashoffset:0;marker:none;visibility:visible;display:inline;overflow:visible;enable-background:accumulate" />
      <path
         sodipodi:nodetypes="ccscc"
         inkscape:connector-curvature="0"
         id="path3076"
         d="m 323.55569,69.949935 c 1.93072,1.930715 6.59661,5.792146 6.59661,5.792146 0,0 0.96536,3.86143 -0.96536,3.217858 -1.93071,-0.643571 -2.4134,-2.091608 -2.4134,-2.091608 l -5.14856,-4.183216"
         style="color:#000000;fill:none;stroke:#000000;stroke-width:0.875;stroke-linecap:butt;stroke-linejoin:miter;stroke-miterlimit:4;stroke-opacity:1;stroke-dasharray:none;stroke-dashoffset:0;marker:none;visibility:visible;display:inline;overflow:visible;enable-background:accumulate" />
      <path
         sodipodi:nodetypes="cssscccccc"
         inkscape:connector-curvature="0"
         id="path3058-8"
         d="m 324.60166,50.199824 c 0.32179,-2.574286 1.23493,-3.809211 2.2525,-4.826788 1.44804,-1.448036 4.18322,-1.930715 5.47036,-1.287143 1.28715,0.643572 1.28715,1.287143 1.60893,3.217859 0.32179,1.930715 -1.28714,3.539644 -1.28714,3.539644 l 0,1.60893 -0.96536,0 -0.64357,1.287143 -2.57429,0.321786 0,1.608929"
         style="color:#000000;fill:none;stroke:#000000;stroke-width:0.875;stroke-linecap:butt;stroke-linejoin:miter;stroke-miterlimit:4;stroke-opacity:1;stroke-dasharray:none;stroke-dashoffset:0;marker:none;visibility:visible;display:inline;overflow:visible;enable-background:accumulate" />
    </g>
    <text
       xml:space="preserve"
       style="font-size:10px;font-style:normal;font-variant:normal;font-weight:normal;font-stretch:normal;text-indent:0;text-align:start;text-decoration:none;line-height:125%;letter-spacing:0px;word-spacing:0px;text-transform:none;direction:ltr;block-progression:tb;writing-mode:lr-tb;text-anchor:start;baseline-shift:baseline;color:#000000;fill:#000000;fill-opacity:1;fill-rule:nonzero;stroke:none;stroke-width:1.24999988px;marker:none;visibility:visible;display:inline;overflow:visible;enable-background:accumulate;font-family:Liberation Sans;-inkscape-font-specification:Liberation Sans"
       x="9.227253"
       y="147.92305"
       id="text4036"
       sodipodi:linespacing="125%"><tspan
         sodipodi:role="line"
         id="tspan4038"
         x="9.227253"
         y="147.92305">a</tspan></text>
    <text
       xml:space="preserve"
       style="font-size:10px;font-style:normal;font-variant:normal;font-weight:normal;font-stretch:normal;text-indent:0;text-align:start;text-decoration:none;line-height:125%;letter-spacing:0px;word-spacing:0px;text-transform:none;direction:ltr;block-progression:tb;writing-mode:lr-tb;text-anchor:start;baseline-shift:baseline;color:#000000;fill:#000000;fill-opacity:1;fill-rule:nonzero;stroke:none;stroke-width:1.24999988px;marker:none;visibility:visible;display:inline;overflow:visible;enable-background:accumulate;font-family:Liberation Sans;-inkscape-font-specification:Liberation Sans"
       x="146.47131"
       y="147.92305"
       id="text4040"
       sodipodi:linespacing="125%"><tspan
         sodipodi:role="line"
         id="tspan4042"
         x="146.47131"
         y="147.92305">b</tspan></text>
    <text
       xml:space="preserve"
       style="font-size:10px;font-style:normal;font-variant:normal;font-weight:normal;font-stretch:normal;text-indent:0;text-align:start;text-decoration:none;line-height:125%;letter-spacing:0px;word-spacing:0px;text-transform:none;direction:ltr;block-progression:tb;writing-mode:lr-tb;text-anchor:start;baseline-shift:baseline;color:#000000;fill:#000000;fill-opacity:1;fill-rule:nonzero;stroke:none;stroke-width:1.24999988px;marker:none;visibility:visible;display:inline;overflow:visible;enable-background:accumulate;font-family:Liberation Sans;-inkscape-font-specification:Liberation Sans"
       x="283.9278"
       y="147.92305"
       id="text4044"
       sodipodi:linespacing="125%"><tspan
         sodipodi:role="line"
         id="tspan4046"
         x="283.9278"
         y="147.92305">c</tspan></text>
  </g>
</svg>
