<?xml version="1.0" encoding="UTF-8" standalone="no"?>
<!-- Created with Inkscape (http://www.inkscape.org/) -->

<svg
   xmlns:dc="http://purl.org/dc/elements/1.1/"
   xmlns:cc="http://creativecommons.org/ns#"
   xmlns:rdf="http://www.w3.org/1999/02/22-rdf-syntax-ns#"
   xmlns:svg="http://www.w3.org/2000/svg"
   xmlns="http://www.w3.org/2000/svg"
   xmlns:sodipodi="http://sodipodi.sourceforge.net/DTD/sodipodi-0.dtd"
   xmlns:inkscape="http://www.inkscape.org/namespaces/inkscape"
   width="744.09448819"
   height="1052.3622047"
   id="svg2802"
   sodipodi:version="0.32"
   sodipodi:docname="area-proof.svg"
   inkscape:output_extension="org.inkscape.output.svg.inkscape"
   version="1.1">
  <defs
     id="defs2804">
    <inkscape:perspective
       sodipodi:type="inkscape:persp3d"
       inkscape:vp_x="0 : 526.18109 : 1"
       inkscape:vp_y="0 : 1000 : 0"
       inkscape:vp_z="744.09448 : 526.18109 : 1"
       inkscape:persp3d-origin="372.04724 : 350.78739 : 1"
       id="perspective2810" />
  </defs>
  <sodipodi:namedview
     id="base"
     pagecolor="#ffffff"
     bordercolor="#666666"
     borderopacity="1.0"
     gridtolerance="10000"
     guidetolerance="10"
     objecttolerance="10"
     inkscape:pageopacity="0.0"
     inkscape:pageshadow="2"
     inkscape:zoom="1.0832631"
     inkscape:cx="274.95927"
     inkscape:cy="446.10739"
     inkscape:document-units="px"
     inkscape:current-layer="layer1"
     showgrid="false"
     inkscape:window-width="1278"
     inkscape:window-height="996"
     inkscape:window-x="3"
     inkscape:window-y="7"
     inkscape:window-maximized="0" />
  <metadata
     id="metadata2807">
    <rdf:RDF>
      <cc:Work
         rdf:about="">
        <dc:format>image/svg+xml</dc:format>
        <dc:type
           rdf:resource="http://purl.org/dc/dcmitype/StillImage" />
      </cc:Work>
    </rdf:RDF>
  </metadata>
  <g
     inkscape:label="Layer 1"
     inkscape:groupmode="layer"
     id="layer1">
    <rect
       style="fill:#929292;fill-opacity:1;stroke:none;stroke-width:1;stroke-miterlimit:4;stroke-dasharray:none"
       id="rect2981"
       width="89.86573"
       height="89.841759"
       x="176.49991"
       y="455.60345" />
    <path
       style="opacity:1;fill:#929292;fill-opacity:1;fill-rule:evenodd;stroke:none;stroke-width:1px;stroke-linecap:butt;stroke-linejoin:miter;marker:none;marker-start:none;marker-mid:none;marker-end:none;stroke-miterlimit:4;stroke-dasharray:none;stroke-dashoffset:0;stroke-opacity:1;visibility:visible;display:inline;overflow:visible;enable-background:accumulate"
       d="M 302.75336,544.35779 L 330.1799,442.39563 L 433.11006,414.32377 L 406.65153,516.28593 L 302.75336,544.35779 z"
       id="path2448" />
    <g
       id="g3319"
       transform="matrix(0.8946449,0,0,0.8946449,-213.74621,220.92683)">
      <path
         id="path3220"
         d="M 419.09011,559.51654 449.74645,445.54712 564.79786,414.16946 535.22352,528.13888 419.09011,559.51654 z"
         style="fill:#929292;fill-opacity:1;fill-rule:evenodd;stroke:none;stroke-width:1px;marker:none;visibility:visible;display:inline;overflow:visible;enable-background:accumulate"
         inkscape:connector-curvature="0" />
      <g
         id="g3276">
        <path
           style="fill:none;stroke:#ffffff;stroke-width:1px;stroke-linecap:butt;stroke-linejoin:miter;stroke-miterlimit:4;stroke-opacity:1;stroke-dasharray:none;stroke-dashoffset:0;marker:none;visibility:visible;display:inline;overflow:visible;enable-background:accumulate"
           d="m 448.22811,447.56501 0,107.05722"
           id="path3222"
           sodipodi:nodetypes="cc"
           inkscape:connector-curvature="0" />
        <path
           style="fill:none;stroke:#ffffff;stroke-width:1px;stroke-linecap:butt;stroke-linejoin:miter;stroke-miterlimit:4;stroke-opacity:1;stroke-dasharray:none;stroke-dashoffset:0;marker:none;visibility:visible;display:inline;overflow:visible;enable-background:accumulate"
           d="m 458.7351,441.47644 0,109.59413"
           id="path3224"
           sodipodi:nodetypes="cc"
           inkscape:connector-curvature="0" />
        <path
           style="fill:none;stroke:#ffffff;stroke-width:1px;stroke-linecap:butt;stroke-linejoin:miter;stroke-miterlimit:4;stroke-opacity:1;stroke-dasharray:none;stroke-dashoffset:0;marker:none;visibility:visible;display:inline;overflow:visible;enable-background:accumulate"
           d="m 469.24208,438.17847 0,109.59413"
           id="path3226"
           sodipodi:nodetypes="cc"
           inkscape:connector-curvature="0" />
        <path
           style="fill:none;stroke:#ffffff;stroke-width:1px;stroke-linecap:butt;stroke-linejoin:miter;stroke-miterlimit:4;stroke-opacity:1;stroke-dasharray:none;stroke-dashoffset:0;marker:none;visibility:visible;display:inline;overflow:visible;enable-background:accumulate"
           d="m 479.74911,435.38788 0,109.59413"
           id="path3228"
           sodipodi:nodetypes="cc"
           inkscape:connector-curvature="0" />
        <path
           style="fill:none;stroke:#ffffff;stroke-width:1px;stroke-linecap:butt;stroke-linejoin:miter;stroke-miterlimit:4;stroke-opacity:1;stroke-dasharray:none;stroke-dashoffset:0;marker:none;visibility:visible;display:inline;overflow:visible;enable-background:accumulate"
           d="m 490.2561,432.3436 0,109.59413"
           id="path3230"
           sodipodi:nodetypes="cc"
           inkscape:connector-curvature="0" />
        <path
           style="fill:none;stroke:#ffffff;stroke-width:1px;stroke-linecap:butt;stroke-linejoin:miter;stroke-miterlimit:4;stroke-opacity:1;stroke-dasharray:none;stroke-dashoffset:0;marker:none;visibility:visible;display:inline;overflow:visible;enable-background:accumulate"
           d="m 500.76313,429.04563 0,109.59413"
           id="path3232"
           sodipodi:nodetypes="cc"
           inkscape:connector-curvature="0" />
        <path
           style="fill:none;stroke:#ffffff;stroke-width:1px;stroke-linecap:butt;stroke-linejoin:miter;stroke-miterlimit:4;stroke-opacity:1;stroke-dasharray:none;stroke-dashoffset:0;marker:none;visibility:visible;display:inline;overflow:visible;enable-background:accumulate"
           d="m 511.2701,426.76242 0,109.59413"
           id="path3234"
           sodipodi:nodetypes="cc"
           inkscape:connector-curvature="0" />
        <path
           style="fill:none;stroke:#ffffff;stroke-width:1px;stroke-linecap:butt;stroke-linejoin:miter;stroke-miterlimit:4;stroke-opacity:1;stroke-dasharray:none;stroke-dashoffset:0;marker:none;visibility:visible;display:inline;overflow:visible;enable-background:accumulate"
           d="m 521.77708,423.46445 0,109.59413"
           id="path3236"
           sodipodi:nodetypes="cc"
           inkscape:connector-curvature="0" />
        <path
           style="fill:none;stroke:#ffffff;stroke-width:1px;stroke-linecap:butt;stroke-linejoin:miter;stroke-miterlimit:4;stroke-opacity:1;stroke-dasharray:none;stroke-dashoffset:0;marker:none;visibility:visible;display:inline;overflow:visible;enable-background:accumulate"
           d="m 532.28414,420.42016 0,109.59413"
           id="path3238"
           sodipodi:nodetypes="cc"
           inkscape:connector-curvature="0" />
        <path
           style="fill:none;stroke:#ffffff;stroke-width:1px;stroke-linecap:butt;stroke-linejoin:miter;stroke-miterlimit:4;stroke-opacity:1;stroke-dasharray:none;stroke-dashoffset:0;marker:none;visibility:visible;display:inline;overflow:visible;enable-background:accumulate"
           d="m 542.7911,416.36112 0,86.25464"
           id="path3240"
           sodipodi:nodetypes="cc"
           inkscape:connector-curvature="0" />
        <path
           style="fill:none;stroke:#ffffff;stroke-width:1px;stroke-linecap:butt;stroke-linejoin:miter;stroke-miterlimit:4;stroke-opacity:1;stroke-dasharray:none;stroke-dashoffset:0;marker:none;visibility:visible;display:inline;overflow:visible;enable-background:accumulate"
           d="m 553.29809,411.54101 0,55.05076"
           id="path3242"
           sodipodi:nodetypes="cc"
           inkscape:connector-curvature="0" />
        <path
           style="fill:none;stroke:#ffffff;stroke-width:1px;stroke-linecap:butt;stroke-linejoin:miter;stroke-miterlimit:4;stroke-opacity:1;stroke-dasharray:none;stroke-dashoffset:0;marker:none;visibility:visible;display:inline;overflow:visible;enable-background:accumulate"
           d="m 437.72111,487.90173 0,69.76478"
           id="path3244"
           sodipodi:nodetypes="cc"
           inkscape:connector-curvature="0" />
        <path
           style="fill:none;stroke:#ffffff;stroke-width:1px;stroke-linecap:butt;stroke-linejoin:miter;stroke-miterlimit:4;stroke-opacity:1;stroke-dasharray:none;stroke-dashoffset:0;marker:none;visibility:visible;display:inline;overflow:visible;enable-background:accumulate"
           d="m 427.21411,520.37406 0,41.60518"
           id="path3246"
           sodipodi:nodetypes="cc"
           inkscape:connector-curvature="0" />
      </g>
      <g
         transform="matrix(0,-1,-1,0,980.86147,977.39679)"
         id="g3291">
        <path
           style="fill:none;stroke:#ffffff;stroke-width:1px;stroke-linecap:butt;stroke-linejoin:miter;stroke-miterlimit:4;stroke-opacity:1;stroke-dasharray:none;stroke-dashoffset:0;marker:none;visibility:visible;display:inline;overflow:visible;enable-background:accumulate"
           d="m 448.22811,447.56501 0,107.05722"
           id="path3293"
           sodipodi:nodetypes="cc"
           inkscape:connector-curvature="0" />
        <path
           style="fill:none;stroke:#ffffff;stroke-width:1px;stroke-linecap:butt;stroke-linejoin:miter;stroke-miterlimit:4;stroke-opacity:1;stroke-dasharray:none;stroke-dashoffset:0;marker:none;visibility:visible;display:inline;overflow:visible;enable-background:accumulate"
           d="m 458.7351,441.47644 0,109.59413"
           id="path3295"
           sodipodi:nodetypes="cc"
           inkscape:connector-curvature="0" />
        <path
           style="fill:none;stroke:#ffffff;stroke-width:1px;stroke-linecap:butt;stroke-linejoin:miter;stroke-miterlimit:4;stroke-opacity:1;stroke-dasharray:none;stroke-dashoffset:0;marker:none;visibility:visible;display:inline;overflow:visible;enable-background:accumulate"
           d="m 469.24208,438.17847 0,109.59413"
           id="path3297"
           sodipodi:nodetypes="cc"
           inkscape:connector-curvature="0" />
        <path
           style="fill:none;stroke:#ffffff;stroke-width:1px;stroke-linecap:butt;stroke-linejoin:miter;stroke-miterlimit:4;stroke-opacity:1;stroke-dasharray:none;stroke-dashoffset:0;marker:none;visibility:visible;display:inline;overflow:visible;enable-background:accumulate"
           d="m 479.74911,435.38788 0,109.59413"
           id="path3299"
           sodipodi:nodetypes="cc"
           inkscape:connector-curvature="0" />
        <path
           style="fill:none;stroke:#ffffff;stroke-width:1px;stroke-linecap:butt;stroke-linejoin:miter;stroke-miterlimit:4;stroke-opacity:1;stroke-dasharray:none;stroke-dashoffset:0;marker:none;visibility:visible;display:inline;overflow:visible;enable-background:accumulate"
           d="m 490.2561,432.3436 0,109.59413"
           id="path3301"
           sodipodi:nodetypes="cc"
           inkscape:connector-curvature="0" />
        <path
           style="fill:none;stroke:#ffffff;stroke-width:1px;stroke-linecap:butt;stroke-linejoin:miter;stroke-miterlimit:4;stroke-opacity:1;stroke-dasharray:none;stroke-dashoffset:0;marker:none;visibility:visible;display:inline;overflow:visible;enable-background:accumulate"
           d="m 500.76313,429.04563 0,109.59413"
           id="path3303"
           sodipodi:nodetypes="cc"
           inkscape:connector-curvature="0" />
        <path
           style="fill:none;stroke:#ffffff;stroke-width:1px;stroke-linecap:butt;stroke-linejoin:miter;stroke-miterlimit:4;stroke-opacity:1;stroke-dasharray:none;stroke-dashoffset:0;marker:none;visibility:visible;display:inline;overflow:visible;enable-background:accumulate"
           d="m 511.2701,426.76242 0,109.59413"
           id="path3305"
           sodipodi:nodetypes="cc"
           inkscape:connector-curvature="0" />
        <path
           style="fill:none;stroke:#ffffff;stroke-width:1px;stroke-linecap:butt;stroke-linejoin:miter;stroke-miterlimit:4;stroke-opacity:1;stroke-dasharray:none;stroke-dashoffset:0;marker:none;visibility:visible;display:inline;overflow:visible;enable-background:accumulate"
           d="m 521.77708,423.46445 0,109.59413"
           id="path3307"
           sodipodi:nodetypes="cc"
           inkscape:connector-curvature="0" />
        <path
           style="fill:none;stroke:#ffffff;stroke-width:1px;stroke-linecap:butt;stroke-linejoin:miter;stroke-miterlimit:4;stroke-opacity:1;stroke-dasharray:none;stroke-dashoffset:0;marker:none;visibility:visible;display:inline;overflow:visible;enable-background:accumulate"
           d="m 532.28414,420.42016 0,109.59413"
           id="path3309"
           sodipodi:nodetypes="cc"
           inkscape:connector-curvature="0" />
        <path
           style="fill:none;stroke:#ffffff;stroke-width:1px;stroke-linecap:butt;stroke-linejoin:miter;stroke-miterlimit:4;stroke-opacity:1;stroke-dasharray:none;stroke-dashoffset:0;marker:none;visibility:visible;display:inline;overflow:visible;enable-background:accumulate"
           d="m 542.7911,416.36112 0,86.25464"
           id="path3311"
           sodipodi:nodetypes="cc"
           inkscape:connector-curvature="0" />
        <path
           style="fill:none;stroke:#ffffff;stroke-width:1px;stroke-linecap:butt;stroke-linejoin:miter;stroke-miterlimit:4;stroke-opacity:1;stroke-dasharray:none;stroke-dashoffset:0;marker:none;visibility:visible;display:inline;overflow:visible;enable-background:accumulate"
           d="m 553.29809,411.54101 0,55.05076"
           id="path3313"
           sodipodi:nodetypes="cc"
           inkscape:connector-curvature="0" />
        <path
           style="fill:none;stroke:#ffffff;stroke-width:1px;stroke-linecap:butt;stroke-linejoin:miter;stroke-miterlimit:4;stroke-opacity:1;stroke-dasharray:none;stroke-dashoffset:0;marker:none;visibility:visible;display:inline;overflow:visible;enable-background:accumulate"
           d="m 437.72111,487.90173 0,69.76478"
           id="path3315"
           sodipodi:nodetypes="cc"
           inkscape:connector-curvature="0" />
        <path
           style="fill:none;stroke:#ffffff;stroke-width:1px;stroke-linecap:butt;stroke-linejoin:miter;stroke-miterlimit:4;stroke-opacity:1;stroke-dasharray:none;stroke-dashoffset:0;marker:none;visibility:visible;display:inline;overflow:visible;enable-background:accumulate"
           d="m 427.21411,520.37406 0,41.60518"
           id="path3317"
           sodipodi:nodetypes="cc"
           inkscape:connector-curvature="0" />
      </g>
    </g>
    <g
       id="g3482"
       transform="matrix(0.8946449,0,0,0.8946449,-207.5046,201.60148)">
      <g
         transform="matrix(0.9407876,0.269256,0.2630246,0.9630686,-142.50669,-169.82617)"
         id="g3438">
        <g
           id="g3378"
           transform="translate(211.1571,3.4248184)">
          <path
             id="path3380"
             d="M 419.09011,559.51654 449.74645,445.54712 564.79786,414.16946 535.22352,528.13888 419.09011,559.51654 z"
             style="fill:#929292;fill-opacity:1;fill-rule:evenodd;stroke:none;stroke-width:1px;marker:none;visibility:visible;display:inline;overflow:visible;enable-background:accumulate"
             inkscape:connector-curvature="0" />
          <g
             id="g3382">
            <path
               style="fill:none;stroke:#ffffff;stroke-width:1px;stroke-linecap:butt;stroke-linejoin:miter;stroke-miterlimit:4;stroke-opacity:1;stroke-dasharray:none;stroke-dashoffset:0;marker:none;visibility:visible;display:inline;overflow:visible;enable-background:accumulate"
               d="m 448.22811,447.56501 0,107.05722"
               id="path3384"
               sodipodi:nodetypes="cc"
               inkscape:connector-curvature="0" />
            <path
               style="fill:none;stroke:#ffffff;stroke-width:1px;stroke-linecap:butt;stroke-linejoin:miter;stroke-miterlimit:4;stroke-opacity:1;stroke-dasharray:none;stroke-dashoffset:0;marker:none;visibility:visible;display:inline;overflow:visible;enable-background:accumulate"
               d="m 458.7351,441.47644 0,109.59413"
               id="path3386"
               sodipodi:nodetypes="cc"
               inkscape:connector-curvature="0" />
            <path
               style="fill:none;stroke:#ffffff;stroke-width:1px;stroke-linecap:butt;stroke-linejoin:miter;stroke-miterlimit:4;stroke-opacity:1;stroke-dasharray:none;stroke-dashoffset:0;marker:none;visibility:visible;display:inline;overflow:visible;enable-background:accumulate"
               d="m 469.24208,438.17847 0,109.59413"
               id="path3388"
               sodipodi:nodetypes="cc"
               inkscape:connector-curvature="0" />
            <path
               style="fill:none;stroke:#ffffff;stroke-width:1px;stroke-linecap:butt;stroke-linejoin:miter;stroke-miterlimit:4;stroke-opacity:1;stroke-dasharray:none;stroke-dashoffset:0;marker:none;visibility:visible;display:inline;overflow:visible;enable-background:accumulate"
               d="m 479.74911,435.38788 0,109.59413"
               id="path3390"
               sodipodi:nodetypes="cc"
               inkscape:connector-curvature="0" />
            <path
               style="fill:none;stroke:#ffffff;stroke-width:1px;stroke-linecap:butt;stroke-linejoin:miter;stroke-miterlimit:4;stroke-opacity:1;stroke-dasharray:none;stroke-dashoffset:0;marker:none;visibility:visible;display:inline;overflow:visible;enable-background:accumulate"
               d="m 490.2561,432.3436 0,109.59413"
               id="path3392"
               sodipodi:nodetypes="cc"
               inkscape:connector-curvature="0" />
            <path
               style="fill:none;stroke:#ffffff;stroke-width:1px;stroke-linecap:butt;stroke-linejoin:miter;stroke-miterlimit:4;stroke-opacity:1;stroke-dasharray:none;stroke-dashoffset:0;marker:none;visibility:visible;display:inline;overflow:visible;enable-background:accumulate"
               d="m 500.76313,429.04563 0,109.59413"
               id="path3394"
               sodipodi:nodetypes="cc"
               inkscape:connector-curvature="0" />
            <path
               style="fill:none;stroke:#ffffff;stroke-width:1px;stroke-linecap:butt;stroke-linejoin:miter;stroke-miterlimit:4;stroke-opacity:1;stroke-dasharray:none;stroke-dashoffset:0;marker:none;visibility:visible;display:inline;overflow:visible;enable-background:accumulate"
               d="m 511.2701,426.76242 0,109.59413"
               id="path3396"
               sodipodi:nodetypes="cc"
               inkscape:connector-curvature="0" />
            <path
               style="fill:none;stroke:#ffffff;stroke-width:1px;stroke-linecap:butt;stroke-linejoin:miter;stroke-miterlimit:4;stroke-opacity:1;stroke-dasharray:none;stroke-dashoffset:0;marker:none;visibility:visible;display:inline;overflow:visible;enable-background:accumulate"
               d="m 521.77708,423.46445 0,109.59413"
               id="path3398"
               sodipodi:nodetypes="cc"
               inkscape:connector-curvature="0" />
            <path
               style="fill:none;stroke:#ffffff;stroke-width:1px;stroke-linecap:butt;stroke-linejoin:miter;stroke-miterlimit:4;stroke-opacity:1;stroke-dasharray:none;stroke-dashoffset:0;marker:none;visibility:visible;display:inline;overflow:visible;enable-background:accumulate"
               d="m 532.28414,420.42016 0,109.59413"
               id="path3400"
               sodipodi:nodetypes="cc"
               inkscape:connector-curvature="0" />
            <path
               style="fill:none;stroke:#ffffff;stroke-width:1px;stroke-linecap:butt;stroke-linejoin:miter;stroke-miterlimit:4;stroke-opacity:1;stroke-dasharray:none;stroke-dashoffset:0;marker:none;visibility:visible;display:inline;overflow:visible;enable-background:accumulate"
               d="m 542.7911,416.36112 0,86.25464"
               id="path3402"
               sodipodi:nodetypes="cc"
               inkscape:connector-curvature="0" />
            <path
               style="fill:none;stroke:#ffffff;stroke-width:1px;stroke-linecap:butt;stroke-linejoin:miter;stroke-miterlimit:4;stroke-opacity:1;stroke-dasharray:none;stroke-dashoffset:0;marker:none;visibility:visible;display:inline;overflow:visible;enable-background:accumulate"
               d="m 553.29809,411.54101 0,55.05076"
               id="path3404"
               sodipodi:nodetypes="cc"
               inkscape:connector-curvature="0" />
            <path
               style="fill:none;stroke:#ffffff;stroke-width:1px;stroke-linecap:butt;stroke-linejoin:miter;stroke-miterlimit:4;stroke-opacity:1;stroke-dasharray:none;stroke-dashoffset:0;marker:none;visibility:visible;display:inline;overflow:visible;enable-background:accumulate"
               d="m 437.72111,487.90173 0,69.76478"
               id="path3406"
               sodipodi:nodetypes="cc"
               inkscape:connector-curvature="0" />
            <path
               style="fill:none;stroke:#ffffff;stroke-width:1px;stroke-linecap:butt;stroke-linejoin:miter;stroke-miterlimit:4;stroke-opacity:1;stroke-dasharray:none;stroke-dashoffset:0;marker:none;visibility:visible;display:inline;overflow:visible;enable-background:accumulate"
               d="m 427.21411,520.37406 0,41.60518"
               id="path3408"
               sodipodi:nodetypes="cc"
               inkscape:connector-curvature="0" />
          </g>
          <g
             transform="matrix(0,-1,-1,0,980.86147,977.39679)"
             id="g3410">
            <path
               style="fill:none;stroke:#ffffff;stroke-width:1px;stroke-linecap:butt;stroke-linejoin:miter;stroke-miterlimit:4;stroke-opacity:1;stroke-dasharray:none;stroke-dashoffset:0;marker:none;visibility:visible;display:inline;overflow:visible;enable-background:accumulate"
               d="m 448.22811,447.56501 0,107.05722"
               id="path3412"
               sodipodi:nodetypes="cc"
               inkscape:connector-curvature="0" />
            <path
               style="fill:none;stroke:#ffffff;stroke-width:1px;stroke-linecap:butt;stroke-linejoin:miter;stroke-miterlimit:4;stroke-opacity:1;stroke-dasharray:none;stroke-dashoffset:0;marker:none;visibility:visible;display:inline;overflow:visible;enable-background:accumulate"
               d="m 458.7351,441.47644 0,109.59413"
               id="path3414"
               sodipodi:nodetypes="cc"
               inkscape:connector-curvature="0" />
            <path
               style="fill:none;stroke:#ffffff;stroke-width:1px;stroke-linecap:butt;stroke-linejoin:miter;stroke-miterlimit:4;stroke-opacity:1;stroke-dasharray:none;stroke-dashoffset:0;marker:none;visibility:visible;display:inline;overflow:visible;enable-background:accumulate"
               d="m 469.24208,438.17847 0,109.59413"
               id="path3416"
               sodipodi:nodetypes="cc"
               inkscape:connector-curvature="0" />
            <path
               style="fill:none;stroke:#ffffff;stroke-width:1px;stroke-linecap:butt;stroke-linejoin:miter;stroke-miterlimit:4;stroke-opacity:1;stroke-dasharray:none;stroke-dashoffset:0;marker:none;visibility:visible;display:inline;overflow:visible;enable-background:accumulate"
               d="m 479.74911,435.38788 0,109.59413"
               id="path3418"
               sodipodi:nodetypes="cc"
               inkscape:connector-curvature="0" />
            <path
               style="fill:none;stroke:#ffffff;stroke-width:1px;stroke-linecap:butt;stroke-linejoin:miter;stroke-miterlimit:4;stroke-opacity:1;stroke-dasharray:none;stroke-dashoffset:0;marker:none;visibility:visible;display:inline;overflow:visible;enable-background:accumulate"
               d="m 490.2561,432.3436 0,109.59413"
               id="path3420"
               sodipodi:nodetypes="cc"
               inkscape:connector-curvature="0" />
            <path
               style="fill:none;stroke:#ffffff;stroke-width:1px;stroke-linecap:butt;stroke-linejoin:miter;stroke-miterlimit:4;stroke-opacity:1;stroke-dasharray:none;stroke-dashoffset:0;marker:none;visibility:visible;display:inline;overflow:visible;enable-background:accumulate"
               d="m 500.76313,429.04563 0,109.59413"
               id="path3422"
               sodipodi:nodetypes="cc"
               inkscape:connector-curvature="0" />
            <path
               style="fill:none;stroke:#ffffff;stroke-width:1px;stroke-linecap:butt;stroke-linejoin:miter;stroke-miterlimit:4;stroke-opacity:1;stroke-dasharray:none;stroke-dashoffset:0;marker:none;visibility:visible;display:inline;overflow:visible;enable-background:accumulate"
               d="m 511.2701,426.76242 0,109.59413"
               id="path3424"
               sodipodi:nodetypes="cc"
               inkscape:connector-curvature="0" />
            <path
               style="fill:none;stroke:#ffffff;stroke-width:1px;stroke-linecap:butt;stroke-linejoin:miter;stroke-miterlimit:4;stroke-opacity:1;stroke-dasharray:none;stroke-dashoffset:0;marker:none;visibility:visible;display:inline;overflow:visible;enable-background:accumulate"
               d="m 521.77708,423.46445 0,109.59413"
               id="path3426"
               sodipodi:nodetypes="cc"
               inkscape:connector-curvature="0" />
            <path
               style="fill:none;stroke:#ffffff;stroke-width:1px;stroke-linecap:butt;stroke-linejoin:miter;stroke-miterlimit:4;stroke-opacity:1;stroke-dasharray:none;stroke-dashoffset:0;marker:none;visibility:visible;display:inline;overflow:visible;enable-background:accumulate"
               d="m 532.28414,420.42016 0,109.59413"
               id="path3428"
               sodipodi:nodetypes="cc"
               inkscape:connector-curvature="0" />
            <path
               style="fill:none;stroke:#ffffff;stroke-width:1px;stroke-linecap:butt;stroke-linejoin:miter;stroke-miterlimit:4;stroke-opacity:1;stroke-dasharray:none;stroke-dashoffset:0;marker:none;visibility:visible;display:inline;overflow:visible;enable-background:accumulate"
               d="m 542.7911,416.36112 0,86.25464"
               id="path3430"
               sodipodi:nodetypes="cc"
               inkscape:connector-curvature="0" />
            <path
               style="fill:none;stroke:#ffffff;stroke-width:1px;stroke-linecap:butt;stroke-linejoin:miter;stroke-miterlimit:4;stroke-opacity:1;stroke-dasharray:none;stroke-dashoffset:0;marker:none;visibility:visible;display:inline;overflow:visible;enable-background:accumulate"
               d="m 553.29809,411.54101 0,55.05076"
               id="path3432"
               sodipodi:nodetypes="cc"
               inkscape:connector-curvature="0" />
            <path
               style="fill:none;stroke:#ffffff;stroke-width:1px;stroke-linecap:butt;stroke-linejoin:miter;stroke-miterlimit:4;stroke-opacity:1;stroke-dasharray:none;stroke-dashoffset:0;marker:none;visibility:visible;display:inline;overflow:visible;enable-background:accumulate"
               d="m 437.72111,487.90173 0,69.76478"
               id="path3434"
               sodipodi:nodetypes="cc"
               inkscape:connector-curvature="0" />
            <path
               style="fill:none;stroke:#ffffff;stroke-width:1px;stroke-linecap:butt;stroke-linejoin:miter;stroke-miterlimit:4;stroke-opacity:1;stroke-dasharray:none;stroke-dashoffset:0;marker:none;visibility:visible;display:inline;overflow:visible;enable-background:accumulate"
               d="m 427.21411,520.37406 0,41.60518"
               id="path3436"
               sodipodi:nodetypes="cc"
               inkscape:connector-curvature="0" />
          </g>
        </g>
      </g>
      <path
         id="path3472"
         d="m 687.19411,440.33297 10.32057,37.97191 -9.93112,-3.11565 11.09948,40.6981 -9.93111,-3.11565 8.37329,30.37753 4.86819,1.16836 -3.5051,-104.37405 -11.2942,0.38945 z"
         style="fill:#ffffff;fill-opacity:1;fill-rule:evenodd;stroke:none;stroke-width:1px;marker:none;visibility:visible;display:inline;overflow:visible;enable-background:accumulate"
         inkscape:connector-curvature="0" />
      <path
         id="path3474"
         d="m 695.5674,542.95448 -37.77718,-10.90475 2.33673,9.93111 -29.59861,-8.56802 2.72619,10.5153 -29.79334,-8.76275 -5.06292,-20.05695 -1.94728,27.65133 99.11641,0.19473 z"
         style="fill:#ffffff;fill-opacity:1;fill-rule:evenodd;stroke:none;stroke-width:1px;marker:none;visibility:visible;display:inline;overflow:visible;enable-background:accumulate"
         inkscape:connector-curvature="0" />
      <path
         id="path3476"
         d="m 597.61936,514.52423 10.90475,3.11565 -11.68366,-40.6981 10.32057,3.31038 -10.12585,-36.60882 0.58419,70.88089 z"
         style="fill:#ffffff;fill-opacity:1;fill-rule:evenodd;stroke:none;stroke-width:1px;marker:none;visibility:visible;display:inline;overflow:visible;enable-background:accumulate"
         inkscape:connector-curvature="0" />
      <path
         id="path3478"
         d="m 598.00881,449.29045 10.5153,3.5051 -2.92092,-10.71003 29.59862,8.76275 -2.72619,-10.12584 29.98807,8.76275 -3.11565,-10.12584 30.57226,8.76274 -1.94728,-8.17856 -92.30094,-0.77891 2.33673,10.12584 z"
         style="fill:#ffffff;fill-opacity:1;fill-rule:evenodd;stroke:none;stroke-width:1px;marker:none;visibility:visible;display:inline;overflow:visible;enable-background:accumulate"
         inkscape:connector-curvature="0" />
      <rect
         y="441.6076"
         x="597.8595"
         height="100.42169"
         width="100.44849"
         id="rect3480"
         style="fill:none;stroke:#000000;stroke-width:1;stroke-miterlimit:4;stroke-opacity:1;stroke-dasharray:4, 1;stroke-dashoffset:0" />
    </g>
    <g
       id="g3720"
       transform="matrix(0.8946449,0,0,0.8946449,49.380553,28.630488)">
      <path
         style="fill:none;stroke:#000000;stroke-width:0.75;stroke-miterlimit:4;stroke-dasharray:none"
         d="M 283.96943,462.2022 C 286.83032,460.77621 288.50236,461.55065 289.37448,460.90078 C 290.24598,460.24876 294.60045,458.14628 296.0957,456.70262 C 297.59154,455.25751 301.64045,452.01648 302.69706,451.66349 C 303.75368,451.3105 305.99429,449.91183 306.74109,449.57359 C 307.4879,449.23534 310.29099,446.81402 311.1637,446.16269 C 311.76862,445.71193 313.53022,444.45095 314.08581,444.96412 C 314.64138,445.47729 315.56663,446.58997 315.37662,447.44209 C 315.18604,448.29566 314.24579,450.25393 313.56022,450.8196 C 312.87466,451.38526 307.45321,456.14448 306.89154,456.78176 C 306.32985,457.41903 304.52298,458.87818 303.77597,459.60035 C 303.02715,460.32329 301.51286,465.60726 300.70138,466.48601 C 299.8917,467.364 298.51796,468.88146 296.83415,470.794 C 295.14975,472.70798 291.84784,475.22686 289.92436,475.46104 C 287.99907,475.69597 281.12073,473.83786 281.12073,473.83786"
         id="path667" />
      <path
         style="fill:none;stroke:#000000;stroke-width:0.75;stroke-miterlimit:4;stroke-dasharray:none"
         d="M 296.27368,471.43198 C 296.70803,471.49101 298.6321,471.25537 300.18916,470.03768 C 301.74622,468.81999 303.24328,467.37559 304.42807,465.94453 C 305.61347,464.512 305.6828,463.2043 306.99352,461.46016 C 308.30545,459.71672 309.29536,460.28891 310.4175,459.01365 C 311.54022,457.73695 313.34104,457.43185 313.9033,456.79311 C 314.46498,456.15584 316.26983,455.08137 316.96086,453.36311 C 317.6519,451.64484 315.73271,450.72934 314.43436,449.78505 C 314.43436,449.78505 316.49044,448.08589 317.17744,447.137 C 317.86502,446.18664 319.98175,444.71636 320.60344,444.3058 C 321.22635,443.89595 322.10738,441.32557 322.42128,440.54508 C 322.73576,439.76311 321.19026,438.67775 320.69469,438.39131 C 320.20035,438.10557 319.32477,439.52334 318.51531,440.01739 C 317.70647,440.51361 315.21462,442.53696 313.78204,443.8248 L 305.3154,449.3256 L 301.26792,452.18342"
         id="path669" />
      <path
         style="fill:none;stroke:#000000;stroke-width:0.75;stroke-miterlimit:4;stroke-dasharray:none"
         d="M 320.45157,437.48087 C 321.01325,436.8436 322.38519,435.32688 323.0661,435.52843 C 323.74822,435.73068 325.23249,436.58861 324.85451,437.90815 C 324.47593,439.22915 323.97346,440.47853 322.41497,442.07945"
         id="path671" />
      <line
         style="fill:none;stroke:#000000;stroke-width:0.75;stroke-miterlimit:4;stroke-dasharray:none"
         x1="310.99277"
         y1="455.68866"
         x2="311.29367"
         y2="457.59442"
         id="line673" />
      <path
         style="fill:none;stroke:#000000;stroke-width:0.75;stroke-miterlimit:4;stroke-dasharray:none"
         d="M 286.3175,464.32933 C 286.67762,466.84721 285.42491,469.20275 285.42491,469.20275"
         id="path675" />
      <line
         style="fill:none;stroke:#000000;stroke-width:0.75;stroke-miterlimit:4;stroke-dasharray:none"
         x1="307.36984"
         y1="460.90778"
         x2="306.56995"
         y2="459.48349"
         id="line677" />
      <line
         style="fill:none;stroke:#000000;stroke-width:0.75;stroke-miterlimit:4;stroke-dasharray:none"
         x1="298.63211"
         y1="471.25537"
         x2="291.78842"
         y2="474.99869"
         id="line679" />
    </g>
    <g
       id="g3763"
       transform="matrix(0.8946449,0,0,0.8946449,67.261706,24.6569)">
      <path
         style="fill:none;stroke:#000000;stroke-width:0.75;stroke-miterlimit:4;stroke-dasharray:none"
         d="M 373.92017,569.76501 C 374.28136,567.40646 373.99271,565.81904 375.0276,563.59357 C 376.0617,561.36694 378.86794,555.6946 379.27609,555.14328 C 379.68426,554.59195 382.98779,549.9486 382.98779,549.9486 C 382.98779,549.9486 384.68241,546.38764 384.81433,545.71513 C 384.94625,545.0426 385.6917,541.22855 386.14358,540.45265 C 386.59546,539.67676 388.84427,538.38764 388.84427,538.38764 L 390.29072,539.66973 C 390.29072,539.66973 390.99876,542.17311 390.74679,542.95389 C 390.49364,543.73573 390.52992,546.10614 390.00054,546.76679 C 389.47194,547.42859 387.82103,550.76498 387.82103,550.76498"
         id="path683" />
      <polyline
         transform="matrix(0.7829264,1.1641533,-1.1655976,1.051063,394.7226,346.71178)"
         style="fill:none;stroke:#000000;stroke-width:0.50798279;stroke-miterlimit:4;stroke-dasharray:none"
         points="104.399,73.855 103.609,68.967 102.423,64.911       101.831,61.063 101.633,58.775 102.028,57.319 102.917,57.215 "
         id="polyline685" />
      <path
         style="fill:none;stroke:#000000;stroke-width:0.75;stroke-miterlimit:4;stroke-dasharray:none"
         d="M 394.11389,545.64404 L 399.35775,539.25289 L 403.23437,533.72435 L 406.42815,528.62827 L 409.85539,525.90622 C 409.85539,525.90622 411.89555,525.17553 412.47035,526.31977 C 412.87263,527.11839 412.09847,529.24152 412.09847,529.24152 L 410.6001,530.77781"
         id="path687" />
      <path
         style="fill:none;stroke:#000000;stroke-width:0.75;stroke-miterlimit:4;stroke-dasharray:none"
         d="M 398.24784,543.39372 L 402.48812,537.53724 L 406.28724,531.89344 C 406.28724,531.89344 408.63417,529.59198 409.34089,530.0637 C 410.04762,530.53543 411.18481,531.35768 410.93167,532.13951 C 410.67852,532.92134 410.7024,533.82553 409.93058,534.70479 C 409.15954,535.58522 407.32059,538.35246 407.32059,538.35246 L 405.44784,540.77989"
         id="path689" />
      <polyline
         transform="matrix(0.7829264,1.1641533,-1.1655976,1.051063,394.7226,346.71178)"
         style="fill:none;stroke:#000000;stroke-width:0.50798279;stroke-miterlimit:4;stroke-dasharray:none"
         points="108.746,72.919 108.252,70.111 107.561,66.471       107.956,64.599 109.734,64.08 110.624,65.223 110.821,67.095 111.315,70.215 112.105,73.231 113.291,76.455 116.65,83.215       118.33,90.911 "
         id="polyline691" />
      <line
         style="fill:none;stroke:#000000;stroke-width:0.75;stroke-miterlimit:4;stroke-dasharray:none"
         x1="384.95865"
         y1="546.50885"
         x2="386.88998"
         y2="547.3537"
         id="line693" />
    </g>
    <g
       id="g3721"
       transform="matrix(0,-0.8946449,0.8946449,0,-85.012192,967.08428)">
      <path
         style="fill:none;stroke:#000000;stroke-width:0.75;stroke-miterlimit:4;stroke-dasharray:none"
         d="m 283.96943,462.2022 c 2.86089,-1.42599 4.53293,-0.65155 5.40505,-1.30142 0.8715,-0.65202 5.22597,-2.7545 6.72122,-4.19816 1.49584,-1.44511 5.54475,-4.68614 6.60136,-5.03913 1.05662,-0.35299 3.29723,-1.75166 4.04403,-2.0899 0.74681,-0.33825 3.5499,-2.75957 4.42261,-3.4109 0.60492,-0.45076 2.36652,-1.71174 2.92211,-1.19857 0.55557,0.51317 1.48082,1.62585 1.29081,2.47797 -0.19058,0.85357 -1.13083,2.81184 -1.8164,3.37751 -0.68556,0.56566 -6.10701,5.32488 -6.66868,5.96216 -0.56169,0.63727 -2.36856,2.09642 -3.11557,2.81859 -0.74882,0.72294 -2.26311,6.00691 -3.07459,6.88566 -0.80968,0.87799 -2.18342,2.39545 -3.86723,4.30799 -1.6844,1.91398 -4.98631,4.43286 -6.90979,4.66704 -1.92529,0.23493 -8.80363,-1.62318 -8.80363,-1.62318"
         id="path3723"
         inkscape:connector-curvature="0" />
      <path
         style="fill:none;stroke:#000000;stroke-width:0.75;stroke-miterlimit:4;stroke-dasharray:none"
         d="m 296.27368,471.43198 c 0.43435,0.059 2.35842,-0.17661 3.91548,-1.3943 1.55706,-1.21769 3.05412,-2.66209 4.23891,-4.09315 1.1854,-1.43253 1.25473,-2.74023 2.56545,-4.48437 1.31193,-1.74344 2.30184,-1.17125 3.42398,-2.44651 1.12272,-1.2767 2.92354,-1.5818 3.4858,-2.22054 0.56168,-0.63727 2.36653,-1.71174 3.05756,-3.43 0.69104,-1.71827 -1.22815,-2.63377 -2.5265,-3.57806 0,0 2.05608,-1.69916 2.74308,-2.64805 0.68758,-0.95036 2.80431,-2.42064 3.426,-2.8312 0.62291,-0.40985 1.50394,-2.98023 1.81784,-3.76072 0.31448,-0.78197 -1.23102,-1.86733 -1.72659,-2.15377 -0.49434,-0.28574 -1.36992,1.13203 -2.17938,1.62608 -0.80884,0.49622 -3.30069,2.51957 -4.73327,3.80741 l -8.46664,5.5008 -4.04748,2.85782"
         id="path3725"
         inkscape:connector-curvature="0" />
      <path
         style="fill:none;stroke:#000000;stroke-width:0.75;stroke-miterlimit:4;stroke-dasharray:none"
         d="m 320.45157,437.48087 c 0.56168,-0.63727 1.93362,-2.15399 2.61453,-1.95244 0.68212,0.20225 2.16639,1.06018 1.78841,2.37972 -0.37858,1.321 -0.88105,2.57038 -2.43954,4.1713"
         id="path3727"
         inkscape:connector-curvature="0" />
      <line
         style="fill:none;stroke:#000000;stroke-width:0.75;stroke-miterlimit:4;stroke-dasharray:none"
         x1="310.99277"
         y1="455.68866"
         x2="311.29367"
         y2="457.59442"
         id="line3729" />
      <path
         style="fill:none;stroke:#000000;stroke-width:0.75;stroke-miterlimit:4;stroke-dasharray:none"
         d="m 286.3175,464.32933 c 0.36012,2.51788 -0.89259,4.87342 -0.89259,4.87342"
         id="path3731"
         inkscape:connector-curvature="0" />
      <line
         style="fill:none;stroke:#000000;stroke-width:0.75;stroke-miterlimit:4;stroke-dasharray:none"
         x1="307.36984"
         y1="460.90778"
         x2="306.56995"
         y2="459.48349"
         id="line3733" />
      <line
         style="fill:none;stroke:#000000;stroke-width:0.75;stroke-miterlimit:4;stroke-dasharray:none"
         x1="298.63211"
         y1="471.25537"
         x2="291.78842"
         y2="474.99869"
         id="line3735" />
    </g>
    <g
       id="g3737"
       transform="matrix(0,-0.8946449,0.8946449,0,-63.563992,941.19572)">
      <path
         style="fill:none;stroke:#000000;stroke-width:0.75;stroke-miterlimit:4;stroke-dasharray:none"
         d="m 373.92017,569.76501 c 0.36119,-2.35855 0.0725,-3.94597 1.10743,-6.17144 1.0341,-2.22663 3.84034,-7.89897 4.24849,-8.45029 0.40817,-0.55133 3.7117,-5.19468 3.7117,-5.19468 0,0 1.69462,-3.56096 1.82654,-4.23347 0.13192,-0.67253 0.87737,-4.48658 1.32925,-5.26248 0.45188,-0.77589 2.70069,-2.06501 2.70069,-2.06501 l 1.44645,1.28209 c 0,0 0.70804,2.50338 0.45607,3.28416 -0.25315,0.78184 -0.21687,3.15225 -0.74625,3.8129 -0.5286,0.6618 -2.17951,3.99819 -2.17951,3.99819"
         id="path3739"
         inkscape:connector-curvature="0" />
      <polyline
         transform="matrix(0.7829264,1.1641533,-1.1655976,1.051063,394.7226,346.71178)"
         style="fill:none;stroke:#000000;stroke-width:0.50798279;stroke-miterlimit:4;stroke-dasharray:none"
         points="104.399,73.855 103.609,68.967 102.423,64.911       101.831,61.063 101.633,58.775 102.028,57.319 102.917,57.215 "
         id="polyline3741" />
      <path
         style="fill:none;stroke:#000000;stroke-width:0.75;stroke-miterlimit:4;stroke-dasharray:none"
         d="m 394.11389,545.64404 5.24386,-6.39115 3.87662,-5.52854 3.19378,-5.09608 3.42724,-2.72205 c 0,0 2.04016,-0.73069 2.61496,0.41355 0.40228,0.79862 -0.37188,2.92175 -0.37188,2.92175 l -1.49837,1.53629"
         id="path3743"
         inkscape:connector-curvature="0" />
      <path
         style="fill:none;stroke:#000000;stroke-width:0.75;stroke-miterlimit:4;stroke-dasharray:none"
         d="m 398.24784,543.39372 4.24028,-5.85648 3.79912,-5.6438 c 0,0 2.34693,-2.30146 3.05365,-1.82974 0.70673,0.47173 1.84392,1.29398 1.59078,2.07581 -0.25315,0.78183 -0.22927,1.68602 -1.00109,2.56528 -0.77104,0.88043 -2.60999,3.64767 -2.60999,3.64767 l -1.87275,2.42743"
         id="path3745"
         inkscape:connector-curvature="0" />
      <polyline
         transform="matrix(0.7829264,1.1641533,-1.1655976,1.051063,394.7226,346.71178)"
         style="fill:none;stroke:#000000;stroke-width:0.50798279;stroke-miterlimit:4;stroke-dasharray:none"
         points="108.746,72.919 108.252,70.111 107.561,66.471       107.956,64.599 109.734,64.08 110.624,65.223 110.821,67.095 111.315,70.215 112.105,73.231 113.291,76.455 116.65,83.215       118.33,90.911 "
         id="polyline3747" />
      <line
         style="fill:none;stroke:#000000;stroke-width:0.75;stroke-miterlimit:4;stroke-dasharray:none"
         x1="384.95865"
         y1="546.50885"
         x2="386.88998"
         y2="547.3537"
         id="line3749" />
    </g>
    <g
       id="g2495"
       transform="translate(1.9839343,-9.5228848)">
      <path
         id="rect3751"
         d="M 297.21433,474.73618 L 297.21433,480.97073 L 269.73196,480.97073 L 269.73196,498.86363 L 297.21433,498.86363 L 297.21433,505.09819 L 314.07279,488.26768 L 297.21433,474.73618 z"
         style="fill:none;fill-opacity:1;stroke:#000000;stroke-width:0.89464492;stroke-miterlimit:4;stroke-dasharray:none;stroke-dashoffset:0;stroke-opacity:1" />
      <text
         sodipodi:linespacing="125%"
         id="text3759"
         y="492.67422"
         x="286.7222"
         style="font-size:10px;font-style:normal;font-variant:normal;font-weight:normal;font-stretch:normal;text-align:start;line-height:125%;writing-mode:lr-tb;text-anchor:start;fill:#000000;fill-opacity:1;stroke:none;stroke-width:1px;stroke-linecap:butt;stroke-linejoin:miter;stroke-opacity:1;font-family:Bitstream Vera Sans;-inkscape-font-specification:Bitstream Vera Sans"
         xml:space="preserve"><tspan
           y="492.67422"
           x="286.7222"
           id="tspan3761"
           sodipodi:role="line">v</tspan></text>
    </g>
    <g
       id="g2500"
       transform="translate(-293.83282,171.02324)">
      <path
         id="path3763"
         d="m 600.55994,473.62473 0,6.23456 -27.48237,0 0,17.8929 27.48237,0 0,6.23456 16.85847,-16.83051 -16.85847,-13.53151 z"
         style="fill:#ffffff;fill-opacity:1;stroke:#000000;stroke-width:0.89464492;stroke-miterlimit:4;stroke-opacity:1;stroke-dasharray:none;stroke-dashoffset:0"
         inkscape:connector-curvature="0" />
      <text
         sodipodi:linespacing="125%"
         id="text3765"
         y="491.71021"
         x="589.3075"
         style="font-size:10px;font-style:normal;font-variant:normal;font-weight:normal;font-stretch:normal;text-align:start;line-height:125%;writing-mode:lr-tb;text-anchor:start;fill:#000000;fill-opacity:1;stroke:none;font-family:Bitstream Vera Sans;-inkscape-font-specification:Bitstream Vera Sans"
         xml:space="preserve"><tspan
           y="491.71021"
           x="589.3075"
           id="tspan3767"
           sodipodi:role="line">-v</tspan></text>
    </g>
    <g
       id="g3097"
       transform="translate(16.616462,0)">
      <path
         id="path2484"
         d="m 286.06739,583.58299 -4.4085,-4.4085 19.43297,-19.43297 -12.65219,-12.65219 -19.43297,19.43297 -4.4085,-4.4085 -0.0198,23.8217 21.48895,-2.35251 z"
         style="fill:none;stroke:#000000;stroke-width:0.89464492;stroke-miterlimit:4;stroke-opacity:1;stroke-dasharray:none;stroke-dashoffset:0"
         inkscape:connector-curvature="0" />
      <text
         inkscape:transform-center-y="10.238892"
         inkscape:transform-center-x="-78.559792"
         transform="matrix(0.70710678,-0.70710678,0.70710678,0.70710678,0,0)"
         sodipodi:linespacing="125%"
         id="text2486"
         y="602.60583"
         x="-214.54814"
         style="font-size:10px;font-style:normal;font-variant:normal;font-weight:normal;font-stretch:normal;text-align:start;line-height:125%;writing-mode:lr-tb;text-anchor:start;fill:#000000;fill-opacity:1;stroke:none;font-family:Bitstream Vera Sans;-inkscape-font-specification:Bitstream Vera Sans"
         xml:space="preserve"><tspan
           y="602.60583"
           x="-214.54814"
           id="tspan2488"
           sodipodi:role="line">chop</tspan></text>
    </g>
  </g>
</svg>
