<?xml version="1.0" encoding="UTF-8" standalone="no"?>
<!-- Created with Inkscape (http://www.inkscape.org/) -->

<svg
   xmlns:dc="http://purl.org/dc/elements/1.1/"
   xmlns:cc="http://creativecommons.org/ns#"
   xmlns:rdf="http://www.w3.org/1999/02/22-rdf-syntax-ns#"
   xmlns:svg="http://www.w3.org/2000/svg"
   xmlns="http://www.w3.org/2000/svg"
   xmlns:sodipodi="http://sodipodi.sourceforge.net/DTD/sodipodi-0.dtd"
   xmlns:inkscape="http://www.inkscape.org/namespaces/inkscape"
   width="744.09448819"
   height="1052.3622047"
   id="svg2"
   version="1.1"
   inkscape:version="0.48.4 r9939"
   sodipodi:docname="convertible.svg">
  <defs
     id="defs4">
    <marker
       inkscape:stockid="Arrow2Mend"
       orient="auto"
       refY="0"
       refX="0"
       id="Arrow2Mend"
       style="overflow:visible">
      <path
         inkscape:connector-curvature="0"
         id="path5183"
         style="fill-rule:evenodd;stroke-width:0.625;stroke-linejoin:round"
         d="M 8.7185878,4.0337352 -2.2072895,0.01601326 8.7185884,-4.0017078 c -1.7454984,2.3720609 -1.7354408,5.6174519 -6e-7,8.035443 z"
         transform="scale(-0.6,-0.6)" />
    </marker>
    <marker
       inkscape:stockid="Arrow2Mend"
       orient="auto"
       refY="0"
       refX="0"
       id="marker4316"
       style="overflow:visible">
      <path
         inkscape:connector-curvature="0"
         id="path4318"
         style="fill-rule:evenodd;stroke-width:0.625;stroke-linejoin:round"
         d="M 8.7185878,4.0337352 -2.2072895,0.01601326 8.7185884,-4.0017078 c -1.7454984,2.3720609 -1.7354408,5.6174519 -6e-7,8.035443 z"
         transform="scale(-0.6,-0.6)" />
    </marker>
  </defs>
  <sodipodi:namedview
     id="base"
     pagecolor="#ffffff"
     bordercolor="#666666"
     borderopacity="1.0"
     inkscape:pageopacity="0.0"
     inkscape:pageshadow="2"
     inkscape:zoom="1.5944684"
     inkscape:cx="440.51232"
     inkscape:cy="205.36366"
     inkscape:document-units="px"
     inkscape:current-layer="layer1"
     showgrid="false"
     inkscape:window-width="1280"
     inkscape:window-height="998"
     inkscape:window-x="0"
     inkscape:window-y="0"
     inkscape:window-maximized="1" />
  <metadata
     id="metadata7">
    <rdf:RDF>
      <cc:Work
         rdf:about="">
        <dc:format>image/svg+xml</dc:format>
        <dc:type
           rdf:resource="http://purl.org/dc/dcmitype/StillImage" />
        <dc:title />
      </cc:Work>
    </rdf:RDF>
  </metadata>
  <g
     inkscape:label="Layer 1"
     inkscape:groupmode="layer"
     id="layer1">
    <g
       id="g4884"
       transform="matrix(-2.4693664,0,0,2.4693664,1374.6039,-819.37812)">
      <path
         inkscape:connector-curvature="0"
         id="path3836-6"
         d="m 386.34763,599.92894 -0.375,0.28125 -0.21875,0.25 c 0,0 -7.01159,4.74164 -9.3125,6.46875 l -2.3125,0.125 0.9375,-0.15625 c 0,0 -8.62016,0.36658 -12.9375,0.90625 -4.31733,0.53967 -15.97187,1.46312 -17.375,1.625 -1.40313,0.16192 -1.67908,0.31008 -2.21875,2.46875 l 0.5625,-0.0937 -0.0625,0.3125 c -4.58018,0.15409 -8.5681,0.33503 -8.96875,0.5 -0.9174,0.37778 -1.50842,1.29049 -0.96875,4.90625 l 0.21875,-0.0312 1,4.53125 c -1.94533,0.13612 -2.24997,0.29568 -1.125,0.46875 0.29734,0.0457 0.75326,0.0656 1.25,0.0937 l 0.21875,0.96875 -0.21875,-0.0312 c 0.10743,0.13515 0.18086,0.21996 0.28125,0.34375 l 0.0312,0.125 0.125,0.0312 c 1.36954,1.66552 2.18517,2.30869 3.84375,2.40625 1.83486,0.10793 5.71875,0.0625 5.71875,0.0625 0,0 -0.0281,-0.058 -0.0312,-0.0625 l 1.0625,0.28125 0.125,0.0312 c 0.38268,1.33232 1.183,2.91615 2.71875,4.28125 1.9428,1.72694 3.5625,2.03125 3.5625,2.03125 l 4.8125,-0.0312 c 0,0 2.16942,-0.70941 3.34375,-1.6875 0.70505,-0.58723 1.81362,-1.3324 2.59375,-3.40625 l 0.0312,-0.0312 0,-0.0937 c 0.0738,-0.20454 0.15215,-0.39394 0.21875,-0.625 0.26617,-0.92341 0.15098,-2.30042 0.0312,-3.21875 l 3.3125,4.28125 1.4375,-0.0937 54.53125,-0.15625 c 0,0 -0.0396,-1.39218 1.09375,-2.09375 0.35809,-0.22168 0.79725,-0.40548 1.28125,-0.5625 0.15007,0.0459 0.24194,0.0749 0.40625,0.125 l -0.46875,0 c -0.3238,1.1333 0.25272,4.05569 1.40625,5.59375 0.93126,1.24167 2.46875,1.9375 2.46875,1.9375 l 5.59375,-0.0312 c 0,0 1.22889,-0.12604 2.4375,-0.9375 1.59069,-1.06798 2.63354,-2.67849 3.4375,-4.53125 0.40711,-0.93822 0.34375,-2.46875 0.34375,-2.46875 l -0.5,0 c 0.32024,-0.15062 0.83244,-0.37295 0.96875,-0.4375 0.0177,-7e-5 0.20635,0 0.21875,0 0.70157,0 2.53125,1.90625 2.53125,1.90625 0,0 -1.02467,0.36359 3.5625,0.0937 1.19269,-0.0702 2.68992,-0.16724 4.6875,-0.28125 l 0.25,0.0625 13.4375,-0.84375 1.53125,-12.9375 -0.8125,-0.125 -0.1875,0 -9.71875,-1.28125 -2.71875,-1.09375 c 0,0 -1.22249,-0.2133 -2.90625,-0.46875 l -2.1875,-0.65625 0.71875,0.0937 0.59375,-0.8125 -12.625,-0.8125 -4,-0.4375 -36.46875,-0.4375 c -0.16145,-0.12612 -0.35274,-0.21426 -0.53125,-0.3125 l 0.3125,0.3125 -0.40625,0 -0.125,-0.1875 0.21875,-0.125 c 0.17078,-1.58401 0.34354,-2.29611 -0.15625,-2.875 -0.49983,-0.57888 -1.02593,-0.86691 -1.28125,-0.875 -1.03937,-0.0329 -1.74833,0.084 -1.90625,0.53125 -0.15791,0.44726 -0.43825,0.73399 -0.5,1.125 -0.0617,0.39101 -0.28125,0.96875 -0.28125,0.96875 l 0,0.3125 0.34375,0.125 -0.125,0.375 0.0937,0.1875 -0.0312,0.0937 0,0.28125 c 0,0 0.0524,0.0242 0.0625,0.0312 l -4.78125,-0.0625 2.0625,-4.3125 -1.21875,0.15625 -4.46875,4.28125 -1.09375,0.0625 5.71875,-5.09375 c 0,0 -0.87788,-0.44327 -1.09375,-0.875 -0.21587,-0.43174 -0.0937,-0.6875 -0.0937,-0.6875 l -0.9375,-0.0625 z m -27.03125,7.53125 c -2.40826,0.007 -5.08972,0.0526 -6.25,0.1875 -2.32056,0.26983 -2.98028,0.14508 -3.84375,1.0625 l 14.625,-1.21875 c 0,0 -2.12299,-0.038 -4.53125,-0.0312 z"
         style="color:#000000;fill:#ffffff;fill-opacity:1;stroke:none;stroke-width:1.25;marker:none;visibility:visible;display:inline;overflow:visible;enable-background:accumulate" />
      <g
         transform="translate(-5.6147727,-35.173665)"
         id="g4850">
        <path
           style="color:#000000;fill:none;stroke:#000000;stroke-width:1.25;stroke-linecap:butt;stroke-linejoin:miter;stroke-miterlimit:4;stroke-opacity:1;stroke-dasharray:none;stroke-dashoffset:0;marker:none;visibility:visible;display:inline;overflow:visible;enable-background:accumulate"
           d="m 338.89196,652.69049 c -0.53967,-3.61576 0.054,-4.5332 0.9714,-4.91097 0.91743,-0.37776 19.69783,-0.80949 24.71673,-0.91743 5.0189,-0.10793 12.89803,-0.21587 12.89803,-0.21587"
           id="path3836"
           inkscape:connector-curvature="0" />
        <path
           style="color:#000000;fill:none;stroke:#000000;stroke-width:1.25;stroke-linecap:butt;stroke-linejoin:miter;stroke-miterlimit:4;stroke-opacity:1;stroke-dasharray:none;stroke-dashoffset:0;marker:none;visibility:visible;display:inline;overflow:visible;enable-background:accumulate"
           d="m 382.65892,646.59226 c -0.4857,5.07286 -0.1619,12.35836 -0.1619,12.35836 l 0.86347,2.64437 0.10793,1.67297"
           id="path3838"
           inkscape:connector-curvature="0" />
        <path
           style="color:#000000;fill:none;stroke:#000000;stroke-width:1.25;stroke-linecap:butt;stroke-linejoin:miter;stroke-miterlimit:4;stroke-opacity:1;stroke-dasharray:none;stroke-dashoffset:0;marker:none;visibility:visible;display:inline;overflow:visible;enable-background:accumulate"
           d="m 340.34906,654.14759 9.44417,0"
           id="path3840"
           inkscape:connector-curvature="0" />
        <path
           style="color:#000000;fill:none;stroke:#000000;stroke-width:1.25;stroke-linecap:butt;stroke-linejoin:miter;stroke-miterlimit:4;stroke-opacity:1;stroke-dasharray:none;stroke-dashoffset:0;marker:none;visibility:visible;display:inline;overflow:visible;enable-background:accumulate"
           d="m 340.45699,654.68726 8.52674,0"
           id="path3842"
           inkscape:connector-curvature="0" />
        <path
           style="color:#000000;fill:none;stroke:#000000;stroke-width:1.25;stroke-linecap:butt;stroke-linejoin:miter;stroke-miterlimit:4;stroke-opacity:1;stroke-dasharray:none;stroke-dashoffset:0;marker:none;visibility:visible;display:inline;overflow:visible;enable-background:accumulate"
           d="m 340.67286,655.44279 7.50136,0"
           id="path3844"
           inkscape:connector-curvature="0" />
        <path
           style="color:#000000;fill:none;stroke:#000000;stroke-width:1.25;stroke-linecap:butt;stroke-linejoin:miter;stroke-miterlimit:4;stroke-opacity:1;stroke-dasharray:none;stroke-dashoffset:0;marker:none;visibility:visible;display:inline;overflow:visible;enable-background:accumulate"
           d="m 340.56493,656.14436 6.96169,0"
           id="path3846"
           inkscape:connector-curvature="0" />
        <path
           style="color:#000000;fill:none;stroke:#000000;stroke-width:1.25;stroke-linecap:butt;stroke-linejoin:miter;stroke-miterlimit:4;stroke-opacity:1;stroke-dasharray:none;stroke-dashoffset:0;marker:none;visibility:visible;display:inline;overflow:visible;enable-background:accumulate"
           d="m 349.46943,656.84593 c -10.1997,0.26983 -12.57424,0.4857 -10.46954,0.8095 2.1047,0.3238 10.19971,0.16189 10.19971,0.16189"
           id="path3848"
           inkscape:connector-curvature="0" />
        <path
           style="color:#000000;fill:none;stroke:#000000;stroke-width:1.25;stroke-linecap:butt;stroke-linejoin:miter;stroke-miterlimit:4;stroke-opacity:1;stroke-dasharray:none;stroke-dashoffset:0;marker:none;visibility:visible;display:inline;overflow:visible;enable-background:accumulate"
           d="m 340.24112,658.68079 c 1.67297,2.1047 2.42851,2.80627 4.26338,2.9142 1.83486,0.10793 5.72046,0.054 5.72046,0.054 0,0 -0.75553,-1.07933 -0.75553,-1.56504 0,-0.4857 0,-0.4857 0,-0.4857"
           id="path3852"
           inkscape:connector-curvature="0" />
        <path
           style="color:#000000;fill:none;stroke:#000000;stroke-width:1.25;stroke-linecap:butt;stroke-linejoin:miter;stroke-miterlimit:4;stroke-opacity:1;stroke-dasharray:none;stroke-dashoffset:0;marker:none;visibility:visible;display:inline;overflow:visible;enable-background:accumulate"
           d="m 354.54229,653.55396 c -2.96816,1.9428 -3.45386,4.96493 -3.45386,6.42203 0,1.4571 0.626,4.07628 3.02213,6.20617 1.9428,1.72693 3.5618,2.05073 3.5618,2.05073 l 4.80303,-0.054 c 0,0 2.1716,-0.69487 3.34593,-1.67296 0.78608,-0.65472 2.08888,-1.47944 2.86024,-4.15544 0.41878,-1.45287 -0.10794,-4.15543 -0.10794,-4.15543"
           id="path3854"
           inkscape:connector-curvature="0"
           sodipodi:nodetypes="cssccssc" />
        <path
           style="color:#000000;fill:none;stroke:#000000;stroke-width:1.25;stroke-linecap:butt;stroke-linejoin:miter;stroke-miterlimit:4;stroke-opacity:1;stroke-dasharray:none;stroke-dashoffset:0;marker:none;visibility:visible;display:inline;overflow:visible;enable-background:accumulate"
           d="m 350.22496,655.2809 c 1.2952,-1.88884 1.619,-2.05074 1.619,-2.05074"
           id="path3856"
           inkscape:connector-curvature="0" />
        <path
           style="color:#000000;fill:none;stroke:#000000;stroke-width:1.25;stroke-linecap:butt;stroke-linejoin:miter;stroke-miterlimit:4;stroke-opacity:1;stroke-dasharray:none;stroke-dashoffset:0;marker:none;visibility:visible;display:inline;overflow:visible;enable-background:accumulate"
           d="m 346.01556,653.12222 c 12.6282,-0.26983 15.59636,-1.40313 17.86296,0.16191 2.2666,1.56503 3.29197,1.51106 4.42527,4.0475 1.1333,2.53643 4.26337,5.9903 4.26337,5.9903 l 55.42375,-0.16191 c 0,0 -0.054,-1.40313 1.07934,-2.1047 1.13329,-0.70156 2.91419,-1.07933 5.23476,-1.1333 2.32057,-0.054 11.6568,-0.16189 12.35836,-0.16189 0.70157,0 2.53644,1.88883 2.53644,1.88883 0,0 -1.02537,0.37777 3.5618,0.10793 4.58716,-0.26983 18.02487,-1.02537 18.02487,-1.02537 l 0.4857,-9.76796 1.07932,-3.18404 -0.53967,7.01567 -1.02535,5.93633"
           id="path3858"
           inkscape:connector-curvature="0" />
        <path
           style="color:#000000;fill:none;stroke:#000000;stroke-width:1.25;stroke-linecap:butt;stroke-linejoin:miter;stroke-miterlimit:4;stroke-opacity:1;stroke-dasharray:none;stroke-dashoffset:0;marker:none;visibility:visible;display:inline;overflow:visible;enable-background:accumulate"
           d="m 471.2182,650.85563 -18.9423,-0.21587"
           id="path3860"
           inkscape:connector-curvature="0" />
        <path
           style="color:#000000;fill:none;stroke:#000000;stroke-width:1.25;stroke-linecap:butt;stroke-linejoin:miter;stroke-miterlimit:4;stroke-opacity:1;stroke-dasharray:none;stroke-dashoffset:0;marker:none;visibility:visible;display:inline;overflow:visible;enable-background:accumulate"
           d="m 470.2468,654.74123 -102.05095,-0.3238"
           id="path3862"
           inkscape:connector-curvature="0" />
        <path
           style="color:#000000;fill:none;stroke:#000000;stroke-width:1.25;stroke-linecap:butt;stroke-linejoin:miter;stroke-miterlimit:4;stroke-opacity:1;stroke-dasharray:none;stroke-dashoffset:0;marker:none;visibility:visible;display:inline;overflow:visible;enable-background:accumulate"
           d="m 383.84618,645.08119 c -2.42849,-0.97139 -2.80626,-1.78089 -2.32056,-2.37453 0.4857,-0.59363 10.0378,-7.06963 10.0378,-7.06963 0,0 -0.3238,0.21587 0.10793,0.43173 0.43173,0.21587 1.40314,0.70157 1.40314,0.70157 z"
           id="path3866"
           inkscape:connector-curvature="0" />
        <path
           style="color:#000000;fill:none;stroke:#000000;stroke-width:1.25;stroke-linecap:butt;stroke-linejoin:miter;stroke-miterlimit:4;stroke-opacity:1;stroke-dasharray:none;stroke-dashoffset:0;marker:none;visibility:visible;display:inline;overflow:visible;enable-background:accumulate"
           d="m 393.45225,645.62086 c -1.24123,-2.53644 -2.32056,-4.10146 -2.69833,-3.61576 -0.37777,0.48569 0.1619,2.32056 0.26983,2.53642 0.10794,0.21588 0.26983,0.70158 0.26983,0.70158"
           id="path3868"
           inkscape:connector-curvature="0" />
        <path
           style="color:#000000;fill:none;stroke:#000000;stroke-width:1.25;stroke-linecap:butt;stroke-linejoin:miter;stroke-miterlimit:4;stroke-opacity:1;stroke-dasharray:none;stroke-dashoffset:0;marker:none;visibility:visible;display:inline;overflow:visible;enable-background:accumulate"
           d="m 386.38262,644.86532 7.71723,-7.39343 1.24123,-0.16189 -3.8856,8.09499 z"
           id="path3870"
           inkscape:connector-curvature="0" />
        <path
           style="color:#000000;fill:none;stroke:#000000;stroke-width:1.25;stroke-linecap:butt;stroke-linejoin:miter;stroke-miterlimit:4;stroke-opacity:1;stroke-dasharray:none;stroke-dashoffset:0;marker:none;visibility:visible;display:inline;overflow:visible;enable-background:accumulate"
           d="m 384.43982,645.51293 9.82193,-8.79656 c 0,0 -0.86346,-0.43174 -1.07933,-0.86347 -0.21587,-0.43174 -0.10793,-0.70157 -0.10793,-0.70157 l -0.91744,-0.054 -0.37777,0.26983"
           id="path3872"
           inkscape:connector-curvature="0" />
        <path
           style="color:#000000;fill:none;stroke:#000000;stroke-width:1.25;stroke-linecap:butt;stroke-linejoin:miter;stroke-miterlimit:4;stroke-opacity:1;stroke-dasharray:none;stroke-dashoffset:0;marker:none;visibility:visible;display:inline;overflow:visible;enable-background:accumulate"
           d="m 348.33613,647.07796 c 0.53967,-2.15867 0.8095,-2.32056 2.21263,-2.48247 1.40313,-0.16189 13.05993,-1.07933 17.37726,-1.61899 4.31734,-0.53967 12.952,-0.91744 12.952,-0.91744"
           id="path3874"
           inkscape:connector-curvature="0" />
        <path
           style="color:#000000;fill:none;stroke:#000000;stroke-width:1.25;stroke-linecap:butt;stroke-linejoin:miter;stroke-miterlimit:4;stroke-opacity:1;stroke-dasharray:none;stroke-dashoffset:0;marker:none;visibility:visible;display:inline;overflow:visible;enable-background:accumulate"
           d="m 355.02799,643.89393 c 0.86347,-0.91743 1.51107,-0.80951 3.83163,-1.07934 2.32057,-0.26983 10.79333,-0.16189 10.79333,-0.16189"
           id="path3876"
           inkscape:connector-curvature="0" />
        <path
           style="color:#000000;fill:none;stroke:#000000;stroke-width:1.25;stroke-linecap:butt;stroke-linejoin:miter;stroke-miterlimit:4;stroke-opacity:1;stroke-dasharray:none;stroke-dashoffset:0;marker:none;visibility:visible;display:inline;overflow:visible;enable-background:accumulate"
           d="m 391.29358,641.73526 1.02537,0.054"
           id="path3878"
           inkscape:connector-curvature="0" />
        <path
           style="color:#000000;fill:none;stroke:#000000;stroke-width:1.25;stroke-linecap:butt;stroke-linejoin:miter;stroke-miterlimit:4;stroke-opacity:1;stroke-dasharray:none;stroke-dashoffset:0;marker:none;visibility:visible;display:inline;overflow:visible;enable-background:accumulate"
           d="m 393.66812,641.78923 26.28176,0.26983"
           id="path3880"
           inkscape:connector-curvature="0" />
        <path
           style="color:#000000;fill:none;stroke:#000000;stroke-width:1.25;stroke-linecap:butt;stroke-linejoin:miter;stroke-miterlimit:4;stroke-opacity:1;stroke-dasharray:none;stroke-dashoffset:0;marker:none;visibility:visible;display:inline;overflow:visible;enable-background:accumulate"
           d="m 438.29854,642.3289 17.1614,1.07933 -0.59363,0.8095"
           id="path3882"
           inkscape:connector-curvature="0" />
        <path
           style="color:#000000;fill:none;stroke:#000000;stroke-width:1.25;stroke-linecap:butt;stroke-linejoin:miter;stroke-miterlimit:4;stroke-opacity:1;stroke-dasharray:none;stroke-dashoffset:0;marker:none;visibility:visible;display:inline;overflow:visible;enable-background:accumulate"
           d="m 439.59374,642.70666 c 10.63143,1.02537 19.64387,2.53644 19.64387,2.53644 l 3.45386,1.40312 0,0"
           id="path3884"
           inkscape:connector-curvature="0" />
        <path
           style="color:#000000;fill:none;stroke:#000000;stroke-width:1.25;stroke-linecap:butt;stroke-linejoin:miter;stroke-miterlimit:4;stroke-opacity:1;stroke-dasharray:none;stroke-dashoffset:0;marker:none;visibility:visible;display:inline;overflow:visible;enable-background:accumulate"
           d="m 471.8658,647.61763 -29.51976,-1.1333"
           id="path3886"
           inkscape:connector-curvature="0" />
        <path
           style="color:#000000;fill:none;stroke:#000000;stroke-width:1.25;stroke-linecap:butt;stroke-linejoin:miter;stroke-miterlimit:4;stroke-opacity:1;stroke-dasharray:none;stroke-dashoffset:0;marker:none;visibility:visible;display:inline;overflow:visible;enable-background:accumulate"
           d="m 438.73027,642.49079 c 3.99354,2.4285 4.0475,2.53644 3.39991,2.80627 -0.6476,0.26984 -13.97737,0.054 -13.97737,0.054 l -1.67296,1.24123 -39.44963,0"
           id="path3888"
           inkscape:connector-curvature="0" />
        <path
           style="color:#000000;fill:#ffffff;fill-opacity:1;stroke:#000000;stroke-width:1.25;stroke-linecap:butt;stroke-linejoin:miter;stroke-miterlimit:4;stroke-opacity:1;stroke-dasharray:none;stroke-dashoffset:0;marker:none;visibility:visible;display:inline;overflow:visible;enable-background:accumulate"
           d="m 401.84033,641.42423 c 0.17078,-1.58401 0.32238,-2.31794 -0.17741,-2.89683 -0.49983,-0.57888 -1.02469,-0.85668 -1.28001,-0.86477 -1.03937,-0.0329 -1.73011,0.076 -1.88803,0.52321 -0.15791,0.44726 -0.43829,0.74025 -0.50004,1.13126 -0.0617,0.39101 -0.29769,0.98069 -0.29769,0.98069 l 0.0147,0.30834 0.34436,0.13278 -0.11958,0.35459 0.0744,0.18236 -0.0302,0.11426 0.0221,0.27317 c 0,0 0.40153,0.28574 0.55394,0.32569 0.15244,0.0399 0.59966,0.19788 0.59966,0.19788 l 0.58966,0.23595"
           id="path3871-22"
           inkscape:connector-curvature="0"
           sodipodi:nodetypes="csscccccccccscc" />
        <path
           style="color:#000000;fill:#ffffff;fill-opacity:1;stroke:#000000;stroke-width:1.25;stroke-linecap:butt;stroke-linejoin:miter;stroke-miterlimit:4;stroke-opacity:1;stroke-dasharray:none;stroke-dashoffset:0;marker:none;visibility:visible;display:inline;overflow:visible;enable-background:accumulate"
           d="m 401.81002,641.37461 c 1.16289,0.6202 2.01567,2.01567 2.01567,2.01567"
           id="path3183-3"
           inkscape:connector-curvature="0" />
        <path
           style="color:#000000;fill:#ffffff;fill-opacity:1;stroke:#000000;stroke-width:1.25;stroke-linecap:butt;stroke-linejoin:miter;stroke-miterlimit:4;stroke-opacity:1;stroke-dasharray:none;stroke-dashoffset:0;marker:none;visibility:visible;display:inline;overflow:visible;enable-background:accumulate"
           d="m 399.71683,642.38244 c -0.77526,0.77526 -2.71341,1.70557 -2.71341,1.70557 l -3.10102,-0.38763"
           id="path3185-9"
           inkscape:connector-curvature="0" />
        <path
           sodipodi:type="arc"
           style="color:#000000;fill:#000000;fill-opacity:1;fill-rule:nonzero;stroke:none;stroke-width:2.58286452;marker:none;visibility:visible;display:inline;overflow:visible;enable-background:accumulate"
           id="path3955-6"
           sodipodi:cx="246.85982"
           sodipodi:cy="404.36703"
           sodipodi:rx="0.52210307"
           sodipodi:ry="0.39751029"
           d="m 247.38192,404.36703 c 0,0.21954 -0.23375,0.39752 -0.5221,0.39752 -0.28835,0 -0.52211,-0.17798 -0.52211,-0.39752 0,-0.21953 0.23376,-0.39751 0.52211,-0.39751 0.28835,0 0.5221,0.17798 0.5221,0.39751 z"
           transform="matrix(0.4839588,0,0,0.4839588,279.24188,444.03811)" />
        <path
           style="color:#000000;fill:none;stroke:#000000;stroke-width:1.25;stroke-linecap:butt;stroke-linejoin:miter;stroke-miterlimit:4;stroke-opacity:1;stroke-dasharray:none;stroke-dashoffset:0;marker:none;visibility:visible;display:inline;overflow:visible;enable-background:accumulate"
           d="m 430.29775,660.63041 c -0.3238,1.1333 0.26309,4.06773 1.41662,5.60579 0.93126,1.24167 2.46897,1.92255 2.46897,1.92255 l 5.58555,-0.0202 c 0,0 1.21988,-0.11947 2.42849,-0.93093 1.59069,-1.06798 2.65665,-2.68043 3.46061,-4.53319 0.40711,-0.93822 0.32379,-2.46898 0.32379,-2.46898"
           id="path4695"
           inkscape:connector-curvature="0"
           sodipodi:nodetypes="csccssc" />
        <path
           style="color:#000000;fill:none;stroke:#000000;stroke-width:1.25;stroke-linecap:butt;stroke-linejoin:miter;stroke-miterlimit:4;stroke-opacity:1;stroke-dasharray:none;stroke-dashoffset:0;marker:none;visibility:visible;display:inline;overflow:visible;enable-background:accumulate"
           d="m 410.93683,645.65886 c -1.00353,-2.56073 -1.97246,-3.28742 -2.23199,-3.37394 -0.25953,-0.0865 -1.98976,0.13842 -1.98976,0.13842"
           id="path4697"
           inkscape:connector-curvature="0" />
        <path
           style="color:#000000;fill:#ffffff;fill-opacity:1;stroke:none;stroke-width:0.625;marker:none;visibility:visible;display:inline;overflow:visible;enable-background:accumulate"
           d="m 401.15175,640.84785 1.46167,2.24705 -2.5961,0.74174 -0.17453,-2.53065 z"
           id="path4734"
           inkscape:connector-curvature="0" />
      </g>
    </g>
  </g>
</svg>
