<?xml version="1.0" encoding="UTF-8" standalone="no"?>
<!-- Created with Inkscape (http://www.inkscape.org/) -->

<svg
   xmlns:dc="http://purl.org/dc/elements/1.1/"
   xmlns:cc="http://creativecommons.org/ns#"
   xmlns:rdf="http://www.w3.org/1999/02/22-rdf-syntax-ns#"
   xmlns:svg="http://www.w3.org/2000/svg"
   xmlns="http://www.w3.org/2000/svg"
   xmlns:sodipodi="http://sodipodi.sourceforge.net/DTD/sodipodi-0.dtd"
   xmlns:inkscape="http://www.inkscape.org/namespaces/inkscape"
   width="744.09448819"
   height="1052.3622047"
   id="svg2"
   version="1.1"
   inkscape:version="0.48.4 r9939"
   sodipodi:docname="gravity-light-cones.svg">
  <defs
     id="defs4" />
  <sodipodi:namedview
     id="base"
     pagecolor="#ffffff"
     bordercolor="#666666"
     borderopacity="1.0"
     inkscape:pageopacity="0.0"
     inkscape:pageshadow="2"
     inkscape:zoom="1.1187372"
     inkscape:cx="753.54273"
     inkscape:cy="342.34056"
     inkscape:document-units="px"
     inkscape:current-layer="layer1"
     showgrid="false"
     inkscape:window-width="1280"
     inkscape:window-height="998"
     inkscape:window-x="0"
     inkscape:window-y="0"
     inkscape:window-maximized="1" />
  <metadata
     id="metadata7">
    <rdf:RDF>
      <cc:Work
         rdf:about="">
        <dc:format>image/svg+xml</dc:format>
        <dc:type
           rdf:resource="http://purl.org/dc/dcmitype/StillImage" />
        <dc:title />
      </cc:Work>
    </rdf:RDF>
  </metadata>
  <g
     inkscape:label="Layer 1"
     inkscape:groupmode="layer"
     id="layer1">
    <rect
       style="fill:#dedede;fill-opacity:1;stroke:none"
       id="rect2985-7"
       width="382.5"
       height="607.5"
       x="543.93524"
       y="445.7269" />
    <path
       style="color:#000000;fill:none;stroke:#000000;stroke-width:2.5;stroke-linecap:butt;stroke-linejoin:miter;stroke-miterlimit:4;stroke-opacity:1;stroke-dasharray:none;stroke-dashoffset:0;marker:none;visibility:visible;display:inline;overflow:visible;enable-background:accumulate"
       d="m 561.76063,458.8895 0,571.952"
       id="path5377"
       inkscape:connector-curvature="0" />
    <g
       id="g4860-7-7-3-0"
       transform="matrix(0.99998629,-0.00523596,0.00523596,0.99998629,978.5237,296.66776)">
      <path
         transform="matrix(0.2609825,0,0,0.2609825,-61.371664,488.80487)"
         d="m 6.7988739,675.99585 c 0,7.24162 -19.7857419,13.11212 -44.1926919,13.11212 -24.40695,0 -44.192692,-5.8705 -44.192692,-13.11212 0,-7.24162 19.785742,-13.11212 44.192692,-13.11212 24.40695,0 44.1926919,5.8705 44.1926919,13.11212 z"
         sodipodi:ry="13.112118"
         sodipodi:rx="44.192692"
         sodipodi:cy="675.99585"
         sodipodi:cx="-37.393818"
         id="path4088-4-4-7-8"
         style="color:#000000;fill:none;stroke:#000000;stroke-width:2.39479661;stroke-miterlimit:4;stroke-opacity:1;stroke-dasharray:none;marker:none;visibility:visible;display:inline;overflow:visible;enable-background:accumulate"
         sodipodi:type="arc" />
      <path
         sodipodi:nodetypes="ccc"
         inkscape:connector-curvature="0"
         id="path4090-8-3-5-2"
         d="m -82.184251,666.20639 11.165759,10.54605 11.027629,-10.6323"
         style="color:#000000;fill:none;stroke:#000000;stroke-width:0.625;stroke-linecap:butt;stroke-linejoin:miter;stroke-miterlimit:4;stroke-opacity:1;stroke-dasharray:none;stroke-dashoffset:0;marker:none;visibility:visible;display:inline;overflow:visible;enable-background:accumulate" />
    </g>
    <g
       id="g4860-4-6-1-3"
       transform="matrix(0.99974261,-0.02268733,0.02268733,0.99974261,962.19008,227.91177)">
      <path
         transform="matrix(0.2609825,0,0,0.2609825,-61.371664,488.80487)"
         d="m 6.7988739,675.99585 c 0,7.24162 -19.7857419,13.11212 -44.1926919,13.11212 -24.40695,0 -44.192692,-5.8705 -44.192692,-13.11212 0,-7.24162 19.785742,-13.11212 44.192692,-13.11212 24.40695,0 44.1926919,5.8705 44.1926919,13.11212 z"
         sodipodi:ry="13.112118"
         sodipodi:rx="44.192692"
         sodipodi:cy="675.99585"
         sodipodi:cx="-37.393818"
         id="path4088-1-9-6-7"
         style="color:#000000;fill:none;stroke:#000000;stroke-width:2.39479661;stroke-miterlimit:4;stroke-opacity:1;stroke-dasharray:none;marker:none;visibility:visible;display:inline;overflow:visible;enable-background:accumulate"
         sodipodi:type="arc" />
      <path
         sodipodi:nodetypes="ccc"
         inkscape:connector-curvature="0"
         id="path4090-6-7-9-7"
         d="m -82.184251,666.20639 11.165759,10.54605 11.027629,-10.6323"
         style="color:#000000;fill:none;stroke:#000000;stroke-width:0.625;stroke-linecap:butt;stroke-linejoin:miter;stroke-miterlimit:4;stroke-opacity:1;stroke-dasharray:none;stroke-dashoffset:0;marker:none;visibility:visible;display:inline;overflow:visible;enable-background:accumulate" />
    </g>
    <g
       id="g4860-44-5-6-4"
       transform="matrix(0.99862953,-0.05233596,0.05233596,0.99862953,934.20102,158.87007)">
      <path
         transform="matrix(0.2609825,0,0,0.2609825,-61.371664,488.80487)"
         d="m 6.7988739,675.99585 c 0,7.24162 -19.7857419,13.11212 -44.1926919,13.11212 -24.40695,0 -44.192692,-5.8705 -44.192692,-13.11212 0,-7.24162 19.785742,-13.11212 44.192692,-13.11212 24.40695,0 44.1926919,5.8705 44.1926919,13.11212 z"
         sodipodi:ry="13.112118"
         sodipodi:rx="44.192692"
         sodipodi:cy="675.99585"
         sodipodi:cx="-37.393818"
         id="path4088-7-8-3-4"
         style="color:#000000;fill:none;stroke:#000000;stroke-width:2.39479661;stroke-miterlimit:4;stroke-opacity:1;stroke-dasharray:none;marker:none;visibility:visible;display:inline;overflow:visible;enable-background:accumulate"
         sodipodi:type="arc" />
      <path
         sodipodi:nodetypes="ccc"
         inkscape:connector-curvature="0"
         id="path4090-5-5-0-8"
         d="m -82.184251,666.20639 11.165759,10.54605 11.027629,-10.6323"
         style="color:#000000;fill:none;stroke:#000000;stroke-width:0.625;stroke-linecap:butt;stroke-linejoin:miter;stroke-miterlimit:4;stroke-opacity:1;stroke-dasharray:none;stroke-dashoffset:0;marker:none;visibility:visible;display:inline;overflow:visible;enable-background:accumulate" />
    </g>
    <g
       id="g4860-2-3-3-3"
       transform="matrix(0.9961947,-0.08715574,0.08715574,0.9961947,898.54827,90.345181)">
      <path
         transform="matrix(0.2609825,0,0,0.2609825,-61.371664,488.80487)"
         d="m 6.7988739,675.99585 c 0,7.24162 -19.7857419,13.11212 -44.1926919,13.11212 -24.40695,0 -44.192692,-5.8705 -44.192692,-13.11212 0,-7.24162 19.785742,-13.11212 44.192692,-13.11212 24.40695,0 44.1926919,5.8705 44.1926919,13.11212 z"
         sodipodi:ry="13.112118"
         sodipodi:rx="44.192692"
         sodipodi:cy="675.99585"
         sodipodi:cx="-37.393818"
         id="path4088-9-4-8-9"
         style="color:#000000;fill:none;stroke:#000000;stroke-width:2.39479661;stroke-miterlimit:4;stroke-opacity:1;stroke-dasharray:none;marker:none;visibility:visible;display:inline;overflow:visible;enable-background:accumulate"
         sodipodi:type="arc" />
      <path
         sodipodi:nodetypes="ccc"
         inkscape:connector-curvature="0"
         id="path4090-7-7-9-9"
         d="m -82.184251,666.20639 11.165759,10.54605 11.027629,-10.6323"
         style="color:#000000;fill:none;stroke:#000000;stroke-width:0.625;stroke-linecap:butt;stroke-linejoin:miter;stroke-miterlimit:4;stroke-opacity:1;stroke-dasharray:none;stroke-dashoffset:0;marker:none;visibility:visible;display:inline;overflow:visible;enable-background:accumulate" />
    </g>
    <g
       id="g4860-8-3-9-6"
       transform="matrix(0.9612617,-0.27563736,0.27563736,0.9612617,752.78437,32.640519)">
      <path
         transform="matrix(0.2609825,0,0,0.2609825,-61.371664,488.80487)"
         d="m 6.7988739,675.99585 c 0,7.24162 -19.7857419,13.11212 -44.1926919,13.11212 -24.40695,0 -44.192692,-5.8705 -44.192692,-13.11212 0,-7.24162 19.785742,-13.11212 44.192692,-13.11212 24.40695,0 44.1926919,5.8705 44.1926919,13.11212 z"
         sodipodi:ry="13.112118"
         sodipodi:rx="44.192692"
         sodipodi:cy="675.99585"
         sodipodi:cx="-37.393818"
         id="path4088-74-9-3-9"
         style="color:#000000;fill:none;stroke:#000000;stroke-width:2.39479661;stroke-miterlimit:4;stroke-opacity:1;stroke-dasharray:none;marker:none;visibility:visible;display:inline;overflow:visible;enable-background:accumulate"
         sodipodi:type="arc" />
      <path
         sodipodi:nodetypes="ccc"
         inkscape:connector-curvature="0"
         id="path4090-2-1-3-0"
         d="m -82.184251,666.20639 11.165759,10.54605 11.027629,-10.6323"
         style="color:#000000;fill:none;stroke:#000000;stroke-width:0.625;stroke-linecap:butt;stroke-linejoin:miter;stroke-miterlimit:4;stroke-opacity:1;stroke-dasharray:none;stroke-dashoffset:0;marker:none;visibility:visible;display:inline;overflow:visible;enable-background:accumulate" />
    </g>
    <g
       id="g4860-0-4-8-7"
       transform="matrix(0.9781476,-0.20791169,0.20791169,0.9781476,780.05084,-41.521215)">
      <path
         transform="matrix(0.2609825,0,0,0.2609825,-61.371664,488.80487)"
         d="m 6.7988739,675.99585 c 0,7.24162 -19.7857419,13.11212 -44.1926919,13.11212 -24.40695,0 -44.192692,-5.8705 -44.192692,-13.11212 0,-7.24162 19.785742,-13.11212 44.192692,-13.11212 24.40695,0 44.1926919,5.8705 44.1926919,13.11212 z"
         sodipodi:ry="13.112118"
         sodipodi:rx="44.192692"
         sodipodi:cy="675.99585"
         sodipodi:cx="-37.393818"
         id="path4088-5-8-9-3"
         style="color:#000000;fill:none;stroke:#000000;stroke-width:2.39479661;stroke-miterlimit:4;stroke-opacity:1;stroke-dasharray:none;marker:none;visibility:visible;display:inline;overflow:visible;enable-background:accumulate"
         sodipodi:type="arc" />
      <path
         sodipodi:nodetypes="ccc"
         inkscape:connector-curvature="0"
         id="path4090-29-1-3-3"
         d="m -82.184251,666.20639 11.165759,10.54605 11.027629,-10.6323"
         style="color:#000000;fill:none;stroke:#000000;stroke-width:0.625;stroke-linecap:butt;stroke-linejoin:miter;stroke-miterlimit:4;stroke-opacity:1;stroke-dasharray:none;stroke-dashoffset:0;marker:none;visibility:visible;display:inline;overflow:visible;enable-background:accumulate" />
    </g>
    <g
       id="g4860-9-1-2-6"
       transform="matrix(0.96592583,-0.25881905,0.25881905,0.96592583,720.07587,-104.64026)">
      <path
         transform="matrix(0.2609825,0,0,0.2609825,-61.371664,488.80487)"
         d="m 6.7988739,675.99585 c 0,7.24162 -19.7857419,13.11212 -44.1926919,13.11212 -24.40695,0 -44.192692,-5.8705 -44.192692,-13.11212 0,-7.24162 19.785742,-13.11212 44.192692,-13.11212 24.40695,0 44.1926919,5.8705 44.1926919,13.11212 z"
         sodipodi:ry="13.112118"
         sodipodi:rx="44.192692"
         sodipodi:cy="675.99585"
         sodipodi:cx="-37.393818"
         id="path4088-0-9-5-4"
         style="color:#000000;fill:none;stroke:#000000;stroke-width:2.39479661;stroke-miterlimit:4;stroke-opacity:1;stroke-dasharray:none;marker:none;visibility:visible;display:inline;overflow:visible;enable-background:accumulate"
         sodipodi:type="arc" />
      <path
         sodipodi:nodetypes="ccc"
         inkscape:connector-curvature="0"
         id="path4090-58-7-3-8"
         d="m -82.184251,666.20639 11.165759,10.54605 11.027629,-10.6323"
         style="color:#000000;fill:none;stroke:#000000;stroke-width:0.625;stroke-linecap:butt;stroke-linejoin:miter;stroke-miterlimit:4;stroke-opacity:1;stroke-dasharray:none;stroke-dashoffset:0;marker:none;visibility:visible;display:inline;overflow:visible;enable-background:accumulate" />
    </g>
    <g
       id="g4860-41-5-3-8"
       transform="matrix(0.8571673,-0.51503807,0.51503807,0.8571673,508.54403,-117.75325)">
      <path
         transform="matrix(0.2609825,0,0,0.2609825,-61.371664,488.80487)"
         d="m 6.7988739,675.99585 c 0,7.24162 -19.7857419,13.11212 -44.1926919,13.11212 -24.40695,0 -44.192692,-5.8705 -44.192692,-13.11212 0,-7.24162 19.785742,-13.11212 44.192692,-13.11212 24.40695,0 44.1926919,5.8705 44.1926919,13.11212 z"
         sodipodi:ry="13.112118"
         sodipodi:rx="44.192692"
         sodipodi:cy="675.99585"
         sodipodi:cx="-37.393818"
         id="path4088-54-6-7-9"
         style="color:#000000;fill:none;stroke:#000000;stroke-width:2.39479661;stroke-miterlimit:4;stroke-opacity:1;stroke-dasharray:none;marker:none;visibility:visible;display:inline;overflow:visible;enable-background:accumulate"
         sodipodi:type="arc" />
      <path
         sodipodi:nodetypes="ccc"
         inkscape:connector-curvature="0"
         id="path4090-1-2-2-4"
         d="m -82.184251,666.20639 11.165759,10.54605 11.027629,-10.6323"
         style="color:#000000;fill:none;stroke:#000000;stroke-width:0.625;stroke-linecap:butt;stroke-linejoin:miter;stroke-miterlimit:4;stroke-opacity:1;stroke-dasharray:none;stroke-dashoffset:0;marker:none;visibility:visible;display:inline;overflow:visible;enable-background:accumulate" />
    </g>
    <g
       id="g4860-7-7-3-6"
       transform="matrix(0.99993163,-0.01169344,0.01169344,0.99993163,887.94748,296.21243)">
      <path
         transform="matrix(0.2609825,0,0,0.2609825,-61.371664,488.80487)"
         d="m 6.7988739,675.99585 c 0,7.24162 -19.7857419,13.11212 -44.1926919,13.11212 -24.40695,0 -44.192692,-5.8705 -44.192692,-13.11212 0,-7.24162 19.785742,-13.11212 44.192692,-13.11212 24.40695,0 44.1926919,5.8705 44.1926919,13.11212 z"
         sodipodi:ry="13.112118"
         sodipodi:rx="44.192692"
         sodipodi:cy="675.99585"
         sodipodi:cx="-37.393818"
         id="path4088-4-4-7-2"
         style="color:#000000;fill:none;stroke:#000000;stroke-width:2.39479661;stroke-miterlimit:4;stroke-opacity:1;stroke-dasharray:none;marker:none;visibility:visible;display:inline;overflow:visible;enable-background:accumulate"
         sodipodi:type="arc" />
      <path
         sodipodi:nodetypes="ccc"
         inkscape:connector-curvature="0"
         id="path4090-8-3-5-7"
         d="m -82.184251,666.20639 11.165759,10.54605 11.027629,-10.6323"
         style="color:#000000;fill:none;stroke:#000000;stroke-width:0.625;stroke-linecap:butt;stroke-linejoin:miter;stroke-miterlimit:4;stroke-opacity:1;stroke-dasharray:none;stroke-dashoffset:0;marker:none;visibility:visible;display:inline;overflow:visible;enable-background:accumulate" />
    </g>
    <g
       id="g4860-4-6-1-32"
       transform="matrix(0.99032911,-0.13873804,0.13873804,0.99032911,792.11214,226.05361)">
      <path
         transform="matrix(0.2609825,0,0,0.2609825,-61.371664,488.80487)"
         d="m 6.7988739,675.99585 c 0,7.24162 -19.7857419,13.11212 -44.1926919,13.11212 -24.40695,0 -44.192692,-5.8705 -44.192692,-13.11212 0,-7.24162 19.785742,-13.11212 44.192692,-13.11212 24.40695,0 44.1926919,5.8705 44.1926919,13.11212 z"
         sodipodi:ry="13.112118"
         sodipodi:rx="44.192692"
         sodipodi:cy="675.99585"
         sodipodi:cx="-37.393818"
         id="path4088-1-9-6-78"
         style="color:#000000;fill:none;stroke:#000000;stroke-width:2.39479661;stroke-miterlimit:4;stroke-opacity:1;stroke-dasharray:none;marker:none;visibility:visible;display:inline;overflow:visible;enable-background:accumulate"
         sodipodi:type="arc" />
      <path
         sodipodi:nodetypes="ccc"
         inkscape:connector-curvature="0"
         id="path4090-6-7-9-75"
         d="m -82.184251,666.20639 11.165759,10.54605 11.027629,-10.6323"
         style="color:#000000;fill:none;stroke:#000000;stroke-width:0.625;stroke-linecap:butt;stroke-linejoin:miter;stroke-miterlimit:4;stroke-opacity:1;stroke-dasharray:none;stroke-dashoffset:0;marker:none;visibility:visible;display:inline;overflow:visible;enable-background:accumulate" />
    </g>
    <g
       id="g4860-44-5-6-5"
       transform="matrix(0.97401865,-0.22646781,0.22646781,0.97401865,715.61287,162.86979)">
      <path
         transform="matrix(0.2609825,0,0,0.2609825,-61.371664,488.80487)"
         d="m 6.7988739,675.99585 c 0,7.24162 -19.7857419,13.11212 -44.1926919,13.11212 -24.40695,0 -44.192692,-5.8705 -44.192692,-13.11212 0,-7.24162 19.785742,-13.11212 44.192692,-13.11212 24.40695,0 44.1926919,5.8705 44.1926919,13.11212 z"
         sodipodi:ry="13.112118"
         sodipodi:rx="44.192692"
         sodipodi:cy="675.99585"
         sodipodi:cx="-37.393818"
         id="path4088-7-8-3-41"
         style="color:#000000;fill:none;stroke:#000000;stroke-width:2.39479661;stroke-miterlimit:4;stroke-opacity:1;stroke-dasharray:none;marker:none;visibility:visible;display:inline;overflow:visible;enable-background:accumulate"
         sodipodi:type="arc" />
      <path
         sodipodi:nodetypes="ccc"
         inkscape:connector-curvature="0"
         id="path4090-5-5-0-6"
         d="m -82.184251,666.20639 11.165759,10.54605 11.027629,-10.6323"
         style="color:#000000;fill:none;stroke:#000000;stroke-width:0.625;stroke-linecap:butt;stroke-linejoin:miter;stroke-miterlimit:4;stroke-opacity:1;stroke-dasharray:none;stroke-dashoffset:0;marker:none;visibility:visible;display:inline;overflow:visible;enable-background:accumulate" />
    </g>
    <g
       id="g4860-2-3-3-7"
       transform="matrix(0.95434261,-0.29871421,0.29871421,0.95434261,641.95978,103.25599)">
      <path
         transform="matrix(0.2609825,0,0,0.2609825,-61.371664,488.80487)"
         d="m 6.7988739,675.99585 c 0,7.24162 -19.7857419,13.11212 -44.1926919,13.11212 -24.40695,0 -44.192692,-5.8705 -44.192692,-13.11212 0,-7.24162 19.785742,-13.11212 44.192692,-13.11212 24.40695,0 44.1926919,5.8705 44.1926919,13.11212 z"
         sodipodi:ry="13.112118"
         sodipodi:rx="44.192692"
         sodipodi:cy="675.99585"
         sodipodi:cx="-37.393818"
         id="path4088-9-4-8-0"
         style="color:#000000;fill:none;stroke:#000000;stroke-width:2.39479661;stroke-miterlimit:4;stroke-opacity:1;stroke-dasharray:none;marker:none;visibility:visible;display:inline;overflow:visible;enable-background:accumulate"
         sodipodi:type="arc" />
      <path
         sodipodi:nodetypes="ccc"
         inkscape:connector-curvature="0"
         id="path4090-7-7-9-5"
         d="m -82.184251,666.20639 11.165759,10.54605 11.027629,-10.6323"
         style="color:#000000;fill:none;stroke:#000000;stroke-width:0.625;stroke-linecap:butt;stroke-linejoin:miter;stroke-miterlimit:4;stroke-opacity:1;stroke-dasharray:none;stroke-dashoffset:0;marker:none;visibility:visible;display:inline;overflow:visible;enable-background:accumulate" />
    </g>
    <g
       id="g4860-8-3-9-5"
       transform="matrix(0.9612617,-0.27563736,0.27563736,0.9612617,626.5298,32.607916)">
      <g
         id="g4338">
        <g
           id="g4342"
           transform="matrix(0.99322511,-0.11620616,0.11620616,0.99322511,-78.801274,-3.7206712)">
          <path
             transform="matrix(0.2609825,0,0,0.2609825,-61.371664,488.80487)"
             d="m 6.7988739,675.99585 c 0,7.24162 -19.7857419,13.11212 -44.1926919,13.11212 -24.40695,0 -44.192692,-5.8705 -44.192692,-13.11212 0,-7.24162 19.785742,-13.11212 44.192692,-13.11212 24.40695,0 44.1926919,5.8705 44.1926919,13.11212 z"
             sodipodi:ry="13.112118"
             sodipodi:rx="44.192692"
             sodipodi:cy="675.99585"
             sodipodi:cx="-37.393818"
             id="path4088-74-9-3-95"
             style="color:#000000;fill:none;stroke:#000000;stroke-width:2.39479661;stroke-miterlimit:4;stroke-opacity:1;stroke-dasharray:none;marker:none;visibility:visible;display:inline;overflow:visible;enable-background:accumulate"
             sodipodi:type="arc" />
          <path
             sodipodi:nodetypes="ccc"
             inkscape:connector-curvature="0"
             id="path4090-2-1-3-3"
             d="m -82.184251,666.20639 11.165759,10.54605 11.027629,-10.6323"
             style="color:#000000;fill:none;stroke:#000000;stroke-width:0.625;stroke-linecap:butt;stroke-linejoin:miter;stroke-miterlimit:4;stroke-opacity:1;stroke-dasharray:none;stroke-dashoffset:0;marker:none;visibility:visible;display:inline;overflow:visible;enable-background:accumulate" />
        </g>
      </g>
    </g>
    <g
       id="g4860-0-4-8-4"
       transform="matrix(0.87742926,-0.47970605,0.47970605,0.87742926,443.08573,6.678535)">
      <path
         transform="matrix(0.2609825,0,0,0.2609825,-61.371664,488.80487)"
         d="m 6.7988739,675.99585 c 0,7.24162 -19.7857419,13.11212 -44.1926919,13.11212 -24.40695,0 -44.192692,-5.8705 -44.192692,-13.11212 0,-7.24162 19.785742,-13.11212 44.192692,-13.11212 24.40695,0 44.1926919,5.8705 44.1926919,13.11212 z"
         sodipodi:ry="13.112118"
         sodipodi:rx="44.192692"
         sodipodi:cy="675.99585"
         sodipodi:cx="-37.393818"
         id="path4088-5-8-9-0"
         style="color:#000000;fill:none;stroke:#000000;stroke-width:2.39479661;stroke-miterlimit:4;stroke-opacity:1;stroke-dasharray:none;marker:none;visibility:visible;display:inline;overflow:visible;enable-background:accumulate"
         sodipodi:type="arc" />
      <path
         sodipodi:nodetypes="ccc"
         inkscape:connector-curvature="0"
         id="path4090-29-1-3-1"
         d="m -82.184251,666.20639 11.165759,10.54605 11.027629,-10.6323"
         style="color:#000000;fill:none;stroke:#000000;stroke-width:0.625;stroke-linecap:butt;stroke-linejoin:miter;stroke-miterlimit:4;stroke-opacity:1;stroke-dasharray:none;stroke-dashoffset:0;marker:none;visibility:visible;display:inline;overflow:visible;enable-background:accumulate" />
    </g>
    <g
       id="g4860-9-1-2-8"
       transform="matrix(0.83218657,-0.55449572,0.55449572,0.83218657,340.39766,-35.813156)">
      <path
         transform="matrix(0.2609825,0,0,0.2609825,-61.371664,488.80487)"
         d="m 6.7988739,675.99585 c 0,7.24162 -19.7857419,13.11212 -44.1926919,13.11212 -24.40695,0 -44.192692,-5.8705 -44.192692,-13.11212 0,-7.24162 19.785742,-13.11212 44.192692,-13.11212 24.40695,0 44.1926919,5.8705 44.1926919,13.11212 z"
         sodipodi:ry="13.112118"
         sodipodi:rx="44.192692"
         sodipodi:cy="675.99585"
         sodipodi:cx="-37.393818"
         id="path4088-0-9-5-1"
         style="color:#000000;fill:none;stroke:#000000;stroke-width:2.39479661;stroke-miterlimit:4;stroke-opacity:1;stroke-dasharray:none;marker:none;visibility:visible;display:inline;overflow:visible;enable-background:accumulate"
         sodipodi:type="arc" />
      <path
         sodipodi:nodetypes="ccc"
         inkscape:connector-curvature="0"
         id="path4090-58-7-3-1"
         d="m -82.184251,666.20639 11.165759,10.54605 11.027629,-10.6323"
         style="color:#000000;fill:none;stroke:#000000;stroke-width:0.625;stroke-linecap:butt;stroke-linejoin:miter;stroke-miterlimit:4;stroke-opacity:1;stroke-dasharray:none;stroke-dashoffset:0;marker:none;visibility:visible;display:inline;overflow:visible;enable-background:accumulate" />
    </g>
    <g
       id="g4860-41-5-3-85"
       transform="matrix(0.70710678,-0.70710678,0.70710678,0.70710678,167.12681,-31.015454)">
      <path
         transform="matrix(0.2609825,0,0,0.2609825,-61.371664,488.80487)"
         d="m 6.7988739,675.99585 c 0,7.24162 -19.7857419,13.11212 -44.1926919,13.11212 -24.40695,0 -44.192692,-5.8705 -44.192692,-13.11212 0,-7.24162 19.785742,-13.11212 44.192692,-13.11212 24.40695,0 44.1926919,5.8705 44.1926919,13.11212 z"
         sodipodi:ry="13.112118"
         sodipodi:rx="44.192692"
         sodipodi:cy="675.99585"
         sodipodi:cx="-37.393818"
         id="path4088-54-6-7-4"
         style="color:#000000;fill:none;stroke:#000000;stroke-width:2.39479661;stroke-miterlimit:4;stroke-opacity:1;stroke-dasharray:none;marker:none;visibility:visible;display:inline;overflow:visible;enable-background:accumulate"
         sodipodi:type="arc" />
      <path
         sodipodi:nodetypes="ccc"
         inkscape:connector-curvature="0"
         id="path4090-1-2-2-6"
         d="m -82.184251,666.20639 11.165759,10.54605 11.027629,-10.6323"
         style="color:#000000;fill:none;stroke:#000000;stroke-width:0.625;stroke-linecap:butt;stroke-linejoin:miter;stroke-miterlimit:4;stroke-opacity:1;stroke-dasharray:none;stroke-dashoffset:0;marker:none;visibility:visible;display:inline;overflow:visible;enable-background:accumulate" />
    </g>
    <path
       sodipodi:type="arc"
       style="color:#000000;fill:none;stroke:#000000;stroke-width:0.55101913;stroke-miterlimit:4;stroke-opacity:1;stroke-dasharray:none;marker:none;visibility:visible;display:inline;overflow:visible;enable-background:accumulate"
       id="path5093-9"
       sodipodi:cx="-727.16254"
       sodipodi:cy="861.0036"
       sodipodi:rx="890.4552"
       sodipodi:ry="890.4552"
       d="M -41.936593,292.34213 A 890.4552,890.4552 0 0 1 163.27242,854.99966"
       sodipodi:start="5.5904832"
       sodipodi:end="6.2764427"
       transform="matrix(1.2919425,0,0,0.99582615,616.33978,174.27767)"
       sodipodi:open="true" />
    <path
       sodipodi:type="arc"
       style="color:#000000;fill:none;stroke:#000000;stroke-width:0.78048247;stroke-miterlimit:4;stroke-opacity:1;stroke-dasharray:none;marker:none;visibility:visible;display:inline;overflow:visible;enable-background:accumulate"
       id="path5093-9-1"
       sodipodi:cx="-727.16254"
       sodipodi:cy="861.0036"
       sodipodi:rx="890.4552"
       sodipodi:ry="890.4552"
       d="M -41.936593,292.34213 A 890.4552,890.4552 0 0 1 163.27163,854.8839"
       sodipodi:start="5.5904832"
       sodipodi:end="6.2763127"
       sodipodi:open="true"
       transform="matrix(0.64534502,0,0,0.99366901,807.30672,177.42975)" />
    <path
       style="color:#000000;fill:none;stroke:#000000;stroke-width:0.9375;stroke-linecap:butt;stroke-linejoin:miter;stroke-miterlimit:4;stroke-opacity:1;stroke-dasharray:1.875, 0.9375;stroke-dashoffset:0;marker:none;visibility:visible;display:inline;overflow:visible;enable-background:accumulate"
       d="m 598.24209,459.03742 0,571.95188"
       id="path5377-5"
       inkscape:connector-curvature="0" />
    <text
       xml:space="preserve"
       style="font-size:10px;font-style:normal;font-variant:normal;font-weight:normal;font-stretch:normal;text-indent:0;text-align:start;text-decoration:none;line-height:125%;letter-spacing:0px;word-spacing:0px;text-transform:none;direction:ltr;block-progression:tb;writing-mode:lr-tb;text-anchor:start;baseline-shift:baseline;color:#000000;fill:#000000;fill-opacity:1;fill-rule:nonzero;stroke:none;stroke-width:1.24999988px;marker:none;visibility:visible;display:inline;overflow:visible;enable-background:accumulate;font-family:Liberation Sans;-inkscape-font-specification:Liberation Sans"
       x="743.4115"
       y="-570.11658"
       id="text4303"
       sodipodi:linespacing="125%"
       transform="matrix(0,1,-1,0,0,0)"><tspan
         sodipodi:role="line"
         id="tspan4305"
         x="743.4115"
         y="-570.11658">singularity</tspan></text>
    <text
       xml:space="preserve"
       style="font-size:10px;font-style:normal;font-variant:normal;font-weight:normal;font-stretch:normal;text-indent:0;text-align:start;text-decoration:none;line-height:125%;letter-spacing:0px;word-spacing:0px;text-transform:none;direction:ltr;block-progression:tb;writing-mode:lr-tb;text-anchor:start;baseline-shift:baseline;color:#000000;fill:#000000;fill-opacity:1;fill-rule:nonzero;stroke:none;stroke-width:1.24999988px;marker:none;visibility:visible;display:inline;overflow:visible;enable-background:accumulate;font-family:Liberation Sans;-inkscape-font-specification:Liberation Sans"
       x="737.49957"
       y="-606.86047"
       id="text4307"
       sodipodi:linespacing="125%"
       transform="matrix(0,1,-1,0,0,0)"><tspan
         sodipodi:role="line"
         id="tspan4309"
         x="737.49957"
         y="-606.86047">event horizon</tspan></text>
    <text
       xml:space="preserve"
       style="font-size:10px;font-style:normal;font-variant:normal;font-weight:normal;font-stretch:normal;text-indent:0;text-align:start;text-decoration:none;line-height:125%;letter-spacing:0px;word-spacing:0px;text-transform:none;direction:ltr;block-progression:tb;writing-mode:lr-tb;text-anchor:start;baseline-shift:baseline;color:#000000;fill:#000000;fill-opacity:1;fill-rule:nonzero;stroke:none;stroke-width:1.24999988px;marker:none;visibility:visible;display:inline;overflow:visible;enable-background:accumulate;font-family:Liberation Sans;-inkscape-font-specification:Liberation Sans"
       x="823.8562"
       y="1036.3514"
       id="text4346"
       sodipodi:linespacing="125%"><tspan
         sodipodi:role="line"
         id="tspan4348"
         x="823.8562"
         y="1036.3514">A</tspan></text>
    <text
       xml:space="preserve"
       style="font-size:10px;font-style:normal;font-variant:normal;font-weight:normal;font-stretch:normal;text-indent:0;text-align:start;text-decoration:none;line-height:125%;letter-spacing:0px;word-spacing:0px;text-transform:none;direction:ltr;block-progression:tb;writing-mode:lr-tb;text-anchor:start;baseline-shift:baseline;color:#000000;fill:#000000;fill-opacity:1;fill-rule:nonzero;stroke:none;stroke-width:1.24999988px;marker:none;visibility:visible;display:inline;overflow:visible;enable-background:accumulate;font-family:Liberation Sans;-inkscape-font-specification:Liberation Sans"
       x="909.47876"
       y="1036.3514"
       id="text4350"
       sodipodi:linespacing="125%"><tspan
         sodipodi:role="line"
         id="tspan4352"
         x="909.47876"
         y="1036.3514">B</tspan></text>
    <rect
       style="fill:none;stroke:#000000;stroke-width:0.9375;stroke-linejoin:miter;stroke-miterlimit:4;stroke-opacity:1;stroke-dasharray:1.875, 0.9375;stroke-dashoffset:0"
       id="rect3045"
       width="42.406937"
       height="42.406937"
       x="723.38965"
       y="679.61926" />
  </g>
</svg>
