<?xml version="1.0" encoding="UTF-8" standalone="no"?>
<!-- Generator: Adobe Illustrator 11 Build 196, SVG Export Plug-In . SVG Version: 6.0.0 Build 78)  -->

<svg
   xmlns:dc="http://purl.org/dc/elements/1.1/"
   xmlns:cc="http://creativecommons.org/ns#"
   xmlns:rdf="http://www.w3.org/1999/02/22-rdf-syntax-ns#"
   xmlns:svg="http://www.w3.org/2000/svg"
   xmlns="http://www.w3.org/2000/svg"
   xmlns:xlink="http://www.w3.org/1999/xlink"
   xmlns:sodipodi="http://sodipodi.sourceforge.net/DTD/sodipodi-0.dtd"
   xmlns:inkscape="http://www.inkscape.org/namespaces/inkscape"
   width="123.965"
   height="96.313"
   viewBox="0 0 123.965 96.313"
   style="overflow:visible;enable-background:new 0 0 123.965 96.313"
   xml:space="preserve"
   id="svg2"
   version="1.1"
   inkscape:version="0.48.4 r9939"
   sodipodi:docname="gravitational-lune.svg"><metadata
     id="metadata33"><rdf:RDF><cc:Work
         rdf:about=""><dc:format>image/svg+xml</dc:format><dc:type
           rdf:resource="http://purl.org/dc/dcmitype/StillImage" /><dc:title /></cc:Work></rdf:RDF></metadata><defs
     id="defs31"><radialGradient
       id="XMLID_9_"
       cx="85.825203"
       cy="81.714798"
       r="21.862101"
       fx="85.825203"
       fy="81.714798"
       gradientTransform="matrix(1.0333,0,0,1,20.7044,-73.7148)"
       gradientUnits="userSpaceOnUse"><stop
         offset="0"
         style="stop-color:#F0F0F0"
         id="stop3249" /><stop
         offset="0.1119"
         style="stop-color:#DCDCDC"
         id="stop3251" /><stop
         offset="0.2721"
         style="stop-color:#C7C7C7"
         id="stop3253" /><stop
         offset="0.452"
         style="stop-color:#B9B9B9"
         id="stop3255" /><stop
         offset="0.6658"
         style="stop-color:#B0B0B0"
         id="stop3257" /><stop
         offset="1"
         style="stop-color:#ADADAD"
         id="stop3259" /><midPointStop
         offset="0"
         style="stop-color:#F0F0F0"
         id="midPointStop12" /><midPointStop
         offset="0.21"
         style="stop-color:#F0F0F0"
         id="midPointStop14" /><midPointStop
         offset="1"
         style="stop-color:#ADADAD"
         id="midPointStop16" /></radialGradient><radialGradient
       id="XMLID_10_"
       cx="56.742199"
       cy="159.2148"
       r="23.537201"
       fx="56.742199"
       fy="159.2148"
       gradientTransform="translate(23.9475,-72.792)"
       gradientUnits="userSpaceOnUse"><stop
         offset="0"
         style="stop-color:#F0F0F0"
         id="stop3270" /><stop
         offset="0.1119"
         style="stop-color:#DCDCDC"
         id="stop3272" /><stop
         offset="0.2721"
         style="stop-color:#C7C7C7"
         id="stop3274" /><stop
         offset="0.452"
         style="stop-color:#B9B9B9"
         id="stop3276" /><stop
         offset="0.6658"
         style="stop-color:#B0B0B0"
         id="stop3278" /><stop
         offset="1"
         style="stop-color:#ADADAD"
         id="stop3280" /><midPointStop
         offset="0"
         style="stop-color:#F0F0F0"
         id="midPointStop25" /><midPointStop
         offset="0.21"
         style="stop-color:#F0F0F0"
         id="midPointStop27" /><midPointStop
         offset="1"
         style="stop-color:#ADADAD"
         id="midPointStop29" /></radialGradient><radialGradient
       id="XMLID_11_"
       cx="97.742203"
       cy="161.2148"
       r="113.4259"
       fx="97.742203"
       fy="161.2148"
       gradientTransform="translate(23.9475,-72.792)"
       gradientUnits="userSpaceOnUse"><stop
         offset="0"
         style="stop-color:#F0F0F0"
         id="stop3285" /><stop
         offset="0.1119"
         style="stop-color:#DCDCDC"
         id="stop3287" /><stop
         offset="0.2721"
         style="stop-color:#C7C7C7"
         id="stop3289" /><stop
         offset="0.452"
         style="stop-color:#B9B9B9"
         id="stop3291" /><stop
         offset="0.6658"
         style="stop-color:#B0B0B0"
         id="stop3293" /><stop
         offset="1"
         style="stop-color:#ADADAD"
         id="stop3295" /><midPointStop
         offset="0"
         style="stop-color:#F0F0F0"
         id="midPointStop38" /><midPointStop
         offset="0.21"
         style="stop-color:#F0F0F0"
         id="midPointStop40" /><midPointStop
         offset="1"
         style="stop-color:#ADADAD"
         id="midPointStop42" /></radialGradient><radialGradient
       id="XMLID_12_"
       cx="49.575199"
       cy="135.54829"
       r="5.1855998"
       fx="49.575199"
       fy="135.54829"
       gradientTransform="translate(23.9087,-73.7148)"
       gradientUnits="userSpaceOnUse"><stop
         offset="0"
         style="stop-color:#F0F0F0"
         id="stop3302" /><stop
         offset="0.1119"
         style="stop-color:#DCDCDC"
         id="stop3304" /><stop
         offset="0.2721"
         style="stop-color:#C7C7C7"
         id="stop3306" /><stop
         offset="0.452"
         style="stop-color:#B9B9B9"
         id="stop3308" /><stop
         offset="0.6658"
         style="stop-color:#B0B0B0"
         id="stop3310" /><stop
         offset="1"
         style="stop-color:#ADADAD"
         id="stop3312" /><midPointStop
         offset="0"
         style="stop-color:#F0F0F0"
         id="midPointStop51" /><midPointStop
         offset="0.21"
         style="stop-color:#F0F0F0"
         id="midPointStop53" /><midPointStop
         offset="1"
         style="stop-color:#ADADAD"
         id="midPointStop55" /></radialGradient><radialGradient
       id="XMLID_13_"
       cx="67.408699"
       cy="146.7148"
       r="10.9616"
       fx="67.408699"
       fy="146.7148"
       gradientTransform="translate(23.9087,-76.7148)"
       gradientUnits="userSpaceOnUse"><stop
         offset="0"
         style="stop-color:#F0F0F0"
         id="stop3317" /><stop
         offset="0.1119"
         style="stop-color:#DCDCDC"
         id="stop3319" /><stop
         offset="0.2721"
         style="stop-color:#C7C7C7"
         id="stop3321" /><stop
         offset="0.452"
         style="stop-color:#B9B9B9"
         id="stop3323" /><stop
         offset="0.6658"
         style="stop-color:#B0B0B0"
         id="stop3325" /><stop
         offset="1"
         style="stop-color:#ADADAD"
         id="stop3327" /><midPointStop
         offset="0"
         style="stop-color:#F0F0F0"
         id="midPointStop64" /><midPointStop
         offset="0.21"
         style="stop-color:#F0F0F0"
         id="midPointStop66" /><midPointStop
         offset="1"
         style="stop-color:#ADADAD"
         id="midPointStop68" /></radialGradient><radialGradient
       id="XMLID_14_"
       cx="57.7407"
       cy="130.88181"
       r="3.3055"
       fx="57.7407"
       fy="130.88181"
       gradientTransform="matrix(1.1129,0,0,1,18.3907,-69.7148)"
       gradientUnits="userSpaceOnUse"><stop
         offset="0"
         style="stop-color:#F0F0F0"
         id="stop3340" /><stop
         offset="0.1119"
         style="stop-color:#DCDCDC"
         id="stop3342" /><stop
         offset="0.2721"
         style="stop-color:#C7C7C7"
         id="stop3344" /><stop
         offset="0.452"
         style="stop-color:#B9B9B9"
         id="stop3346" /><stop
         offset="0.6658"
         style="stop-color:#B0B0B0"
         id="stop3348" /><stop
         offset="1"
         style="stop-color:#ADADAD"
         id="stop3350" /><midPointStop
         offset="0"
         style="stop-color:#F0F0F0"
         id="midPointStop77" /><midPointStop
         offset="0.21"
         style="stop-color:#F0F0F0"
         id="midPointStop79" /><midPointStop
         offset="1"
         style="stop-color:#ADADAD"
         id="midPointStop81" /></radialGradient><radialGradient
       id="XMLID_15_"
       cx="51.408699"
       cy="82.214798"
       r="4.2426"
       fx="51.408699"
       fy="82.214798"
       gradientTransform="translate(22.4502,-73.7148)"
       gradientUnits="userSpaceOnUse"><stop
         offset="0"
         style="stop-color:#F0F0F0"
         id="stop3359" /><stop
         offset="0.1119"
         style="stop-color:#DCDCDC"
         id="stop3361" /><stop
         offset="0.2721"
         style="stop-color:#C7C7C7"
         id="stop3363" /><stop
         offset="0.452"
         style="stop-color:#B9B9B9"
         id="stop3365" /><stop
         offset="0.6658"
         style="stop-color:#B0B0B0"
         id="stop3367" /><stop
         offset="1"
         style="stop-color:#ADADAD"
         id="stop3369" /><midPointStop
         offset="0"
         style="stop-color:#F0F0F0"
         id="midPointStop90" /><midPointStop
         offset="0.21"
         style="stop-color:#F0F0F0"
         id="midPointStop92" /><midPointStop
         offset="1"
         style="stop-color:#ADADAD"
         id="midPointStop94" /></radialGradient><radialGradient
       id="XMLID_16_"
       cx="121.4087"
       cy="108.2148"
       r="20.5061"
       fx="121.4087"
       fy="108.2148"
       gradientTransform="translate(23.1587,-76.7148)"
       gradientUnits="userSpaceOnUse"><stop
         offset="0"
         style="stop-color:#F0F0F0"
         id="stop3374" /><stop
         offset="0.1119"
         style="stop-color:#DCDCDC"
         id="stop3376" /><stop
         offset="0.2721"
         style="stop-color:#C7C7C7"
         id="stop3378" /><stop
         offset="0.452"
         style="stop-color:#B9B9B9"
         id="stop3380" /><stop
         offset="0.6658"
         style="stop-color:#B0B0B0"
         id="stop3382" /><stop
         offset="1"
         style="stop-color:#ADADAD"
         id="stop3384" /><midPointStop
         offset="0"
         style="stop-color:#F0F0F0"
         id="midPointStop103" /><midPointStop
         offset="0.21"
         style="stop-color:#F0F0F0"
         id="midPointStop105" /><midPointStop
         offset="1"
         style="stop-color:#ADADAD"
         id="midPointStop107" /></radialGradient><radialGradient
       id="radialGradient3505"
       cx="56.742199"
       cy="159.2148"
       r="23.537201"
       fx="56.742199"
       fy="159.2148"
       gradientTransform="translate(23.9475,-72.792)"
       gradientUnits="userSpaceOnUse"><stop
         offset="0"
         style="stop-color:#F0F0F0"
         id="stop3507" /><stop
         offset="0.1119"
         style="stop-color:#DCDCDC"
         id="stop3509" /><stop
         offset="0.2721"
         style="stop-color:#C7C7C7"
         id="stop3511" /><stop
         offset="0.452"
         style="stop-color:#B9B9B9"
         id="stop3513" /><stop
         offset="0.6658"
         style="stop-color:#B0B0B0"
         id="stop3515" /><stop
         offset="1"
         style="stop-color:#ADADAD"
         id="stop3517" /><midPointStop
         offset="0"
         style="stop-color:#F0F0F0"
         id="midPointStop116" /><midPointStop
         offset="0.21"
         style="stop-color:#F0F0F0"
         id="midPointStop118" /><midPointStop
         offset="1"
         style="stop-color:#ADADAD"
         id="midPointStop120" /></radialGradient><radialGradient
       id="radialGradient3520"
       cx="97.742203"
       cy="161.2148"
       r="113.4259"
       fx="97.742203"
       fy="161.2148"
       gradientTransform="translate(23.9475,-72.792)"
       gradientUnits="userSpaceOnUse"><stop
         offset="0"
         style="stop-color:#F0F0F0"
         id="stop3522" /><stop
         offset="0.1119"
         style="stop-color:#DCDCDC"
         id="stop3524" /><stop
         offset="0.2721"
         style="stop-color:#C7C7C7"
         id="stop3526" /><stop
         offset="0.452"
         style="stop-color:#B9B9B9"
         id="stop3528" /><stop
         offset="0.6658"
         style="stop-color:#B0B0B0"
         id="stop3530" /><stop
         offset="1"
         style="stop-color:#ADADAD"
         id="stop3532" /><midPointStop
         offset="0"
         style="stop-color:#F0F0F0"
         id="midPointStop129" /><midPointStop
         offset="0.21"
         style="stop-color:#F0F0F0"
         id="midPointStop131" /><midPointStop
         offset="1"
         style="stop-color:#ADADAD"
         id="midPointStop133" /></radialGradient><radialGradient
       id="radialGradient3536"
       cx="49.575199"
       cy="135.54829"
       r="5.1855998"
       fx="49.575199"
       fy="135.54829"
       gradientTransform="translate(23.9087,-73.7148)"
       gradientUnits="userSpaceOnUse"><stop
         offset="0"
         style="stop-color:#F0F0F0"
         id="stop3538" /><stop
         offset="0.1119"
         style="stop-color:#DCDCDC"
         id="stop3540" /><stop
         offset="0.2721"
         style="stop-color:#C7C7C7"
         id="stop3542" /><stop
         offset="0.452"
         style="stop-color:#B9B9B9"
         id="stop3544" /><stop
         offset="0.6658"
         style="stop-color:#B0B0B0"
         id="stop3546" /><stop
         offset="1"
         style="stop-color:#ADADAD"
         id="stop3548" /><midPointStop
         offset="0"
         style="stop-color:#F0F0F0"
         id="midPointStop142" /><midPointStop
         offset="0.21"
         style="stop-color:#F0F0F0"
         id="midPointStop144" /><midPointStop
         offset="1"
         style="stop-color:#ADADAD"
         id="midPointStop146" /></radialGradient><radialGradient
       id="radialGradient3551"
       cx="67.408699"
       cy="146.7148"
       r="10.9616"
       fx="67.408699"
       fy="146.7148"
       gradientTransform="translate(23.9087,-76.7148)"
       gradientUnits="userSpaceOnUse"><stop
         offset="0"
         style="stop-color:#F0F0F0"
         id="stop3553" /><stop
         offset="0.1119"
         style="stop-color:#DCDCDC"
         id="stop3555" /><stop
         offset="0.2721"
         style="stop-color:#C7C7C7"
         id="stop3557" /><stop
         offset="0.452"
         style="stop-color:#B9B9B9"
         id="stop3559" /><stop
         offset="0.6658"
         style="stop-color:#B0B0B0"
         id="stop3561" /><stop
         offset="1"
         style="stop-color:#ADADAD"
         id="stop3563" /><midPointStop
         offset="0"
         style="stop-color:#F0F0F0"
         id="midPointStop155" /><midPointStop
         offset="0.21"
         style="stop-color:#F0F0F0"
         id="midPointStop157" /><midPointStop
         offset="1"
         style="stop-color:#ADADAD"
         id="midPointStop159" /></radialGradient><radialGradient
       id="radialGradient3587"
       cx="51.408699"
       cy="82.214798"
       r="4.2426"
       fx="51.408699"
       fy="82.214798"
       gradientTransform="translate(22.4502,-73.7148)"
       gradientUnits="userSpaceOnUse"><stop
         offset="0"
         style="stop-color:#F0F0F0"
         id="stop3589" /><stop
         offset="0.1119"
         style="stop-color:#DCDCDC"
         id="stop3591" /><stop
         offset="0.2721"
         style="stop-color:#C7C7C7"
         id="stop3593" /><stop
         offset="0.452"
         style="stop-color:#B9B9B9"
         id="stop3595" /><stop
         offset="0.6658"
         style="stop-color:#B0B0B0"
         id="stop3597" /><stop
         offset="1"
         style="stop-color:#ADADAD"
         id="stop3599" /><midPointStop
         offset="0"
         style="stop-color:#F0F0F0"
         id="midPointStop168" /><midPointStop
         offset="0.21"
         style="stop-color:#F0F0F0"
         id="midPointStop170" /><midPointStop
         offset="1"
         style="stop-color:#ADADAD"
         id="midPointStop172" /></radialGradient><radialGradient
       id="radialGradient3602"
       cx="121.4087"
       cy="108.2148"
       r="20.5061"
       fx="121.4087"
       fy="108.2148"
       gradientTransform="translate(23.1587,-76.7148)"
       gradientUnits="userSpaceOnUse"><stop
         offset="0"
         style="stop-color:#F0F0F0"
         id="stop3604" /><stop
         offset="0.1119"
         style="stop-color:#DCDCDC"
         id="stop3606" /><stop
         offset="0.2721"
         style="stop-color:#C7C7C7"
         id="stop3608" /><stop
         offset="0.452"
         style="stop-color:#B9B9B9"
         id="stop3610" /><stop
         offset="0.6658"
         style="stop-color:#B0B0B0"
         id="stop3612" /><stop
         offset="1"
         style="stop-color:#ADADAD"
         id="stop3614" /><midPointStop
         offset="0"
         style="stop-color:#F0F0F0"
         id="midPointStop181" /><midPointStop
         offset="0.21"
         style="stop-color:#F0F0F0"
         id="midPointStop183" /><midPointStop
         offset="1"
         style="stop-color:#ADADAD"
         id="midPointStop185" /></radialGradient></defs><sodipodi:namedview
     pagecolor="#ffffff"
     bordercolor="#666666"
     borderopacity="1"
     objecttolerance="10"
     gridtolerance="10"
     guidetolerance="10"
     inkscape:pageopacity="0"
     inkscape:pageshadow="2"
     inkscape:window-width="1280"
     inkscape:window-height="998"
     id="namedview29"
     showgrid="false"
     inkscape:zoom="1.8660698"
     inkscape:cx="-37.4196"
     inkscape:cy="-1.6630934"
     inkscape:window-x="0"
     inkscape:window-y="0"
     inkscape:window-maximized="1"
     inkscape:current-layer="svg2" /><rect
     style="fill:#000000;fill-opacity:1;stroke:none"
     id="rect4642"
     width="382.5"
     height="247.71133"
     x="-214.84805"
     y="-28.380493" /><image
     sodipodi:absref="/home/bcrowell/a/gravitational-lune-bitmaps/galaxy.jpg"
     xlink:href="gravitational-lune-bitmaps/galaxy.jpg"
     transform="matrix(0.83916999,0.54386923,-0.46843892,0.88349588,0,0)"
     width="14.121786"
     height="16.025671"
     id="image3152"
     x="-140.38597"
     y="176.53862" /><rect
     id="rect3410"
     height="2.8340001"
     width="147.401"
     style="fill:none;opacity:1"
     y="128.10458"
     x="-208.91183" /><image
     sodipodi:absref="/home/bcrowell/a/gravitational-lune-bitmaps/saturn.jpg"
     xlink:href="gravitational-lune-bitmaps/saturn.jpg"
     width="21.345806"
     height="11.577387"
     id="image3214"
     x="102.46292"
     y="207.67755" /><image
     sodipodi:absref="/home/bcrowell/a/gravitational-lune-bitmaps/star.jpg"
     xlink:href="gravitational-lune-bitmaps/star.jpg"
     style="opacity:1"
     width="10.366036"
     height="10.366036"
     id="image3155"
     x="-203.99579"
     y="186.81328" /><image
     sodipodi:absref="/home/bcrowell/a/gravitational-lune-bitmaps/star.jpg"
     xlink:href="gravitational-lune-bitmaps/star.jpg"
     y="80.59951"
     x="93.803459"
     id="image3155-5"
     height="7.7334175"
     width="7.7334175"
     style="overflow:visible" /><image
     sodipodi:absref="/home/bcrowell/a/gravitational-lune-bitmaps/star.jpg"
     xlink:href="gravitational-lune-bitmaps/star.jpg"
     y="27.947128"
     x="-167.87888"
     id="image3155-1"
     height="5.6273222"
     width="5.6273222"
     style="overflow:visible" /><path
     style="fill:#ffffff;fill-opacity:1;stroke:none;overflow:visible"
     d="m -64.697644,11.830621 c 0.046,0.0123 0.13925,-0.0159 0.20759,-0.03 0.0114,-0.002 0.0271,-0.006 0.043,-0.0118 0.11142,-0.0433 0.31916,-0.17002 0.45385,-0.23388 0.15392,-0.073 0.14697,-0.2823 0.14697,-0.2823 l 0.27746,-0.0908 0.44061,-0.4965 c 0,0 0.31207,-0.18855 0.51023,-0.31891 0.0394,-0.0259 0.10103,-0.0743 0.17109,-0.12786 l -0.0351,0.77887 0.0262,-0.005 0.005,0.0139 -0.032,9.6e-4 6.4e-4,0.005 0.0342,-3e-4 0.17068,0.6144 0.0659,0.23715 10e-4,0.003 0.0423,0.15105 -0.25305,-0.43374 c 0,0 0.10307,0.2331 0.14178,0.32684 0.0387,0.0938 0.11796,0.4354 0.34865,0.51572 l -0.13577,-0.23227 0.41582,0.32977 0.0655,-0.006 c 0.82336,0.18731 0.95801,-0.0851 1.19463,-0.34108 0.24324,-0.26315 0.44435,-0.6121 0.47759,-0.70756 0.0332,-0.0955 -0.059,-0.46683 -0.11954,-0.52357 -0.0605,-0.0567 -0.11147,-0.0924 -0.11147,-0.0924 l -0.0855,0.0919 -0.0326,-0.0673 c 0.2001,-0.0632 0.27443,-0.3661 0.0601,-0.4732 -0.0647,-0.0323 -0.12019,-0.0407 -0.1682,-0.0342 l 0.25236,-0.116601 0.17156,0.493 c 0,0 0.0379,-0.14844 0.05,-0.31849 l 0.14752,0.38727 0.3984,-0.10957 0.12849,-0.36906 0.28246,0.24439 0.41446,-0.1697 c 0,0 0.13589,-0.11431 0.24732,-0.28388 l 0.67931,0.25112 -0.55002,-0.13308 0.58183,0.14659 0.31035,0.11535 0.29211,0.17472 c 0,0 0.33494,0.005 0.58745,-0.002 l -0.14131,-0.0346 0.33483,0.0241 c -0.0502,0.005 -0.11779,0.008 -0.19352,0.0105 l 0.16084,0.0414 0.516681,-0.14871 0.62337,0.46774 0.0859,0.0469 0.0412,-0.0343 0.0626,-0.005 -0.0412,-0.0144 0.21518,-0.16363 -0.007,-0.0219 c 0.024,-0.0396 0.0442,-0.0899 0.0154,-0.1212 -0.0145,-0.0158 -0.0421,-0.0478 -0.0659,-0.0765 l -0.006,-0.0314 0.12466,0.13833 0.0928,-0.0358 0.0747,-0.15168 -0.2311,-0.28006 0.17128,0.18621 0.074,-0.0448 0.005,-0.15406 c 0,0 -0.19657,-0.2755 -0.24318,-0.3012999 -0.0466,-0.0258 -0.21866,-0.175929 -0.21866,-0.175929 l 0.26123,-0.128111 0.14617,-0.1122 -0.0666,-0.0743 c 0,0 -0.14646,0.0299 -0.18787,0.0222 -0.0414,-0.008 -0.30411,0.0773 -0.34552,0.0696 -0.041,-0.008 -0.15931,0.0878 -0.36454,0.24307 l -0.585921,-0.058 -0.089,-0.031 -0.25386,0.065 -0.75764,-0.31976 -0.5411,0.0161 -0.28987,-0.39789 -0.0651,-0.0227 -0.34783,-0.14057 c -0.01,-0.0216 -0.0175,-0.0346 -0.0269,-0.0556 l 0.26983,-0.44642 0.45396,-1.22695 -0.17103,-0.69729 0.19768,-0.65166 -0.0966,-0.16995 0.0598,-0.39542 c 0.0391,-0.0561 0.15871,-0.22532 0.27292,-0.35042 0.13433,-0.14714 -0.077,-0.33108 -0.077,-0.33108 l -0.007,0.0195 -0.0541,-0.0334 0.0522,-0.0451 0.10718,-0.46167 c 0,0 -0.49871,-0.64364 -0.65336,-0.836 -0.15465,-0.19235 -0.92046,-0.37646 -0.92046,-0.37646 0,0 -0.32646,-0.41664 -0.44029,-0.56709 -0.11384,-0.15044 -0.53328,-0.29601 -0.76956,-0.57219 -0.23628,-0.27618 -0.87711,-0.58287 -1.02536,-0.63448 -0.14824,-0.0516 -0.62374,-0.43866996 -0.62374,-0.43866996 0,0 -0.3262,0.0511 -0.63355,0.1348 -0.006,-0.0146 -0.17279,-0.44488 -0.17909,-0.58325 -0.006,-0.14074 -0.43135,-0.51089 -0.71594,-0.88699 -0.28459,-0.37611004 -0.64394,-0.77918004 -0.64394,-0.77918004 0,0 -0.17435,-0.0113 -0.34172,0.003 l 0.17929,-0.0885 -0.12216,-0.92854 -0.30712,-0.46718 c 0,0 -0.47205,0.0848 -0.80405,0.16307 -0.33199,0.0783 -0.59452,-0.12377 -0.8782,0.0545 -0.28369,0.17826 -0.77732,0.56171 -0.84614,0.75937 -0.0688,0.19766 -0.22284,0.56015 -4.5e-4,0.63757 0.22237,0.0774 0.41267,0.0878 0.60502,-0.0668 0.19236,-0.15465 0.6134,-0.17346 0.86047,-0.0874 0.24708,0.086 0.62416,0.35362 0.62416,0.35362 l 0.20411,-0.0969 c -0.0754,0.0673 -0.12813,0.12334 -0.12813,0.12334 0,0 0.1849,0.26026004 0.39757,0.44512004 0.21266,0.18485 1.02182,2.32250996 1.02182,2.32250996 l 0.0676,-0.0543 c -0.13109,0.17351 -0.22249,0.30222 -0.26433,0.36071 l -0.0198,0.015 c 0,0 0.006,0.004 0.006,0.004 -0.005,0.007 -0.0266,0.0345 -0.0266,0.0345 l 0.0917,0.0441 c 0.0281,0.0336 0.0452,0.0527 0.0952,0.11104 l -0.15583,-0.0908 0.2695,0.34454 c 0,0 -0.0103,0.19009 0.10993,0.48128 0.12024,0.29118 0.31766,0.27612 0.31766,0.27612 l 1.61433,1.17301 0.062,0.0946 -0.71998,0.0195 -0.004,0.004 c -0.10875,0.006 -0.42017,0.0463 -0.5191,0.33043 -3.2e-4,0.001 -3.2e-4,9.6e-4 -6.4e-4,0.002 l -0.19139,0.12323 -0.18637,-0.52736 -0.0263,0.005 c -0.24106,-0.66518 -0.71844,-0.87883 -1.06188,-1.27762 -0.37482,-0.43523 -0.4547,-0.68651 -0.4547,-0.68651 l -0.0613,0.0712 -0.0435,-0.17579 0.0671,-0.018 c 0,0 -0.12644,-0.59865 -0.323,-0.75019 -0.19656,-0.15154 -0.39867,-0.52582 -0.39867,-0.52582 0,0 -0.59382,0.59696 -0.90221,0.76662 -0.30839,0.16965 -0.53895,0.0346 -0.76682,0.37075 -0.22786,0.33621 -0.40034,0.91215 -0.40034,0.91215 l 0.17004,0.22472 c 0,0 0.49571,0.008 0.49791,-0.15768 0.002,-0.16545 0.12129,-0.26447 0.12129,-0.26447 l 0.0131,-0.003 0.092,-0.13836 0.99125,0.0822 0.20608,0.30298 0.11977,0.0685 c 0.0737,0.1548 0.2198,0.44367 0.39155,0.67913 0.22866,0.31347 0.66875,1.14284 0.72423,1.2477 l -0.01,0.14017 -0.0984,0.18481 0.23513,0.35935 -0.0167,-0.16888 0.15756,0.28852 -0.14886,-0.0129 c 0,0 0.54508,0.57738 0.9479,0.77303 0.40283,0.19565 0.88059,-0.21813 1.18038,-0.36308 0.22484,-0.10871 0.70018,-0.13202 0.92364,-0.13603 l 0.23032,0.01 -0.64945,1.22217 -0.18557,-0.0403 -0.2532,0.99988 -0.0118,0.0129 -0.0303,0.0381 c -0.13444,0.129289 -0.44616,0.421539 -0.44616,0.421539 l -0.59554,0.55696 -0.54617,0.5619809 0.175,-0.2579299 c 0,0 0.24577,-0.21834 0.36656,-0.339731 -0.17558,0.146731 -0.35805,0.30131 -0.35805,0.30131 0,0 -0.1414,0.204351 -0.26236,0.3760009 l -0.61765,0.63446 -0.23203,0.009 -0.0181,-0.004 c 0.0176,0.006 0.0586,0.0204 0.0586,0.0204 l 0.18125,-0.0172 -0.0494,0.051 -0.58026,-0.0462 0.0235,-0.0186 c -0.13456,0.0302 -0.27642,0.0668 -0.27642,0.0668 l -0.21412,0.0837 c 0,0 -0.007,0.0896 0.0453,0.20561 l 0.0257,-0.0178 -0.003,0.0283 0.0121,0.0213 -0.0146,0.007 c 0,0 0.005,0.0672 0.0983,0.15106 l 0.0127,0.0264 -0.0109,0.004 c 0,0 0.018,0.14481 0.10954,0.18175 l 0.005,0.007 -0.0373,0.0162 0.0255,0.10866 c 0,0 0.0766,0.0539 0.20361,0.0514 l 0.009,0.0103 -0.0255,0.003 c 0,0 0.003,0.0598 0.0122,0.11866 0.002,0.0147 0.0112,0.0246 0.0265,0.0287 z m -0.003,-1.10145 c 0.0302,-0.007 0.056,-0.0117 0.0838,-0.017 l 0.0257,-0.0738 -0.10953,0.0909 z m 2.43879,-0.6357 c 0.11702,-0.0927 0.18228,-0.1417999 0.28213,-0.2230699 -0.0209,0.0668 -0.0316,0.0968 -0.0539,0.1686699 l -0.19627,0.0534 -0.032,9.6e-4 z m 0.56748,-0.4693699 0.004,-0.006 6.4e-4,0.005 -0.005,6.4e-4 z m 1.39152,-4.05268 -0.032,-0.0549 0.10781,-0.016 -0.0758,0.071 z m -5.01703,-2.40396 -0.0986,-0.12926 -0.0767,0.0244 0.17526,0.10484 z m -0.83485,-0.36368 0.0606,-0.0203 0.10203,0.0355 c -0.0582,-0.007 -0.11596,-0.0114 -0.16264,-0.0153 z m 8.44862,2.3914 0.0192,-0.13206 0.0788,-0.18434 -0.098,0.3164 z"
     id="path3066-9-9-9"
     inkscape:connector-curvature="0" /><path
     style="fill:#ffffff;fill-opacity:1;stroke:none;overflow:visible"
     d="m 15.817631,8.699247 c 0.004,-0.0475 0.0585,-0.12628 0.0943,-0.1862 0.006,-0.01 0.0165,-0.0215 0.0276,-0.0345 0.0776,-0.091 0.265509,-0.24781 0.370089,-0.35401 0.11953,-0.12137 0.31264,-0.0437 0.31264,-0.0437 l 0.1793,-0.23448 0.61147,-0.25056 c 0,0 0.28297,-0.23272 0.47124,-0.377 0.16308,-0.12497 0.69977,-0.45186 0.85974,-0.5494 l -0.0483,-0.0827 0.007,-0.10115 -0.12874,-0.0736 -0.14941,0.19999 c 0,0 -0.20481,-0.006 -0.35631,-0.0115 l -0.11494,0.16781 -0.0184,0.0437 c -0.0173,0.0196 -0.0385,0.0448 -0.0575,0.0667 l -0.0483,0.0713 -0.83215,-0.24826 0.0138,-0.023 -0.0115,-0.009 -0.0115,0.0299 -0.005,-0.002 0.0115,-0.0322 -0.52412,-0.3632 -0.20229,-0.14022 -0.002,-0.002 -0.12873,-0.0897 0.32642,0.38159 c 0,0 -0.18625,-0.17398 -0.26206,-0.24136 -0.0758,-0.0674 -0.372399,-0.25456 -0.372399,-0.49883 l 0.174709,0.20458 -0.174709,-0.50112 0.0276,-0.0598 c 0.0938,-0.83916 0.395369,-0.87677 0.714919,-1.01605 0.3285,-0.1431998 0.72417,-0.2183798 0.82525,-0.2183798 0.10108,0 0.42146,0.2092298 0.45516,0.2850398 0.0337,0.0758 0.0506,0.13563 0.0506,0.13563 l -0.11494,0.0506 0.0529,0.0529 c 0.12547,-0.16819 0.43599,-0.13879 0.46665,0.0988 0.009,0.0717 -9.6e-4,0.1269 -0.023,0.17011 l 0.19309,-0.2 -0.40918,-0.32412 c 0,0 0.15267,0.013 0.31723,0.0575 l -0.31723,-0.2666598 0.23448,-0.34021 0.43676,0 -0.19769,-0.50573 0.29424,-0.33562 c 0,0 0.15263,-0.0907 0.34941,-0.14022 l -0.0115,-0.72411 -0.0552,0.56549 0.0506,-0.59997 -0.007,-0.32872 -0.069,-0.33332 c 0,0 0.10524,-0.31802 0.19539,-0.55399998 l -0.0138,0.14251998 0.0874,-0.32182998 c -0.021,0.0459 -0.0465,0.10853 -0.0736,0.17931 l 0.0161,-0.16782 0.31033,-0.43676 -0.23907,-0.74479 -0.0161,-0.0943 0.0483,-0.0276 0.023,-0.0575 0,0.0414 0.22528,-0.14712 0.0184,0.0138 c 0.0453,-0.01 0.0995,-0.0145 0.11954,0.023 0.0102,0.0189 0.0336,0.0554 0.0529,0.0873 l 0.0276,0.0184 -0.0919,-0.16321 0.0644,-0.0759 0.16781,-0.023 0.1885,0.31033 -0.11954,-0.22298 0.0667,-0.0529 0.14712,0.0437 c 0,0 0.19555,0.27853 0.20459,0.33103 0.009,0.0525 0.0965,0.26435 0.0965,0.26435 l 0.20458,-0.20689 0.15402,-0.10114 0.0483,0.0896 c 0,0 -0.0764,0.12618 -0.0828,0.16781 -0.006,0.0416 -0.17066,0.2641 -0.177,0.30573 -0.006,0.0412 -0.13532,0.11929 -0.34942,0.26206 l -0.14022,0.57239 0.002,0.0942 -0.14712,0.21838998 0.0552,0.82295 -0.19309,0.50343 0.27815,0.40458 0,0.069 0.0184,0.3747 c 0.0711,0.0663 0.12569,0.11861 0.1839,0.1747 l 0.38619,-0.0805 1.30799,-0.0253 0.60228,0.39079 0.680431,0.0276 0.12873,0.14712 0.0391,0.007 -0.0506,-0.046 0.0161,-0.0759 c 0.0324,-0.22112 0.0867,-0.69375 0.0161,-0.93329 -0.0883,-0.29943 -0.38335,-0.79238 -0.20689,-1.15398 0.0118,-0.0241 0.0229,-0.0461 0.0391,-0.069 0.25863,-0.36559 0.9172,-0.80915998 0.9172,-0.80915998 l -0.0368,0.14481998 0.31033,-0.10803998 -0.1678,-0.0115 0.39079,-0.17471 0.1678,0.12873 0.13563,0.0322 c 0.11249,-0.0377 1.00285,-0.33806 1.349369,-0.51263 0.26029,-0.13111 0.56857,-0.22833 0.7333,-0.27585 l 0.0874,-0.10574 0.33333,-0.15402 0.24136,-0.96547002 -0.11953,-0.11264 -0.002,-0.0138 c 0,0 -0.0785,-0.1341 -0.24137,-0.16321 -0.16289,-0.0291 -0.0736,-0.51492 -0.0736,-0.51492 l 0.24826,-0.13333 c 0,0 0.54214,0.26524 0.836751,0.5448 0.29461,0.27957 0.1219,0.48416002 0.23907,0.81606002 0.11718,0.3319 0.61147,1.01606 0.61147,1.01606 0,0 -0.40236,0.13877 -0.58388,0.30803 -0.18153,0.16926 -0.793081,0.19539 -0.793081,0.19539 l -0.007,-0.069 -0.1816,0.0138 0.0598,0.0736 c 0,0 -0.25894,0.0367 -0.74939,0.33561998 -0.44939,0.27392 -0.738859,0.70952 -1.434419,0.83905 l 0,0.0276 -0.5494,0.0988 0.0897,0.20919 c 9.6e-4,6.4e-4 10e-4,-6.4e-4 0.002,0 0.26426,0.14389 0.2535,0.45728 0.24137,0.56549 l 0.002,0.005 -0.0965,0.71491 0.10344,-0.046 0.15402,-0.15402 -0.59308,0.8206498 0.62986,1.55856 -0.11264,-0.1862 -0.0896,-0.0713 -0.0759,0.71721 -0.005,0.005 c -0.0141,0.10798 -0.0791,0.41533 -0.3701,0.49193 -0.001,3e-4 -0.001,-2.9e-4 -0.002,0 l -0.13562,0.1816 0.51032,0.22528 -0.007,0.0253 c 0.64449,0.29193 0.81981,0.78523 1.190749,1.15857 0.40484,0.40745 0.64825,0.50573 0.64825,0.50573 l -0.0736,0.0575 0.17011,0.0552 0.023,-0.0644 c 0,0 0.58827,0.17157 0.72411,0.37929 0.13583,0.20773 0.491931,0.43907 0.491931,0.43907 0,0 -0.639091,0.54474 -0.832151,0.83904 -0.19306,0.29431 -0.077,0.53451 -0.42987,0.73561 -0.35286,0.20109 -0.940189,0.32872 -0.940189,0.32872 l -0.21149,-0.1862 c 0,0 0.0303,-0.49568 0.1954,-0.48504 0.165119,0.0106 0.273549,-0.0988 0.273549,-0.0988 l 0.005,-0.0138 0.14482,-0.0805 -0.007,-0.99536 -0.28504,-0.22757 -0.0598,-0.12644 c -0.14862,-0.0855 -0.42452,-0.25186 -0.64595,-0.44135 -0.29479,-0.25229 -1.08822,-0.75722 -1.18846,-0.82066 l -0.14022,0 -0.1908,0.0828 -0.34022,-0.26206 0.16782,0.0299 -0.27586,-0.1793 0,0.14941 c 0,0 -0.5327,-0.58777 -0.69652,-1.00455 -0.0102,-0.0261 -0.0173,-0.0519 -0.023,-0.0782 -0.0257,-0.11899 -0.007,-0.23879 0.0368,-0.35631 l -1.23214,0.5517 c 0.0641,-0.13916 0.11784,-0.27584 0.15172,-0.3678 l 0.0667,-0.22068 -1.36777,0.21149 -0.023,0.1885 -0.46895,-0.0414 0.0253,0.0253 -0.009,0.005 -0.0368,0.0276 c -0.0255,0.006 -0.0591,0.0118 -0.0874,0.0184 l -0.14942,0.0552 -0.0483,0.0184 c -0.16631,0.0845 -0.54251,0.28275 -0.54251,0.28275 l -0.72181,0.37929 -0.71031,0.33102 0.29884,-0.0804 c 0,0 0.287,-0.16261 0.44135,-0.23677 -0.19629,0.11756 -0.39998,0.23907 -0.39998,0.23907 0,0 -0.23948,0.0686 -0.44136,0.12643 l -0.804559,0.3747 -0.0851,0.21378 -0.002,0.0184 c 6.4e-4,-0.0185 0,-0.0621 0,-0.0621 l 0.0781,-0.16551 -0.0644,0.0299 -0.14942,0.56319 0.0276,-0.0138 c -0.0728,0.11715 -0.15631,0.23907 -0.15631,0.23907 l -0.14713,0.17241 c 0,0 -0.087,-0.0224 -0.1793,-0.11034 l 0.0253,-0.0184 -0.0299,-0.007 -0.0161,-0.0161 -0.0115,0.0115 c 0,0 -0.0594,-0.0271 -0.10804,-0.14252 l -0.023,-0.0207 -0.007,0.009 c 0,0 -0.12854,-0.0646 -0.13332,-0.16321 l -0.007,-0.007 -0.0253,0.0276 -0.0943,-0.0598 c 0,0 -0.0257,-0.0877 0.0184,-0.20688 l -0.007,-0.0115 -0.0138,0.023 c 0,0 -0.0554,-0.0227 -0.10804,-0.0506 -0.0132,-0.007 -0.0173,-0.021 -0.0161,-0.0368 z m 1.039039,0.3678 c 0.0164,-0.0263 0.0272,-0.0513 0.0414,-0.0759 l 0.0782,0.002 -0.11954,0.0736 z m 5.99976,-2.63207 0.0414,0.0483 0.0506,-0.0966 -0.0919,0.0483 z m 3.62055,3.18148 0.11953,0.10804 -0.0299,0.0736 -0.0897,-0.1816 z m 0.29423,0.69652 c 0.003,0.0586 0.002,0.11637 0.002,0.16321 l 0.0253,-0.0575 -0.0276,-0.10574 z m 0.54021,-10.27314978 0.13333,-0.15631 0.0115,0.0805 -0.14482,0.0759 z m 0.45286,-0.60687 0.0529,-0.0943 -0.009,-0.0644 c -0.0114,0.0454 -0.0271,0.10235 -0.0437,0.15861 z"
     id="path3066-9-9-97-64"
     inkscape:connector-curvature="0" /><image
     sodipodi:absref="/home/bcrowell/a/gravitational-lune-bitmaps/vesta.jpg"
     xlink:href="gravitational-lune-bitmaps/vesta.jpg"
     transform="matrix(0.96084318,-0.27709273,0.27709273,0.96084318,0,0)"
     width="43.553871"
     height="42.296993"
     id="image3275-6"
     x="-38.224094"
     y="-20.851383"
     style="overflow:visible" /><image
     sodipodi:absref="/home/bcrowell/a/gravitational-lune-bitmaps/vesta.jpg"
     xlink:href="gravitational-lune-bitmaps/vesta.jpg"
     transform="matrix(0.98290001,-0.18414011,0.18414011,0.98290001,0,0)"
     width="43.553871"
     height="42.296993"
     id="image3275-7"
     x="-48.860664"
     y="38.044392"
     style="overflow:visible" /><path
     style="fill:#ffffff;fill-opacity:1;stroke:none;overflow:visible"
     d="m -73.94377,66.934006 c 0.0123,-0.046 -0.0159,-0.13925 -0.03,-0.20759 -0.002,-0.0114 -0.006,-0.0271 -0.0118,-0.043 -0.0433,-0.11142 -0.170019,-0.31916 -0.23388,-0.45385 -0.073,-0.15392 -0.2823,-0.14697 -0.2823,-0.14697 l -0.0908,-0.27746 -0.4965,-0.44061 c 0,0 -0.18855,-0.31207 -0.31891,-0.51023 -0.0259,-0.0394 -0.0743,-0.10103 -0.12786,-0.17109 l 0.77887,0.0351 -0.005,-0.0262 0.0139,-0.005 9.6e-4,0.032 0.005,-6.4e-4 -3e-4,-0.0342 0.6144,-0.17068 0.23715,-0.0659 0.003,-0.001 0.151048,-0.0423 -0.433738,0.25305 c 0,0 0.2331,-0.10307 0.326838,-0.14178 0.0938,-0.0387 0.4354,-0.11796 0.51572,-0.34865 l -0.23227,0.13577 0.32977,-0.41582 -0.006,-0.0655 c 0.18731,-0.82336 -0.0851,-0.95801 -0.34108,-1.19463 -0.26315,-0.24324 -0.612098,-0.44435 -0.707558,-0.47759 -0.0955,-0.0332 -0.46683,0.059 -0.523571,0.11954 -0.0567,0.0605 -0.0924,0.11147 -0.0924,0.11147 l 0.0919,0.0855 -0.0673,0.0326 c -0.0632,-0.2001 -0.3661,-0.27443 -0.4732,-0.0601 -0.0323,0.0647 -0.0407,0.12019 -0.0342,0.1682 l -0.1166,-0.25236 0.493,-0.17156 c 0,0 -0.14844,-0.0379 -0.31849,-0.05 l 0.38727,-0.14752 -0.10957,-0.3984 -0.36906,-0.12849 0.24439,-0.28246 -0.1697,-0.41446 c 0,0 -0.11431,-0.13589 -0.28388,-0.24732 l 0.25112,-0.67931 -0.13308,0.55002 0.14659,-0.58183 0.11535,-0.31035 0.17472,-0.29211 c 0,0 0.005,-0.33494 -0.002,-0.58745 l -0.0346,0.14131 0.0241,-0.33483 c 0.005,0.0502 0.008,0.11779 0.0105,0.19352 l 0.0414,-0.16084 -0.14871,-0.51668 0.46774,-0.62337 0.0469,-0.0859 -0.0343,-0.0412 -0.005,-0.0626 -0.0144,0.0412 -0.16363,-0.21518 -0.0219,0.007 c -0.0396,-0.024 -0.0899,-0.0442 -0.1212,-0.0154 -0.0158,0.0145 -0.0478,0.0421 -0.0765,0.0659 l -0.0314,0.006 0.13833,-0.12466 -0.0358,-0.0928 -0.15168,-0.0747 -0.28006,0.2311 0.18621,-0.17128 -0.0448,-0.074 -0.15406,-0.005 c 0,0 -0.2755,0.19657 -0.3013,0.24318 -0.0258,0.0466 -0.17593,0.21866 -0.17593,0.21866 l -0.12811,-0.26123 -0.1122,-0.14617 -0.0743,0.0666 c 0,0 0.0299,0.14646 0.0222,0.18787 -0.008,0.0414 0.0773,0.30411 0.0696,0.34552 -0.008,0.041 0.0878,0.15931 0.24307,0.36454 l -0.058,0.58592 -0.031,0.089 0.065,0.25386 -0.31976,0.75764 0.0161,0.5411 -0.39789,0.28987 -0.0227,0.0651 -0.14057,0.34783 c -0.0216,0.01 -0.0346,0.0175 -0.0556,0.0269 l -0.44642,-0.26983 -1.22695,-0.45396 -0.69729,0.17103 -0.65166,-0.19768 -0.169949,0.0966 -0.39542,-0.0598 c -0.0561,-0.0391 -0.22532,-0.15871 -0.35042,-0.27292 -0.14714,-0.13433 -0.33108,0.077 -0.33108,0.077 l 0.0195,0.007 -0.0334,0.0541 -0.0451,-0.0522 -0.46167,-0.10718 c 0,0 -0.64364,0.49871 -0.836,0.65336 -0.19235,0.15465 -0.37646,0.92046 -0.37646,0.92046 0,0 -0.41664,0.32646 -0.56709,0.44029 -0.15044,0.11384 -0.29601,0.53328 -0.57219,0.76956 -0.27618,0.23628 -0.58287,0.87711 -0.63448,1.02536 -0.0516,0.14824 -0.43867,0.62374 -0.43867,0.62374 0,0 0.0511,0.3262 0.1348,0.63355 -0.0146,0.006 -0.44488,0.17279 -0.58325,0.17909 -0.14074,0.006 -0.51089,0.43135 -0.88699,0.71594 -0.37611,0.28459 -0.77918,0.64394 -0.77918,0.64394 0,0 -0.0113,0.17435 0.003,0.34172 l -0.0885,-0.17929 -0.92854,0.12216 -0.46718,0.30712 c 0,0 0.0848,0.47205 0.16307,0.80405 0.0783,0.33199 -0.12377,0.59452 0.0545,0.8782 0.17826,0.28369 0.56171,0.77732 0.75937,0.84614 0.19766,0.0688 0.56015,0.22284 0.63757,4.5e-4 0.0774,-0.22237 0.0878,-0.41267 -0.0668,-0.60502 -0.15465,-0.19236 -0.17346,-0.6134 -0.0874,-0.86047 0.086,-0.24708 0.35362,-0.62416 0.35362,-0.62416 l -0.0969,-0.20411 c 0.0673,0.0754 0.12334,0.12813 0.12334,0.12813 0,0 0.26026,-0.1849 0.44512,-0.39757 0.18485,-0.21266 2.32251,-1.02182 2.32251,-1.02182 l -0.0543,-0.0676 c 0.17351,0.13109 0.30222,0.22249 0.36071,0.26433 l 0.015,0.0198 c 0,0 0.004,-0.006 0.004,-0.006 0.007,0.005 0.0345,0.0266 0.0345,0.0266 l 0.0441,-0.0917 c 0.0336,-0.0281 0.0527,-0.0452 0.11104,-0.0952 l -0.0908,0.15583 0.34454,-0.2695 c 0,0 0.19009,0.0103 0.48128,-0.10993 0.29118,-0.12024 0.27612,-0.31766 0.27612,-0.31766 l 1.17301,-1.61433 0.0946,-0.062 0.0195,0.71998 0.004,0.004 c 0.006,0.10875 0.0463,0.42017 0.33043,0.5191 0.001,3.2e-4 9.6e-4,3.2e-4 0.002,6.4e-4 l 0.12323,0.19139 -0.52736,0.18637 0.005,0.0263 c -0.66518,0.24106 -0.87883,0.71844 -1.27762,1.06188 -0.43523,0.37482 -0.68651,0.4547 -0.68651,0.4547 l 0.0712,0.0613 -0.17579,0.0435 -0.018,-0.0671 c 0,0 -0.59865,0.12644 -0.75019,0.323 -0.15154,0.19656 -0.52582,0.39867 -0.52582,0.39867 0,0 0.59696,0.59382 0.76662,0.90221 0.16965,0.30839 0.0346,0.53895 0.37075,0.76682 0.33621,0.22786 0.91215,0.40034 0.91215,0.40034 l 0.22472,-0.17004 c 0,0 0.008,-0.49571 -0.15768,-0.49791 -0.16545,-0.002 -0.26447,-0.12129 -0.26447,-0.12129 l -0.003,-0.0131 -0.13836,-0.092 0.0822,-0.99125 0.30298,-0.20608 0.0685,-0.11977 c 0.1548,-0.0737 0.44367,-0.2198 0.67913,-0.39155 0.31347,-0.22866 1.14284,-0.66875 1.2477,-0.72423 l 0.14017,0.01 0.18481,0.0984 0.359349,-0.23513 -0.168879,0.0167 0.288519,-0.15756 -0.0129,0.14886 c 0,0 0.57738,-0.54508 0.77303,-0.9479 0.19565,-0.40283 -0.21813,-0.88059 -0.36308,-1.18038 -0.10871,-0.22484 -0.13202,-0.70018 -0.13603,-0.92364 l 0.01,-0.23032 1.22217,0.64945 -0.0403,0.18557 0.99988,0.2532 0.0129,0.0118 0.0381,0.0303 c 0.12929,0.13444 0.42154,0.44616 0.42154,0.44616 l 0.55696,0.59554 0.56198,0.54617 -0.25793,-0.175 c 0,0 -0.21834,-0.24577 -0.33973,-0.36656 0.14673,0.17558 0.30131,0.35805 0.30131,0.35805 0,0 0.20435,0.1414 0.376,0.26236 l 0.63446,0.61765 0.009,0.23203 -0.004,0.0181 c 0.006,-0.0176 0.0204,-0.0586 0.0204,-0.0586 l -0.0172,-0.18125 0.051,0.0494 -0.0462,0.58026 -0.0186,-0.0235 c 0.0302,0.13456 0.0668,0.27642 0.0668,0.27642 l 0.0837,0.21412 c 0,0 0.0896,0.007 0.20561,-0.0453 l -0.0178,-0.0257 0.0283,0.003 0.0213,-0.0121 0.007,0.0146 c 0,0 0.0672,-0.005 0.15106,-0.0983 l 0.0264,-0.0127 0.004,0.0109 c 0,0 0.14481,-0.018 0.18175,-0.10954 l 0.007,-0.005 0.0162,0.0373 0.10866,-0.0255 c 0,0 0.0539,-0.0766 0.0514,-0.20361 l 0.0103,-0.009 0.003,0.0255 c 0,0 0.0598,-0.003 0.11866,-0.0122 0.0147,-0.002 0.0246,-0.0112 0.0287,-0.0265 z m -1.10145,0.003 c -0.007,-0.0302 -0.0117,-0.056 -0.017,-0.0838 l -0.0738,-0.0257 0.0909,0.10953 z m -0.6357,-2.43879 c -0.0927,-0.11702 -0.1418,-0.18228 -0.22307,-0.28213 0.0668,0.0209 0.0968,0.0316 0.16867,0.0539 l 0.0534,0.19627 9.6e-4,0.032 z m -0.46937,-0.56748 -0.006,-0.004 0.005,-6.4e-4 6.4e-4,0.005 z m -4.05268,-1.39152 -0.0549,0.032 -0.016,-0.10781 0.071,0.0758 z m -2.40396,5.01703 -0.12926,0.0986 0.0244,0.0767 0.10484,-0.17526 z m -0.36368,0.83485 -0.0203,-0.0606 0.0355,-0.10203 c -0.007,0.0582 -0.0114,0.11596 -0.0153,0.16264 z m 2.3914,-8.44862 -0.13206,-0.0192 -0.18434,-0.0788 0.3164,0.098 z"
     id="path3066-9-9-9-5"
     inkscape:connector-curvature="0" /><path
     style="fill:#ffffff;fill-opacity:1;stroke:none;overflow:visible"
     d="m 38.834573,69.999044 c -0.02143,-0.04258 -0.01617,-0.13823 -0.01698,-0.208025 -1.15e-4,-0.01166 0.0028,-0.02696 0.0055,-0.04384 0.01856,-0.118145 0.09674,-0.350067 0.130348,-0.495277 0.03842,-0.165957 0.243641,-0.20073 0.243641,-0.20073 l 0.03022,-0.293626 0.390193,-0.533315 c 0,0 0.11951,-0.346335 0.204545,-0.567765 0.07366,-0.191799 0.360199,-0.751074 0.445552,-0.917866 l -0.08441,-0.04524 -0.04692,-0.08988 -0.148223,0.0046 -0.02278,0.248597 c 0,0 -0.177715,0.101981 -0.309729,0.176513 l -0.01023,0.203143 0.0072,0.04687 c -0.0045,0.02575 -0.0094,0.05832 -0.01413,0.08692 l -0.0039,0.08603 -0.839134,0.22352 -2.64e-4,-0.02682 -0.01451,-0.0017 0.0058,0.0315 -0.0053,9.1e-4 -0.007,-0.03346 -0.636674,-0.03552 -0.245752,-0.01374 -0.0028,-6.59e-4 -0.156632,-0.0091 0.477772,0.154578 c 0,0 -0.249733,-0.05091 -0.349586,-0.0687 -0.09986,-0.01782 -0.450541,-0.02226 -0.578271,-0.230469 l 0.255898,0.08303 -0.41096,-0.335794 -0.0077,-0.0654 c -0.358846,-0.764341 -0.121457,-0.954092 0.07809,-1.239907 0.205131,-0.293837 0.503085,-0.564817 0.589245,-0.617672 0.08616,-0.05286 0.468656,-0.04204 0.537023,0.005 0.06836,0.04699 0.114052,0.08915 0.114052,0.08915 l -0.07151,0.103234 0.07275,0.01743 c 0.019,-0.208973 0.299061,-0.346285 0.449432,-0.159797 0.04516,0.05641 0.06554,0.10867 0.06935,0.157027 l 0.06001,-0.271446 -0.518265,-0.06231 c 0,0 0.136933,-0.06875 0.300471,-0.116869 l -0.409842,-0.06142 0.02197,-0.412603 0.37229,-0.228384 -0.432957,-0.327707 0.07531,-0.439939 c 0,0 0.08267,-0.157122 0.224513,-0.30223 L 38.262795,62.6486 38.51144,63.159483 38.240844,62.621615 38.062988,62.345077 37.829879,62.097039 c 0,0 -0.07659,-0.326108 -0.12314,-0.574395 l 0.06276,0.128699 -0.09379,-0.320027 c 0.0061,0.05011 0.01711,0.116825 0.03103,0.191328 l -0.07403,-0.151467 0.03614,-0.534564 -0.593235,-0.509842 -0.06303,-0.07196 0.02674,-0.04878 -0.01046,-0.06104 0.02165,0.03529 0.115097,-0.243204 0.0229,0.0021 c 0.03338,-0.03221 0.07723,-0.06439 0.113922,-0.0429 0.01858,0.01078 0.05761,0.02965 0.09074,0.04675 l 0.03315,0.0013 -0.163677,-0.09106 0.0152,-0.09837 0.131013,-0.107353 0.322949,0.165955 -0.218492,-0.127558 0.02919,-0.07997 0.148254,-0.03968 c 0,0 0.31233,0.135163 0.347488,0.175186 0.03512,0.04005 0.220486,0.17487 0.220486,0.17487 l 0.0662,-0.283327 0.0784,-0.166749 0.08802,0.05112 c 0,0 8.57e-4,0.147505 0.01717,0.186337 0.01664,0.0386 -0.0074,0.314355 0.009,0.353155 0.01643,0.03826 -0.05297,0.172441 -0.16081,0.406091 l 0.179783,0.561222 0.05096,0.07925 -0.01121,0.263083 0.477376,0.672611 0.09866,0.530087 0.44865,0.199415 0.03608,0.05882 0.211616,0.309769 c 0.09527,0.01934 0.169159,0.03538 0.248106,0.05275 l 0.287092,-0.270558 1.10169,-0.705519 0.717724,0.01817 0.594424,-0.332274 0.186659,0.05809 0.03699,-0.01448 -0.06718,-0.01275 -0.02596,-0.07312 c -0.08801,-0.205423 -0.288863,-0.636683 -0.474298,-0.803948 -0.231839,-0.209059 -0.741103,-0.474962 -0.779772,-0.875458 -0.0025,-0.02671 -0.0046,-0.05127 -0.0028,-0.07926 0.02928,-0.446865 0.3587,-1.169329 0.3587,-1.169329 l 0.04436,0.142686 0.208028,-0.254365 -0.149045,0.07794 0.241749,-0.353267 0.210345,0.02198 0.132448,-0.04347 c 0.07617,-0.09096 0.678047,-0.812554 0.882134,-1.142553 0.153311,-0.247863 0.36525,-0.491934 0.480816,-0.618577 l 0.01921,-0.135834 0.20359,-0.305585 -0.299115,-0.949167 -0.160787,-0.03351 -0.0089,-0.01072 c 0,0 -0.137034,-0.07326 -0.291084,-0.01291 -0.154063,0.06037 -0.331991,-0.400428 -0.331991,-0.400428 l 0.141896,-0.243466 c 0,0 0.600811,-0.0574 0.998117,0.02684 0.397312,0.08425 0.357076,0.348951 0.630503,0.570591 0.273435,0.221635 1.052514,0.546341 1.052514,0.546341 0,0 -0.270405,0.328682 -0.336624,0.567875 -0.06623,0.239199 -0.573845,0.581254 -0.573845,0.581254 l -0.04205,-0.05515 -0.147578,0.106723 0.08946,0.03147 c 0,0 -0.201528,0.166684 -0.463277,0.677939 -0.239822,0.468475 -0.258786,0.991142 -0.783944,1.465263 l 0.01443,0.02353 -0.416641,0.3715 0.185846,0.131408 c 0.0012,4.3e-5 5.18e-4,-0.0011 0.0017,-0.001 0.300494,-0.01553 0.455195,0.257225 0.501439,0.355805 l 0.0043,0.0032 0.291574,0.659844 0.06412,-0.0933 0.05075,-0.211823 -0.07642,1.009639 1.351866,0.999147 -0.193379,-0.09981 -0.113657,-0.01392 0.310336,0.651032 -0.0016,0.0069 c 0.04445,0.09941 0.149754,0.395385 -0.05824,0.612844 -6.96e-4,7.78e-4 -0.001,2.75e-4 -0.0017,10e-4 l -0.02064,0.22571 0.552792,-0.07482 0.0073,0.02523 c 0.702009,-0.08817 1.109399,0.240641 1.620806,0.364907 0.55814,0.135614 0.817011,0.09211 0.817011,0.09211 l -0.03267,0.0875 0.173865,-0.0419 -0.01407,-0.06692 c 0,0 0.591151,-0.161364 0.815557,-0.05534 0.224404,0.106042 0.648909,0.117028 0.648909,0.117028 0,0 -0.259908,0.798514 -0.27058,1.150325 -0.01067,0.351819 0.213864,0.495875 0.01824,0.851808 -0.195624,0.35592 -0.62952,0.771828 -0.62952,0.771828 l -0.277638,-0.04813 c 0,0 -0.233365,-0.438358 -0.08707,-0.51562 0.14629,-0.07731 0.181509,-0.227256 0.181509,-0.227256 l -0.003,-0.01438 0.08135,-0.144344 -0.526444,-0.844776 -0.361963,-0.04493 -0.117089,-0.07651 c -0.171391,0.0048 -0.493556,0.0073 -0.781386,-0.03843 -0.3832,-0.0609 -1.323543,-0.07641 -1.44216,-0.07807 l -0.119523,0.07332 -0.119339,0.170348 -0.427033,-0.04548 0.158683,-0.06227 -0.328898,-0.0086 0.07813,0.127356 c 0,0 -0.761417,-0.222459 -1.118992,-0.492056 -0.02234,-0.01691 -0.04189,-0.03519 -0.0605,-0.05463 -0.08413,-0.08799 -0.130831,-0.199882 -0.154948,-0.322958 l -0.761779,1.114556 c -0.01813,-0.152137 -0.04379,-0.296743 -0.063,-0.392845 l -0.05854,-0.222983 -1.055287,0.895485 0.07896,0.172702 -0.421377,0.209927 0.03479,0.0083 -0.0051,0.009 -0.01694,0.04277 c -0.0186,0.01845 -0.04421,0.04096 -0.06488,0.06139 l -0.0985,0.125185 -0.03155,0.04094 c -0.09758,0.158991 -0.314579,0.524694 -0.314579,0.524694 l -0.416933,0.700741 -0.43237,0.653583 0.212687,-0.224797 c 0,0 0.159607,-0.288681 0.252395,-0.432604 -0.105843,0.202848 -0.215929,0.412932 -0.215929,0.412932 0,0 -0.168259,0.183699 -0.3101,0.338557 l -0.489868,0.740099 0.03925,0.226723 0.0079,0.01673 c -0.0091,-0.0161 -0.03247,-0.05293 -0.03247,-0.05293 l -0.01997,-0.181918 -0.03926,0.05916 0.16713,0.558191 0.01631,-0.0262 c -7.96e-4,0.137925 -0.0082,0.285516 -0.0082,0.285516 l -0.03526,0.223896 c 0,0 -0.08587,0.0264 -0.210531,-2.96e-4 l 0.01194,-0.02891 -0.02915,0.0097 -0.02214,-0.0053 -0.0038,0.01582 c 0,0 -0.0648,0.008 -0.166617,-0.06499 l -0.03043,-0.0056 -0.0013,0.01133 c 0,0 -0.143346,0.01215 -0.198984,-0.06941 l -0.0096,-0.0023 -0.0071,0.03675 -0.11165,-0.0017 c 0,0 -0.06777,-0.06132 -0.09249,-0.185964 l -0.01198,-0.0061 2.64e-4,0.02682 c 0,0 -0.05909,0.0096 -0.118551,0.01336 -0.01491,9.36e-4 -0.02573,-0.0089 -0.03297,-0.02295 z m 1.077993,-0.229809 c 2.27e-4,-0.03099 -0.0036,-0.05795 -0.0044,-0.08634 l 0.0677,-0.03919 -0.06341,0.125244 z m 3.737823,-5.380854 0.06055,0.01952 -0.0074,-0.1088 -0.05308,0.08922 z m 4.749735,0.818664 0.158381,0.02959 0.013,0.07837 -0.171419,-0.10789 z m 0.615013,0.439854 c 0.0332,0.04838 0.06255,0.09815 0.08705,0.138073 l -0.0085,-0.06224 -0.07882,-0.0757 z m -4.911405,-9.039223 0.03191,-0.202956 0.0519,0.0626 -0.08375,0.140424 z m 0.06868,-0.754093 -0.0042,-0.108042 -0.04135,-0.05019 c 0.01402,0.04466 0.03042,0.101413 0.04569,0.158049 z"
     id="path3066-9-9-97-64-8"
     inkscape:connector-curvature="0" /><image
     sodipodi:absref="/home/bcrowell/a/gravitational-lune-bitmaps/vesta.jpg"
     xlink:href="gravitational-lune-bitmaps/vesta.jpg"
     transform="matrix(0.9959344,-0.09008152,0.09008152,0.9959344,0,0)"
     width="43.553871"
     height="42.296993"
     id="image3275-4"
     x="-48.378101"
     y="98.434326"
     style="overflow:visible" /><path
     style="fill:#ffffff;fill-opacity:1;stroke:none;overflow:visible"
     d="m -75.311997,116.49399 c -0.0251,-0.0405 -0.11231,-0.0838 -0.17174,-0.12042 -0.01,-0.006 -0.0238,-0.0142 -0.0394,-0.0209 -0.11082,-0.0448 -0.34894,-0.0949 -0.4908,-0.14071 -0.16212,-0.0523 -0.30049,0.10486 -0.30049,0.10486 l -0.26429,-0.12402 -0.66113,0.0596 c 0,0 -0.35648,-0.0766 -0.59013,-0.11743 -0.0464,-0.008 -0.12449,-0.0151 -0.21222,-0.0241 l 0.55934,-0.54315 -0.0225,-0.0143 0.006,-0.0135 0.024,0.0212 0.003,-0.004 -0.0251,-0.0232 0.29676,-0.5644 0.11453,-0.21787 0.001,-0.003 0.0727,-0.13899 -0.11297,0.48929 c 0,0 0.0847,-0.24039 0.12074,-0.33518 0.0361,-0.0948 0.21248,-0.39792 0.0995,-0.61451 l -0.0603,0.2622 -0.0768,-0.52513 -0.0518,-0.0405 c -0.47124,-0.70067 -0.75599,-0.59456 -1.10373,-0.57031 -0.35748,0.0249 -0.74308,0.14124 -0.83271,0.18798 -0.0896,0.0468 -0.27696,0.3804 -0.27175,0.46321 0.005,0.0827 0.0178,0.14368 0.0178,0.14368 l 0.12525,-0.008 -0.0224,0.0713 c -0.18904,-0.0911 -0.45075,0.0785 -0.36806,0.30342 0.025,0.0679 0.0596,0.11201 0.099,0.14018 l -0.26369,-0.088 0.21292,-0.4766 c 0,0 -0.12932,0.0821 -0.25467,0.19767 l 0.15797,-0.38312 -0.36522,-0.19324 -0.346503,0.18071 -0.0382,-0.37155 -0.41812,-0.16045 c 0,0 -0.1773,-0.01 -0.37466,0.0372 l -0.32261,-0.64842 0.30935,0.47385 -0.32325,-0.50549 -0.14696,-0.29669 -0.093,-0.32743 c 0,0 -0.24049,-0.23318 -0.42918,-0.40113 l 0.0792,0.12204 -0.22733,-0.24702 c 0.04,0.0308 0.0913,0.0749 0.14813,0.12498 l -0.0888,-0.14038 -0.47818,-0.24579 -0.13342,-0.76783 -0.0304,-0.093 -0.0535,-0.003 -0.049,-0.0393 0.0201,0.0387 -0.26885,-0.0283 -0.01,0.0207 c -0.0446,0.0124 -0.0938,0.0352 -0.0943,0.0777 -2.7e-4,0.0214 -0.002,0.0637 -0.004,0.10087 l -0.0172,0.027 0.004,-0.18617 -0.0921,-0.0375 -0.15834,0.0593 -0.0236,0.36233 0.003,-0.25298 -0.0846,-0.0181 -0.10922,0.10876 c 0,0 -0.0456,0.33535 -0.0294,0.38608 0.0162,0.0507 0.0387,0.27797 0.0387,0.27797 l -0.27804,-0.0857 -0.18334,-0.0185 -0.002,0.0998 c 0,0 0.12715,0.0786 0.15203,0.11258 0.0247,0.0342 0.27445,0.15212 0.29933,0.18611 0.0244,0.0339 0.17618,0.0452 0.43205,0.0728 l 0.38694,0.44377 0.0436,0.0836 0.22942,0.12664 0.33261,0.75209 0.40509,0.3591 -0.0616,0.48841 0.0318,0.0611 0.15698,0.34075 c -0.008,0.0226 -0.011,0.0372 -0.0185,0.0589 l -0.50245,0.14018 -1.17144,0.58242 -0.35331,0.625 -0.59056,0.3391 -0.0461,0.18996 -0.31454,0.24699 c -0.0669,0.0141 -0.26999,0.0553 -0.4389,0.0682 -0.19866,0.0151 -0.17082,0.29387 -0.17082,0.29387 l 0.0185,-0.009 0.0165,0.0614 -0.0689,-0.003 -0.39444,0.26276 c 0,0 -0.0779,0.8105 -0.0971,1.05657 -0.0192,0.24606 0.41233,0.90496 0.41233,0.90496 0,0 -0.0478,0.52715 -0.068,0.71472 -0.0202,0.18757 0.1855,0.58103 0.1683,0.94409 -0.0172,0.36305 0.2393,1.02557 0.31189,1.16475 0.0726,0.13917 0.15361,0.74692 0.15361,0.74692 0,0 0.27257,0.18634 0.55376,0.33601 -0.006,0.0147 -0.17905,0.4424 -0.26929,0.54749 -0.0921,0.1066 -0.036,0.66766 -0.0865,1.13659 -0.0505,0.46893 -0.065,1.00874 -0.065,1.00874 0,0 0.11922,0.12771 0.25091,0.232 l -0.19122,-0.0584 -0.54738,0.75992 -0.0965,0.5507 c 0,0 0.40189,0.26174 0.6973,0.43227 0.29543,0.1705 0.34814,0.49757 0.6769,0.56216 0.32876,0.0646 0.95103,0.12364 1.1366,0.0269 0.18557,-0.0968 0.54617,-0.25521 0.43727,-0.464 -0.1089,-0.20876 -0.24035,-0.34675 -0.48638,-0.36599 -0.24607,-0.0192 -0.56558,-0.29405 -0.68653,-0.52604 -0.121,-0.23196 -0.2122,-0.68527 -0.2122,-0.68527 l -0.21505,-0.0693 c 0.10103,0.003 0.17784,-0.002 0.17784,-0.002 0,0 0.0437,-0.31625 0.0155,-0.59662 -0.0282,-0.28035 0.84752,-2.39163 0.84752,-2.39163 l -0.0864,-0.007 c 0.21438,-0.0365 0.36915,-0.0676 0.4397,-0.0815 l 0.0247,0.003 c 0,0 -0.002,-0.007 -0.002,-0.007 0.008,-0.002 0.043,-0.007 0.043,-0.007 l -0.0366,-0.095 c 0.003,-0.0437 0.003,-0.0694 0.007,-0.1461 l 0.0512,0.17292 0.0399,-0.43561 c 0,0 0.13777,-0.13137 0.24977,-0.42582 0.11199,-0.29446 -0.0421,-0.41878 -0.0421,-0.41878 l -0.37175,-1.96057 0.0197,-0.11138 0.53769,0.47921 0.006,-1.7e-4 c 0.0833,0.0702 0.33773,0.25423 0.6045,0.11511 9.1e-4,-5.1e-4 8.9e-4,-4.8e-4 0.002,-0.001 l 0.22383,0.0414 -0.22568,0.51177 0.0226,0.0144 c -0.28031,0.64962 -0.0791,1.13237 -0.10227,1.65815 -0.0253,0.57382 -0.13934,0.81156 -0.13934,0.81156 l 0.0934,-0.01 -0.0888,0.15783 -0.0612,-0.0329 c 0,0 -0.3182,0.52261 -0.27891,0.76768 0.0393,0.24506 -0.07,0.65614 -0.07,0.65614 0,0 0.84156,-0.0278 1.18242,0.06 0.34085,0.0878 0.4162,0.34415 0.81251,0.25552 0.396346,-0.0887 0.916656,-0.38991 0.916656,-0.38991 l 0.0302,-0.28018 c 0,0 -0.35551,-0.34555 -0.47066,-0.2264 -0.11484,0.11912 -0.269566,0.10948 -0.269566,0.10948 l -0.0116,-0.007 -0.16182,0.0377 -0.66554,-0.73919 0.0576,-0.36187 -0.0403,-0.13197 c 0.0524,-0.16324 0.14398,-0.47373 0.18027,-0.7629 0.0483,-0.38499 0.29619,-1.29058 0.32765,-1.40496 l 0.10335,-0.0952 0.19831,-0.0671 0.075,-0.42284 -0.103576,0.13444 0.083,-0.3181 0.0996,0.11141 c 0,0 -0.001,-0.79402 -0.160526,-1.21256 -0.15928,-0.41855 -0.79077,-0.44463 -1.10843,-0.54453 -0.23824,-0.0749 -0.60038,-0.3837 -0.76586,-0.53392 l -0.160888,-0.16512 1.310538,-0.44496 0.10753,0.15652 0.869616,-0.55464 0.0174,-10e-4 0.0482,-0.007 c 0.18651,-0.002 0.61381,-0.001 0.61381,-0.001 l 0.81539,0.002 0.78288,-0.035 -0.30421,0.0679 c 0,0 -0.32861,-0.009 -0.49977,-0.004 0.22843,0.0135 0.46724,0.0259 0.46724,0.0259 0,0 0.24302,-0.0519 0.44875,-0.094 l 0.8846,-0.0388 0.17515,0.15246 0.0104,0.0153 c -0.009,-0.0164 -0.0287,-0.055 -0.0287,-0.055 l -0.14378,-0.11168 0.0709,-0.003 0.39091,0.4313 -0.0299,-0.003 c 0.11869,0.0702 0.24708,0.14079 0.24708,0.14079 l 0.2133,0.0858 c 0,0 0.0665,-0.0605 0.10792,-0.18078 l -0.0309,-0.005 0.0216,-0.0186 0.006,-0.0238 0.0154,0.005 c 0,0 0.0424,-0.0524 0.0319,-0.17737 l 0.009,-0.0279 0.0107,0.005 c 0,0 0.0861,-0.1178 0.0448,-0.20743 l 10e-4,-0.008 0.0383,0.0138 0.0559,-0.0966 c 0,0 -0.0189,-0.0918 -0.11305,-0.17697 l 5e-4,-0.0137 0.0206,0.0153 c 0,0 0.0388,-0.0456 0.0724,-0.0948 0.009,-0.0121 0.009,-0.0256 3.7e-4,-0.0391 z m -0.75266,0.80418 c -0.0268,-0.0156 -0.0488,-0.0299 -0.0727,-0.0451 l -0.0693,0.0361 0.14206,0.009 z m -2.21169,-1.2084 c -0.14875,-0.0127 -0.22993,-0.0217 -0.35834,-0.0309 0.061,-0.0343 0.0893,-0.0488 0.15485,-0.0859 l 0.17953,0.0956 0.024,0.0212 z m -0.73494,-0.0471 -0.007,0.002 0.003,-0.004 0.004,0.003 z m -3.790733,1.99771 -0.0143,0.0619 -0.0895,-0.0622 0.10386,2.4e-4 z m 2.00615,5.18893 -0.0168,0.1617 0.0726,0.0348 -0.0558,-0.19645 z m 0.35874,0.83698 -0.058,-0.0267 -0.05,-0.0958 c 0.0376,0.045 0.0766,0.0878 0.10796,0.1226 z m -4.5138,-7.5315 -0.10448,0.083 -0.18372,0.0802 0.2882,-0.16326 z"
     id="path3066-9-9-9-3"
     inkscape:connector-curvature="0" /><path
     style="fill:#ffffff;fill-opacity:1;stroke:none;overflow:visible"
     d="m 42.844321,129.2868 c -0.04015,-0.0257 -0.08441,-0.11065 -0.120703,-0.17027 -0.006,-0.01 -0.01132,-0.0246 -0.01764,-0.0405 -0.04429,-0.11109 -0.09532,-0.35045 -0.140471,-0.4925 -0.05159,-0.16235 0.1072,-0.29692 0.1072,-0.29692 l -0.123753,-0.26798 0.06364,-0.65775 c 0,0 -0.07383,-0.35885 -0.113618,-0.59269 -0.03446,-0.20255 -0.07322,-0.82976 -0.08486,-1.01676 l -0.09568,0.004 -0.0862,-0.0534 -0.12516,0.0795 0.107191,0.22545 c 0,0 -0.100855,0.17836 -0.176398,0.3098 l 0.09481,0.17995 0.03007,0.0367 c 0.0093,0.0245 0.02167,0.055 0.03217,0.082 l 0.04053,0.076 -0.607804,0.62022 -0.01391,-0.0229 -0.01333,0.006 0.02108,0.0241 -0.0041,0.003 -0.02312,-0.0252 -0.565767,0.29414 -0.218399,0.11352 -0.0027,8.3e-4 -0.139396,0.072 0.489802,-0.1107 c 0,0 -0.240776,0.0836 -0.335741,0.11919 -0.09498,0.0356 -0.398894,0.21064 -0.614953,0.0967 l 0.262459,-0.0591 -0.524752,-0.0793 -0.04002,-0.0523 c -0.698487,-0.47446 -0.591064,-0.75874 -0.565182,-1.10637 0.02659,-0.35736 0.14468,-0.74241 0.191836,-0.83182 0.04716,-0.0894 0.381686,-0.27517 0.464463,-0.26961 0.08277,0.006 0.143572,0.0185 0.143572,0.0185 l -0.0089,0.12528 0.07147,-0.0221 c -0.09023,-0.18944 0.08064,-0.45038 0.305091,-0.36666 0.06762,0.0255 0.111797,0.0601 0.139734,0.0997 l -0.08682,-0.26409 -0.477578,0.21071 c 0,0 0.08272,-0.12897 0.198854,-0.25376 l -0.383858,0.15619 -0.19153,-0.36612 0.203758,-0.38632 -0.53955,-0.0611 -0.15959,-0.41683 c 0,0 -0.009,-0.17732 0.03898,-0.37448 l -0.645848,-0.32764 0.47443,0.31264 -0.507074,-0.32465 -0.294022,-0.14717 -0.327015,-0.0945 c 0,0 -0.232195,-0.24145 -0.398865,-0.43128 l 0.119622,0.0787 -0.243888,-0.22744 c 0.0308,0.04 0.0743,0.0918 0.124266,0.14875 l -0.140928,-0.0925 -0.241543,-0.47825 -0.770306,-0.136 -0.09092,-0.0297 -0.0019,-0.0556 -0.04013,-0.0472 0.03662,0.0193 -0.02503,-0.26789 0.02079,-0.01 c 0.01229,-0.0447 0.03359,-0.0948 0.07611,-0.095 0.02148,-2.1e-4 0.06468,-0.004 0.101897,-0.006 l 0.02915,-0.0158 -0.187234,0.005 -0.03709,-0.0924 0.05794,-0.15916 0.362429,-0.022 -0.252995,0.002 -0.01567,-0.0837 0.107287,-0.10974 c 0,0 0.337591,-0.043 0.388245,-0.0265 0.05064,0.0165 0.27884,0.038 0.27884,0.038 l -0.08756,-0.27747 -0.01761,-0.18341 0.101785,-9.2e-4 c 0,0 0.07597,0.12644 0.109802,0.15152 0.034,0.0247 0.153983,0.27416 0.187847,0.29919 0.03364,0.0245 0.04238,0.17534 0.06878,0.43132 l 0.440869,0.39106 0.08425,0.0422 0.124534,0.23202 0.753659,0.3351 0.355209,0.40565 0.487618,-0.0573 0.06103,0.0322 0.34001,0.15853 c 0.09181,-0.032 0.163549,-0.0558 0.240317,-0.0812 l 0.108963,-0.37914 0.587826,-1.16873 0.626634,-0.35042 0.341847,-0.58897 0.190184,-0.0452 0.02443,-0.0313 -0.06429,0.0233 -0.05962,-0.0496 c -0.180468,-0.13181 -0.573182,-0.40033 -0.817994,-0.44964 -0.306043,-0.0616 -0.879709,-0.0306 -1.117226,-0.35536 -0.01581,-0.0217 -0.03009,-0.0418 -0.04279,-0.0668 -0.202712,-0.39932 -0.287818,-1.18876 -0.287818,-1.18876 l 0.110927,0.10011 0.04921,-0.32489 -0.08845,0.14305 0.02778,-0.42716 0.192145,-0.0884 0.09175,-0.10494 c 0.01913,-0.11709 0.168833,-1.04474 0.176083,-1.43269 0.0055,-0.29139 0.06329,-0.60942 0.09811,-0.7773 l -0.05275,-0.12663 0.01927,-0.36669 -0.741369,-0.6639 -0.155395,0.0532 -0.01314,-0.005 c 0,0 -0.155235,0.007 -0.256965,0.13735 -0.101731,0.13051 -0.489789,-0.17512 -0.489789,-0.17512 l -0.0021,-0.28179 c 0,0 0.487528,-0.35579 0.872243,-0.48595 0.384724,-0.13016 0.485113,0.11805 0.833345,0.16925 0.348235,0.0512 1.183979,-0.0668 1.183979,-0.0668 0,0 -0.06497,0.42063 6.3e-5,0.66015 0.06503,0.23953 -0.197163,0.79264 -0.197163,0.79264 l -0.0643,-0.026 -0.07251,0.16707 0.093,-0.0186 c 0,0 -0.08834,0.24616 -0.05275,0.81942 0.03264,0.52528 0.282885,0.98453 0.07296,1.66019 l 0.02441,0.0129 -0.168917,0.53204 0.226878,0.0182 c 10e-4,-5.5e-4 -1e-4,-10e-4 9.33e-4,-0.002 0.250555,-0.16661 0.522732,-0.0109 0.612786,0.0503 l 0.0054,5.6e-4 0.587326,0.41888 0.0076,-0.11296 -0.06438,-0.20808 0.449189,0.90743 1.672405,0.16999 -0.217244,0.0128 -0.104866,0.046 0.598971,0.40173 0.0021,0.007 c 0.08893,0.0628 0.330461,0.26373 0.262458,0.55686 -2.02e-4,0.001 -7.24e-4,7.5e-4 -9.34e-4,0.002 l 0.09736,0.20468 0.437337,-0.34628 0.01911,0.018 c 0.558883,-0.43387 1.077002,-0.3588 1.580276,-0.51273 0.54926,-0.168 0.749746,-0.33745 0.749746,-0.33745 l 0.01652,0.0919 0.128185,-0.12471 -0.04623,-0.0504 c 0,0 0.426196,-0.44029 0.673298,-0.46353 0.247107,-0.0232 0.617858,-0.23029 0.617858,-0.23029 0,0 0.183679,0.81942 0.353924,1.12748 0.170254,0.30806 0.436858,0.31747 0.450112,0.7234 0.01325,0.40592 -0.147862,0.98496 -0.147862,0.98496 l -0.26336,0.1002 c 0,0 -0.424299,-0.25804 -0.337865,-0.39911 0.08641,-0.14111 0.04023,-0.28805 0.04023,-0.28805 l -0.0099,-0.0109 -0.0036,-0.16565 -0.883672,-0.45817 -0.334265,0.14596 -0.139735,-0.006 c -0.14496,0.0916 -0.42082,0.258 -0.691728,0.36545 -0.360679,0.14305 -1.177446,0.60929 -1.280323,0.66836 l -0.06542,0.12402 -0.01577,0.20739 -0.390515,0.17868 0.104739,-0.13449 -0.287288,0.16035 0.132155,0.0697 c 0,0 -0.768404,0.19697 -1.213476,0.14744 -0.02784,-0.003 -0.05398,-0.009 -0.0799,-0.0161 -0.117238,-0.0328 -0.214478,-0.10521 -0.297992,-0.19878 l -0.08683,1.34722 c -0.09319,-0.12161 -0.189009,-0.23291 -0.254543,-0.30578 l -0.164077,-0.16195 -0.451027,1.30847 0.156,0.10829 -0.255394,0.39547 0.03418,-0.0106 2.24e-4,0.0103 0.0072,0.0454 c -0.0066,0.0253 -0.01713,0.0578 -0.0245,0.0859 l -0.02088,0.15791 -0.0063,0.0513 c -0.0028,0.18652 -0.003,0.61176 -0.003,0.61176 l -0.0013,0.8154 -0.03858,0.7827 0.0683,-0.30183 c 0,0 -0.0099,-0.32972 -0.0035,-0.50084 0.01241,0.22846 0.02486,0.46532 0.02486,0.46532 0,0 -0.05104,0.24382 -0.09408,0.44937 l -0.04392,0.88644 0.14939,0.17501 0.01534,0.0103 c -0.01606,-0.009 -0.05493,-0.029 -0.05493,-0.029 l -0.109961,-0.14629 -0.0036,0.0709 0.42844,0.3949 6.7e-4,-0.0308 c 0.06966,0.11905 0.138538,0.24979 0.138538,0.24979 l 0.08386,0.21057 c 0,0 -0.0604,0.0665 -0.181244,0.10712 l -0.0045,-0.031 -0.02014,0.0232 -0.02175,0.007 0.0048,0.0155 c 0,0 -0.05168,0.0399 -0.176463,0.0291 l -0.02904,0.0107 0.0047,0.0104 c 0,0 -0.117106,0.0836 -0.206557,0.0418 l -0.0095,0.003 0.01261,0.0353 -0.09689,0.0555 c 0,0 -0.08956,-0.0182 -0.174404,-0.11279 l -0.01344,8.3e-4 0.01391,0.0229 c 0,0 -0.04592,0.0384 -0.09516,0.072 -0.01235,0.008 -0.02664,0.005 -0.04006,-0.003 z m 0.810056,-0.74745 c -0.01561,-0.0268 -0.03269,-0.048 -0.04782,-0.072 l 0.03825,-0.0682 0.0093,0.14007 z m 0.470918,-6.53477 0.06204,-0.0141 -0.06184,-0.0898 -1.51e-4,0.10382 z m 4.503113,-1.71818 0.151326,-0.0553 0.05115,0.0608 -0.202474,-0.005 z m 0.753344,0.0647 c 0.05323,0.0247 0.103863,0.0525 0.145294,0.0744 l -0.03906,-0.0492 -0.106404,-0.0249 z m -8.834689,-5.27046 -0.07606,-0.19085 0.07657,0.0274 -4.27e-4,0.1635 z m -0.325514,-0.68368 -0.05873,-0.0908 -0.06116,-0.0221 c 0.03484,0.0313 0.07789,0.0717 0.119905,0.11265 z"
     id="path3066-9-9-97-64-88"
     inkscape:connector-curvature="0" /><image
     sodipodi:absref="/home/bcrowell/a/gravitational-lune-bitmaps/vesta.jpg"
     xlink:href="gravitational-lune-bitmaps/vesta.jpg"
     width="43.553871"
     height="42.296993"
     id="image3275"
     x="-37.497749"
     y="158.66945" /><path
     style="fill:#ffffff;fill-opacity:1;stroke:none;overflow:visible"
     d="m -67.919282,176.05183 c -0.0123,0.046 0.0159,0.13925 0.03,0.20759 0.002,0.0114 0.006,0.0271 0.0118,0.043 0.0433,0.11142 0.170019,0.31916 0.23388,0.45385 0.073,0.15392 0.2823,0.14697 0.2823,0.14697 l 0.0908,0.27746 0.4965,0.44061 c 0,0 0.18855,0.31207 0.31891,0.51023 0.0259,0.0394 0.0743,0.10103 0.12786,0.17109 l -0.77887,-0.0351 0.005,0.0262 -0.0139,0.005 -9.6e-4,-0.032 -0.005,6.4e-4 3e-4,0.0342 -0.6144,0.17068 -0.23715,0.0659 -0.003,0.001 -0.15105,0.0423 0.43374,-0.25305 c 0,0 -0.2331,0.10307 -0.32684,0.14178 -0.0938,0.0387 -0.4354,0.11796 -0.51572,0.34865 l 0.23227,-0.13577 -0.32977,0.41582 0.006,0.0655 c -0.18731,0.82336 0.0851,0.95801 0.34108,1.19463 0.26315,0.24324 0.6121,0.44435 0.70756,0.47759 0.0955,0.0332 0.46683,-0.059 0.523571,-0.11954 0.0567,-0.0605 0.0924,-0.11147 0.0924,-0.11147 l -0.0919,-0.0855 0.0673,-0.0326 c 0.0632,0.2001 0.3661,0.27443 0.4732,0.0601 0.0323,-0.0647 0.0407,-0.12019 0.0342,-0.1682 l 0.1166,0.25236 -0.493,0.17156 c 0,0 0.14844,0.0379 0.31849,0.05 l -0.38727,0.14752 0.10957,0.3984 0.36906,0.12849 -0.24439,0.28246 0.1697,0.41446 c 0,0 0.11431,0.13589 0.28388,0.24732 l -0.25112,0.67931 0.13308,-0.55002 -0.14659,0.58183 -0.11535,0.31035 -0.17472,0.29211 c 0,0 -0.005,0.33494 0.002,0.58745 l 0.0346,-0.14131 -0.0241,0.33483 c -0.005,-0.0502 -0.008,-0.11779 -0.0105,-0.19352 l -0.0414,0.16084 0.14871,0.51668 -0.46774,0.62337 -0.0469,0.0859 0.0343,0.0412 0.005,0.0626 0.0144,-0.0412 0.16363,0.21518 0.0219,-0.007 c 0.0396,0.024 0.0899,0.0442 0.1212,0.0154 0.0158,-0.0145 0.0478,-0.0421 0.0765,-0.0659 l 0.0314,-0.006 -0.13833,0.12466 0.0358,0.0928 0.15168,0.0747 0.28006,-0.2311 -0.18621,0.17128 0.0448,0.074 0.15406,0.005 c 0,0 0.2755,-0.19657 0.3013,-0.24318 0.0258,-0.0466 0.17593,-0.21866 0.17593,-0.21866 l 0.12811,0.26123 0.1122,0.14617 0.0743,-0.0666 c 0,0 -0.0299,-0.14646 -0.0222,-0.18787 0.008,-0.0414 -0.0773,-0.30411 -0.0696,-0.34552 0.008,-0.041 -0.0878,-0.15931 -0.24307,-0.36454 l 0.058,-0.58592 0.031,-0.089 -0.065,-0.25386 0.31976,-0.75764 -0.0161,-0.5411 0.39789,-0.28987 0.0227,-0.0651 0.14057,-0.34783 c 0.0216,-0.01 0.0346,-0.0175 0.0556,-0.0269 l 0.44642,0.26983 1.22695,0.45396 0.69729,-0.17103 0.65166,0.19768 0.16995,-0.0966 0.39542,0.0598 c 0.0561,0.0391 0.22532,0.15871 0.35042,0.27292 0.14714,0.13433 0.33108,-0.077 0.33108,-0.077 l -0.0195,-0.007 0.0334,-0.0541 0.0451,0.0522 0.46167,0.10718 c 0,0 0.64364,-0.49871 0.836,-0.65336 0.19235,-0.15465 0.37646,-0.92046 0.37646,-0.92046 0,0 0.41664,-0.32646 0.56709,-0.44029 0.15044,-0.11384 0.29601,-0.53328 0.57219,-0.76956 0.27618,-0.23628 0.58287,-0.87711 0.63448,-1.02536 0.0516,-0.14824 0.43867,-0.62374 0.43867,-0.62374 0,0 -0.0511,-0.3262 -0.1348,-0.63355 0.0146,-0.006 0.44488,-0.17279 0.58325,-0.17909 0.14074,-0.006 0.51089,-0.43135 0.88699,-0.71594 0.37611,-0.28459 0.77918,-0.64394 0.77918,-0.64394 0,0 0.0113,-0.17435 -0.003,-0.34172 l 0.0885,0.17929 0.92854,-0.12216 0.46718,-0.30712 c 0,0 -0.0848,-0.47205 -0.16307,-0.80405 -0.0783,-0.33199 0.12377,-0.59452 -0.0545,-0.8782 -0.17826,-0.28369 -0.56171,-0.77732 -0.75937,-0.84614 -0.19766,-0.0688 -0.56015,-0.22284 -0.63757,-4.5e-4 -0.0774,0.22237 -0.0878,0.41267 0.0668,0.60502 0.15465,0.19236 0.17346,0.6134 0.0874,0.86047 -0.086,0.24708 -0.35362,0.62416 -0.35362,0.62416 l 0.0969,0.20411 c -0.0673,-0.0754 -0.12334,-0.12813 -0.12334,-0.12813 0,0 -0.26026,0.1849 -0.44512,0.39757 -0.18485,0.21266 -2.32251,1.02182 -2.32251,1.02182 l 0.0543,0.0676 c -0.17351,-0.13109 -0.30222,-0.22249 -0.36071,-0.26433 l -0.015,-0.0198 c 0,0 -0.004,0.006 -0.004,0.006 -0.007,-0.005 -0.0345,-0.0266 -0.0345,-0.0266 l -0.0441,0.0917 c -0.0336,0.0281 -0.0527,0.0452 -0.11104,0.0952 l 0.0908,-0.15583 -0.34454,0.2695 c 0,0 -0.19009,-0.0103 -0.48128,0.10993 -0.29118,0.12024 -0.27612,0.31766 -0.27612,0.31766 l -1.17301,1.61433 -0.0946,0.062 -0.0195,-0.71998 -0.004,-0.004 c -0.006,-0.10875 -0.0463,-0.42017 -0.33043,-0.5191 -10e-4,-3.2e-4 -9.6e-4,-3.2e-4 -0.002,-6.4e-4 l -0.12323,-0.19139 0.52736,-0.18637 -0.005,-0.0263 c 0.66518,-0.24106 0.87883,-0.71844 1.27762,-1.06188 0.43523,-0.37482 0.68651,-0.4547 0.68651,-0.4547 l -0.0712,-0.0613 0.17579,-0.0435 0.018,0.0671 c 0,0 0.59865,-0.12644 0.75019,-0.323 0.15154,-0.19656 0.52582,-0.39867 0.52582,-0.39867 0,0 -0.59696,-0.59382 -0.76662,-0.90221 -0.16965,-0.30839 -0.0346,-0.53895 -0.37075,-0.76682 -0.33621,-0.22786 -0.912149,-0.40034 -0.912149,-0.40034 l -0.22472,0.17004 c 0,0 -0.008,0.49571 0.15768,0.49791 0.16545,0.002 0.26447,0.12129 0.26447,0.12129 l 0.003,0.0131 0.13836,0.092 -0.0822,0.99125 -0.30298,0.20608 -0.0685,0.11977 c -0.1548,0.0737 -0.44367,0.2198 -0.67913,0.39155 -0.313471,0.22866 -1.142841,0.66875 -1.247701,0.72423 l -0.14017,-0.01 -0.18481,-0.0984 -0.35935,0.23513 0.16888,-0.0167 -0.28852,0.15756 0.0129,-0.14886 c 0,0 -0.57738,0.54508 -0.77303,0.9479 -0.19565,0.40283 0.21813,0.88059 0.36308,1.18038 0.10871,0.22484 0.13202,0.70018 0.13603,0.92364 l -0.01,0.23032 -1.22217,-0.64945 0.0403,-0.18557 -0.99988,-0.2532 -0.0129,-0.0118 -0.0381,-0.0303 c -0.129289,-0.13444 -0.421539,-0.44616 -0.421539,-0.44616 l -0.55696,-0.59554 -0.561981,-0.54617 0.25793,0.175 c 0,0 0.21834,0.24577 0.339731,0.36656 -0.146731,-0.17558 -0.30131,-0.35805 -0.30131,-0.35805 0,0 -0.204351,-0.1414 -0.376001,-0.26236 l -0.63446,-0.61765 -0.009,-0.23203 0.004,-0.0181 c -0.006,0.0176 -0.0204,0.0586 -0.0204,0.0586 l 0.0172,0.18125 -0.051,-0.0494 0.0462,-0.58026 0.0186,0.0235 c -0.0302,-0.13456 -0.0668,-0.27642 -0.0668,-0.27642 l -0.0837,-0.21412 c 0,0 -0.0896,-0.007 -0.20561,0.0453 l 0.0178,0.0257 -0.0283,-0.003 -0.0213,0.0121 -0.007,-0.0146 c 0,0 -0.0672,0.005 -0.15106,0.0983 l -0.0264,0.0127 -0.004,-0.0109 c 0,0 -0.14481,0.018 -0.18175,0.10954 l -0.007,0.005 -0.0162,-0.0373 -0.10866,0.0255 c 0,0 -0.0539,0.0766 -0.0514,0.20361 l -0.0103,0.009 -0.003,-0.0255 c 0,0 -0.0598,0.003 -0.11866,0.0122 -0.0147,0.002 -0.0246,0.0112 -0.0287,0.0265 z m 1.10145,-0.003 c 0.007,0.0302 0.0117,0.056 0.017,0.0838 l 0.0738,0.0257 -0.0909,-0.10953 z m 0.6357,2.43879 c 0.0927,0.11702 0.1418,0.18228 0.22307,0.28213 -0.0668,-0.0209 -0.0968,-0.0316 -0.16867,-0.0539 l -0.0534,-0.19627 -9.6e-4,-0.032 z m 0.46937,0.56748 0.006,0.004 -0.005,6.4e-4 -6.4e-4,-0.005 z m 4.052679,1.39152 0.0549,-0.032 0.016,0.10781 -0.071,-0.0758 z m 2.403961,-5.01703 0.12926,-0.0986 -0.0244,-0.0767 -0.104839,0.17526 z m 0.36368,-0.83485 0.0203,0.0606 -0.0355,0.10203 c 0.007,-0.0582 0.0114,-0.11596 0.0153,-0.16264 z m -2.391401,8.44862 0.13206,0.0192 0.18434,0.0788 -0.3164,-0.098 z"
     id="path3066-9-9-9-2"
     inkscape:connector-curvature="0" /><path
     style="fill:#ffffff;fill-opacity:1;stroke:none;overflow:visible"
     d="m 26.451556,186.59549 c -0.0475,-0.004 -0.12628,-0.0585 -0.1862,-0.0943 -0.01,-0.006 -0.0215,-0.0165 -0.0345,-0.0276 -0.091,-0.0776 -0.24781,-0.26551 -0.35401,-0.37009 -0.12137,-0.11953 -0.0437,-0.31264 -0.0437,-0.31264 l -0.23448,-0.1793 -0.25056,-0.61147 c 0,0 -0.23272,-0.28297 -0.377,-0.47124 -0.12497,-0.16308 -0.45186,-0.69977 -0.5494,-0.85974 l -0.0827,0.0483 -0.10115,-0.007 -0.0736,0.12874 0.19999,0.14941 c 0,0 -0.006,0.20481 -0.0115,0.35631 l 0.16781,0.11494 0.0437,0.0184 c 0.0196,0.0173 0.0448,0.0385 0.0667,0.0575 l 0.0713,0.0483 -0.24826,0.83215 -0.023,-0.0138 -0.009,0.0115 0.0299,0.0115 -0.002,0.005 -0.0322,-0.0115 -0.3632,0.52412 -0.14022,0.20229 -0.002,0.002 -0.0897,0.12873 0.38159,-0.32642 c 0,0 -0.17398,0.18625 -0.24136,0.26206 -0.0674,0.0758 -0.25456,0.3724 -0.49883,0.3724 l 0.20458,-0.17471 -0.50112,0.17471 -0.0598,-0.0276 c -0.83916,-0.0938 -0.87677,-0.39537 -1.01605,-0.71492 -0.143199,-0.3285 -0.218379,-0.72417 -0.218379,-0.82525 0,-0.10108 0.209229,-0.42146 0.285039,-0.45516 0.0758,-0.0337 0.13563,-0.0506 0.13563,-0.0506 l 0.0506,0.11494 0.0529,-0.0529 c -0.16819,-0.12547 -0.13879,-0.43599 0.0988,-0.46665 0.0717,-0.009 0.1269,9.6e-4 0.17011,0.023 l -0.2,-0.19309 -0.32412,0.40918 c 0,0 0.013,-0.15267 0.0575,-0.31723 l -0.266659,0.31723 -0.34021,-0.23448 0,-0.43676 -0.50573,0.19769 -0.33562,-0.29424 c 0,0 -0.0907,-0.15263 -0.14022,-0.34941 l -0.72411,0.0115 0.56549,0.0552 -0.59997,-0.0506 -0.32872,0.007 -0.33332,0.069 c 0,0 -0.31802,-0.10524 -0.554,-0.19539 l 0.14252,0.0138 -0.32183,-0.0874 c 0.0459,0.021 0.10853,0.0465 0.17931,0.0736 l -0.16782,-0.0161 -0.43676,-0.31033 -0.74479,0.23907 -0.0943,0.0161 -0.0276,-0.0483 -0.0575,-0.023 0.0414,0 -0.14712,-0.22528 0.0138,-0.0184 c -0.01,-0.0453 -0.0145,-0.0995 0.023,-0.11954 0.0189,-0.0102 0.0554,-0.0336 0.0873,-0.0529 l 0.0184,-0.0276 -0.16321,0.0919 -0.0759,-0.0644 -0.023,-0.16781 0.31033,-0.1885 -0.22298,0.11954 -0.0529,-0.0667 0.0437,-0.14712 c 0,0 0.27853,-0.19555 0.33103,-0.20459 0.0525,-0.009 0.26435,-0.0965 0.26435,-0.0965 l -0.20689,-0.20458 -0.10114,-0.15402 0.0896,-0.0483 c 0,0 0.12618,0.0764 0.16781,0.0828 0.0416,0.006 0.2641,0.17066 0.30573,0.177 0.0412,0.006 0.11929,0.13532 0.26206,0.34942 l 0.57239,0.14022 0.0942,-0.002 0.21839,0.14712 0.82295,-0.0552 0.50343,0.19309 0.40458,-0.27815 0.069,0 0.3747,-0.0184 c 0.0663,-0.0711 0.11861,-0.12569 0.1747,-0.1839 l -0.0805,-0.38619 -0.0253,-1.30799 0.39079,-0.60228 0.0276,-0.68043 0.14712,-0.12873 0.007,-0.0391 -0.046,0.0506 -0.0759,-0.0161 c -0.22112,-0.0324 -0.69375,-0.0867 -0.93329,-0.0161 -0.29943,0.0883 -0.79238,0.38335 -1.15398,0.20689 -0.0241,-0.0118 -0.0461,-0.0229 -0.069,-0.0391 -0.36559,-0.25863 -0.80916,-0.9172 -0.80916,-0.9172 l 0.14482,0.0368 -0.10804,-0.31033 -0.0115,0.1678 -0.17471,-0.39079 0.12873,-0.1678 0.0322,-0.13563 c -0.0377,-0.11249 -0.33806,-1.00285 -0.51263,-1.34937 -0.13111,-0.26029 -0.22833,-0.56857 -0.27585,-0.7333 l -0.10574,-0.0874 -0.15402,-0.33333 -0.96547,-0.24136 -0.11264,0.11953 -0.0138,0.002 c 0,0 -0.1341,0.0785 -0.16321,0.24137 -0.0291,0.16289 -0.514921,0.0736 -0.514921,0.0736 l -0.13333,-0.24826 c 0,0 0.265241,-0.54214 0.544801,-0.83675 0.27957,-0.29461 0.48416,-0.1219 0.81606,-0.23907 0.3319,-0.11718 1.01606,-0.61147 1.01606,-0.61147 0,0 0.13877,0.40236 0.30803,0.58388 0.16926,0.18153 0.19539,0.79308 0.19539,0.79308 l -0.069,0.007 0.0138,0.1816 0.0736,-0.0598 c 0,0 0.0367,0.25894 0.33562,0.74939 0.27392,0.44939 0.70952,0.73886 0.83905,1.43442 l 0.0276,0 0.0988,0.5494 0.20919,-0.0897 c 6.4e-4,-9.6e-4 -6.4e-4,-0.001 0,-0.002 0.14389,-0.26426 0.45728,-0.2535 0.56549,-0.24137 l 0.005,-0.002 0.71491,0.0965 -0.046,-0.10344 -0.15402,-0.15402 0.820649,0.59308 1.55856,-0.62986 -0.1862,0.11264 -0.0713,0.0896 0.71721,0.0759 0.005,0.005 c 0.10798,0.0141 0.41533,0.0791 0.49193,0.3701 3e-4,0.001 -2.9e-4,0.001 0,0.002 l 0.1816,0.13562 0.22528,-0.51032 0.0253,0.007 c 0.29193,-0.64449 0.78523,-0.81981 1.15857,-1.19075 0.40745,-0.40484 0.50573,-0.64825 0.50573,-0.64825 l 0.0575,0.0736 0.0552,-0.17011 -0.0644,-0.023 c 0,0 0.17157,-0.58827 0.37929,-0.72411 0.20773,-0.13583 0.43907,-0.49193 0.43907,-0.49193 0,0 0.54474,0.63909 0.83904,0.83215 0.29431,0.19306 0.53451,0.077 0.73561,0.42987 0.20109,0.35286 0.32872,0.94019 0.32872,0.94019 l -0.1862,0.21149 c 0,0 -0.49568,-0.0303 -0.48504,-0.1954 0.0106,-0.16512 -0.0988,-0.27355 -0.0988,-0.27355 l -0.0138,-0.005 -0.0805,-0.14482 -0.99536,0.007 -0.22757,0.28504 -0.12644,0.0598 c -0.0855,0.14862 -0.25186,0.42452 -0.44135,0.64595 -0.25229,0.29479 -0.75722,1.08822 -0.82066,1.18846 l 0,0.14022 0.0828,0.1908 -0.26206,0.34022 0.0299,-0.16782 -0.1793,0.27586 0.14941,0 c 0,0 -0.58777,0.5327 -1.00455,0.69652 -0.0261,0.0102 -0.0519,0.0173 -0.0782,0.023 -0.11899,0.0257 -0.23879,0.007 -0.35631,-0.0368 l 0.5517,1.23214 c -0.13916,-0.0641 -0.27584,-0.11784 -0.3678,-0.15172 l -0.22068,-0.0667 0.21149,1.36777 0.1885,0.023 -0.0414,0.46895 0.0253,-0.0253 0.005,0.009 0.0276,0.0368 c 0.006,0.0255 0.0118,0.0591 0.0184,0.0874 l 0.0552,0.14942 0.0184,0.0483 c 0.0845,0.16631 0.28275,0.54251 0.28275,0.54251 l 0.37929,0.72181 0.33102,0.71031 -0.0804,-0.29884 c 0,0 -0.16261,-0.287 -0.23677,-0.44135 0.11756,0.19629 0.23907,0.39998 0.23907,0.39998 0,0 0.0686,0.23948 0.12643,0.44136 l 0.3747,0.80456 0.21378,0.0851 0.0184,0.002 c -0.0185,-6.4e-4 -0.0621,0 -0.0621,0 l -0.16551,-0.0781 0.0299,0.0644 0.56319,0.14942 -0.0138,-0.0276 c 0.11715,0.0728 0.23907,0.15631 0.23907,0.15631 l 0.17241,0.14713 c 0,0 -0.0224,0.087 -0.11034,0.1793 l -0.0184,-0.0253 -0.007,0.0299 -0.0161,0.0161 0.0115,0.0115 c 0,0 -0.0271,0.0594 -0.14252,0.10804 l -0.0207,0.023 0.009,0.007 c 0,0 -0.0646,0.12854 -0.16321,0.13332 l -0.007,0.007 0.0276,0.0253 -0.0598,0.0943 c 0,0 -0.0877,0.0257 -0.20688,-0.0184 l -0.0115,0.007 0.023,0.0138 c 0,0 -0.0227,0.0554 -0.0506,0.10804 -0.007,0.0132 -0.021,0.0173 -0.0368,0.0161 z m 0.3678,-1.03904 c -0.0263,-0.0164 -0.0513,-0.0272 -0.0759,-0.0414 l 0.002,-0.0782 0.0736,0.11954 z m -2.63207,-5.99976 0.0483,-0.0414 -0.0966,-0.0506 0.0483,0.0919 z m 3.18148,-3.62055 0.10804,-0.11953 0.0736,0.0299 -0.1816,0.0897 z m 0.69652,-0.29423 c 0.0586,-0.003 0.11637,-0.002 0.16321,-0.002 l -0.0575,-0.0253 -0.10574,0.0276 z m -10.273149,-0.54021 -0.15631,-0.13333 0.0805,-0.0115 0.0759,0.14482 z m -0.60687,-0.45286 -0.0943,-0.0529 -0.0644,0.009 c 0.0454,0.0114 0.10235,0.0271 0.15861,0.0437 z"
     id="path3066-9-9-97-64-7"
     inkscape:connector-curvature="0" /><path
     sodipodi:type="arc"
     style="color:#000000;fill:none;stroke:#ffffff;stroke-width:0.60574102;stroke-miterlimit:4;stroke-opacity:1;stroke-dasharray:2.42296415, 2.42296415;stroke-dashoffset:0;marker:none;visibility:visible;display:inline;overflow:visible;enable-background:accumulate"
     id="path3236"
     sodipodi:cx="-58.208267"
     sodipodi:cy="203.16675"
     sodipodi:rx="192.08728"
     sodipodi:ry="278.15237"
     d="M -233.87202,315.7035 A 192.08728,278.15237 0 0 1 -235.97897,97.795724"
     transform="matrix(2.0904429,0,0,0.99816843,440.6545,-113.54071)"
     sodipodi:start="2.7250658"
     sodipodi:end="3.5301188"
     sodipodi:open="true" /><path
     sodipodi:type="arc"
     style="color:#000000;fill:none;stroke:#ffffff;stroke-width:0.60574102;stroke-miterlimit:4;stroke-opacity:1;stroke-dasharray:2.42296415, 2.42296415;stroke-dashoffset:0;marker:none;visibility:visible;display:inline;overflow:visible;enable-background:accumulate"
     id="path3236-9"
     sodipodi:cx="-58.208267"
     sodipodi:cy="203.16675"
     sodipodi:rx="192.08728"
     sodipodi:ry="278.15237"
     d="m -233.29585,317.57075 a 192.08728,278.15237 0 0 1 -2.2049,-221.451186"
     transform="matrix(-2.0904429,0,0,0.99816843,-478.52684,-111.42713)"
     sodipodi:start="2.7177131"
     sodipodi:end="3.5366389"
     sodipodi:open="true" /><text
     xml:space="preserve"
     style="font-size:10px;font-style:normal;font-variant:normal;font-weight:bold;font-stretch:normal;text-indent:0;text-align:start;text-decoration:none;line-height:125%;letter-spacing:0px;word-spacing:0px;text-transform:none;direction:ltr;block-progression:tb;writing-mode:lr-tb;text-anchor:start;baseline-shift:baseline;color:#000000;fill:#ffffff;fill-opacity:1;fill-rule:nonzero;stroke:none;stroke-width:1.24999988px;marker:none;visibility:visible;display:inline;overflow:visible;enable-background:accumulate;font-family:Liberation Sans;-inkscape-font-specification:Liberation Sans Bold"
     x="-48.765591"
     y="214.74371"
     id="text4024"
     sodipodi:linespacing="125%"><tspan
       sodipodi:role="line"
       id="tspan4026"
       x="-48.765591"
       y="214.74371">1</tspan></text>
<text
     xml:space="preserve"
     style="font-size:10px;font-style:normal;font-variant:normal;font-weight:bold;font-stretch:normal;text-indent:0;text-align:start;text-decoration:none;line-height:125%;letter-spacing:0px;word-spacing:0px;text-transform:none;direction:ltr;block-progression:tb;writing-mode:lr-tb;text-anchor:start;baseline-shift:baseline;color:#000000;fill:#ffffff;fill-opacity:1;fill-rule:nonzero;stroke:none;stroke-width:1.24999988px;marker:none;visibility:visible;display:inline;overflow:visible;enable-background:accumulate;font-family:Liberation Sans;-inkscape-font-specification:Liberation Sans Bold"
     x="5.3588562"
     y="214.74371"
     id="text4028"
     sodipodi:linespacing="125%"><tspan
       sodipodi:role="line"
       id="tspan4030"
       x="5.3588562"
       y="214.74371">2</tspan></text>
</svg>