<?xml version="1.0" encoding="UTF-8" standalone="no"?>
<!-- Created with Inkscape (http://www.inkscape.org/) -->

<svg
   xmlns:dc="http://purl.org/dc/elements/1.1/"
   xmlns:cc="http://creativecommons.org/ns#"
   xmlns:rdf="http://www.w3.org/1999/02/22-rdf-syntax-ns#"
   xmlns:svg="http://www.w3.org/2000/svg"
   xmlns="http://www.w3.org/2000/svg"
   xmlns:xlink="http://www.w3.org/1999/xlink"
   xmlns:sodipodi="http://sodipodi.sourceforge.net/DTD/sodipodi-0.dtd"
   xmlns:inkscape="http://www.inkscape.org/namespaces/inkscape"
   width="744.09448819"
   height="1052.3622047"
   id="svg2"
   sodipodi:version="0.32"
   inkscape:version="0.48.4 r9939"
   sodipodi:docname="gravity-probe-b-geodetic.svg"
   inkscape:output_extension="org.inkscape.output.svg.inkscape"
   version="1.1">
  <defs
     id="defs4">
    <marker
       inkscape:stockid="Arrow2Mend"
       orient="auto"
       refY="0.0"
       refX="0.0"
       id="Arrow2Mend"
       style="overflow:visible;">
      <path
         id="path3235"
         style="font-size:12.0;fill-rule:evenodd;stroke-width:0.62500000;stroke-linejoin:round;"
         d="M 8.7185878,4.0337352 L -2.2072895,0.016013256 L 8.7185884,-4.0017078 C 6.9730900,-1.6296469 6.9831476,1.6157441 8.7185878,4.0337352 z "
         transform="scale(0.6) rotate(180) translate(0,0)" />
    </marker>
    <linearGradient
       id="linearGradient3173">
      <stop
         style="stop-color:#ffffff;stop-opacity:1;"
         offset="0"
         id="stop3175" />
      <stop
         id="stop3181"
         offset="0.5"
         style="stop-color:#000000;stop-opacity:1;" />
      <stop
         style="stop-color:#000000;stop-opacity:1;"
         offset="1"
         id="stop3177" />
    </linearGradient>
    <inkscape:perspective
       sodipodi:type="inkscape:persp3d"
       inkscape:vp_x="0 : 526.18109 : 1"
       inkscape:vp_y="0 : 1000 : 0"
       inkscape:vp_z="744.09448 : 526.18109 : 1"
       inkscape:persp3d-origin="372.04724 : 350.78739 : 1"
       id="perspective10" />
    <inkscape:perspective
       id="perspective2427"
       inkscape:persp3d-origin="372.04724 : 350.78739 : 1"
       inkscape:vp_z="744.09448 : 526.18109 : 1"
       inkscape:vp_y="0 : 1000 : 0"
       inkscape:vp_x="0 : 526.18109 : 1"
       sodipodi:type="inkscape:persp3d" />
    <radialGradient
       inkscape:collect="always"
       xlink:href="#linearGradient3173"
       id="radialGradient3066"
       gradientUnits="userSpaceOnUse"
       cx="243.20241"
       cy="514.15546"
       fx="243.20241"
       fy="514.15546"
       r="7.6137986" />
  </defs>
  <sodipodi:namedview
     id="base"
     pagecolor="#ffffff"
     bordercolor="#666666"
     borderopacity="1.0"
     gridtolerance="10000"
     guidetolerance="10"
     objecttolerance="10"
     inkscape:pageopacity="0.0"
     inkscape:pageshadow="2"
     inkscape:zoom="1.5455751"
     inkscape:cx="117.13336"
     inkscape:cy="448.76761"
     inkscape:document-units="px"
     inkscape:current-layer="layer1"
     showgrid="false"
     inkscape:window-width="1278"
     inkscape:window-height="900"
     inkscape:window-x="3"
     inkscape:window-y="4"
     inkscape:window-maximized="0" />
  <metadata
     id="metadata7">
    <rdf:RDF>
      <cc:Work
         rdf:about="">
        <dc:format>image/svg+xml</dc:format>
        <dc:type
           rdf:resource="http://purl.org/dc/dcmitype/StillImage" />
      </cc:Work>
    </rdf:RDF>
  </metadata>
  <g
     inkscape:label="Layer 1"
     inkscape:groupmode="layer"
     id="layer1">
    <rect
       style="fill:#dedede;fill-opacity:1;fill-rule:evenodd;stroke:none;stroke-width:0.875;marker:none;visibility:visible;display:inline;overflow:visible;enable-background:accumulate"
       id="rect4023"
       width="145.28032"
       height="154.84752"
       x="-687.96521"
       y="127.18973"
       transform="matrix(0,-1,1,0,0,0)" />
    <rect
       style="fill:#dedede;fill-opacity:1;fill-rule:evenodd;stroke:none;stroke-width:0.875;marker:none;visibility:visible;display:inline;overflow:visible;enable-background:accumulate"
       id="rect3453"
       width="145.28032"
       height="216.54427"
       x="-688.0238"
       y="-97.562477"
       transform="matrix(0,-1,1,0,0,0)" />
    <g
       id="g3470"
       transform="matrix(0,-1,1,0,-517.35195,728.9606)">
      <path
         transform="matrix(0.3011193,0,0,0.3011193,53.300307,378.16204)"
         d="m 423.23358,535.81146 c 0,77.10354 -62.50477,139.60831 -139.60831,139.60831 -77.10353,0 -139.6083,-62.50477 -139.6083,-139.60831 0,-77.10354 62.50477,-139.6083 139.6083,-139.6083 77.10354,0 139.60831,62.50476 139.60831,139.6083 z"
         sodipodi:ry="139.60831"
         sodipodi:rx="139.60831"
         sodipodi:cy="535.81146"
         sodipodi:cx="283.62527"
         id="path3233"
         style="fill:#ffffff;fill-opacity:1;fill-rule:evenodd;stroke:none;stroke-width:0.90810138;marker:none;visibility:visible;display:inline;overflow:visible;enable-background:accumulate"
         sodipodi:type="arc" />
      <path
         inkscape:connector-curvature="0"
         id="path3205"
         d="m 129.78031,498.48088 c -0.14867,0.0743 -0.29734,0.14867 -0.44602,0.22301 -0.36535,0.18267 -0.58298,0.57025 -1.00354,0.78053 -0.53779,0.26889 -0.62284,0.5181 -1.22655,0.66903 -0.40757,0.10189 -0.87834,0.51938 -1.22655,0.78053 -0.32338,0.24253 -0.96085,0.58126 -1.22655,0.78053 -0.40957,0.30718 -0.77665,0.55558 -1.22656,0.78054 -0.57127,0.28563 -0.98664,0.76363 -1.44956,1.22655 -0.5147,0.51471 -0.62906,0.70059 -0.89203,1.22655 -0.36421,0.72842 -0.0511,0.90714 0.33451,1.00354 0.44983,0.11246 1.65264,-1.18372 2.00708,-1.44956 0.59546,-0.44659 1.38481,-0.6924 2.00709,-1.00354 0.5341,-0.26705 1.31308,-0.4119 1.89558,-0.55752 0.59738,-0.14935 1.03329,-0.44602 1.67257,-0.44602 0.64785,0 1.03183,-0.0212 1.44956,-0.33452 0.47841,-0.35881 0.23889,-0.89998 0.89204,-1.22655 0.56369,-0.28184 1.21591,-0.38494 1.78407,-0.66903 0.70791,-0.35395 1.34306,-0.39401 2.00709,-0.89203 0.45899,-0.34425 1.14772,-0.42631 1.67257,-0.55753 0.70262,-0.17565 0.96793,-0.0178 1.44956,0.22301 0.40071,0.20036 0.89983,-0.44797 1.33806,-0.55752 0.70685,-0.17672 1.08484,-0.27969 1.78407,0 0.56565,0.22626 1.29058,0.1115 1.89558,0.1115 0.43283,0 0.93339,-0.23335 1.33806,-0.33451 0.27461,-0.0687 0.50592,-0.26586 0.78053,-0.33452"
         style="fill:none;stroke:#5f5f5f;stroke-width:0.5025;stroke-linecap:butt;stroke-linejoin:miter;stroke-miterlimit:4;stroke-opacity:1;stroke-dasharray:none;stroke-dashoffset:0;marker:none;visibility:visible;display:inline;overflow:visible;enable-background:accumulate" />
      <path
         inkscape:connector-curvature="0"
         id="path3207"
         d="m 122.97852,501.38 c 0.6649,-0.16622 -1.07644,0.85344 -1.56106,1.33806 -0.36182,0.36181 -0.96353,0.46389 -1.33806,0.55752 -0.38113,0.0953 -0.98457,0.10676 -1.44956,0.22301 -0.4036,0.1009 -0.75423,0.48862 -1.11504,0.66903 -0.51702,0.2585 -0.93189,0.37436 -1.22656,0.66903 -0.0263,0.0263 0,0.0743 0,0.1115 0,0.43843 -0.45368,1.12271 -0.66902,1.33806 -0.0263,0.0263 0,0.0743 0,0.1115 0,0.16175 -1.05083,0.87175 -1.22655,1.00355 -0.41044,0.30782 -0.5428,0.54279 -0.89204,0.89203 -0.42201,0.42201 -0.5388,0.59412 -0.66903,1.11505 -0.0981,0.39258 -0.59373,0.67808 -1.00354,0.78053 -0.41533,0.10383 -0.71009,0.0205 -1.11505,0.22301 -0.45594,0.22797 -0.69328,0.60603 -0.89204,1.00354 -0.14796,0.29593 -0.52012,0.74313 -0.78053,1.00355 -0.36127,0.36126 -0.50517,0.95119 -0.78053,1.22655 -0.22138,0.22137 -1.03267,0.1115 -1.44956,0.1115 -0.33487,0 -0.95711,0.7341 -1.22656,1.00354 -0.38392,0.38392 -0.62233,0.73384 -1.00354,1.11505 -0.43647,0.43647 -0.71775,0.94076 -1.00354,1.22655 -0.36788,0.36788 -0.54507,0.54507 -0.78054,0.78054"
         style="fill:none;stroke:#5f5f5f;stroke-width:0.5025;stroke-linecap:butt;stroke-linejoin:miter;stroke-miterlimit:4;stroke-opacity:1;stroke-dasharray:none;stroke-dashoffset:0;marker:none;visibility:visible;display:inline;overflow:visible;enable-background:accumulate" />
      <path
         inkscape:connector-curvature="0"
         id="path3209"
         d="m 111.60505,511.30392 c -0.50034,0.50033 -0.97203,-0.063 -1.44956,0.89203 -0.36514,0.73027 -0.17275,0.92266 0.55752,0.55753 0.50526,-0.25263 0.88185,-0.32432 1.22655,-0.66903 0.0263,-0.0263 0.0743,0 0.11151,0 0.50017,0 0.55752,-0.72346 0.55752,-0.89204 0,-0.68391 -1.74274,0.18167 -1.89558,0.33452"
         style="fill:none;stroke:#5f5f5f;stroke-width:0.5025;stroke-linecap:butt;stroke-linejoin:miter;stroke-miterlimit:4;stroke-opacity:1;stroke-dasharray:none;stroke-dashoffset:0;marker:none;visibility:visible;display:inline;overflow:visible;enable-background:accumulate" />
      <path
         inkscape:connector-curvature="0"
         id="path3211"
         d="m 97.44395,536.83849 c 0,0 0,0 0,0 z"
         style="fill:none;stroke:#5f5f5f;stroke-width:0.5025;stroke-linecap:butt;stroke-linejoin:miter;stroke-miterlimit:4;stroke-opacity:1;stroke-dasharray:none;stroke-dashoffset:0;marker:none;visibility:visible;display:inline;overflow:visible;enable-background:accumulate" />
      <path
         inkscape:connector-curvature="0"
         id="path3213"
         d="m 96.886428,536.95 c 0,-0.63513 0.514984,1.16791 0.669028,1.78407 0.133399,0.5336 0.223008,0.87119 0.223008,1.44957 0,0.55932 0.0033,1.01663 0.111506,1.44955 0.156178,0.62472 0.02745,0.80799 0.446015,1.22656 0.248763,0.24876 0.425821,0.76033 0.669034,1.00354 0.298908,0.29891 0.480069,0.73713 0.669028,1.11505 0.314281,0.62856 0.499443,0.88276 0.669023,1.56106 0.16296,0.65182 0.28985,1.27089 0.44602,1.89558 0.14237,0.56945 0.32173,1.06389 0.44602,1.56107 0.15235,0.6094 0.29755,1.19021 0.44602,1.78407 0.11678,0.46712 0.47327,1.0308 0.89204,1.44957 0.34446,0.34445 0.68203,0.58353 0.89204,1.00353 0.21355,0.42712 1.00102,0.86228 1.33805,1.11505 0.47595,0.35696 0.60646,0.60646 1.00354,1.00355 0.33965,0.33964 0.69651,0.80801 1.11505,1.22655 0.4507,0.45069 0.6565,0.64398 0.89204,1.11504 0.0166,0.0333 0,0.0743 0,0.11151 0,0.23897 0.45927,1.05657 0.55752,1.44956 0.12999,0.51997 0.11151,1.09174 0.11151,1.67257 0,0.34318 -0.47542,0.92144 -0.66903,1.11505 -0.4321,0.43209 0.13449,1.18286 0.33451,1.44956 0.39154,0.52205 0.40433,0.94826 0.55752,1.56106 0.15022,0.60088 0.33452,1.01121 0.33452,1.67257 0,0.75078 -0.0678,1.04729 -0.55752,0.55753 -0.49725,-0.49725 -0.80613,-0.83171 -0.33452,0.1115 0.0166,0.0332 0,0.0743 0,0.11151 0,0.27607 0.86654,1.06404 1.00354,1.33805"
         style="fill:none;stroke:#5f5f5f;stroke-width:0.5025;stroke-linecap:butt;stroke-linejoin:miter;stroke-miterlimit:4;stroke-opacity:1;stroke-dasharray:none;stroke-dashoffset:0;marker:none;visibility:visible;display:inline;overflow:visible;enable-background:accumulate" />
      <path
         inkscape:connector-curvature="0"
         id="path3215"
         d="m 148.84762,578.87576 c -0.0986,-0.19713 -0.24859,-0.62879 -0.44602,-0.89203 -0.26433,-0.35244 -0.76922,-0.62376 -0.89204,-1.11505 -0.1038,-0.41517 -0.21719,-0.98027 -0.33451,-1.44956 -0.11503,-0.46012 -0.31749,-0.93543 -0.44602,-1.44956 -0.12546,-0.50183 -0.33452,-0.98229 -0.33452,-1.44956 0,-0.55808 0,-1.08401 0,-1.56107 0,-0.59413 0.0526,-0.93146 0.44602,-1.22655 0.22265,-0.16699 1.22655,-0.55686 1.22655,-0.89204 0,-0.57043 -0.10254,-0.87411 -0.33451,-1.33805 -0.19015,-0.38032 -0.20997,-0.95137 -0.33452,-1.44957 -0.11979,-0.47918 -0.22984,-0.80789 -0.33451,-1.22655 -0.14119,-0.56478 -0.38691,-0.88532 -0.66903,-1.44956 -0.25017,-0.50033 -0.59446,-0.60677 -0.89203,-1.00354 -0.40483,-0.53977 -0.73636,-0.62485 -1.11505,-1.00354 -0.29902,-0.29902 -0.67348,-0.5353 -0.55753,-1.11505 0.11204,-0.56019 0.12271,-0.94806 0.22301,-1.44956 0.10974,-0.54868 0.20645,-1.04881 0.33452,-1.56107 0.15573,-0.62293 0.0461,-0.71326 -0.66903,-0.89203 -0.42604,-0.10651 -0.94822,-0.22301 -1.56106,-0.22301 -0.38717,0 -1.10241,0.45866 -1.44957,0.1115 -0.25532,-0.25532 -0.67719,-0.56569 -1.00354,-0.89204 -0.39802,-0.39801 -0.57236,-0.44602 -1.33805,-0.44602 -0.58705,0 -0.95802,-0.1115 -1.44957,-0.1115 -0.39679,0 -1.15536,0.0403 -1.44956,0.33451 -0.3408,0.3408 -0.45595,0.39524 -1.00354,0.66903 -0.68492,0.34246 -0.47891,0.14953 -1.22655,0 -0.43113,-0.0862 -1.00585,-0.52907 -1.33806,-0.44602 -0.45189,0.11298 -1.1865,0.22301 -1.67257,0.22301 -0.59444,0 -0.96673,0.33452 -1.56106,0.33452 -0.56711,0 -0.99968,-0.21527 -1.22656,-0.66904 -0.16169,-0.32338 -0.57669,-0.76702 -0.89203,-1.00354 -0.30966,-0.23223 -0.97633,-0.71117 -1.33806,-0.89203 -0.46873,-0.23437 -0.94893,-0.61442 -1.33806,-1.00354 -0.42557,-0.42558 -0.65344,-0.65345 -1.11504,-1.11505 -0.43053,-0.43053 -0.66588,-0.66587 -1.11505,-1.11505 -0.40463,-0.40463 -0.84769,-0.73618 -1.22655,-1.11504 -0.34555,-0.34555 -0.78053,-0.76463 -0.78053,-1.44957 0,-0.53201 -0.12879,-1.26896 0,-1.78407 0.0906,-0.36245 0.21839,-0.98508 0.33451,-1.44956 0.13736,-0.54945 0.45493,-0.92768 0.55752,-1.33806 0.0857,-0.34292 0.65878,-1.04455 0.55753,-1.44956 -0.13707,-0.54824 -0.31564,-0.81651 -0.44602,-1.33805 -0.13538,-0.54151 -0.39278,-1.03736 0,-1.56107 0.29347,-0.3913 0.66624,-0.88647 0.89204,-1.33806 0.21471,-0.42944 0.73237,-1.088 1.00354,-1.44956 0.22511,-0.30015 0.43022,-0.86044 0.66903,-1.33806 0.21892,-0.43784 0.50998,-0.73299 0.89204,-1.11505 0.32511,-0.32511 0.58612,-0.46031 1.00353,-0.66902 0.41847,-0.20923 0.76684,-0.43574 1.22656,-0.78053 0.51315,-0.38487 1.00354,-0.62808 1.00354,-1.33806 0,-0.4519 0.0338,-1.26039 0.33451,-1.56107 0.29128,-0.29128 0.62594,-0.81474 1.00355,-1.00354 0.15814,-0.0791 1.33875,-0.22371 1.44956,-0.33451 0.16917,-0.16917 1.22655,-1.47838 1.22655,-1.67257 -0.56613,0 1.01184,0.53172 1.56107,0.66903 0.3916,0.0979 0.94317,-0.0151 1.44955,0.1115 0.47193,0.11798 0.82028,0.35246 1.33806,0.22301 0.308,-0.077 0.83246,-0.60945 1.00355,-0.78053 0.4919,-0.4919 0.59857,-0.73505 1.22655,-0.89204 0.36199,-0.0905 0.84441,0.33451 1.33805,0.33451 0.44642,0 1.00397,-1.1e-4 1.44956,-0.1115 0.50369,-0.12592 1.04621,-0.2058 1.56107,-0.33452 0.54321,-0.1358 1.00319,-0.30672 1.33805,-0.223 0.40286,0.10071 0.55752,0.74519 0.55752,1.22655 0,0.68135 0.24217,0.90554 -0.33451,1.33806 -0.52948,0.39711 0.3348,0.61341 0.66903,0.78053 0.56153,0.28076 1.11797,0.44602 1.78408,0.44602 0.16522,0 1.09508,0.58041 1.44956,0.66902 0.2888,0.0722 0.88764,1.10625 1.00354,1.33806 0.2106,0.42119 1.00799,0.33562 1.44956,0.44602 0.41134,0.10283 1.26802,-0.12187 1.67257,-0.22301 0.75302,-0.18825 0.94079,-0.19501 1.11505,-0.89204 0.13093,-0.52371 -0.11151,-0.97926 -0.11151,-1.56106 0,-0.3602 0.82837,-0.44602 1.22656,-0.44602 0.54658,0 0.96759,0.43703 1.44956,0.55752 0.54453,0.13614 0.76234,0.4136 1.33805,0.55752 0.51947,0.12987 1.03903,0.31551 1.56107,0.44602 0.39065,0.0977 0.9382,-0.11151 1.44956,-0.11151 0.46723,0 0.33452,0.76794 0.33452,1.22656 0,0.40729 0.21428,1.08015 0.223,1.11505 0.12749,0.50994 0.22301,-1.03543 0.22301,-1.56107 0,-0.33315 0.30705,-1.06011 0.44602,-1.33806 0.22411,-0.44821 0.1115,0.86821 0.1115,1.00355 0,0.54845 0.49469,0.71769 0.78054,1.00354 0.27638,0.27638 0.57199,0.795 0.89204,1.11505 0.3428,0.3428 0.20671,0.87574 0.55752,1.22654 0.32617,0.32618 0.53138,0.8659 0.89203,1.22656 0.47913,0.47912 0.50311,0.72612 0.89205,1.11505 0.27414,0.27414 0.65407,0.86214 0.89204,1.33805 0.0236,0.0472 0.36338,0.0908 0.44601,0.11151 0.0743,0.14867 0.14867,0.29734 0.22301,0.44602 0.22978,0.45956 0.12237,0.91378 0.33452,1.33806 0.0166,0.0332 0,0.0743 0,0.1115 0,0.34852 0.67079,1.00531 0.78053,1.11505 0.39941,0.39941 0.52423,0.75887 0.66903,1.33805 0.14471,0.57886 0.16625,0.6964 0.78053,1.00354 0.47863,0.23932 0.72021,0.16269 1.11505,0.55753 0.24544,0.24544 0.4149,1.05281 0.55752,1.33805 0.2529,0.50582 0.48517,0.53944 1.00354,0.66903 0.56065,0.14016 0.82968,-0.0246 1.22655,-0.22301 0.46697,-0.23348 0.92866,-0.34367 1.33806,-0.44602 0.46302,-0.11575 0.63379,-0.63379 1.00354,-1.00354 0.29147,-0.29147 -0.20475,0.63251 -0.33451,0.89204 -0.25542,0.51083 -0.31449,1.14646 -0.44602,1.67257 -0.12156,0.48623 0,1.1684 0,1.67257 0,0.49667 -0.22301,0.97735 -0.22301,1.44956 0,0.40933 -0.39995,1.13442 -0.55752,1.44956 -0.2967,0.59339 -0.51531,1.07284 -0.89204,1.44956 -0.42059,0.42059 -0.75505,0.75504 -1.22656,1.22656 -0.42097,0.42097 -0.54176,0.63751 -0.78052,1.11504 -0.25014,0.50028 -0.77806,1.00107 -1.11505,1.33806 -0.34222,0.34222 -0.44699,0.67095 -0.66903,1.11504 -0.22911,0.45821 -0.41241,0.82483 -0.66903,1.33806 -0.24663,0.49327 -0.41498,0.60696 -0.66903,1.11505 -0.2627,0.5254 -0.55752,0.74857 -0.55752,1.44956 0,0.5521 0.44475,0.88696 0.55752,1.33806 0.13408,0.53631 0.11611,0.98512 0,1.44955 -0.12054,0.4822 -0.19517,1.0037 -0.33451,1.56107 -0.14102,0.56407 -0.41253,0.75809 -0.55752,1.33806 -0.10349,0.41394 -0.75802,0.86953 -1.11505,1.22655 -0.39843,0.39843 -0.81783,0.697 -1.22655,1.00354 -0.39757,0.29817 -0.69773,0.69773 -1.00355,1.00355 -0.32796,0.32796 -0.50985,0.73286 -0.78053,1.00354 -0.36442,0.36443 -0.50025,0.66599 -0.78053,1.22655 -0.19382,0.38764 -0.77439,0.77439 -1.11505,1.11505 -0.3551,0.3551 -0.98042,0.6459 -1.33805,1.00354 -0.41227,0.41226 -1.05397,0.92986 -1.44957,1.22655 -0.43612,0.3271 -0.97526,0.75226 -1.33805,1.11505 -0.42871,0.42871 -0.93826,0.73156 -1.44956,1.11504 -0.59517,0.44638 -1.40135,0.58917 -2.00709,0.89204 -0.43604,0.21802 -1.12302,0.0816 -1.44956,0 -0.47909,-0.11977 -1.16219,0.19083 -1.44956,0.33451 -0.49441,0.2472 -0.45292,0.55752 -1.22655,0.55752 -0.29734,0 -0.0818,0.0223 -0.55752,-0.33451 z"
         style="fill:none;stroke:#5f5f5f;stroke-width:0.5025;stroke-linecap:butt;stroke-linejoin:miter;stroke-miterlimit:4;stroke-opacity:1;stroke-dasharray:none;stroke-dashoffset:0;marker:none;visibility:visible;display:inline;overflow:visible;enable-background:accumulate" />
      <path
         inkscape:connector-curvature="0"
         id="path3217"
         d="m 172.1521,563.0421 c -0.23354,0 -1.09104,1.10304 -1.33806,1.22655 -0.20125,0.10063 -0.77988,0.72429 -1.00354,0.89204 -0.55365,0.41523 -0.70834,0.0457 -0.89204,0.78053 -0.11202,0.44809 -0.38513,0.77026 -0.55752,1.11505 -0.26222,0.52442 -0.52628,0.71803 -0.78054,1.22655 -0.33627,0.67254 -0.55752,0.52047 -0.55752,1.11504 0,0.18992 1.30412,-0.53207 1.33806,-0.55752 0.41528,-0.31146 0.67151,-0.67151 1.00354,-1.00354 0.33321,-0.33321 0.6003,-0.94908 0.89204,-1.33806 0.30407,-0.40543 0.48097,-0.81549 0.89204,-1.22655 0.23456,-0.23457 0.4839,-0.86821 0.66902,-1.11504 0.24875,-0.33166 0.33452,-0.70336 0.33452,-1.11505 z"
         style="fill:none;stroke:#5f5f5f;stroke-width:0.5025;stroke-linecap:butt;stroke-linejoin:miter;stroke-miterlimit:4;stroke-opacity:1;stroke-dasharray:none;stroke-dashoffset:0;marker:none;visibility:visible;display:inline;overflow:visible;enable-background:accumulate" />
      <path
         inkscape:connector-curvature="0"
         id="path3219"
         d="m 162.89721,531.70928 c 0.33415,-0.44554 -0.41866,-1.97972 0.55752,-1.00354 0.3859,0.3859 0.58238,0.81367 0.89203,1.22655 0.31494,0.41991 0.63034,0.84045 1.00355,1.33805 0.36944,0.49258 0.55766,0.78082 0.78054,1.22655 0.16107,0.32216 0.62295,0.64477 0.89203,1.00355 0.38037,0.50716 0.58127,0.99804 1.00354,1.56106 0.3656,0.48746 0.66274,0.88574 1.00355,1.22655 0.37205,0.37207 0.63251,0.4845 0.89204,1.00355 0.28321,0.56643 0.44601,0.86031 0.44601,1.56106 0,0.47287 0.28922,1.13597 0.44602,1.44956 0.22484,0.44968 0.41792,0.86395 0.78053,1.22656 0.37965,0.37964 0.92932,-0.70631 1.22656,-1.00355 0.42668,-0.42668 0.69249,-0.60445 1.00354,-1.22655 0.2118,-0.4236 0.37036,-0.93983 0.66903,-1.33806 0.37282,-0.49709 0.61328,-0.7062 1.00354,-1.22655 0.26844,-0.35792 0.67986,-0.56835 1.00354,-0.89204 0.34171,-0.3417 0.44602,-0.71218 0.44602,-1.33805 0,-0.47706 0,-1.003 0,-1.56107 0,-0.57727 0.1115,-1.06623 0.1115,-1.67257 0,-0.70588 0.26771,-0.81393 -0.33451,-1.11504 -0.49512,-0.24757 -0.65865,-0.42525 -0.89204,-0.89204 -0.0166,-0.0332 0,-0.0743 0,-0.11151 0,-0.72782 -0.80977,0.47527 -0.89203,0.55753 -0.3834,0.38339 -0.87681,0.33451 -1.22656,0.33451 -0.37168,0 -0.40621,-0.62922 -0.66903,-0.89204 -0.1342,-0.1342 -0.37396,0.62273 -0.66902,-0.55752 -0.11653,-0.46612 -0.4689,-0.80341 -0.78054,-1.11505 -0.37332,-0.37332 -0.73672,-0.84823 -1.00354,-1.11504 -0.62784,-0.62784 0.15092,-0.81658 0.66903,-0.55753 0.59175,0.29588 0.86264,0.86264 1.22655,1.22655 0.47442,0.47442 0.7115,0.69026 1.11504,0.89204 0.6092,0.3046 0.9358,-0.26676 1.11505,-0.44602 0.38817,-0.38817 0.53553,-0.28976 1.11505,0 0.66776,0.33388 0.65606,0.38898 1.11505,-0.22301 0.37904,-0.50538 0.67063,-0.47349 1.22655,-0.33451 0.41269,0.10317 0.66393,0.64865 0.78053,1.11505 0,0 0,0 0,0"
         style="fill:none;stroke:#5f5f5f;stroke-width:0.5025;stroke-linecap:butt;stroke-linejoin:miter;stroke-miterlimit:4;stroke-opacity:1;stroke-dasharray:none;stroke-dashoffset:0;marker:none;visibility:visible;display:inline;overflow:visible;enable-background:accumulate" />
      <path
         inkscape:connector-curvature="0"
         id="path3221"
         d="m 161.78216,528.36414 c 0.19041,0.76163 1.11505,-0.45393 1.11505,-0.89204 0,-0.59389 0.22301,-0.96717 0.22301,-1.56107 0,-0.45735 -0.2177,-0.98228 -0.33452,-1.44956 -0.0962,-0.38471 -0.79338,-0.95421 -1.11504,-1.11504 -0.27668,-0.13834 -0.65397,0.58163 -1.00355,0.66902 -0.53841,0.13461 -1.10958,-0.24952 -1.44956,-0.33451 -0.58057,-0.14515 -1.06305,0.12826 -1.33805,0.33451 -0.33205,0.24904 -0.73155,0.31889 -1.11505,0.22301 -0.14965,-0.0374 -0.69644,-1.03096 -0.89204,-1.22655 -0.44614,-0.44613 -0.65567,-0.7271 -0.78053,-1.22655 -0.12907,-0.51628 0.97357,-0.43104 1.44956,-0.66903 0.48693,-0.24346 0.48224,-0.44602 1.22655,-0.44602 0.64887,0 0.95035,0.11151 1.56107,0.11151 0.68632,0 1.06788,-0.0483 1.44956,-0.33452 0.37075,-0.27806 0.97437,-0.21571 1.44956,-0.33451 0.47882,-0.1197 0.89355,-0.45208 1.00354,-0.89204 0.0874,-0.34951 -0.4033,-1.25262 -0.55752,-1.56107 -0.31065,-0.62128 -0.63964,-0.7453 -1.22655,-0.89203 -0.27891,-0.0697 -1.03349,0.40523 -1.33806,0.55752 -0.4843,0.24215 -1.09089,0.0678 -1.44956,-0.1115 -0.64299,-0.3215 -0.622,-0.82453 -1.33806,-1.00354 -0.63994,-0.15999 -0.96339,-0.0402 -1.33805,0.33451 -0.41297,0.41297 -0.56125,0.56498 -0.78054,1.00354 -0.16824,0.33649 -0.22301,0.92991 -0.22301,1.33806 0,0.65554 0.17983,1.02867 0.44602,1.56106 0.32115,0.6423 -0.29949,0.66028 -0.78053,0.78054 -0.30472,0.0762 -0.71953,-0.44602 -1.22655,-0.44602 -0.42031,0 -0.96597,0.70538 -1.11505,1.00354 -0.16951,0.33903 0.31494,0.74732 0.22301,1.11505 -0.0816,0.32652 0.67702,-0.19314 1.00354,-0.11151 0.48378,0.12095 -0.44601,0.89204 -0.66903,1.33806 -0.27633,0.55266 -0.73985,0.72025 -0.89203,0.1115 -0.18177,-0.72705 0.57728,-0.53776 0,-1.11504 -0.30203,-0.30203 -0.71798,-0.49498 -1.00354,-0.78054 -0.36161,-0.3616 -0.55753,-0.87041 -0.55753,-1.33805 0,-0.64713 -0.23836,-0.868 -0.78053,-1.00354 -0.43187,-0.10797 -0.88338,-0.22085 -1.33806,-0.33452 -0.45291,-0.11323 -0.75951,-0.425 -1.11504,-0.78053 -0.33191,-0.3319 -0.34833,-0.80817 -0.55753,-1.22656 -0.23198,-0.46396 -0.39255,-0.57088 -0.89204,-0.44601 -0.48691,0.12172 -0.89203,0.45365 -0.89203,1.00354 0,0.58721 0.25263,0.95129 0.44602,1.33806 0.0166,0.0332 0,0.0743 0,0.1115 0,0.3561 0.74082,0.85233 0.89203,1.00354 0.37819,0.37819 0.83447,0.33452 1.44956,0.33452 0.60489,0 0.91905,-0.15376 1.44957,0.1115 0.64557,0.32279 -0.37347,0.96727 -0.44603,1.00355 -0.48874,0.24436 -0.43199,0.028 0,0.89203 0.40993,0.81985 -0.63351,0.51952 -0.78053,0.44602 -0.12272,-0.0614 -0.27426,-1.20857 -0.33451,-1.44956 -0.0991,-0.39623 -0.81151,-0.44602 -1.22655,-0.44602 -0.37125,0 -0.99185,-0.60743 -1.33806,-0.78053 -0.27528,-0.13764 -0.68024,-0.91447 -0.78054,-1.11505 -0.30195,-0.60393 -0.4486,-0.89204 -1.11504,-0.89204 -0.41948,0 -1.01287,0.39494 -1.33805,0.55753 -0.55195,0.27597 -0.88241,0.33451 -1.56107,0.33451 -0.61639,0 -0.86799,-0.29078 -1.44956,0 -0.37988,0.18994 -0.62669,0.73819 -0.89204,1.00354 -0.34395,0.34395 -0.50292,0.69748 -0.89204,0.89204 -0.42487,0.21244 -0.81506,0.60356 -1.11504,1.00354 -0.35448,0.47264 -0.0885,1.02287 -0.22301,1.56107 -0.0715,0.286 -0.58143,0.58143 -0.78054,0.78053 -0.18434,0.18435 -0.86051,0.38238 -1.11504,0.44602 -0.53207,0.13302 -0.90041,0.33661 -1.33806,0.44601 -0.48573,0.12144 -1.02553,-0.48998 -1.22655,-0.89203 -0.23889,-0.47777 -1.24451,0.23199 -1.44956,0.33451 -0.60729,0.30365 -0.55752,0.29949 -0.55752,-0.55752 0,-0.59205 0.0203,-1.07441 -0.22302,-1.56106 -0.24573,-0.49149 0.3139,-1.18532 0.44602,-1.44956 0.17082,-0.34164 0.26786,-1.18292 0.33452,-1.44957 0.139,-0.55602 0.54993,-0.78242 1.00354,-0.66902 0.52012,0.13003 0.95697,0.1115 1.56107,0.1115 0.65163,0 1.02832,-0.1177 1.44956,-0.22301 0.58206,-0.14551 1.10629,-0.33013 1.56106,-0.55752 0.38933,-0.19467 0.55753,-0.99955 0.55753,-1.44956 0,-0.45454 -0.59175,-0.97484 -0.78054,-1.22655 -0.28389,-0.37852 -0.55752,-0.37962 -0.55752,-0.89204 0,-0.0199 1.27229,-0.4017 1.44956,-0.44602 0.46403,-0.11601 0.80034,-0.70864 1.00354,-1.11505 0.18524,-0.37048 0.21506,-0.91859 0.44602,-1.22655 0.14523,-0.19364 0.95222,-0.53186 1.22655,-0.66903 0.45412,-0.22706 0.86989,-0.31236 1.22655,-0.66903 0.37848,-0.37847 0.7017,-0.73436 0.89204,-1.11504 0.26478,-0.52957 0.38353,-0.86079 0.89204,-1.11505 0.63043,-0.31522 1.09418,0.20214 1.33806,0.44602 0.26413,0.26413 -0.2021,0.75266 -0.11151,1.11505 0.0764,0.30572 1.01029,0.36407 1.33805,0.44601 0.32547,0.0814 1.21909,-0.27689 1.44957,-0.33451 0.51969,-0.12992 1.00669,-0.61485 1.56107,-0.89204 0.51739,-0.2587 -0.1094,-0.88781 -0.22302,-1.11504 -0.27103,-0.54208 -0.31823,-0.93845 -0.44601,-1.44957 -0.11614,-0.46456 -0.13907,-1.11375 -0.22301,-1.44955 -0.19664,-0.78657 -0.92032,0.27957 -1.00354,0.44601 -0.22702,0.45404 -0.33452,0.75743 -0.33452,1.33806 0,0.49861 -0.20747,1.08396 -0.33451,1.33805 -0.30117,0.60234 -1.13981,-0.16102 -1.22655,-0.33451 -0.25582,-0.51163 -0.11191,-0.72488 -0.78054,-0.89204 -0.35237,-0.0881 -1.221,0.44325 -1.44956,0.55753 -0.60288,0.30144 -0.94961,-0.56117 -1.11505,-0.89204 -0.27447,-0.54896 0.44408,-1.08571 0.78054,-1.33806 0.46485,-0.34864 0.85924,-0.99698 1.11504,-1.33806 0.34024,-0.45364 0.41047,-0.86132 0.55753,-1.44955 0.15351,-0.61407 0.12221,-1.01425 0.55752,-1.44957 0.35899,-0.35899 0.86233,-0.59842 1.22655,-0.78053 0.29522,-0.14761 0.75748,-0.71325 1.11505,-0.89204 0.56193,-0.28096 0.8112,-0.44602 1.44956,-0.44602 0.63803,0 0.90324,0.45723 1.33806,0.89204 0.51993,0.51993 0.87566,0.61004 1.33805,1.22655 0.38077,0.5077 0.48025,0.86663 0.33452,1.44957 -0.12584,0.50333 -0.22036,0.56017 0.22301,1.00354 0.42729,0.42729 1.02302,0.15751 1.33805,0 0.44123,-0.22062 0.33451,-1.12061 0.33451,-1.56107 0,-0.65811 0.39523,-0.95274 0.44603,-1.00354 0.37815,-0.37815 0.92507,-0.22301 -0.11151,-0.22301"
         style="fill:none;stroke:#5f5f5f;stroke-width:0.5025;stroke-linecap:butt;stroke-linejoin:miter;stroke-miterlimit:4;stroke-opacity:1;stroke-dasharray:none;stroke-dashoffset:0;marker:none;visibility:visible;display:inline;overflow:visible;enable-background:accumulate" />
      <path
         inkscape:connector-curvature="0"
         id="path3223"
         d="m 133.34846,510.52339 c 0.40032,-0.40032 -0.41584,1.0547 -0.66903,1.56106 -0.16619,0.33238 -0.86743,0.35624 -1.22655,0.44602 -0.62627,0.15657 0.4185,-1.19903 0.44602,-1.22655 0.44293,-0.44293 0.85815,-0.42569 1.44956,-0.78053 z"
         style="fill:none;stroke:#5f5f5f;stroke-width:0.5025;stroke-linecap:butt;stroke-linejoin:miter;stroke-miterlimit:4;stroke-opacity:1;stroke-dasharray:none;stroke-dashoffset:0;marker:none;visibility:visible;display:inline;overflow:visible;enable-background:accumulate" />
      <path
         inkscape:connector-curvature="0"
         id="path3225"
         d="m 134.352,509.29683 c 0.42379,-0.42378 0.22302,1.18476 0.22302,1.78408 0,0.63773 -0.10071,0.84884 -0.22302,1.33806 -0.0781,0.31239 -0.46135,0.73037 -0.55752,1.11504 -0.11762,0.47047 1.12717,0.22301 1.33806,0.22301 0.45662,0 1.08002,-0.2055 1.33805,-0.33451 0.34255,-0.17127 0.4874,-1.04492 0.66903,-1.22656 0.43882,-0.43881 -0.18931,-0.70793 -0.55752,-0.89203 -0.4776,-0.2388 -0.67804,-0.56654 -1.00354,-0.89204 -0.25775,-0.25775 -0.11151,-0.71621 -0.11151,-1.22655 0,-0.31974 -0.47034,-0.47998 -0.78053,-0.55752 -0.52938,-0.13235 -0.41749,0.25413 -0.33452,0.66902 z"
         style="fill:none;stroke:#5f5f5f;stroke-width:0.5025;stroke-linecap:butt;stroke-linejoin:miter;stroke-miterlimit:4;stroke-opacity:1;stroke-dasharray:none;stroke-dashoffset:0;marker:none;visibility:visible;display:inline;overflow:visible;enable-background:accumulate" />
      <path
         inkscape:connector-curvature="0"
         id="path3227"
         d="m 131.11837,504.83665 c -0.001,-3.4e-4 0.71839,-0.89204 -0.33451,-0.89204 -0.6594,0 -0.53373,0.1115 -1.11505,0.1115 -0.80877,0 0.51062,0.70133 0.66903,0.78054 0.79116,0.39558 0.56177,0.5469 0.78053,0 z"
         style="fill:none;stroke:#5f5f5f;stroke-width:0.5025;stroke-linecap:butt;stroke-linejoin:miter;stroke-miterlimit:4;stroke-opacity:1;stroke-dasharray:none;stroke-dashoffset:0;marker:none;visibility:visible;display:inline;overflow:visible;enable-background:accumulate" />
      <path
         inkscape:connector-curvature="0"
         id="path3229"
         d="m 142.49185,521.89686 c 0.064,0.032 -0.68429,1.68783 0.33451,0.66903 0.17631,-0.1763 -0.22301,-0.44601 -0.33451,-0.66903 z"
         style="fill:none;stroke:#5f5f5f;stroke-width:0.5025;stroke-linecap:butt;stroke-linejoin:miter;stroke-miterlimit:4;stroke-opacity:1;stroke-dasharray:none;stroke-dashoffset:0;marker:none;visibility:visible;display:inline;overflow:visible;enable-background:accumulate" />
      <path
         inkscape:connector-curvature="0"
         id="path3231"
         d="m 147.73257,524.23846 c 0.42133,-0.42133 -1.20601,-0.033 -1.78407,0.11151 -0.0478,0.0119 1.0637,0.64336 1.11504,0.66903 0.25812,0.12905 0.59022,-0.58352 0.66903,-0.78054 z"
         style="fill:none;stroke:#5f5f5f;stroke-width:0.5025;stroke-linecap:butt;stroke-linejoin:miter;stroke-miterlimit:4;stroke-opacity:1;stroke-dasharray:none;stroke-dashoffset:0;marker:none;visibility:visible;display:inline;overflow:visible;enable-background:accumulate" />
    </g>
    <path
       sodipodi:type="arc"
       style="fill:none;stroke:#000000;stroke-opacity:1"
       id="path3183"
       sodipodi:cx="153.44705"
       sodipodi:cy="566.40009"
       sodipodi:rx="69.343582"
       sodipodi:ry="104.99009"
       d="M 85.490499,587.29402 A 69.343582,104.99009 0 0 1 112.96615,481.15685"
       transform="matrix(0,-1,1,0,-544.18355,743.7736)"
       sodipodi:start="2.9412464"
       sodipodi:end="4.0890211"
       sodipodi:open="true" />
    <path
       sodipodi:type="arc"
       style="fill:none;stroke:#000000;stroke-width:1;stroke-miterlimit:4;stroke-opacity:1;stroke-dasharray:4, 4;stroke-dashoffset:0"
       id="path3185"
       sodipodi:cx="153.44705"
       sodipodi:cy="566.40009"
       sodipodi:rx="69.343582"
       sodipodi:ry="104.99009"
       d="M 125.28488,662.34186 A 69.343582,104.99009 0 0 1 85.380385,586.45555"
       transform="matrix(0,-1,1,0,-544.24682,743.64421)"
       sodipodi:start="1.9890061"
       sodipodi:end="2.949389"
       sodipodi:open="true" />
    <path
       sodipodi:type="arc"
       style="fill:none;stroke:#000000;stroke-width:1;stroke-miterlimit:4;stroke-opacity:1;stroke-dasharray:4, 4;stroke-dashoffset:0"
       id="path3193"
       sodipodi:cx="153.44705"
       sodipodi:cy="566.40009"
       sodipodi:rx="69.343582"
       sodipodi:ry="104.99009"
       d="m 116.4376,477.61346 a 69.343582,104.99009 0 0 1 83.21116,10.49462"
       transform="matrix(0,-1,1,0,-545.36615,744.3257)"
       sodipodi:start="4.1494059"
       sodipodi:end="5.4415876"
       sodipodi:open="true" />
    <path
       sodipodi:type="arc"
       style="fill:none;stroke:#000000;stroke-width:1;stroke-miterlimit:4;stroke-opacity:1;stroke-dasharray:4, 4;stroke-dashoffset:0"
       id="path3195"
       sodipodi:cx="153.44705"
       sodipodi:cy="566.40009"
       sodipodi:rx="69.343582"
       sodipodi:ry="104.99009"
       d="m 197.48144,647.5047 a 69.343582,104.99009 0 0 1 -15.90788,14.86115"
       transform="matrix(0,-1,1,0,-544.6397,743.59924)"
       sodipodi:start="0.88276521"
       sodipodi:end="1.1531494"
       sodipodi:open="true" />
    <path
       sodipodi:type="arc"
       style="fill:none;stroke:#000000;stroke-width:0.875;stroke-miterlimit:4;stroke-opacity:1;stroke-dasharray:none;stroke-dashoffset:0"
       id="path3993"
       sodipodi:cx="70.061554"
       sodipodi:cy="553.0144"
       sodipodi:rx="9.7661562"
       sodipodi:ry="9.7661562"
       d="m 79.82771,553.0144 a 9.7661562,9.7661562 0 1 1 -19.532312,0 9.7661562,9.7661562 0 1 1 19.532312,0 z"
       transform="matrix(0,-1,1,0,-510.46146,728.17826)" />
    <path
       sodipodi:type="arc"
       style="fill:none;stroke:#000000;stroke-width:0.875;stroke-miterlimit:4;stroke-opacity:1;stroke-dasharray:none;stroke-dashoffset:0"
       id="path3995"
       sodipodi:cx="112.7354"
       sodipodi:cy="712.45752"
       sodipodi:rx="69.000015"
       sodipodi:ry="69.000015"
       d="m 181.73541,712.45752 a 69.000015,69.000015 0 1 1 -138.000028,0 69.000015,69.000015 0 1 1 138.000028,0 z"
       transform="matrix(0,-1,1,0,-510.46146,728.17826)" />
    <path
       inkscape:connector-curvature="0"
       style="fill:none;stroke:#000000;stroke-width:0.875;stroke-linecap:butt;stroke-linejoin:miter;stroke-miterlimit:4;stroke-opacity:1;stroke-dasharray:none;stroke-dashoffset:0;marker:none;visibility:visible;display:inline;overflow:visible;enable-background:accumulate"
       d="M 36.91694,650.15753 160.60137,560.25136"
       id="path3997"
       sodipodi:nodetypes="cc" />
    <path
       inkscape:connector-curvature="0"
       style="fill:none;stroke:#000000;stroke-width:0.875;stroke-linecap:butt;stroke-linejoin:miter;stroke-miterlimit:4;stroke-opacity:1;stroke-dasharray:none;stroke-dashoffset:0;marker:none;visibility:visible;display:inline;overflow:visible;enable-background:accumulate"
       d="m 40.56824,667.75194 158.8554,16.66459"
       id="path3999"
       sodipodi:nodetypes="cc" />
    <path
       inkscape:connector-curvature="0"
       style="fill:none;stroke:#000000;stroke-width:0.875;stroke-linecap:butt;stroke-linejoin:miter;stroke-miterlimit:4;stroke-opacity:1;stroke-dasharray:none;stroke-dashoffset:0;marker:none;visibility:visible;display:inline;overflow:visible;enable-background:accumulate"
       d="m 139.47002,586.58227 29.43706,-6.70718"
       id="path4009"
       sodipodi:nodetypes="cc" />
    <path
       inkscape:connector-curvature="0"
       style="fill:none;stroke:#000000;stroke-width:0.875;stroke-linecap:butt;stroke-linejoin:miter;stroke-miterlimit:4;stroke-opacity:1;stroke-dasharray:5.25, 1.75;stroke-dashoffset:0;marker:none;visibility:visible;display:inline;overflow:visible;enable-background:accumulate"
       d="m 169.46601,580.0614 77.50517,-17.14057"
       id="path4011"
       sodipodi:nodetypes="cc" />
    <path
       sodipodi:type="arc"
       id="path2401"
       sodipodi:cx="241.35742"
       sodipodi:cy="516.73145"
       sodipodi:rx="7.6137986"
       sodipodi:ry="7.6137986"
       d="m 248.97122,516.73145 a 7.6137986,7.6137986 0 1 1 -15.2276,0 7.6137986,7.6137986 0 1 1 15.2276,0 z"
       style="fill:url(#radialGradient3066);fill-opacity:1;stroke:none"
       transform="matrix(0,-1,1,0,-348.44595,821.75079)" />
    <path
       inkscape:connector-curvature="0"
       style="fill:none;stroke:#000000;stroke-width:0.87500000000000000;stroke-linecap:butt;stroke-linejoin:miter;stroke-miterlimit:4;stroke-opacity:1;stroke-dasharray:none;marker-end:none"
       d="m 169.5499,582.85502 16.82779,34.57293"
       id="path3203" />
    <path
       inkscape:connector-curvature="0"
       style="fill:none;stroke:#000000;stroke-width:0.87500000000000000;stroke-linecap:butt;stroke-linejoin:miter;stroke-miterlimit:4;stroke-opacity:1;stroke-dasharray:none;marker-end:none"
       d="m 174.22765,584.69964 24.76947,29.40977"
       id="path3985" />
    <path
       sodipodi:type="arc"
       style="fill:#000000;fill-opacity:1;stroke:none"
       id="path4025"
       sodipodi:cx="70.228653"
       sodipodi:cy="553.21277"
       sodipodi:rx="2.2084482"
       sodipodi:ry="2.2084482"
       d="m 72.437101,553.21277 a 2.2084482,2.2084482 0 1 1 -4.416896,0 2.2084482,2.2084482 0 1 1 4.416896,0 z"
       transform="matrix(0,-1,1,0,-511.02361,728.49949)" />
    <path
       inkscape:connector-curvature="0"
       style="fill:none;stroke:#000000;stroke-width:0.875;stroke-linecap:butt;stroke-linejoin:miter;stroke-miterlimit:4;stroke-opacity:1;stroke-dasharray:none;stroke-dashoffset:0;marker:none;marker-end:url(#Arrow2Mend);visibility:visible;display:inline;overflow:visible;enable-background:accumulate"
       d="m 2.36995,658.73041 2.12086,0.24951"
       id="path4027" />
    <path
       inkscape:connector-curvature="0"
       style="fill:none;stroke:#000000;stroke-width:0.875;stroke-linecap:butt;stroke-linejoin:miter;stroke-miterlimit:4;stroke-opacity:1;stroke-dasharray:none;stroke-dashoffset:0;marker:none;marker-end:url(#Arrow2Mend);visibility:visible;display:inline;overflow:visible;enable-background:accumulate"
       d="m 186.98206,618.40499 11.68891,-3.38969"
       id="path2433"
       sodipodi:nodetypes="cc" />
    <text
       xml:space="preserve"
       style="font-size:10px;font-style:normal;font-variant:normal;font-weight:normal;font-stretch:normal;text-indent:0;text-align:start;text-decoration:none;line-height:125%;letter-spacing:0px;word-spacing:0px;text-transform:none;direction:ltr;block-progression:tb;writing-mode:lr-tb;text-anchor:start;baseline-shift:baseline;color:#000000;fill:#000000;fill-opacity:1;fill-rule:nonzero;stroke:none;stroke-width:1px;marker:none;visibility:visible;display:inline;overflow:visible;enable-background:accumulate;font-family:Sans;-inkscape-font-specification:Sans"
       x="160.98712"
       y="630.51276"
       id="text4063"
       sodipodi:linespacing="125%"><tspan
         sodipodi:role="line"
         id="tspan4065"
         x="160.98712"
         y="630.51276">ball's axis of</tspan><tspan
         sodipodi:role="line"
         x="160.98712"
         y="643.01276"
         id="tspan4067">rotation shifts</tspan><tspan
         sodipodi:role="line"
         x="160.98712"
         y="655.51276"
         id="tspan4073">over many orbits</tspan></text>
  </g>
</svg>
