<?xml version="1.0" encoding="UTF-8" standalone="no"?>
<!-- Generator: Adobe Illustrator 11 Build 196, SVG Export Plug-In . SVG Version: 6.0.0 Build 78)  -->

<svg
   xmlns:dc="http://purl.org/dc/elements/1.1/"
   xmlns:cc="http://creativecommons.org/ns#"
   xmlns:rdf="http://www.w3.org/1999/02/22-rdf-syntax-ns#"
   xmlns:svg="http://www.w3.org/2000/svg"
   xmlns="http://www.w3.org/2000/svg"
   xmlns:sodipodi="http://sodipodi.sourceforge.net/DTD/sodipodi-0.dtd"
   xmlns:inkscape="http://www.inkscape.org/namespaces/inkscape"
   width="101.118"
   height="90.241"
   viewBox="0 0 101.118 90.241"
   style="overflow:visible;enable-background:new 0 0 101.118 90.241"
   xml:space="preserve"
   id="svg2"
   version="1.1"
   inkscape:version="0.48.4 r9939"
   sodipodi:docname="kepler-ellipse.svg"><metadata
     id="metadata47"><rdf:RDF><cc:Work
         rdf:about=""><dc:format>image/svg+xml</dc:format><dc:type
           rdf:resource="http://purl.org/dc/dcmitype/StillImage" /><dc:title /></cc:Work></rdf:RDF></metadata><defs
     id="defs45" /><sodipodi:namedview
     pagecolor="#ffffff"
     bordercolor="#666666"
     borderopacity="1"
     objecttolerance="10"
     gridtolerance="10"
     guidetolerance="10"
     inkscape:pageopacity="0"
     inkscape:pageshadow="2"
     inkscape:window-width="1280"
     inkscape:window-height="998"
     id="namedview43"
     showgrid="false"
     inkscape:zoom="1.2676536"
     inkscape:cx="59.903985"
     inkscape:cy="-66.116251"
     inkscape:window-x="0"
     inkscape:window-y="0"
     inkscape:window-maximized="1"
     inkscape:current-layer="svg2" /><rect
     style="fill:#dedede;fill-opacity:1;stroke:none;overflow:visible"
     id="rect2985-6"
     width="228.92334"
     height="111.07966"
     x="-255.60078"
     y="110.57102" /><rect
     style="fill:#dedede;fill-opacity:1;stroke:none;overflow:visible"
     id="rect2985-6-5"
     width="145.64584"
     height="111.07967"
     x="-18.74663"
     y="109.70193" /><g
     style="overflow:visible"
     id="Layer_1-1"
     transform="matrix(1.3085966,0,0,1.3085966,-234.77641,129.54607)"><g
       id="g3027"><g
         id="g3029"><line
           style="fill:none;stroke:#000000;stroke-width:0.5"
           x1="0.59200001"
           y1="0.42300001"
           x2="50.424999"
           y2="0.42300001"
           id="line3031" /><line
           style="fill:none;stroke:#000000;stroke-width:0.5"
           x1="0.59200001"
           y1="8.7189999"
           x2="50.424999"
           y2="8.7189999"
           id="line3033" /><line
           style="fill:none;stroke:#000000;stroke-width:0.5"
           x1="0.59200001"
           y1="17.014"
           x2="50.424999"
           y2="17.014"
           id="line3035" /><line
           style="fill:none;stroke:#000000;stroke-width:0.5"
           x1="0.59200001"
           y1="25.309"
           x2="50.424999"
           y2="25.309"
           id="line3037" /><line
           style="fill:none;stroke:#000000;stroke-width:0.5"
           x1="0.59200001"
           y1="33.604"
           x2="50.424999"
           y2="33.604"
           id="line3039" /><line
           style="fill:none;stroke:#000000;stroke-width:0.5"
           x1="0.59200001"
           y1="41.900002"
           x2="50.424999"
           y2="41.900002"
           id="line3041" /><line
           style="fill:none;stroke:#000000;stroke-width:0.5"
           x1="0.59200001"
           y1="50.195"
           x2="50.424999"
           y2="50.195"
           id="line3043" /></g><g
         id="g3045"><line
           style="fill:none;stroke:#000000;stroke-width:0.5"
           x1="0.625"
           y1="50.226002"
           x2="0.625"
           y2="0.39300001"
           id="line3047" /><line
           style="fill:none;stroke:#000000;stroke-width:0.5"
           x1="8.9189997"
           y1="50.226002"
           x2="8.9189997"
           y2="0.39300001"
           id="line3049" /><line
           style="fill:none;stroke:#000000;stroke-width:0.5"
           x1="17.214001"
           y1="50.226002"
           x2="17.214001"
           y2="0.39300001"
           id="line3051" /><line
           style="fill:none;stroke:#000000;stroke-width:0.5"
           x1="25.509001"
           y1="50.226002"
           x2="25.509001"
           y2="0.39300001"
           id="line3053" /><line
           style="fill:none;stroke:#000000;stroke-width:0.5"
           x1="33.803001"
           y1="50.226002"
           x2="33.803001"
           y2="0.39300001"
           id="line3055" /><line
           style="fill:none;stroke:#000000;stroke-width:0.5"
           x1="42.098"
           y1="50.226002"
           x2="42.098"
           y2="0.39300001"
           id="line3057" /><line
           style="fill:none;stroke:#000000;stroke-width:0.5"
           x1="50.393002"
           y1="50.226002"
           x2="50.393002"
           y2="0.39300001"
           id="line3059" /></g><circle
         sodipodi:ry="24.372"
         sodipodi:rx="24.372"
         sodipodi:cy="25.372"
         sodipodi:cx="25.372"
         d="m 49.743999,25.372 c 0,13.460284 -10.911715,24.371999 -24.371999,24.371999 C 11.911716,49.743999 1,38.832284 1,25.372 1,11.911716 11.911716,1 25.372,1 38.832284,1 49.743999,11.911716 49.743999,25.372 z"
         style="fill:none;stroke:#000000;stroke-width:2"
         cx="25.372"
         cy="25.372"
         r="24.372"
         id="circle3061" /></g><g
       id="g3063"><g
         id="g3065"><line
           style="fill:none;stroke:#000000;stroke-width:0.5"
           x1="63.708"
           y1="2.848"
           x2="143.44099"
           y2="2.848"
           id="line3067" /><line
           style="fill:none;stroke:#000000;stroke-width:0.5"
           x1="63.708"
           y1="10.334"
           x2="143.44099"
           y2="10.334"
           id="line3069" /><line
           style="fill:none;stroke:#000000;stroke-width:0.5"
           x1="63.708"
           y1="17.820999"
           x2="143.44099"
           y2="17.820999"
           id="line3071" /><line
           style="fill:none;stroke:#000000;stroke-width:0.5"
           x1="63.708"
           y1="25.306999"
           x2="143.44099"
           y2="25.306999"
           id="line3073" /><line
           style="fill:none;stroke:#000000;stroke-width:0.5"
           x1="63.708"
           y1="32.793999"
           x2="143.44099"
           y2="32.793999"
           id="line3075" /><line
           style="fill:none;stroke:#000000;stroke-width:0.5"
           x1="63.708"
           y1="40.279999"
           x2="143.44099"
           y2="40.279999"
           id="line3077" /><line
           style="fill:none;stroke:#000000;stroke-width:0.5"
           x1="63.708"
           y1="47.766998"
           x2="143.44099"
           y2="47.766998"
           id="line3079" /></g><g
         id="g3081"><line
           style="fill:none;stroke:#000000;stroke-width:0.5"
           x1="63.761002"
           y1="47.793999"
           x2="63.761002"
           y2="2.8199999"
           id="line3083" /><line
           style="fill:none;stroke:#000000;stroke-width:0.5"
           x1="77.031998"
           y1="47.793999"
           x2="77.031998"
           y2="2.8199999"
           id="line3085" /><line
           style="fill:none;stroke:#000000;stroke-width:0.5"
           x1="90.304001"
           y1="47.793999"
           x2="90.304001"
           y2="2.8199999"
           id="line3087" /><line
           style="fill:none;stroke:#000000;stroke-width:0.5"
           x1="103.575"
           y1="47.793999"
           x2="103.575"
           y2="2.8199999"
           id="line3089" /><line
           style="fill:none;stroke:#000000;stroke-width:0.5"
           x1="116.847"
           y1="47.793999"
           x2="116.847"
           y2="2.8199999"
           id="line3091" /><line
           style="fill:none;stroke:#000000;stroke-width:0.5"
           x1="130.118"
           y1="47.793999"
           x2="130.118"
           y2="2.8199999"
           id="line3093" /><line
           style="fill:none;stroke:#000000;stroke-width:0.5"
           x1="143.38901"
           y1="47.793999"
           x2="143.38901"
           y2="2.8199999"
           id="line3095" /></g><ellipse
         sodipodi:ry="21.995001"
         sodipodi:rx="38.994999"
         sodipodi:cy="25.364"
         sodipodi:cx="103.356"
         d="m 142.351,25.364 c 0,12.147504 -17.45865,21.995001 -38.995,21.995001 -21.53634,0 -38.994996,-9.847497 -38.994996,-21.995001 0,-12.147503 17.458656,-21.9950005 38.994996,-21.9950005 21.53635,0 38.995,9.8474975 38.995,21.9950005 z"
         style="fill:none;stroke:#000000;stroke-width:2"
         cx="103.356"
         cy="25.364"
         rx="38.994999"
         ry="21.995001"
         id="ellipse3097" /></g></g><ellipse
     style="fill:none;stroke:#000000;stroke-width:2"
     cx="50.558998"
     cy="59.814999"
     rx="49.558998"
     ry="29.424999"
     id="ellipse7"
     d="m 100.118,59.814999 c 0,16.250978 -22.188323,29.424999 -49.559002,29.424999 C 23.188319,89.239998 1,76.065977 1,59.814999 c 0,-16.250979 22.188319,-29.425 49.558998,-29.425 27.370679,0 49.559002,13.174021 49.559002,29.425 z"
     sodipodi:cx="50.558998"
     sodipodi:cy="59.814999"
     sodipodi:rx="49.558998"
     sodipodi:ry="29.424999"
     transform="translate(0,119.34331)" /><g
     id="g9"
     transform="translate(0,119.34331)"><line
       style="fill:none;stroke:#000000;stroke-width:1.5"
       x1="73.789001"
       y1="59.627998"
       x2="74.789001"
       y2="55.627998"
       id="line11" /><ellipse
       transform="matrix(-0.0872,0.9962,-0.9962,-0.0872,135.7772,-15.2643)"
       style="fill:none;stroke:#000000;stroke-width:1.5"
       cx="74.882004"
       cy="54.570999"
       rx="1.061"
       ry="1.768"
       id="ellipse13"
       d="m 75.943004,54.570999 c 0,0.97644 -0.475026,1.768 -1.061,1.768 -0.585974,0 -1.061,-0.79156 -1.061,-1.768 0,-0.976439 0.475026,-1.768 1.061,-1.768 0.585974,0 1.061,0.791561 1.061,1.768 z"
       sodipodi:cx="74.882004"
       sodipodi:cy="54.570999"
       sodipodi:rx="1.061"
       sodipodi:ry="1.768" /></g><g
     id="g15"
     transform="translate(0,119.34331)"><line
       style="fill:none;stroke:#000000;stroke-width:1.5"
       x1="27.634001"
       y1="59.525002"
       x2="26.289"
       y2="55.627998"
       id="line17" /><ellipse
       transform="matrix(0.1736,0.9848,-0.9848,0.1736,75.3288,19.4004)"
       style="fill:none;stroke:#000000;stroke-width:1.5"
       cx="26.105"
       cy="54.583"
       rx="1.061"
       ry="1.768"
       id="ellipse19"
       d="m 27.166,54.583 c 0,0.97644 -0.475026,1.768 -1.061,1.768 -0.585975,0 -1.061,-0.79156 -1.061,-1.768 0,-0.976439 0.475025,-1.768 1.061,-1.768 0.585974,0 1.061,0.791561 1.061,1.768 z"
       sodipodi:cx="26.105"
       sodipodi:cy="54.583"
       sodipodi:rx="1.061"
       sodipodi:ry="1.768" /></g><rect
     x="56.039001"
     y="147.97131"
     style="fill:#dedede;fill-opacity:1"
     width="19.5"
     height="9"
     id="rect21" /><polyline
     style="fill:none;stroke:#000000"
     points="27.789,59.352 55.227,28.065 73.539,59.089 "
     id="polyline23"
     transform="translate(0,119.34331)" /><polyline
     style="fill:none;stroke:#000000;stroke-width:0.5"
     points="54.73,0.043 51.312,19.432 54.59,31.434 61.775,21.277      65.14,2.196 "
     id="polyline25"
     transform="translate(0,119.34331)" /><path
     style="fill:none;stroke:#000000;stroke-width:0.5"
     d="m 54.267,140.85631 c 2.134,-4.066 3.732,-1.88 3.848,0.678"
     id="path27"
     inkscape:connector-curvature="0" /><path
     style="fill:none;stroke:#000000;stroke-width:0.5"
     d="m 58.367,141.12331 c 1.584,-4.164 2.413,-2.113 2.309,0.407"
     id="path29"
     inkscape:connector-curvature="0" /><path
     style="fill:none;stroke:#000000;stroke-width:0.5"
     d="m 52.016,139.96331 c 1.584,-4.163 2.413,-2.113 2.309,0.407"
     id="path31"
     inkscape:connector-curvature="0" /><line
     style="fill:none;stroke:#000000;stroke-width:0.25"
     x1="53.750999"
     y1="137.53931"
     x2="56.785"
     y2="120.33231"
     id="line33" /><line
     style="fill:none;stroke:#000000;stroke-width:0.25"
     x1="56.750999"
     y1="138.29231"
     x2="59.785999"
     y2="121.08531"
     id="line35" /><line
     style="fill:none;stroke:#000000;stroke-width:0.25"
     x1="59.997002"
     y1="138.78531"
     x2="63.030998"
     y2="121.57831"
     id="line37" /><polyline
     style="stroke:#000000;stroke-width:0.5"
     points="55,31.542 53.407,26.185 57.269,27.077 54.94,30.686 "
     id="polyline39"
     transform="translate(0,119.34331)" /><circle
     style="fill:#dedede;fill-opacity:1"
     cx="72.623001"
     cy="32.294998"
     r="5.1849999"
     id="circle41"
     d="m 77.808001,32.294998 c 0,2.863597 -2.321404,5.185 -5.185,5.185 -2.863596,0 -5.185,-2.321403 -5.185,-5.185 0,-2.863596 2.321404,-5.185 5.185,-5.185 2.863596,0 5.185,2.321404 5.185,5.185 z"
     sodipodi:cx="72.623001"
     sodipodi:cy="32.294998"
     sodipodi:rx="5.1849999"
     sodipodi:ry="5.1849999"
     transform="translate(0,119.34331)" /></svg>