<?xml version="1.0" encoding="UTF-8" standalone="no"?>
<!-- Created with Inkscape (http://www.inkscape.org/) -->

<svg
   xmlns:dc="http://purl.org/dc/elements/1.1/"
   xmlns:cc="http://creativecommons.org/ns#"
   xmlns:rdf="http://www.w3.org/1999/02/22-rdf-syntax-ns#"
   xmlns:svg="http://www.w3.org/2000/svg"
   xmlns="http://www.w3.org/2000/svg"
   xmlns:sodipodi="http://sodipodi.sourceforge.net/DTD/sodipodi-0.dtd"
   xmlns:inkscape="http://www.inkscape.org/namespaces/inkscape"
   width="744.09448819"
   height="1052.3622047"
   id="svg2"
   version="1.1"
   sodipodi:docname="iijima.svg">
  <defs
     id="defs4">
    <inkscape:perspective
       sodipodi:type="inkscape:persp3d"
       inkscape:vp_x="0 : 526.18109 : 1"
       inkscape:vp_y="0 : 1000 : 0"
       inkscape:vp_z="744.09448 : 526.18109 : 1"
       inkscape:persp3d-origin="372.04724 : 350.78739 : 1"
       id="perspective10" />
    <inkscape:perspective
       id="perspective2902"
       inkscape:persp3d-origin="0.5 : 0.33333333 : 1"
       inkscape:vp_z="1 : 0.5 : 1"
       inkscape:vp_y="0 : 1000 : 0"
       inkscape:vp_x="0 : 0.5 : 1"
       sodipodi:type="inkscape:persp3d" />
  </defs>
  <sodipodi:namedview
     id="base"
     pagecolor="#ffffff"
     bordercolor="#666666"
     borderopacity="1.0"
     inkscape:pageopacity="0.0"
     inkscape:pageshadow="2"
     inkscape:zoom="1.0788268"
     inkscape:cx="316.20362"
     inkscape:cy="892.56723"
     inkscape:document-units="px"
     inkscape:current-layer="layer1"
     showgrid="false"
     inkscape:window-width="1280"
     inkscape:window-height="998"
     inkscape:window-x="0"
     inkscape:window-y="0"
     inkscape:window-maximized="1" />
  <metadata
     id="metadata7">
    <rdf:RDF>
      <cc:Work
         rdf:about="">
        <dc:format>image/svg+xml</dc:format>
        <dc:type
           rdf:resource="http://purl.org/dc/dcmitype/StillImage" />
        <dc:title />
      </cc:Work>
    </rdf:RDF>
  </metadata>
  <g
     inkscape:label="Layer 1"
     inkscape:groupmode="layer"
     id="layer1">
    <rect
       style="fill:#dedede;fill-opacity:1;stroke:none"
       id="rect3706"
       width="382.5"
       height="241.34967"
       x="48.200508"
       y="-68.646744" />
    <text
       xml:space="preserve"
       style="font-size:11.27976036px;font-style:normal;font-variant:normal;font-weight:bold;font-stretch:normal;text-align:start;line-height:125%;writing-mode:lr-tb;text-anchor:start;fill:#000000;fill-opacity:1;stroke:none;font-family:Bitstream Vera Sans;-inkscape-font-specification:Bitstream Vera Sans Bold"
       x="155.41464"
       y="165.62341"
       id="text2908"
       sodipodi:linespacing="125%"><tspan
         sodipodi:role="line"
         id="tspan2910"
         x="155.41464"
         y="165.62341">June</tspan></text>
    <text
       xml:space="preserve"
       style="font-size:11.27976036px;font-style:normal;font-variant:normal;font-weight:bold;font-stretch:normal;text-indent:0;text-align:start;text-decoration:none;line-height:125%;letter-spacing:normal;word-spacing:normal;text-transform:none;direction:ltr;block-progression:tb;writing-mode:lr-tb;text-anchor:start;color:#000000;fill:#000000;fill-opacity:1;fill-rule:nonzero;stroke:none;stroke-width:1px;marker:none;visibility:visible;display:inline;overflow:visible;enable-background:accumulate;font-family:Bitstream Vera Sans;-inkscape-font-specification:Bitstream Vera Sans Bold"
       x="327.99063"
       y="165.62341"
       id="text2912"
       sodipodi:linespacing="125%"><tspan
         sodipodi:role="line"
         id="tspan2914"
         x="327.99063"
         y="165.62341">July</tspan></text>
    <path
       style="color:#000000;fill:none;stroke:#000000;stroke-width:1.31718838;stroke-linecap:butt;stroke-linejoin:miter;stroke-miterlimit:4;stroke-opacity:1;stroke-dasharray:none;stroke-dashoffset:0;marker:none;visibility:visible;display:inline;overflow:visible;enable-background:accumulate"
       d="m 97.328126,150.61791 168.178364,0"
       id="path2916"
       inkscape:connector-curvature="0" />
    <path
       style="color:#000000;fill:none;stroke:#000000;stroke-width:1.31718838;stroke-linecap:butt;stroke-linejoin:miter;stroke-miterlimit:4;stroke-opacity:1;stroke-dasharray:none;stroke-dashoffset:0;marker:none;visibility:visible;display:inline;overflow:visible;enable-background:accumulate"
       d="m 271.03186,150.61791 144.69554,0"
       id="path2918"
       inkscape:connector-curvature="0" />
    <text
       xml:space="preserve"
       style="font-size:11.27976036px;font-style:normal;font-variant:normal;font-weight:bold;font-stretch:normal;text-indent:0;text-align:start;text-decoration:none;line-height:125%;letter-spacing:normal;word-spacing:normal;text-transform:none;direction:ltr;block-progression:tb;writing-mode:lr-tb;text-anchor:start;color:#000000;fill:#000000;fill-opacity:1;fill-rule:nonzero;stroke:none;stroke-width:1px;marker:none;visibility:visible;display:inline;overflow:visible;enable-background:accumulate;font-family:Bitstream Vera Sans;-inkscape-font-specification:Bitstream Vera Sans Bold"
       x="-96.073372"
       y="62.013779"
       id="text3692"
       sodipodi:linespacing="125%"
       transform="matrix(0,-1,1,0,0,0)"><tspan
         sodipodi:role="line"
         id="tspan3694"
         x="-96.073372"
         y="62.013779">time difference (ns)</tspan></text>
    <g
       style="fill:#000000;stroke:none"
       transform="matrix(0.05174119,0,0,-0.05174119,63.436399,152.61545)"
       id="g2997">
      <path
         inkscape:connector-curvature="0"
         d="m 162,4044 c -22,-26 -39,-52 -36,-56 3,-4 18,-8 33,-8 15,0 32,-5 38,-11 6,-6 16,-8 22,-5 15,10 14,88 -2,110 -12,17 -17,15 -55,-30 z m 38,-24 c 0,-5 -5,-10 -11,-10 -5,0 -7,5 -4,10 3,6 8,10 11,10 2,0 4,-4 4,-10 z"
         id="path2999" />
      <path
         inkscape:connector-curvature="0"
         d="m 282,4074 c -28,-20 -31,-83 -4,-107 42,-38 105,-6 105,53 0,59 -53,88 -101,54 z m 56,-23 c 8,-5 12,-21 10,-37 -2,-21 -9,-30 -26,-32 -26,-4 -37,17 -28,53 7,26 21,31 44,16 z"
         id="path3001" />
      <path
         inkscape:connector-curvature="0"
         d="m 426,4074 c -9,-9 -16,-32 -16,-54 0,-46 21,-70 59,-70 54,0 80,68 45,118 -18,26 -65,30 -88,6 z m 69,-54 c 0,-31 -3,-35 -27,-38 -26,-3 -28,-1 -28,32 0,34 11,46 40,43 10,-2 15,-14 15,-37 z"
         id="path3003" />
      <path
         inkscape:connector-curvature="0"
         d="m 3710,4030 -3095,-5 -2,-1880 c -2,-1269 0,-1882 7,-1889 12,-12 62,-15 215,-13 100,2 4597,-3 4620,-5 6,0 13,0 18,1 9,1 273,2 881,1 258,0 471,2 473,4 4,3 4,2950 0,3475 -1,201 -6,315 -12,315 -5,1 -1403,-1 -3105,-4 z m 2764,-39 c 4,-5 7,-66 8,-135 1,-116 8,-150 26,-131 4,4 7,66 7,138 l 0,132 120,2 c 183,2 164,25 165,-192 l 0,-185 -60,0 c -47,0 -60,-3 -60,-15 0,-12 13,-15 58,-15 l 59,0 1,-190 1,-190 -54,0 c -42,0 -55,-3 -55,-15 0,-12 13,-15 55,-15 l 55,0 0,-195 0,-195 -60,0 c -47,0 -60,-3 -60,-15 0,-12 13,-15 60,-15 l 60,0 0,-190 0,-190 -54,0 c -54,0 -81,-15 -55,-30 7,-5 35,-6 61,-3 l 48,6 -2,-204 -3,-204 -52,3 c -42,2 -53,0 -53,-13 0,-12 12,-15 55,-15 l 55,0 0,-194 0,-195 -50,-3 c -28,-2 -50,-7 -50,-13 0,-6 22,-9 50,-7 l 50,3 0,-193 0,-193 -52,0 c -32,0 -53,-5 -55,-12 -3,-10 11,-13 51,-13 l 56,0 0,-201 0,-200 -52,2 c -44,3 -53,0 -56,-15 -3,-16 2,-17 52,-11 l 55,7 3,-133 c 2,-74 2,-167 0,-206 l -4,-73 -64,0 c -46,0 -64,4 -63,12 1,7 1,25 0,41 -2,43 -21,32 -21,-13 l 0,-40 -65,0 -65,0 0,40 c 0,22 -4,40 -10,40 -5,0 -10,-18 -10,-41 l 0,-40 -52,3 c -55,3 -54,2 -57,61 -2,43 -21,21 -21,-24 l 0,-39 -49,0 -50,0 -3,37 c -4,52 -28,56 -28,4 l 0,-41 -49,0 -50,0 -3,43 c -2,23 -7,41 -13,39 -5,-2 -9,-21 -7,-42 l 3,-40 -60,0 -61,0 0,41 c 0,28 -4,39 -12,36 -7,-2 -12,-10 -10,-18 2,-7 1,-23 -3,-36 -5,-20 -11,-23 -55,-23 -49,0 -49,0 -52,35 -4,46 -22,46 -26,0 -3,-35 -3,-35 -52,-35 l -49,0 -3,37 c -4,52 -28,56 -28,4 l 0,-41 -55,0 -55,0 0,40 c 0,22 -4,40 -10,40 -5,0 -10,-18 -10,-40 l 0,-40 -49,0 -50,0 -3,43 c -2,23 -7,42 -13,42 -5,0 -11,-19 -13,-42 l -3,-43 -55,0 -54,0 0,41 c 0,28 -4,39 -12,36 -8,-2 -13,-19 -12,-41 l 1,-36 -53,0 c -52,0 -53,0 -56,32 -4,46 -28,49 -28,4 l 0,-36 -55,0 -55,0 0,35 c 0,24 -5,35 -15,35 -10,0 -15,-11 -15,-35 l 0,-35 -50,0 -50,0 0,35 c 0,19 -4,35 -10,35 -5,0 -10,-16 -10,-35 l 0,-35 -55,0 -55,0 0,40 c 0,22 -4,40 -10,40 -5,0 -10,-18 -10,-40 l 0,-40 -50,0 -50,0 0,35 c 0,19 -4,35 -10,35 -5,0 -10,-16 -10,-35 l 0,-35 -54,0 c -54,0 -55,0 -58,32 -3,38 -23,36 -23,-2 -1,-23 -4,-25 -58,-28 l -57,-3 0,41 c 0,25 -4,39 -10,35 -6,-3 -10,-22 -10,-41 l 0,-34 -60,0 -60,0 0,41 c 0,52 -24,48 -28,-5 l -3,-37 -52,3 -52,3 -3,38 c -4,46 -22,39 -22,-9 l 0,-35 -52,3 c -50,3 -52,4 -53,32 0,16 -6,31 -12,33 -9,3 -13,-7 -13,-31 l 0,-36 -54,0 -55,0 -3,35 c -4,46 -22,46 -26,0 -3,-35 -3,-35 -53,-35 l -49,0 0,35 c 0,19 -4,35 -10,35 -5,0 -10,-16 -10,-36 l 0,-35 -52,3 c -56,3 -53,1 -57,61 -2,33 -21,7 -21,-29 l 0,-34 -49,0 c -48,0 -50,1 -53,32 -4,46 -28,49 -28,4 l 0,-36 -50,0 c -48,0 -49,1 -56,35 -8,45 -24,45 -24,0 l 0,-35 -55,0 -55,0 0,34 c 0,36 -14,56 -23,33 -3,-7 -3,-25 0,-40 5,-27 5,-27 -51,-27 l -56,0 0,35 c 0,24 -5,35 -15,35 -10,0 -15,-11 -15,-35 l 0,-35 -50,0 -50,0 0,35 c 0,19 -4,35 -10,35 -5,0 -10,-15 -10,-34 l 0,-34 -52,1 c -52,2 -53,3 -56,35 -4,42 -20,41 -24,0 -3,-32 -5,-33 -50,-36 -42,-3 -48,-1 -49,17 -1,12 -3,26 -4,31 -1,6 -3,15 -4,21 -3,25 -21,-6 -21,-37 l 0,-34 -54,0 -53,0 1,32 c 0,17 -5,33 -12,36 -8,2 -12,-8 -12,-32 l 0,-36 -54,0 -54,0 2,31 c 0,18 -5,34 -11,36 -9,3 -13,-7 -13,-31 l 0,-36 -50,0 -50,0 0,35 c 0,19 -4,35 -10,35 -5,0 -10,-16 -10,-35 l 0,-35 -54,0 c -56,0 -66,8 -66,51 0,10 -4,19 -10,19 -5,0 -10,-16 -10,-35 l 0,-35 -50,0 -50,0 0,40 c 0,22 -4,40 -10,40 -5,0 -10,-18 -10,-40 l 0,-40 -55,0 -55,0 0,46 c 0,27 -4,43 -10,39 -5,-3 -10,-24 -10,-46 l 0,-39 -55,0 -55,0 0,34 c 0,19 -4,38 -10,41 -6,4 -10,-10 -10,-34 l 0,-41 -55,0 -55,0 0,40 c 0,22 -4,40 -10,40 -5,0 -10,-18 -10,-40 l 0,-40 -49,0 c -50,0 -50,0 -53,35 -3,39 -22,48 -24,12 -1,-12 -2,-28 -3,-34 -1,-9 -19,-13 -56,-13 l -55,0 0,35 c 0,19 -4,35 -10,35 -5,0 -10,-16 -10,-35 l 0,-35 -60,0 -60,0 0,34 c 0,19 -4,38 -10,41 -6,4 -10,-10 -10,-34 l 0,-41 -49,0 c -50,0 -50,0 -53,35 -4,46 -22,46 -26,0 -3,-35 -3,-35 -53,-35 l -49,0 0,35 c 0,19 -4,35 -10,35 -5,0 -10,-16 -10,-35 l 0,-35 -55,0 -55,0 0,40 c 0,22 -4,40 -10,40 -5,0 -10,-18 -10,-40 l 0,-40 -49,0 c -50,0 -50,0 -53,35 -4,46 -22,46 -26,0 l -3,-36 -51,3 -51,3 -3,188 c -2,112 1,187 7,188 19,3 24,5 37,12 6,5 12,4 12,-1 0,-5 19,-8 43,-7 23,1 48,-2 55,-8 6,-5 12,-6 12,-1 0,13 140,11 140,-1 0,-5 7,-1 15,9 8,11 15,14 15,8 0,-7 5,-12 10,-12 6,0 10,8 10,18 1,16 1,16 11,-1 14,-24 29,-12 29,23 0,30 -14,48 -25,31 -3,-6 -12,-8 -20,-4 -9,3 -15,-1 -15,-8 0,-10 -3,-10 -11,-2 -8,8 -20,8 -35,3 -13,-5 -24,-6 -24,-1 0,5 -11,8 -25,7 -14,0 -25,-5 -25,-10 0,-5 -6,-3 -13,3 -8,6 -17,8 -21,4 -4,-4 -11,-1 -16,6 -7,12 -11,11 -25,-3 -10,-10 -22,-13 -29,-9 -14,10 -37,10 -53,0 -8,-5 -13,-3 -13,3 0,7 -6,10 -14,7 -30,-12 -35,19 -33,193 l 2,175 73,-3 c 60,-3 72,-1 72,12 0,12 -15,16 -72,18 l -72,3 -3,193 c -4,215 -12,194 72,194 41,0 69,14 59,29 -3,5 -34,9 -70,9 l -64,0 0,190 0,190 71,0 c 52,0 70,3 67,13 -3,7 -29,13 -71,15 l -67,3 0,195 0,195 62,-2 c 53,-2 64,0 66,15 3,15 -4,17 -60,14 l -63,-3 -3,193 -2,192 65,0 c 51,0 65,3 65,15 0,12 -14,15 -65,15 l -65,0 0,195 0,195 60,-1 c 64,-2 76,2 65,21 -5,8 -27,10 -66,7 l -59,-6 0,200 0,200 38,-1 c 57,-3 72,-1 72,10 0,6 -25,10 -55,10 l -55,0 0,195 0,195 2914,0 c 1756,0 2917,-4 2920,-9 z"
         id="path3005" />
      <path
         inkscape:connector-curvature="0"
         d="m 6490,3675 c 0,-9 5,-15 11,-13 6,2 11,8 11,13 0,5 -5,11 -11,13 -6,2 -11,-4 -11,-13 z"
         id="path3007" />
      <path
         inkscape:connector-curvature="0"
         d="m 6490,3554 c 0,-63 -13,-94 -38,-94 -12,0 -25,-47 -17,-60 12,-19 25,-10 26,18 2,23 2,24 6,5 2,-13 8,-23 13,-23 5,0 11,-50 12,-112 2,-74 7,-113 15,-115 8,-3 11,53 10,221 -1,176 -4,226 -14,226 -9,0 -13,-19 -13,-66 z"
         id="path3009" />
      <path
         inkscape:connector-curvature="0"
         d="m 5826,3513 c -3,-3 -6,-21 -6,-40 0,-23 5,-33 15,-33 10,0 15,10 15,34 0,34 -11,52 -24,39 z"
         id="path3011" />
      <path
         inkscape:connector-curvature="0"
         d="m 5744,3496 c -8,-21 -1,-61 11,-61 6,0 11,17 13,38 3,37 -13,52 -24,23 z"
         id="path3013" />
      <path
         inkscape:connector-curvature="0"
         d="m 5870,3471 c 0,-23 5,-41 10,-41 6,0 10,5 10,10 0,6 5,10 10,10 6,0 10,-9 10,-20 0,-32 17,-23 23,13 6,41 -9,59 -29,33 -14,-19 -14,-19 -14,1 0,12 -4,25 -10,28 -6,4 -10,-10 -10,-34 z"
         id="path3015" />
      <path
         inkscape:connector-curvature="0"
         d="m 5666,3493 c -3,-3 -6,-14 -6,-24 0,-10 -7,-16 -17,-15 -13,1 -18,-7 -18,-28 0,-16 6,-31 13,-33 7,-3 12,5 12,22 0,22 3,25 13,16 18,-14 27,-4 27,30 0,28 -12,44 -24,32 z"
         id="path3017" />
      <path
         inkscape:connector-curvature="0"
         d="m 5780,3450 c 0,-29 4,-40 13,-37 6,2 12,19 12,37 0,18 -6,35 -12,38 -9,2 -13,-9 -13,-38 z"
         id="path3019" />
      <path
         inkscape:connector-curvature="0"
         d="m 5497,3474 c -10,-11 -9,-74 2,-74 12,0 23,62 13,72 -5,5 -11,5 -15,2 z"
         id="path3021" />
      <path
         inkscape:connector-curvature="0"
         d="m 5580,3449 c 0,-38 24,-35 28,4 2,19 -1,27 -12,27 -11,0 -16,-10 -16,-31 z"
         id="path3023" />
      <path
         inkscape:connector-curvature="0"
         d="m 6294,3466 c -9,-23 0,-69 14,-74 8,-2 12,9 12,37 0,41 -16,64 -26,37 z"
         id="path3025" />
      <path
         inkscape:connector-curvature="0"
         d="m 6667,3474 c -11,-11 -8,-62 4,-70 15,-9 26,11 24,43 -1,27 -15,40 -28,27 z"
         id="path3027" />
      <path
         inkscape:connector-curvature="0"
         d="m 5406,3463 c -3,-3 -6,-15 -6,-27 0,-11 -10,-30 -22,-43 -30,-32 -16,-40 21,-12 22,16 31,31 31,50 0,28 -12,44 -24,32 z"
         id="path3029" />
      <path
         inkscape:connector-curvature="0"
         d="m 5702,3448 c 5,-32 28,-35 28,-4 0,17 -5,26 -16,26 -10,0 -14,-7 -12,-22 z"
         id="path3031" />
      <path
         inkscape:connector-curvature="0"
         d="m 5949,3460 c -1,-5 -1,-17 -1,-25 0,-28 2,-35 12,-35 6,0 10,16 10,35 0,19 -4,35 -10,35 -5,0 -11,-4 -11,-10 z"
         id="path3033" />
      <path
         inkscape:connector-curvature="0"
         d="m 5990,3430 c 0,-22 5,-40 10,-40 6,0 10,18 10,40 0,22 -4,40 -10,40 -5,0 -10,-18 -10,-40 z"
         id="path3035" />
      <path
         inkscape:connector-curvature="0"
         d="m 6344,3456 c -8,-21 -1,-61 11,-61 6,0 11,17 13,38 3,37 -13,52 -24,23 z"
         id="path3037" />
      <path
         inkscape:connector-curvature="0"
         d="m 6578,3435 c -5,-40 4,-61 21,-51 19,12 11,86 -9,86 -4,0 -10,-16 -12,-35 z"
         id="path3039" />
      <path
         inkscape:connector-curvature="0"
         d="m 6620,3434 c 0,-45 24,-42 28,4 2,24 -1,32 -12,32 -12,0 -16,-10 -16,-36 z"
         id="path3041" />
      <path
         inkscape:connector-curvature="0"
         d="m 6710,3434 c 0,-45 24,-42 28,4 2,24 -1,32 -12,32 -12,0 -16,-10 -16,-36 z"
         id="path3043" />
      <path
         inkscape:connector-curvature="0"
         d="m 6750,3435 c 0,-24 5,-35 15,-35 10,0 15,11 15,35 0,24 -5,35 -15,35 -10,0 -15,-11 -15,-35 z"
         id="path3045" />
      <path
         inkscape:connector-curvature="0"
         d="m 5546,3453 c -9,-10 -7,-73 3,-73 18,0 29,64 12,74 -4,3 -11,3 -15,-1 z"
         id="path3047" />
      <path
         inkscape:connector-curvature="0"
         d="m 6037,3453 c -11,-10 -8,-51 4,-58 13,-9 15,-7 22,33 6,31 -8,44 -26,25 z"
         id="path3049" />
      <path
         inkscape:connector-curvature="0"
         d="m 6170,3423 c 0,-30 3,-33 20,-28 12,4 20,2 20,-5 0,-6 5,-8 10,-5 6,3 10,21 10,39 0,30 -3,33 -30,33 -27,0 -30,-3 -30,-34 z"
         id="path3051" />
      <path
         inkscape:connector-curvature="0"
         d="m 6250,3425 c 0,-24 5,-35 15,-35 10,0 15,11 15,35 0,24 -5,35 -15,35 -10,0 -15,-11 -15,-35 z"
         id="path3053" />
      <path
         inkscape:connector-curvature="0"
         d="m 6390,3431 c 0,-17 4,-33 10,-36 11,-7 25,39 15,54 -12,21 -25,11 -25,-18 z"
         id="path3055" />
      <path
         inkscape:connector-curvature="0"
         d="m 5447,3444 c -4,-4 -7,-23 -7,-41 0,-42 23,-41 28,1 4,29 -9,52 -21,40 z"
         id="path3057" />
      <path
         inkscape:connector-curvature="0"
         d="m 6080,3414 c 0,-45 24,-42 28,4 2,24 -1,32 -12,32 -12,0 -16,-10 -16,-36 z"
         id="path3059" />
      <path
         inkscape:connector-curvature="0"
         d="m 6127,3443 c -3,-7 -3,-15 1,-50 4,-29 22,-10 22,22 0,31 -13,47 -23,28 z"
         id="path3061" />
      <path
         inkscape:connector-curvature="0"
         d="m 5302,3307 c -40,-49 -25,-64 15,-16 39,45 46,59 31,58 -7,0 -28,-19 -46,-42 z"
         id="path3063" />
      <path
         inkscape:connector-curvature="0"
         d="m 5210,3203 c -25,-28 -37,-49 -30,-51 12,-4 89,74 90,91 1,18 -22,3 -60,-40 z"
         id="path3065" />
      <path
         inkscape:connector-curvature="0"
         d="m 6495,3131 c -3,-5 -1,-12 5,-16 5,-3 10,1 10,9 0,18 -6,21 -15,7 z"
         id="path3067" />
      <path
         inkscape:connector-curvature="0"
         d="m 5097,3078 c -37,-42 -45,-58 -28,-58 9,0 91,85 91,95 0,18 -32,-1 -63,-37 z"
         id="path3069" />
      <path
         inkscape:connector-curvature="0"
         d="m 6490,2820 c 0,-195 2,-230 15,-230 12,0 14,35 15,230 0,198 -2,230 -15,230 -13,0 -15,-32 -15,-230 z"
         id="path3071" />
      <path
         inkscape:connector-curvature="0"
         d="m 5004,2973 c -51,-60 -56,-70 -45,-77 14,-9 106,103 94,115 -6,6 -24,-8 -49,-38 z"
         id="path3073" />
      <path
         inkscape:connector-curvature="0"
         d="m 4876,2826 c -27,-32 -42,-57 -36,-61 12,-7 99,83 100,103 0,24 -18,12 -64,-42 z"
         id="path3075" />
      <path
         inkscape:connector-curvature="0"
         d="m 4756,2686 c -49,-57 -60,-84 -27,-67 18,10 91,102 91,115 0,18 -23,0 -64,-48 z"
         id="path3077" />
      <path
         inkscape:connector-curvature="0"
         d="m 4638,2555 c -41,-45 -45,-55 -25,-55 12,0 87,82 87,94 0,17 -30,-1 -62,-39 z"
         id="path3079" />
      <path
         inkscape:connector-curvature="0"
         d="m 6495,2550 c 3,-5 8,-10 11,-10 2,0 4,5 4,10 0,6 -5,10 -11,10 -5,0 -7,-4 -4,-10 z"
         id="path3081" />
      <path
         inkscape:connector-curvature="0"
         d="m 6490,2276 c 0,-196 2,-226 15,-226 13,0 15,29 13,222 -2,166 -6,222 -15,226 -10,3 -13,-46 -13,-222 z"
         id="path3083" />
      <path
         inkscape:connector-curvature="0"
         d="m 4541,2439 c -26,-30 -40,-54 -35,-59 6,-6 26,9 50,38 51,60 58,72 42,72 -7,-1 -33,-23 -57,-51 z"
         id="path3085" />
      <path
         inkscape:connector-curvature="0"
         d="m 4427,2312 c -36,-36 -47,-62 -28,-62 11,0 81,80 81,92 0,16 -17,7 -53,-30 z"
         id="path3087" />
      <path
         inkscape:connector-curvature="0"
         d="m 4322,2191 c -34,-42 -38,-51 -22,-51 11,0 79,71 80,83 0,20 -30,3 -58,-32 z"
         id="path3089" />
      <path
         inkscape:connector-curvature="0"
         d="m 4255,2168 c -9,-22 -2,-68 10,-71 14,-3 19,63 6,76 -7,7 -12,5 -16,-5 z"
         id="path3091" />
      <path
         inkscape:connector-curvature="0"
         d="m 3193,2149 c -4,-13 -8,-16 -13,-10 -5,8 -15,7 -36,-4 -16,-8 -35,-15 -41,-15 -7,0 -13,-6 -13,-12 0,-9 -2,-10 -8,-2 -9,15 -51,12 -61,-4 -7,-11 -10,-10 -15,3 -5,14 -9,15 -20,6 -11,-9 -15,-9 -19,1 -4,10 -7,10 -15,-1 -7,-9 -12,-10 -16,-2 -4,6 -18,11 -32,11 -20,0 -24,-5 -24,-32 0,-22 -12,-46 -40,-79 -43,-52 -47,-59 -27,-59 11,0 65,57 88,93 4,5 11,7 17,3 6,-3 15,2 21,11 7,12 10,13 11,4 0,-7 6,-11 14,-8 7,3 18,1 24,-5 8,-8 14,-5 20,12 l 9,24 6,-25 c 5,-18 9,-21 18,-12 6,6 18,9 25,6 9,-3 14,3 15,18 1,17 3,19 6,7 5,-19 33,-25 33,-8 0,5 7,7 15,4 11,-5 15,1 16,22 1,24 2,25 6,7 7,-38 29,-26 24,12 -1,6 5,2 12,-7 21,-27 27,-22 27,22 0,42 -18,55 -27,19 z"
         id="path3093" />
      <path
         inkscape:connector-curvature="0"
         d="m 3237,2163 c -4,-3 -7,-19 -7,-34 0,-21 6,-28 28,-32 32,-6 29,-9 34,28 2,24 -1,30 -14,29 -10,-1 -18,2 -18,7 0,11 -14,12 -23,2 z"
         id="path3095" />
      <path
         inkscape:connector-curvature="0"
         d="m 3318,2148 c -6,-17 3,-58 12,-58 13,0 21,35 14,54 -7,19 -21,21 -26,4 z"
         id="path3097" />
      <path
         inkscape:connector-curvature="0"
         d="m 3362,2128 c 2,-18 8,-33 13,-33 6,0 11,15 13,33 3,24 -1,32 -13,32 -12,0 -16,-8 -13,-32 z"
         id="path3099" />
      <path
         inkscape:connector-curvature="0"
         d="m 3400,2125 c 0,-25 4,-35 13,-32 6,2 12,16 12,32 0,16 -6,30 -12,33 -9,2 -13,-8 -13,-33 z"
         id="path3101" />
      <path
         inkscape:connector-curvature="0"
         d="m 3442,2128 c 4,-46 28,-49 28,-4 0,26 -4,36 -16,36 -11,0 -14,-8 -12,-32 z"
         id="path3103" />
      <path
         inkscape:connector-curvature="0"
         d="m 3484,2135 c -7,-30 2,-59 16,-50 13,8 13,62 0,70 -5,3 -12,-6 -16,-20 z"
         id="path3105" />
      <path
         inkscape:connector-curvature="0"
         d="m 3524,2135 c -8,-21 4,-67 16,-60 13,8 13,75 0,75 -6,0 -13,-7 -16,-15 z"
         id="path3107" />
      <path
         inkscape:connector-curvature="0"
         d="m 3920,2110 c 0,-41 13,-53 24,-23 6,14 9,15 15,4 11,-17 31,-6 31,18 0,26 -21,43 -37,30 -9,-8 -13,-8 -13,0 0,6 -4,11 -10,11 -5,0 -10,-18 -10,-40 z"
         id="path3109" />
      <path
         inkscape:connector-curvature="0"
         d="m 4006,2143 c -13,-13 -6,-63 9,-63 10,0 15,10 15,29 0,30 -12,46 -24,34 z"
         id="path3111" />
      <path
         inkscape:connector-curvature="0"
         d="m 4216,2142 c -4,-4 -26,-7 -49,-7 -40,0 -42,-2 -42,-29 0,-39 25,-48 26,-9 0,23 2,25 8,8 5,-13 19,-20 44,-22 35,-2 37,0 37,27 0,30 -12,45 -24,32 z"
         id="path3113" />
      <path
         inkscape:connector-curvature="0"
         d="m 3795,2132 c -6,-7 -11,-8 -52,-10 -18,-2 -23,-8 -23,-31 0,-32 17,-51 25,-28 6,14 39,16 51,4 14,-13 24,-7 25,16 0,22 0,22 10,-2 12,-32 32,-14 27,24 -2,22 -9,29 -30,31 -14,1 -29,-1 -33,-4 z"
         id="path3115" />
      <path
         inkscape:connector-curvature="0"
         d="m 3874,2126 c -8,-21 -1,-49 14,-54 8,-2 12,8 12,32 0,36 -16,49 -26,22 z"
         id="path3117" />
      <path
         inkscape:connector-curvature="0"
         d="m 4040,2110 c 0,-32 29,-44 31,-12 0,13 3,11 10,-6 12,-30 29,-19 29,19 0,30 -23,41 -33,17 -4,-10 -6,-10 -6,0 -1,6 -8,12 -16,12 -10,0 -15,-10 -15,-30 z"
         id="path3119" />
      <path
         inkscape:connector-curvature="0"
         d="m 3562,2098 c 2,-18 8,-32 13,-31 6,1 15,-3 21,-8 15,-13 24,-1 24,34 0,22 -4,28 -15,23 -8,-3 -15,-1 -15,4 0,6 -7,10 -16,10 -11,0 -14,-8 -12,-32 z"
         id="path3121" />
      <path
         inkscape:connector-curvature="0"
         d="m 3640,2086 c 0,-19 5,-38 10,-41 6,-3 10,-1 10,5 0,7 8,9 19,5 14,-4 21,0 26,14 8,26 -2,44 -21,37 -7,-3 -16,-1 -19,4 -13,21 -25,8 -25,-24 z"
         id="path3123" />
      <path
         inkscape:connector-curvature="0"
         d="m 6492,2004 c 4,-21 22,-23 26,-1 2,10 -3,17 -13,17 -10,0 -15,-6 -13,-16 z"
         id="path3125" />
      <path
         inkscape:connector-curvature="0"
         d="m 6497,1953 c -10,-17 -2,-458 8,-458 6,0 11,86 13,233 2,209 -2,257 -21,225 z"
         id="path3127" />
      <path
         inkscape:connector-curvature="0"
         d="m 2704,1855 c -37,-43 -54,-69 -47,-76 10,-10 123,110 123,130 0,23 -21,8 -76,-54 z"
         id="path3129" />
      <path
         inkscape:connector-curvature="0"
         d="m 2565,1700 c -41,-41 -56,-63 -49,-70 7,-7 27,8 63,50 71,81 61,96 -14,20 z"
         id="path3131" />
      <path
         inkscape:connector-curvature="0"
         d="m 2424,1543 c -26,-32 -71,-82 -98,-111 -28,-30 -57,-60 -63,-67 -7,-8 -13,-22 -13,-31 0,-14 10,-8 41,21 61,59 199,221 199,234 0,23 -19,9 -66,-46 z"
         id="path3133" />
      <path
         inkscape:connector-curvature="0"
         d="m 6492,1448 c 2,-13 8,-23 13,-23 6,0 11,10 13,23 2,15 -2,22 -13,22 -11,0 -15,-7 -13,-22 z"
         id="path3135" />
      <path
         inkscape:connector-curvature="0"
         d="m 6499,1373 c -1,-6 0,-344 1,-401 0,-7 5,-10 10,-7 6,4 10,85 10,211 0,129 -4,204 -10,204 -5,0 -10,-3 -11,-7 z"
         id="path3137" />
      <path
         inkscape:connector-curvature="0"
         d="m 2158,1246 c -55,-61 -69,-86 -49,-86 9,0 131,133 131,144 0,20 -32,-3 -82,-58 z"
         id="path3139" />
      <path
         inkscape:connector-curvature="0"
         d="m 2019,1087 c -67,-76 -75,-87 -56,-87 15,0 127,124 127,141 0,20 -17,7 -71,-54 z"
         id="path3141" />
      <path
         inkscape:connector-curvature="0"
         d="m 1881,933 c -50,-57 -59,-73 -42,-73 10,0 65,55 92,92 37,52 0,37 -50,-19 z"
         id="path3143" />
      <path
         inkscape:connector-curvature="0"
         d="m 6500,910 c 0,-11 5,-20 10,-20 6,0 10,9 10,20 0,11 -4,20 -10,20 -5,0 -10,-9 -10,-20 z"
         id="path3145" />
      <path
         inkscape:connector-curvature="0"
         d="m 6507,854 c -11,-11 -9,-412 3,-419 6,-3 10,70 12,195 3,195 0,239 -15,224 z"
         id="path3147" />
      <path
         inkscape:connector-curvature="0"
         d="m 1741,777 c -35,-39 -50,-62 -42,-65 12,-4 119,103 121,121 1,21 -31,-1 -79,-56 z"
         id="path3149" />
      <path
         inkscape:connector-curvature="0"
         d="m 1050,690 c 0,-22 5,-40 10,-40 6,0 10,9 10,19 0,11 4,23 10,26 5,3 9,-2 7,-12 -3,-27 17,-28 24,-1 l 6,23 4,-24 c 7,-43 29,-37 29,8 0,40 -11,53 -26,30 -4,-8 -9,-7 -15,2 -8,12 -11,11 -20,-1 -8,-11 -12,-12 -16,-2 -10,26 -23,10 -23,-28 z"
         id="path3151" />
      <path
         inkscape:connector-curvature="0"
         d="m 1167,723 c -4,-3 -7,-21 -7,-40 0,-38 26,-47 33,-10 4,22 4,22 6,0 1,-17 7,-21 29,-20 22,2 28,8 30,33 3,27 -1,32 -25,37 -16,3 -31,0 -35,-6 -6,-9 -8,-9 -8,1 0,13 -13,16 -23,5 z"
         id="path3153" />
      <path
         inkscape:connector-curvature="0"
         d="m 1387,723 c -4,-3 -7,-21 -7,-39 0,-30 3,-33 30,-32 28,1 30,4 30,40 0,37 -13,51 -23,26 -4,-10 -6,-10 -6,0 -1,13 -14,16 -24,5 z m 30,-45 c -3,-8 -6,-5 -6,6 -1,11 2,17 5,13 3,-3 4,-12 1,-19 z"
         id="path3155" />
      <path
         inkscape:connector-curvature="0"
         d="m 1495,718 c -9,-22 -2,-68 10,-71 14,-3 19,63 6,76 -7,7 -12,5 -16,-5 z"
         id="path3157" />
      <path
         inkscape:connector-curvature="0"
         d="m 1270,680 c 0,-29 4,-40 13,-37 6,2 12,19 12,37 0,18 -6,35 -12,38 -9,2 -13,-9 -13,-38 z"
         id="path3159" />
      <path
         inkscape:connector-curvature="0"
         d="m 1310,683 c 0,-35 15,-45 23,-15 4,16 5,16 6,0 0,-10 8,-18 16,-18 10,0 15,10 15,34 0,32 -2,35 -30,34 -27,-1 -30,-4 -30,-35 z"
         id="path3161" />
      <path
         inkscape:connector-curvature="0"
         d="m 1455,709 c -9,-14 3,-59 15,-59 6,0 10,16 10,35 0,34 -12,46 -25,24 z"
         id="path3163" />
      <path
         inkscape:connector-curvature="0"
         d="m 1540,683 c 0,-30 20,-50 20,-20 0,6 5,4 11,-6 15,-25 29,-12 29,27 0,30 -3,33 -30,33 -27,0 -30,-3 -30,-34 z"
         id="path3165" />
      <path
         inkscape:connector-curvature="0"
         d="m 1612,684 c 2,-22 8,-38 13,-36 15,3 12,65 -3,70 -10,3 -13,-6 -10,-34 z"
         id="path3167" />
      <path
         inkscape:connector-curvature="0"
         d="m 1657,714 c -4,-4 -7,-23 -7,-41 0,-42 23,-41 28,1 4,29 -9,52 -21,40 z"
         id="path3169" />
      <path
         inkscape:connector-curvature="0"
         d="m 1014,559 c -4,-7 1,-16 10,-21 11,-6 16,-23 16,-54 0,-57 23,-56 28,2 2,21 10,46 18,55 8,9 11,19 7,22 -11,11 -71,8 -79,-4 z"
         id="path3171" />
      <path
         inkscape:connector-curvature="0"
         d="m 1336,563 c -3,-3 -6,-35 -6,-70 0,-47 3,-64 13,-61 6,3 13,14 15,26 4,29 16,28 37,-4 11,-17 20,-23 27,-16 7,7 4,19 -8,37 -14,22 -15,31 -6,46 24,39 5,54 -30,22 -16,-14 -18,-15 -18,0 0,18 -14,30 -24,20 z"
         id="path3173" />
      <path
         inkscape:connector-curvature="0"
         d="m 2053,562 c -9,-6 -11,-72 -4,-124 3,-20 21,-5 21,17 0,14 4,25 10,25 5,0 17,-11 26,-25 22,-34 38,-32 31,5 -4,16 -2,32 3,35 12,8 13,52 1,59 -15,10 -77,15 -88,8 z m 65,-39 c 2,-8 -6,-13 -22,-13 -25,0 -33,10 -19,24 10,10 36,3 41,-11 z"
         id="path3175" />
      <path
         inkscape:connector-curvature="0"
         d="m 2397,564 c -10,-11 -8,-93 3,-114 14,-27 58,-35 81,-14 25,22 28,124 4,124 -11,0 -15,-12 -15,-51 0,-47 -2,-50 -22,-47 -19,2 -23,10 -26,48 -3,46 -13,66 -25,54 z"
         id="path3177" />
      <path
         inkscape:connector-curvature="0"
         d="m 2539,559 c -13,-8 -7,-118 6,-122 6,-1 11,8 13,21 4,29 18,28 38,-3 21,-31 35,-23 27,15 -3,19 -1,30 6,30 20,0 12,39 -12,54 -22,15 -59,17 -78,5 z m 69,-36 c 2,-8 -6,-13 -22,-13 -25,0 -33,10 -19,24 10,10 36,3 41,-11 z"
         id="path3179" />
      <path
         inkscape:connector-curvature="0"
         d="m 702,498 c 3,-66 19,-84 28,-33 6,30 6,30 18,8 16,-29 37,-29 56,-2 14,21 14,21 18,-5 6,-52 23,-31 26,33 3,71 -8,78 -43,23 -11,-17 -23,-31 -27,-32 -3,0 -16,16 -28,35 -35,56 -52,47 -48,-27 z"
         id="path3181" />
      <path
         inkscape:connector-curvature="0"
         d="m 917,554 c -10,-11 -9,-122 2,-128 18,-12 32,24 29,75 -3,49 -15,69 -31,53 z"
         id="path3183" />
      <path
         inkscape:connector-curvature="0"
         d="m 1185,508 c -14,-29 -25,-59 -25,-65 0,-17 15,-16 30,2 7,8 20,15 30,15 10,0 23,-7 30,-15 16,-19 30,-19 30,0 0,23 -49,115 -61,115 -5,0 -21,-24 -34,-52 z m 45,-18 c 0,-5 -4,-10 -10,-10 -5,0 -10,5 -10,10 0,6 5,10 10,10 6,0 10,-4 10,-10 z"
         id="path3185" />
      <path
         inkscape:connector-curvature="0"
         d="m 1476,504 c -14,-31 -26,-60 -26,-65 0,-14 16,-11 30,6 16,20 49,19 72,-2 10,-9 21,-13 25,-10 9,10 -49,127 -63,127 -7,0 -24,-25 -38,-56 z m 49,-14 c 3,-5 -1,-10 -9,-10 -9,0 -16,5 -16,10 0,6 4,10 9,10 6,0 13,-4 16,-10 z"
         id="path3187" />
      <path
         inkscape:connector-curvature="0"
         d="m 1750,495 c 0,-51 3,-65 15,-65 10,0 15,10 15,33 l 1,32 29,-34 c 15,-18 33,-30 39,-27 6,4 11,34 11,67 0,45 -3,59 -14,59 -10,0 -16,-13 -18,-37 l -3,-38 -23,38 c -36,58 -52,49 -52,-28 z"
         id="path3189" />
      <path
         inkscape:connector-curvature="0"
         d="m 1900,540 c -29,-29 -26,-74 6,-99 15,-12 34,-21 44,-21 10,0 29,9 44,21 50,40 21,119 -44,119 -17,0 -39,-9 -50,-20 z m 78,-22 c 32,-32 -18,-87 -53,-58 -28,23 -12,70 25,70 9,0 21,-5 28,-12 z"
         id="path3191" />
      <path
         inkscape:connector-curvature="0"
         d="m 2198,505 c -3,-63 4,-87 22,-69 14,14 9,116 -7,121 -7,3 -12,-15 -15,-52 z"
         id="path3193" />
      <path
         inkscape:connector-curvature="0"
         d="m 2263,506 c 0,-30 3,-59 7,-66 11,-18 30,-3 30,23 0,21 2,20 23,-7 35,-43 54,-25 25,22 -15,24 -18,37 -10,40 14,4 17,42 3,42 -5,0 -14,-7 -22,-16 -11,-14 -13,-14 -21,0 -19,35 -35,17 -35,-38 z"
         id="path3195" />
      <path
         inkscape:connector-curvature="0"
         d="m 2686,538 c -21,-34 -41,-97 -33,-104 4,-4 15,0 25,9 23,21 51,22 58,2 8,-20 34,-19 34,0 0,22 -48,115 -60,115 -5,0 -16,-10 -24,-22 z m 28,-43 c 3,-8 1,-15 -4,-15 -6,0 -10,7 -10,15 0,8 2,15 4,15 2,0 6,-7 10,-15 z"
         id="path3197" />
      <path
         inkscape:connector-curvature="0"
         d="m 3087,504 c -3,-31 -3,-62 0,-70 9,-24 28,-10 31,24 l 3,32 25,-28 c 26,-29 27,-28 60,25 10,15 12,13 10,-16 0,-19 4,-36 12,-38 9,-3 12,13 12,61 0,36 -3,66 -7,66 -5,0 -22,-16 -39,-37 l -30,-36 -23,36 c -32,53 -47,47 -54,-19 z"
         id="path3199" />
      <path
         inkscape:connector-curvature="0"
         d="m 3297,553 c -2,-5 -3,-28 -1,-53 2,-25 3,-51 3,-57 1,-7 8,-13 16,-13 12,0 15,14 15,65 0,50 -3,65 -14,65 -8,0 -17,-3 -19,-7 z"
         id="path3201" />
      <path
         inkscape:connector-curvature="0"
         d="m 3390,550 c 0,-5 6,-13 14,-17 7,-4 16,-27 19,-51 6,-49 11,-57 27,-47 8,5 10,22 7,46 -4,32 -1,41 14,50 11,5 17,14 14,20 -8,12 -95,12 -95,-1 z"
         id="path3203" />
      <path
         inkscape:connector-curvature="0"
         d="m 3586,504 c -30,-65 -31,-74 -11,-74 8,0 15,4 15,9 0,5 13,11 29,13 20,3 32,-1 41,-15 8,-13 15,-16 22,-9 12,12 -40,132 -58,132 -7,0 -24,-25 -38,-56 z m 49,-14 c 3,-5 -1,-10 -9,-10 -9,0 -16,5 -16,10 0,6 4,10 9,10 6,0 13,-4 16,-10 z"
         id="path3205" />
      <path
         inkscape:connector-curvature="0"
         d="m 3744,546 c -10,-25 1,-119 14,-124 7,-2 12,6 12,22 0,35 15,40 34,11 14,-22 46,-35 46,-19 0,10 -23,49 -34,56 -7,4 -4,13 7,26 9,10 17,24 17,30 0,17 -27,15 -34,-3 -3,-8 -12,-15 -21,-15 -8,0 -15,7 -15,15 0,19 -19,20 -26,1 z"
         id="path3207" />
      <path
         inkscape:connector-curvature="0"
         d="m 3976,553 c -11,-11 -46,-94 -46,-109 0,-16 16,-19 25,-4 3,6 19,10 36,10 16,0 29,-4 29,-10 0,-5 7,-10 15,-10 21,0 19,11 -12,75 -27,55 -33,61 -47,48 z m 24,-63 c 0,-5 -4,-10 -10,-10 -5,0 -10,5 -10,10 0,6 5,10 10,10 6,0 10,-4 10,-10 z"
         id="path3209" />
      <path
         inkscape:connector-curvature="0"
         d="m 4362,493 c 3,-70 19,-88 28,-33 l 5,31 25,-31 c 40,-49 56,-38 59,41 1,22 -5,41 -14,49 -16,14 -19,7 -15,-37 2,-32 -11,-28 -40,12 -39,54 -51,46 -48,-32 z"
         id="path3211" />
      <path
         inkscape:connector-curvature="0"
         d="m 4515,535 c -14,-13 -25,-33 -25,-45 0,-31 44,-70 79,-70 34,0 71,39 71,75 0,29 -40,65 -74,65 -15,0 -37,-10 -51,-25 z m 87,-30 c 15,-34 -8,-61 -45,-51 -32,8 -42,34 -21,57 24,26 52,24 66,-6 z"
         id="path3213" />
      <path
         inkscape:connector-curvature="0"
         d="m 4667,553 c -4,-3 -7,-33 -7,-65 0,-43 3,-59 13,-56 6,3 13,14 15,26 4,29 20,28 34,-3 6,-14 15,-25 19,-25 15,0 21,21 10,34 -8,10 -7,17 4,26 18,15 19,42 3,58 -13,13 -80,17 -91,5 z m 68,-38 c 0,-5 -10,-11 -22,-13 -16,-2 -23,2 -23,13 0,11 7,15 23,13 12,-2 22,-7 22,-13 z"
         id="path3215" />
      <path
         inkscape:connector-curvature="0"
         d="m 4806,538 c -11,-48 -2,-103 17,-106 16,-3 18,3 15,59 -3,63 -23,92 -32,47 z"
         id="path3217" />
      <path
         inkscape:connector-curvature="0"
         d="m 4880,495 c 0,-51 3,-65 15,-65 9,0 15,9 15,25 0,32 9,32 35,-2 31,-38 52,-21 24,19 -19,26 -20,33 -9,54 19,34 5,42 -25,14 l -25,-23 0,21 c 0,13 -6,22 -15,22 -12,0 -15,-14 -15,-65 z"
         id="path3219" />
      <path
         inkscape:connector-curvature="0"
         d="m 5019,548 c -4,-55 4,-95 23,-111 23,-19 55,-15 74,9 15,18 17,101 3,110 -15,9 -17,4 -23,-45 -10,-81 -46,-82 -46,0 0,37 -4,49 -15,49 -8,0 -15,-6 -16,-12 z"
         id="path3221" />
      <path
         inkscape:connector-curvature="0"
         d="m 5148,523 c -3,-80 -1,-93 12,-93 6,0 10,9 10,19 0,32 19,35 41,7 22,-28 46,-26 30,2 -6,10 -4,24 6,39 14,21 14,25 -2,43 -12,13 -31,20 -57,20 -37,0 -38,-1 -40,-37 z m 72,-2 c 0,-12 -29,-23 -41,-15 -5,3 -7,10 -4,15 8,12 45,12 45,0 z"
         id="path3223" />
      <path
         inkscape:connector-curvature="0"
         d="m 5306,538 c -27,-43 -50,-98 -42,-105 4,-4 16,-2 26,5 28,17 67,15 74,-5 5,-12 10,-13 17,-6 8,8 4,27 -15,67 -32,67 -41,73 -60,44 z m 29,-48 c 3,-5 -1,-10 -10,-10 -9,0 -13,5 -10,10 3,6 8,10 10,10 2,0 7,-4 10,-10 z"
         id="path3225" />
      <path
         inkscape:connector-curvature="0"
         d="m 5559,550 c -1,-5 -1,-17 -1,-25 0,-74 3,-96 15,-93 6,3 13,17 15,32 4,28 4,28 18,7 19,-27 40,-27 56,2 12,22 12,22 18,-8 9,-51 25,-33 28,33 2,34 -1,62 -5,62 -4,0 -22,-17 -39,-37 l -32,-38 -22,38 c -21,35 -48,50 -51,27 z"
         id="path3227" />
      <path
         inkscape:connector-curvature="0"
         d="m 5777,553 c -4,-3 -7,-33 -7,-65 0,-45 3,-58 15,-58 12,0 15,14 15,65 0,60 -6,75 -23,58 z"
         id="path3229" />
      <path
         inkscape:connector-curvature="0"
         d="m 5840,546 c 0,-8 6,-16 14,-19 9,-4 16,-23 18,-49 4,-57 22,-55 26,2 2,26 9,48 18,53 24,13 5,27 -37,27 -27,0 -39,-4 -39,-14 z"
         id="path3231" />
      <path
         inkscape:connector-curvature="0"
         d="m 6005,508 c -29,-61 -31,-78 -10,-78 8,0 15,5 15,10 0,14 46,13 70,-2 10,-7 22,-9 25,-6 9,8 -53,128 -66,128 -5,0 -21,-24 -34,-52 z m 45,-18 c 0,-5 -5,-10 -11,-10 -5,0 -7,5 -4,10 3,6 8,10 11,10 2,0 4,-4 4,-10 z"
         id="path3233" />
      <path
         inkscape:connector-curvature="0"
         d="m 6140,496 c 0,-73 15,-94 32,-46 l 11,32 22,-28 c 31,-38 53,-23 24,17 -19,28 -20,31 -5,54 19,29 3,44 -23,21 -22,-20 -31,-20 -31,-1 0,8 -7,15 -15,15 -12,0 -15,-14 -15,-64 z"
         id="path3235" />
      <path
         inkscape:connector-curvature="0"
         d="m 6334,548 c -37,-59 -54,-102 -45,-111 7,-7 16,-5 29,6 18,16 62,13 62,-4 0,-5 7,-9 15,-9 21,0 19,13 -10,70 -28,55 -40,66 -51,48 z m 21,-58 c 3,-5 1,-10 -4,-10 -6,0 -11,5 -11,10 0,6 2,10 4,10 3,0 8,-4 11,-10 z"
         id="path3237" />
      <path
         inkscape:connector-curvature="0"
         d="m 6500,390 c 0,-11 5,-20 10,-20 6,0 10,9 10,20 0,11 -4,20 -10,20 -5,0 -10,-9 -10,-20 z"
         id="path3239" />
      <path
         inkscape:connector-curvature="0"
         d="m 158,3239 c -30,-17 -21,-30 17,-23 38,7 45,-1 18,-22 -17,-13 -17,-14 5,-20 36,-10 28,-36 -10,-32 -24,2 -33,-1 -33,-12 0,-24 51,-24 74,-1 16,16 19,28 14,58 -3,21 -10,44 -16,51 -11,14 -45,15 -69,1 z"
         id="path3241" />
      <path
         inkscape:connector-curvature="0"
         d="m 270,3231 c -26,-50 -1,-121 44,-121 25,0 66,46 66,75 0,54 -86,90 -110,46 z m 76,-37 c 9,-35 -2,-54 -30,-54 -36,0 -49,46 -21,74 20,20 44,10 51,-20 z"
         id="path3243" />
      <path
         inkscape:connector-curvature="0"
         d="m 416,3228 c -22,-31 -20,-74 4,-98 41,-41 100,-12 100,49 0,65 -70,98 -104,49 z m 77,-30 c 9,-31 -10,-60 -36,-56 -22,3 -34,35 -23,64 9,23 53,17 59,-8 z"
         id="path3245" />
      <path
         inkscape:connector-curvature="0"
         d="m 142,2408 c -17,-17 -15,-38 3,-38 8,0 15,5 15,10 0,6 9,10 20,10 11,0 20,-7 20,-15 0,-8 -5,-15 -10,-15 -14,0 -60,-46 -60,-60 0,-5 22,-10 51,-10 54,0 65,19 18,30 l -24,6 22,8 c 27,9 40,50 23,71 -15,18 -61,20 -78,3 z"
         id="path3247" />
      <path
         inkscape:connector-curvature="0"
         d="m 256,2398 c -34,-49 -7,-108 49,-108 58,0 83,69 43,117 -18,22 -75,16 -92,-9 z m 72,-10 c 30,-30 -2,-93 -36,-71 -21,13 -27,50 -12,69 15,17 32,18 48,2 z"
         id="path3249" />
      <path
         inkscape:connector-curvature="0"
         d="m 397,2402 c -22,-25 -21,-75 1,-95 10,-10 33,-17 50,-17 42,0 68,44 51,87 -5,15 -16,31 -22,35 -22,14 -64,8 -80,-10 z m 67,-17 c 16,-16 14,-51 -4,-69 -27,-27 -65,39 -40,70 16,18 25,18 44,-1 z"
         id="path3251" />
      <path
         inkscape:connector-curvature="0"
         d="m 251,1564 c -27,-35 -27,-65 2,-92 30,-28 61,-28 87,0 26,28 26,72 0,98 -28,28 -64,25 -89,-6 z m 74,-44 c 0,-38 -24,-52 -50,-30 -31,25 -9,73 30,68 16,-2 20,-11 20,-38 z"
         id="path3253" />
      <path
         inkscape:connector-curvature="0"
         d="m 407,1577 c -10,-6 -20,-28 -23,-48 -12,-70 63,-106 105,-53 12,15 21,34 21,44 0,27 -39,70 -64,70 -12,0 -30,-6 -39,-13 z m 69,-32 c 10,-25 -5,-65 -24,-65 -22,0 -42,19 -42,40 0,35 55,56 66,25 z"
         id="path3255" />
      <path
         inkscape:connector-curvature="0"
         d="m 157,1566 c -3,-8 0,-19 7,-25 8,-6 12,-24 11,-40 -3,-40 10,-60 23,-35 8,16 9,55 3,107 -2,13 -39,7 -44,-7 z"
         id="path3257" />
      <path
         inkscape:connector-curvature="0"
         d="m 373,734 c -20,-20 -24,-31 -19,-57 6,-33 38,-67 63,-67 22,0 63,47 63,73 0,32 -36,77 -61,77 -11,0 -31,-12 -46,-26 z m 65,-16 c 18,-18 14,-56 -7,-68 -15,-7 -23,-6 -35,6 -20,20 -20,33 1,56 19,21 25,22 41,6 z"
         id="path3259" />
      <path
         inkscape:connector-curvature="0"
         d="m 1212,214 c -13,-9 -27,-26 -32,-38 -8,-18 -9,-17 -9,12 -1,33 -17,42 -39,20 -16,-16 -15,-28 2,-28 9,0 13,-13 12,-42 -1,-32 3,-43 14,-43 9,0 14,7 12,19 -3,17 0,16 27,-7 49,-41 101,-16 101,47 0,37 -7,49 -37,65 -27,14 -24,14 -51,-5 z m 58,-34 c 20,-38 -8,-78 -45,-64 -15,6 -21,64 -8,77 13,14 43,6 53,-13 z"
         id="path3261" />
      <path
         inkscape:connector-curvature="0"
         d="m 2442,214 c -23,-16 -30,-44 -11,-44 7,0 18,8 25,18 11,14 15,15 26,3 11,-11 10,-15 -6,-25 -32,-19 -56,-45 -56,-61 0,-11 12,-15 44,-15 25,0 47,4 50,9 7,11 -22,23 -35,15 -18,-11 -8,8 13,26 22,18 23,18 33,-13 11,-35 46,-50 83,-34 43,19 43,88 0,120 -24,18 -28,18 -58,3 -29,-14 -35,-14 -53,-1 -26,19 -28,19 -55,-1 z m 152,-20 c 19,-7 22,-70 4,-77 -21,-7 -58,11 -58,28 0,21 18,55 30,55 4,0 15,-3 24,-6 z"
         id="path3263" />
      <path
         inkscape:connector-curvature="0"
         d="m 3731,221 c -14,-4 -27,-13 -29,-20 -4,-11 3,-13 27,-8 33,7 42,-6 14,-21 -14,-8 -13,-12 11,-24 25,-13 26,-16 11,-28 -13,-11 -21,-11 -35,-2 -12,7 -21,8 -25,2 -18,-29 45,-42 80,-16 17,12 21,12 30,-1 17,-23 66,-19 87,7 30,37 19,88 -23,110 -15,8 -27,7 -50,-4 -26,-13 -34,-13 -52,-2 -13,8 -32,10 -46,7 z m 147,-33 c 18,-18 14,-56 -7,-67 -34,-19 -67,39 -39,67 7,7 17,12 23,12 6,0 16,-5 23,-12 z"
         id="path3265" />
      <path
         inkscape:connector-curvature="0"
         d="m 5110,210 c -26,-26 -26,-81 -2,-103 23,-21 66,-22 86,-1 37,37 6,124 -44,124 -11,0 -29,-9 -40,-20 z m 72,-35 c 10,-22 9,-29 -8,-46 -20,-20 -21,-20 -44,-1 -22,17 -23,23 -12,46 15,34 49,34 64,1 z"
         id="path3267" />
      <path
         inkscape:connector-curvature="0"
         d="m 6359,209 c -16,-16 -18,-24 -9,-32 8,-9 15,-7 25,7 8,11 21,16 30,13 22,-9 18,-20 -18,-42 -18,-11 -33,-30 -35,-43 -3,-20 1,-22 42,-22 34,0 46,4 46,15 0,10 -10,15 -27,15 l -28,0 24,19 c 25,19 25,19 39,-7 16,-32 30,-42 60,-42 56,0 82,78 39,118 -27,26 -45,27 -74,7 -19,-13 -24,-13 -50,0 -36,19 -39,19 -64,-6 z m 177,-34 c 8,-33 -1,-55 -24,-55 -28,0 -45,25 -38,55 9,35 53,35 62,0 z"
         id="path3269" />
      <path
         inkscape:connector-curvature="0"
         d="m 5042,208 c -17,-17 -15,-28 4,-28 12,0 15,-9 12,-42 -2,-27 1,-43 10,-46 10,-3 12,11 10,59 -3,63 -13,80 -36,57 z"
         id="path3271" />
    </g>
  </g>
</svg>
